/* XPM */
static char * acroread_xpm[] = {
"32 32 188 2",
"  	c None",
". 	c #464646",
"+ 	c #E5E8E5",
"@ 	c #383838",
"# 	c #626262",
"$ 	c #F3F4F3",
"% 	c #FEFEFE",
"& 	c #EAEAEA",
"* 	c #000000",
"= 	c #757575",
"- 	c #E3E3E2",
"; 	c #706F71",
"> 	c #AC9E9D",
", 	c #F4E4E4",
"' 	c #FEEBE7",
") 	c #FAF8F7",
"! 	c #DBDBDB",
"~ 	c #828383",
"{ 	c #EBE5E4",
"] 	c #FFCEC8",
"^ 	c #FF7578",
"/ 	c #F7988A",
"( 	c #D5C5C1",
"_ 	c #F7908E",
": 	c #C25E5A",
"< 	c #C46F67",
"[ 	c #946C67",
"} 	c #C7CCCD",
"| 	c #FDEDEB",
"1 	c #E46961",
"2 	c #614C4E",
"3 	c #CA5251",
"4 	c #855C56",
"5 	c #B3B8B7",
"6 	c #D3D3D3",
"7 	c #C4C4C4",
"8 	c #B4B4B4",
"9 	c #333333",
"0 	c #F4FAF6",
"a 	c #EA7B7C",
"b 	c #B45051",
"c 	c #B04D4D",
"d 	c #815B58",
"e 	c #7C7B7C",
"f 	c #999898",
"g 	c #E3EBEA",
"h 	c #CCCCCB",
"i 	c #BBBBBB",
"j 	c #F2BCBA",
"k 	c #F54E4C",
"l 	c #B84545",
"m 	c #927B7A",
"n 	c #CFCFD0",
"o 	c #332F2C",
"p 	c #A5A9A9",
"q 	c #DFC9C8",
"r 	c #FF8F8F",
"s 	c #AF4747",
"t 	c #938687",
"u 	c #F3F8F8",
"v 	c #EAF1F0",
"w 	c #A2A3A3",
"x 	c #5D5D5D",
"y 	c #D6D9D9",
"z 	c #FF807E",
"A 	c #8F3231",
"B 	c #74494B",
"C 	c #D2BEBE",
"D 	c #ACACAD",
"E 	c #E07675",
"F 	c #974B4B",
"G 	c #B46B6D",
"H 	c #A14F52",
"I 	c #CDAEB4",
"J 	c #776260",
"K 	c #F3BEC0",
"L 	c #CA4E4E",
"M 	c #AD494F",
"N 	c #BC9998",
"O 	c #515151",
"P 	c #E0E0DF",
"Q 	c #292929",
"R 	c #FEC4C1",
"S 	c #9B8E8D",
"T 	c #E6CACD",
"U 	c #DA5D5D",
"V 	c #74130A",
"W 	c #A99391",
"X 	c #CCD1D1",
"Y 	c #CEBCB9",
"Z 	c #C8C8C6",
"` 	c #D8B9B4",
" .	c #CEE0E4",
"..	c #D9D6D5",
"+.	c #6B6B6B",
"@.	c #F3EEEB",
"#.	c #E68D85",
"$.	c #934947",
"%.	c #E8E1DE",
"&.	c #EFFCFC",
"*.	c #DFFEFE",
"=.	c #E13B38",
"-.	c #B42A26",
";.	c #843739",
">.	c #D7625F",
",.	c #F22D2C",
"'.	c #F54633",
").	c #F77355",
"!.	c #E8A89D",
"~.	c #F1DEDD",
"{.	c #C14E4E",
"].	c #945555",
"^.	c #EEC0BB",
"/.	c #F2A9A4",
"(.	c #EE544E",
"_.	c #EA3E3E",
":.	c #CB2D31",
"<.	c #A21113",
"[.	c #9C0B06",
"}.	c #69191B",
"|.	c #762221",
"1.	c #AB4536",
"2.	c #DE545A",
"3.	c #F96467",
"4.	c #D3656A",
"5.	c #A43433",
"6.	c #913C38",
"7.	c #A67875",
"8.	c #C18A83",
"9.	c #E46165",
"0.	c #C40912",
"a.	c #552725",
"b.	c #987B56",
"c.	c #EF8E6D",
"d.	c #DA9790",
"e.	c #FEBCB6",
"f.	c #FA7B7C",
"g.	c #B43937",
"h.	c #7A2927",
"i.	c #9B6766",
"j.	c #B7A6A7",
"k.	c #C9B7B9",
"l.	c #E15F67",
"m.	c #CE3437",
"n.	c #DC2227",
"o.	c #C43A32",
"p.	c #E84135",
"q.	c #D0D0CD",
"r.	c #CB9A9B",
"s.	c #FB8782",
"t.	c #BD5754",
"u.	c #601617",
"v.	c #AEB6B7",
"w.	c #615251",
"x.	c #D27C58",
"y.	c #262626",
"z.	c #D76D6F",
"A.	c #912727",
"B.	c #9A2A29",
"C.	c #520F08",
"D.	c #D6D9D3",
"E.	c #727B78",
"F.	c #A39E97",
"G.	c #CAC4C2",
"H.	c #F7E1D6",
"I.	c #E7514F",
"J.	c #9E514F",
"K.	c #AE3533",
"L.	c #89595B",
"M.	c #FBBAA6",
"N.	c #AF433E",
"O.	c #7A6C64",
"P.	c #A0130C",
"Q.	c #64554E",
"R.	c #DB7652",
"S.	c #901813",
"T.	c #DA9A7C",
"U.	c #BC4134",
"V.	c #959595",
"W.	c #8B8C8C",
"X.	c #A73C2F",
"Y.	c #990000",
"Z.	c #9A423F",
"`.	c #2A120B",
" +	c #DAAEAD",
".+	c #CFDADA",
"++	c #2C2824",
"@+	c #171717",
"                                        . .                     ",
"                                    . . + @                     ",
"                                # # $ % % & *                   ",
"                            # = - % % % % % @                   ",
"                        ; > , ' ) % % % % % ! *                 ",
"                    ~ ~ { ] ^ / ( & ) % % % % @                 ",
"                ~ ~ ! % ' _ : < [ } ! - { $ % - *               ",
"            ~ ~ ! % % % | 1 2 3 4 5 6 7 8 & $ ) 9               ",
"        ~ ~ ! % % % % % 0 a b c d $ % e f & ! g 6 *             ",
"    = = h % % % % % % ! i j k l m $ + 6 $ 6 ~ n & o             ",
"~ ~ h % % % % % % ) % $ p q r s t u v & - w x i y n *           ",
"= 7 % % % % % % + h & & v ! z A B C & & + 7 6 + ! & 9           ",
"  = % % % % % % 6 D = i u | E F G H I 0 + ! i w 8 - 7 *         ",
"  = 7 % % % % % % % ! ! $ ' 3 J K L M N v - w O D ! P Q         ",
"    ; % % % % % $ 7 $ % % R l S & T U V W X Y Z `  ...h *       ",
"    +.7 % % % % ) ~ i - @.#.$.%.&.*.r =.-.;.>.,.'.).!.! Q       ",
"      +.% % % % % + 6 u ~.{.].^./.(._.:.,.<.[.}.|.1.2.6 Z *     ",
"      +.7 % % % ) v u u j 3.4.3 :.5.6.7.8.9.0.}.a.b.c.d.6 Q     ",
"        +.% % % 6 p i e.f.g.h.i.t j.g } g k.l.m.n.o.p.< q.i *   ",
"        +.h % 0 % r.s.t.u.i.C Z - ! Z h 7 v.; w.x.>.N 8 h ! y.  ",
"          O ) ) ' z.A.B.C.k.- ! D.q.h h Z n p E.F.G.h h h n 8 * ",
"          O Z H.I.A.J.K.L.g P q.q.q.Z i w 8 6 } 7 n q.n 7 8 Q * ",
"            O M.N.O.t.P.w.g ! h n h Z i +.. 8 h h h h 8 Q *     ",
"            Q.R.S.T.U.a.+.Z 8 8 6 V.D h p W.p 6 h 8 Q *         ",
"              X.U.Y.Z.e E.P = f h V.+.} n 7 h 8 y.*             ",
"              `./  +.+X & q.e w 7 } ~ 7 h 8 ++*                 ",
"                * - P ! ! ! Z 6 W.8 h i ++*                     ",
"                * n ! ! ! 6 y 6 n i Q *                         ",
"                  @+! ! ! ! 6 7 Q *                             ",
"                  * h ! 6 7 Q *                                 ",
"                    Q 7 Q *                                     ",
"                    * *                                         "};
