/* XPM */
static char *magick[] = {
/* columns rows colors chars-per-pixel */
"34 34 143 2",
"   c #020202",
".  c #0c0c0c",
"X  c #151515",
"o  c #1c1c1c",
"O  c #242424",
"+  c #262a26",
"@  c #2a2a2a",
"#  c #2a322a",
"$  c #322e2e",
"%  c #343434",
"&  c #3e3232",
"*  c gray23",
"=  c #165a7a",
"-  c #225a76",
";  c gray27",
":  c #4a4a4a",
">  c #4e564e",
",  c #555555",
"<  c #585a58",
"1  c #60625e",
"2  c #646664",
"3  c #666e66",
"4  c #6c6c65",
"5  c #6a6c6a",
"6  c #6e726e",
"7  c #766e6e",
"8  c #7a6e6e",
"9  c #75756d",
"0  c #737473",
"q  c #7a7676",
"w  c #7c7c7c",
"e  c #065d82",
"r  c #0e6286",
"t  c #0a648c",
"y  c #0a6a93",
"u  c #0e6e98",
"i  c #0e739c",
"p  c #166a8e",
"a  c #1e7296",
"s  c #107ba4",
"d  c #22769a",
"f  c #2a7ea2",
"g  c #7e827e",
"h  c #1282ac",
"j  c #1686b0",
"k  c #168ab6",
"l  c #168eb8",
"z  c #1a92be",
"x  c #3686aa",
"c  c #1a96c2",
"v  c #1a9ac4",
"b  c #1e9ec8",
"n  c #428eae",
"m  c #4e96b6",
"M  c #569eba",
"N  c #5ea6c2",
"B  c #66aac6",
"V  c #6aaeca",
"C  c #74b4ce",
"Z  c #7cbcd4",
"A  c #7ec2d8",
"S  c #827b72",
"D  c #828276",
"F  c #86867e",
"G  c #858583",
"H  c #8e8484",
"J  c #8c8c8b",
"K  c #8e9296",
"L  c #9e968a",
"P  c #969695",
"I  c #9a9a96",
"U  c #9c9c9c",
"Y  c #92ba8e",
"T  c #92b692",
"R  c #a6a292",
"E  c #aaaa9a",
"W  c #a3a3a2",
"Q  c #a6aea6",
"!  c #aeaea4",
"~  c #aeaeae",
"^  c #b2b2a6",
"/  c #b6b6ad",
"(  c #b5b5b4",
")  c #babab5",
"_  c #bababa",
"`  c #9eca9a",
"'  c #a2caa2",
"]  c #aac2aa",
"[  c #aad2aa",
"{  c #b2c2a2",
"}  c #b6cab6",
"|  c #bac2ba",
" . c #beccbe",
".. c #bed6be",
"X. c #bedcbe",
"o. c #bee2b2",
"O. c #bcecbc",
"+. c #bcf4bc",
"@. c #befabe",
"#. c #c2aa9e",
"$. c #c2a2a2",
"%. c #c6aeae",
"&. c #cebebe",
"*. c #d2a2a2",
"=. c #d6aeae",
"-. c #dabdbd",
";. c #eabcb6",
":. c #ecbebe",
">. c #f2bab6",
",. c #f6bebe",
"<. c #ceceaa",
"1. c #c2c2b2",
"2. c #d2d2b6",
"3. c #ddddbd",
"4. c #cae6b6",
"5. c #c2faba",
"6. c #caf2be",
"7. c #d6e6be",
"8. c #dae2be",
"9. c #e6d3be",
"0. c #f2cabe",
"q. c #fac2ba",
"w. c #c2c2c2",
"e. c #c2cac2",
"r. c gray80",
"t. c #c2d2c2",
"y. c #d2d2c6",
"u. c #dadac2",
"i. c #d4d4d4",
"p. c #dcdcdc",
"a. c #eeeece",
"s. c #eaead6",
"d. c #eeeede",
"f. c #f6f6ce",
"g. c #fdfdde",
"h. c #e3e3e3",
"j. c #ededed",
"k. c #fefee4",
"l. c #fdfdec",
"z. c #f5f5f5",
"x. c #fefef3",
"c. c #fefefe",
"v. c None",
/* pixels */
"v.v.v.v.v.v.v.v.v.v.v.v.v.v.v.v.v.v.v.v.v.v.v.v.v.v.v.v.v.v.v.v.v.v.",
"v.e e e e e e e e e e e e e e e e e e e e e e e e e e e e e e e e v.",
"v.e c.j.j.G A Z Z Z C V V B N M m n x f f a p e c.j.j.G c.j.j.G e v.",
"v.e j.w.w.G b b c c l l j h s s s i u y t t e e j.w.w.G j.w.w.G e v.",
"v.e j.w.w.G v v c z k k j h s i i i u y t t e e j.w.w.G j.w.) G e v.",
"v.e G G G G e e e e e e e e e e e e e e e e e e G G G G G G G K - v.",
"v.e w.w.w.w.w.w.w.w.w.w.w.w.w.w.w.w.w.w.w.w.w.| w.w.w.w.w.w.w.w.e v.",
"v.= G G G G G G G G G G G G G G G G G G G G G G G G G G G G G G , v.",
"v., ( c.c.c.c.c.c.c.c.c.c.c.c.c.c.x.x.x.x.l.l.l.l.l.l.l.k.E G i., v.",
"v., ( c.w.w.w.w._ w.c.c.c.c.x.c.x.x.x.x.x.x.l.l.l.l.l.k.k.E G i., v.",
"v., _ c.w.c.w.c.w.w.c.x.c.x.c.x.x.x.x.) ^ ^ ! ^ ) g.k.k.g.E G i., v.",
"v., ( c.w.w.w w.w w.x.c.x.x.x.x.x.G F J J J J H F 9 S g.g.E G i., v.",
"v., _ c.w.c.w.c.r.w.c.x.x.x.l.y.J w.e.i.r.w.w.&.-.=.*.S 1.E G i., v.",
"v., ( c.w.r.w r.w w.x.x.x.x.W w r.p.p.i.i.w.r.-.-.>.>.#.4 4 G i., v.",
"v., ( c.w.c.w.c.r.w.x.x.x.! J h.z.j.p.i.i.r.e.-.:.,.0.9. .2 2 r., v.",
"v., ) c.w.r.w i.w w.z.x.d.I i.x.c.j.h.p.i.r.w.-.:.q.9.7.6.` > ( , v.",
"v., ) c.w.w.w.w.w.w.l.l.J _ h.j.z.z.j.h.i.r.r.-.:.0.8.6.@.O.T : , v.",
"v., ( x.c.x.x.x.x.l.x.l.4 i.h.h.j.z.z.p.~ q q $.;.u.6.5.O.O.} + * v.",
"v., ) x.x.x.x.l.x.l.l.! U i.p.p.h.h.h.W ; . . & L 4.+.o.X... .5 X v.",
"v., / x.x.x.l.l.l.l.k.w w.i.p.i.p.p._ : w / I . # ' X.t.e.w.w.U   v.",
"v., ) x.l.x.l.x.k.l.k.9 _ i.i.i.i.r.< O ) E 2.R . 1 | w.e.r.w.W   v.",
"v., / x.l.l.l.k.l.k.g.9 _ r.r.r.r.w.: $ y.<.f.l.o < w.r.r.e.r.W   v.",
"v., ) l.k.l.l.l.k.k.k.w ( w.r.r.w._ G   , u.s.U @ J r.p.i.i.i.W   v.",
"v., / k.l.l.g.k.k.g.g.9 ( w._ 0 Q  .] ,   ; , * q r.p.p.i.i.i.~   v.",
"v., ) k.l.k.g.l.k.g.g.a.1 | q i., [ +.^ S @ % G r.z.j.h.p.p.r.% @ v.",
"v., ! 3.3.3.3.3.3.3.3.3.< } 0 c.; Y 4.9.;.%.( r.h.z.z.j.h.p.r.+ % v.",
"v., , , , , < , , , , < , 6 6 c.> 3 R S 8 7 0 W w q g w ~ p.0 @ * v.",
"v.v.v.v.v.v.v.v.v.v.v.; i.z.z.x.w c.P i.c.c.c.2 i.c.c.i.: 0   v.v.v.",
"v.v.v.v.v.v.v.v.v.v.v.; z.q o c.w c.P c.W @ % * c.G X c., X v.v.v.v.",
"v.v.v.v.v.v.v.v.v.v.v.; z.q o c.w c.J J c.c.i.w c.w   : X v.v.v.v.v.",
"v.v.v.v.v.v.v.v.v.v.v.: z.G * c.w c.2 O O % c.J c.P * c., v.v.v.v.v.",
"v.v.v.v.v.v.v.v.v.v.v.: i.z.z.z.2 p.w c.c.c.i.7 i.c.c.i.; v.v.v.v.v.",
"v.v.v.v.v.v.v.v.v.v.v.v.        v.  X         v.        v.v.v.v.v.v.",
"v.v.v.v.v.v.v.v.v.v.v.v.v.v.v.v.v.v.v.v.v.v.v.v.v.v.v.v.v.v.v.v.v.v."
};
