/* XPM */
static char *magick[] = {
/* columns rows colors chars-per-pixel */
"32 32 106 2",
"   c #000000",
".  c #22160c",
"X  c #620e04",
"o  c #621a04",
"O  c #6a2614",
"+  c #762e1c",
"@  c #7a321c",
"#  c #4a423c",
"$  c #4e4644",
"%  c #820204",
"&  c #8a0a04",
"*  c #8e1204",
"=  c #931304",
"-  c #921a04",
";  c #9a1a04",
":  c #8a2e04",
">  c #843c1c",
",  c #9e2e04",
"<  c #a42604",
"1  c #aa2c04",
"2  c #b33304",
"3  c #b63e04",
"4  c #ba3a04",
"5  c #824a3c",
"6  c #964a2c",
"7  c #924e34",
"8  c #9a522c",
"9  c #ae4e04",
"0  c #b24604",
"q  c #be5404",
"w  c #b26634",
"e  c #925e4c",
"r  c #aa7254",
"t  c #fe0204",
"y  c #c24204",
"u  c #c64a04",
"i  c #ca4a04",
"p  c #c45c04",
"a  c #d25604",
"s  c #dc5c04",
"d  c #c2620c",
"f  c #ce660c",
"g  c #ce6614",
"h  c #ce6a14",
"j  c #d66604",
"k  c #dc6a04",
"l  c #d26e14",
"z  c #d26e1c",
"x  c #d2721c",
"c  c #c2723c",
"v  c #da7624",
"b  c #dc7a24",
"n  c #de7e2c",
"m  c #e46404",
"M  c #ec6c04",
"N  c #e27204",
"B  c #f27404",
"V  c #fb7c04",
"C  c #be936c",
"Z  c #be9674",
"A  c #be9a74",
"S  c #be9e7c",
"D  c #e2822c",
"F  c #e28634",
"G  c #c69e74",
"H  c #d6a474",
"J  c #e69244",
"K  c #ee964c",
"L  c #fda554",
"P  c #feaa5c",
"I  c #feae64",
"U  c #feb264",
"Y  c #feb66c",
"T  c #f6ba74",
"R  c #f6ba7c",
"E  c #fdb574",
"W  c #febb74",
"Q  c #fbbb7c",
"!  c #ecba84",
"~  c #f6be84",
"^  c #f2be8c",
"/  c #febe84",
"(  c #fcc384",
")  c #fec48c",
"_  c #fecb8c",
"`  c #f2c694",
"'  c #fec694",
"]  c #fecc94",
"[  c #fece9c",
"{  c #fed294",
"}  c #fad29c",
"|  c #fecea4",
" . c #f2d2ac",
".. c #fbd5a4",
"X. c #fed3ac",
"o. c #fedaa4",
"O. c #fed6b4",
"+. c #fedab4",
"@. c #fedcbc",
"#. c #f2e2cc",
"$. c #fee2c4",
"%. c #fbe3cc",
"&. c #feebd4",
"*. c #feeedc",
"=. c #fef6ec",
"-. c None",
/* pixels */
"-.-.-.-.-.-.-.-.-.-.-.-.-.-.-.-.-.-.-.-.-.-.-.-.-.-.-.-.-.-.-.-.",
"-.-.-.-.-.-.-.-.-.-.-.-.-.-.-.          -.-.-.-.-.-.-.-.-.-.-.-.",
"-.-.-.-.-.-.-.-.-.-.-.-.-.-.  L L L P L   -.-.-.-.-.-.-.-.-.-.-.",
"-.-.-.-.-.-.-.-.-.-.-.-.-.-.  P t t t L   -.-.-.-.-.-.-.-.-.-.-.",
"-.-.-.-.-.-.-.-.-.-.-.-.-.-.  L t t t P   -.-.-.-.-.-.-.-.-.-.-.",
"-.-.-.-.-.-.-.-.-.-.-.-.-.-.  L t t t L   -.-.-.-.-.-.-.-.-.-.-.",
"-.-.-.-.-.-.-.-.-.-.-.-.-.-.  I t t t P   -.-.-.-.-.-.-.-.-.-.-.",
"-.-.-.-.-.-.-.-.-.-.-.-.-.-.. L t t t L   -.-.-.-.-.-.-.-.-.-.-.",
"-.-.-.-.-.-.-.-.-.-.-.-.      P t t t P       -.-.-.-.-.-.-.-.-.",
"-.-.-.-.-.-.-.-.-.      L P P L t t t L P L P   -.-.-.-.-.-.-.-.",
"-.-.-.-.-.-.-.    [ |   % t t t t t t t t t %   -.-.-.-.-.-.-.-.",
"-.-.-.-.-.    ' ' ' %.%.  % t t t t t t t %   L     -.-.-.-.-.-.",
"-.-.-.    ) / / %.#.K J L   % t t t t t %   r P P I     -.-.-.-.",
"-.-.  P P P %.%.f l b F J L   % t t t %   c w r e E _  .#   -.-.",
"-.-.-.        q p d h b n J L   % t %   c w 8 > @ 5 =.  &.$   -.",
"-.-.-.-.-.  I O.X.p p h x n n L   %   c w 6 > + O =.=.&.  -.-.-.",
"-.-.-.-.  L L I W @.+.p g l n F P   c w > 7 + *.*.%.&.&.&.  -.-.",
"-.-.-.  L P P I E ( ' %.%.g x v z w w > @ @.@.| +.@.&.&.&.&.  -.",
"-.-.  P L L L P E / ' X.@.*.*.g p w > X.X.Y Q ) | ..@.%.#.*.    ",
"-.    L L L P I E / ' X.+.%.&.=.=.=.X.L L L P E / ' } %.    -.-.",
"-.-.-.    I P I E ( ' | +.@.&.&.  G   P L L L I E Q     -.-.-.-.",
"-.-.-.-.-.    P Y Q ' | +.$.&.  N ^ Z   P L L L     S   -.-.-.-.",
"-.-.-.-.-.  X     ( ) | O.$.  k V ^ H Z   L     G ` o.  -.-.-.-.",
"-.-.-.      = - o     ..+.  p N V ^ ! H C   G ` } X.o.  -.-.-.-.",
"-.          * = < , :     9 f V V ( Q H H C ^ ] { ..o.  -.-.-.-.",
"-.-.-.      & = ; 1 4 3 0 q N V V ( Q R ~ ( _ { { ] ..  -.-.-.-.",
"-.-.-.-.-.    ; ; < 2 3 u a m B V W Q W ( ( ( ( _ _ [   -.-.-.-.",
"-.-.-.-.-.-.-.    < 1 4 u a s M V Y E W Q W ( ) (     -.-.-.-.-.",
"-.-.-.-.-.-.-.-.-.    2 y i s m B U Y Y W Q T     -.-.-.-.-.-.-.",
"-.-.-.-.-.-.-.-.-.-.-.    u s m M P U U Y     -.-.-.-.-.-.-.-.-.",
"-.-.-.-.-.-.-.-.-.-.-.-.-.    m M P L     -.-.-.-.-.-.-.-.-.-.-.",
"-.-.-.-.-.-.-.-.-.-.-.-.-.-.-.        -.-.-.-.-.-.-.-.-.-.-.-.-."
};
