/* XPM */
static char *magick[] = {
/* columns rows colors chars-per-pixel */
"32 32 86 1",
"  c black",
". c #020a14",
"X c #020e1a",
"o c #1a0e06",
"O c #1e1206",
"+ c #021322",
"@ c #022237",
"# c #02223e",
"$ c #251506",
"% c #2a1606",
"& c #2a1a06",
"* c #2e1a08",
"= c #341e0a",
"- c #3a1e0a",
"; c #36220a",
": c #3a240c",
"> c #022640",
", c #022d4c",
"< c #023252",
"1 c #023a60",
"2 c #02426e",
"3 c #024675",
"4 c #024a7a",
"5 c #45260b",
"6 c #462a0a",
"7 c #4a2d0e",
"8 c #522e0d",
"9 c #5a320f",
"0 c #523211",
"q c #5d3611",
"w c #5e3a12",
"e c #623612",
"r c #653a12",
"t c #6c4313",
"y c #744214",
"u c #7a4617",
"i c #024e82",
"p c #025284",
"a c #02568a",
"s c #025a96",
"d c #025e9e",
"f c #0264a5",
"g c #026eb2",
"h c #0272ba",
"j c #027ecd",
"k c #0284d4",
"l c #028cdc",
"z c #029aee",
"x c #824a16",
"c c #86521a",
"v c #93561d",
"b c #9a561a",
"n c #9d5c1d",
"m c #9a661e",
"M c #a25a1e",
"N c #a2661e",
"B c #ac7624",
"V c #bc6e23",
"C c #b67626",
"Z c #b07e26",
"A c #c37326",
"S c #ce7626",
"D c #ca7628",
"F c #cf7e29",
"G c #d47c2a",
"H c #da7e2a",
"J c #ce962e",
"K c #d6822c",
"L c #da822c",
"P c #e5862e",
"I c #ed8e2e",
"U c #e6962e",
"Y c #ea9a2e",
"T c #ee9631",
"R c #ea9e32",
"E c #f69630",
"W c #f29a32",
"Q c #e2a230",
"! c #eaa632",
"~ c #f6a233",
"^ c #f5ad34",
"/ c #faa632",
"( c #f2b236",
") c #feb63a",
"_ c #f6ca38",
"` c None",
/* pixels */
"````````````````````````````````",
"```````````````&r%``````````````",
"``````````````&~_r%`````````````",
"``````````````&_^Dr%````````````",
"``````````````&_^IAr%```````````",
"```````````````&_^IDr%``````````",
"````````````````%_(IDr%`````````",
"`````````````````&_^IAr&````````",
"````wwwwwwqqqqqeeq-_^IDr%```````",
"```$~_____________))_(IAr&``````",
"```$_^^(^^^^^^^YIIIIIEEIDy%`````",
"```$SIIIIIII^TIGVNvcnCU/IAy*````",
"````$$%$$eA^IIHnq=$oO:tZ!IVy;```",
"````````w_^IIFb:%`````&;m^ISy%``",
"```````w_^IIFv5`````````;B(IDy%`",
"``````w_^IIPM5```1342<```7J^IM%`",
"`````w_(IPIKu$``1fkkgs1``8B_WArw",
"````w_^IPGIA6``>sjzlhfi@``&_(Ix%",
"```w_^IPnPIA=``#djljgfi@``%_(Iy&",
"``7_^IPnyPIF=``@ifhgfs2@``&_^Iu&",
"`7_^IPy7%PILq``+,3pap3>+``;_^Iu&",
"7_^IPy%`wHILM&``+@,,,>X``7B_^Ir&",
"7^IPy&``7APIF%```..X..```7Q_IA5w",
"7IPy%````7AILM;`````````7Q_(Ix%`",
"`&7%`````7AGIRM%%`````%7Q_(IM5%`",
"``````````7AII(FMy&&&tQ__^IM5%``",
"``````````8MAII(________^IM5&```",
"```````````6MAIIR(^^^^^IAr5%````",
"````````````&=MAIIIIIIAn5%&`````",
"``````````````&%xxxxxr5%%```````",
"````````````````0%%%%%w`````````",
"````````````````````````````````"
};
