/* XPM */
static char *magick[] = {
/* columns rows colors chars-per-pixel */
"24 24 169 2",
"   c #010000",
".  c #0d0403",
"X  c #1b0a09",
"o  c #151212",
"O  c #1d1919",
"+  c #220f0b",
"@  c #290a07",
"#  c #2d0b08",
"$  c #2a120f",
"%  c #251716",
"&  c #2f1211",
"*  c #340d0a",
"=  c #3d0e0b",
"-  c #37100a",
";  c #3e1111",
":  c #332624",
">  c #372c2a",
",  c #363131",
"<  c #393232",
"1  c #3f3f3f",
"2  c #421006",
"3  c #42110c",
"4  c #4d160f",
"5  c #441210",
"6  c #431a14",
"7  c #4b1411",
"8  c #481c15",
"9  c #4f1d19",
"0  c #51150d",
"q  c #531512",
"w  c #511912",
"e  c #561b18",
"r  c #581717",
"t  c #5c1813",
"y  c #5a1818",
"u  c #4e2019",
"i  c #52201a",
"p  c #5e221e",
"a  c #4f2621",
"s  c #44322f",
"d  c #483937",
"f  c #6c1b1a",
"g  c #6c231e",
"h  c #79261e",
"j  c #622420",
"k  c #622820",
"l  c #612f28",
"z  c #623029",
"x  c #653938",
"c  c #6f3e38",
"v  c #7f2f29",
"b  c #733b3b",
"n  c #4b4443",
"m  c gray31",
"M  c #535353",
"N  c #5a5a5a",
"B  c #624141",
"V  c #685e5e",
"C  c #744e4c",
"Z  c #745452",
"A  c #775e5d",
"S  c #7b5d5e",
"D  c #636363",
"F  c #696363",
"G  c gray42",
"H  c #706c6b",
"J  c #7d6463",
"K  c #727272",
"L  c #7a7a7a",
"P  c #812820",
"I  c #8c2621",
"U  c #8b2a24",
"Y  c #85332e",
"T  c #942b23",
"R  c #9b2a26",
"E  c #9b2b2c",
"W  c #963725",
"Q  c #9b362c",
"!  c #9b3330",
"~  c #ab2b1f",
"^  c #a32d27",
"/  c #ac2c20",
"(  c #ab2c28",
")  c #a43020",
"_  c #a33229",
"`  c #a33b28",
"'  c #ac3020",
"]  c #ab3228",
"[  c #ab3330",
"{  c #ab3931",
"}  c #ab3c38",
"|  c #a44239",
" . c #ac4039",
".. c #b24039",
"X. c #925756",
"o. c #9a5758",
"O. c #836866",
"+. c #857d7c",
"@. c #976762",
"#. c #956f67",
"$. c #a44441",
"%. c #ac4441",
"&. c #ab4b42",
"*. c #a95046",
"=. c #a75e5f",
"-. c #a85354",
";. c #b44441",
":. c #b44841",
">. c #b24f49",
",. c #b4504a",
"<. c #b05758",
"1. c #b4595a",
"2. c #be5b59",
"3. c #bc685d",
"4. c #ac6162",
"5. c #ba6461",
"6. c #bd6a65",
"7. c #c77b75",
"8. c #cc7a78",
"9. c #c6807c",
"0. c #d5847b",
"q. c #848484",
"w. c #8c8c8c",
"e. c #928b89",
"r. c #9d8381",
"t. c #988e8d",
"y. c gray58",
"u. c #a48584",
"i. c #be9190",
"p. c #b5a3a3",
"a. c #c08d87",
"s. c #c28f89",
"d. c #c98b85",
"f. c #c5918b",
"g. c #cd9490",
"h. c #cc9c9b",
"j. c #d48c82",
"k. c #dd8682",
"l. c #de8b83",
"z. c #d49b9b",
"x. c #cca4a3",
"c. c #c6b4b3",
"v. c #d5abaa",
"b. c #deb4b2",
"n. c #e48581",
"m. c #e28688",
"M. c #e68983",
"N. c #e6898b",
"B. c #e0b2ad",
"V. c #ebbebd",
"C. c #c0c0c0",
"Z. c #cfc5c3",
"A. c #cecdcc",
"S. c gray84",
"D. c #dbdbdb",
"F. c #e5c1c0",
"G. c #e7c8c8",
"H. c #e8c7c5",
"J. c #e8cbc8",
"K. c #e3d5d4",
"L. c #ebd3d1",
"P. c #f3cecf",
"I. c #f5d0d1",
"U. c #e2e2e2",
"Y. c #eaeaea",
"T. c #f4e4e4",
"R. c #faeae9",
"E. c #f1f1f1",
"W. c #fefefe",
/* pixels */
"                                      , L L L L ",
"O * 3 7 7 4 7 e i q e i r r @ w.Z y t K.J K L L ",
"n d - = 9 6 7 a 7 2 3 ; 9 = + A.U = 3 r.Z.D L L ",
"L L q.S.Y.E.E.Y.E.E.E.E.E.E.E.E.E.E.E.E.W.q.G L ",
"L L V O.8.k.i.Q W.P.0.z.x.0.z.N.j.k.n.M.V.K.D K ",
"L q.y.e.# ^ ,.i W.l.} ' ] ` :.] [ ] .._ ~ L.J D ",
"L y.    x T <.r W.M.]  .:.| $.` } { { { ( d.W.m ",
"L . : i v E 4.4 W.z.) ] ) ] _ { _ ] ) 5.B.W.u.D ",
"L . 5 j Y E _ 4 W.z.] ~ ] ( ] ( { &.2.J.W.S D G ",
"L < s = 8 y 0 & W.[ w q 0 k i y z b #.W.G D L L ",
"L q.L q.U.E.W.W.W.W.W.W.W.W.W.W.W.W.W.W.W.D L L ",
"L L q.D O.f.k.j.l.n.M.k.l.f.! W.I.0.z.x.R.t.G L ",
"L L q.y.e.& _ [ ] :._ / ( ,.i W.l. .' ] ` L.C L ",
"L q.y.    B W } [ { { ( _ 1.y W.M.]  .;.*.v.W.m ",
"L y.  > q h Q _ ] ) %.} ] 4.w W.z.) ] 3.H.W.@.M ",
"L y.. 3 f U R ` &.( { } _ ( w W.z.{ B.W.T.N K L ",
"L w.o @ 8 6 r l y 0 0 w g 7 $ W.[ c W.F N H L L ",
"L q.w.1 C.Y.W.W.W.W.W.W.W.W.W.W.W.W.W.W.N L L L ",
"L L w.O X.7.i.E W.I.0.z.x.M.h.N.j.l.n.R.p.G L L ",
"L L +.F - I &.9 W.l. .' ] ` :.[ [ ] :.6.L.Z K L ",
"L L L w.% P -.y W.M.]  ...| | | } { { { F.u.G L ",
"L L L q.F = o.0 W.z.~ _ ) ] _ { _ ] ) %. .G.S L ",
"L L L L w.X I 4 W.z.' ' { ( ] ( { &.( ] | 9.g.L ",
"L L L L L n +.A.D.D.D.U.U.Y.Y.Y.E.E.W.W.W.c.L L "
};
