/* XPM */
static char *magick[] = {
/* columns rows colors chars-per-pixel */
"34 34 244 2",
"   c #000000",
".  c #161414",
"X  c #220601",
"o  c #230d00",
"O  c #251102",
"+  c #23110b",
"@  c #2c1401",
"#  c #310d02",
"$  c #3e0606",
"%  c #331a02",
"&  c #341d0f",
"*  c #3d1401",
"=  c #3c1c00",
"-  c #322e1a",
";  c gray18",
":  c #3f3e3e",
">  c #400303",
",  c #411f04",
"<  c #421212",
"1  c #560606",
"2  c #5e0202",
"3  c #432201",
"4  c #46260f",
"5  c #492304",
"6  c #4e2d0d",
"7  c #442a11",
"8  c #4f3014",
"9  c #4e361b",
"0  c #542501",
"q  c #542a02",
"w  c #582601",
"e  c #5b2c01",
"r  c #5e2e0e",
"t  c #56320e",
"y  c #5c320c",
"u  c #533212",
"i  c #5f3710",
"p  c #5d3814",
"a  c #5e3c1c",
"s  c #47392d",
"d  c #483521",
"f  c #4e3b2b",
"g  c #583a22",
"h  c #640501",
"j  c #760606",
"k  c #7e0e06",
"l  c #721010",
"z  c #721811",
"x  c #633000",
"c  c #61330e",
"v  c #6a3603",
"b  c #6d3906",
"n  c #623312",
"m  c #673a15",
"M  c #633d1e",
"N  c #683e16",
"B  c #713d0a",
"V  c #693f24",
"C  c #653e31",
"Z  c #59412d",
"A  c #5e4332",
"S  c #5c4a3d",
"D  c #6f4317",
"F  c #754515",
"G  c #764718",
"H  c #784411",
"J  c #7e4a17",
"K  c #7c4a1a",
"L  c #6e4426",
"P  c #69412e",
"I  c #664032",
"U  c #664b35",
"Y  c #604d3c",
"T  c #6a4633",
"R  c #6d533b",
"E  c #724a24",
"W  c #724a2d",
"Q  c #794f2f",
"!  c #754f37",
"~  c #7e5125",
"^  c #7c5734",
"/  c #7d583b",
"(  c #686800",
")  c #494949",
"_  c #5b4642",
"`  c gray32",
"'  c #555758",
"]  c #5c5b5d",
"[  c #675442",
"{  c #6a5541",
"}  c #695846",
"|  c #6b5a4b",
" . c #765b40",
".. c #735d4a",
"X. c #7b5b44",
"o. c #76624d",
"O. c #7e6043",
"+. c #7c614a",
"@. c #756452",
"#. c #606162",
"$. c #6c6d6d",
"%. c #6e7272",
"&. c #796c61",
"*. c #717272",
"=. c #7a7a7b",
"-. c #8e0a06",
";. c #841816",
":. c #8f2017",
">. c #8a2222",
",. c #9b3c3c",
"<. c #a4140f",
"1. c #be2e2a",
"2. c #824e1b",
"3. c #835222",
"4. c #81552a",
"5. c #85592d",
"6. c #8b592a",
"7. c #845b32",
"8. c #845e39",
"9. c #885f36",
"0. c #915e2c",
"q. c #9a6606",
"w. c #8d633b",
"e. c #97693c",
"r. c #986737",
"t. c #b25a06",
"y. c #815d46",
"u. c #846143",
"i. c #83644c",
"p. c #8d6741",
"a. c #89654b",
"s. c #8c6a4b",
"d. c #866555",
"f. c #80655a",
"g. c #8a6c54",
"h. c #8d6d5a",
"j. c #88745d",
"k. c #936b43",
"l. c #926d4a",
"z. c #98714b",
"x. c #957350",
"c. c #96775a",
"v. c #9b7551",
"b. c #9d7956",
"n. c #9d7d5e",
"m. c #927461",
"M. c #977a61",
"N. c #9a7b60",
"B. c #9b7d68",
"V. c #a24e4e",
"C. c #be5d58",
"Z. c #a0754b",
"A. c #a17b55",
"S. c #a07f5f",
"D. c #be6a66",
"F. c #d26e02",
"G. c #cb4948",
"H. c #c35253",
"J. c #cb5554",
"K. c #d24a4a",
"L. c #ca6160",
"P. c #ca6a68",
"I. c #d6726e",
"U. c #f46464",
"Y. c #8a8a02",
"T. c #9f8267",
"R. c #9d8068",
"E. c #9b8c7e",
"W. c #a38162",
"Q. c #ab8c6d",
"!. c #af9071",
"~. c #b18f6e",
"^. c #b19171",
"/. c #aeae46",
"(. c #afaf4a",
"). c #c69602",
"_. c #e69606",
"`. c #f6af04",
"'. c #d2817f",
"]. c #cacc0a",
"[. c #ced01b",
"{. c #dace12",
"}. c #e2de0a",
"|. c #f2ca0e",
" X c #f3d12f",
".X c #eeee0a",
"XX c #eeec73",
"oX c #f2e67a",
"OX c #858585",
"+X c #828589",
"@X c #8b8c8c",
"#X c #9d8e81",
"$X c #96928e",
"%X c #909090",
"&X c #ab9c94",
"*X c #b5a194",
"=X c #b3a79b",
"-X c #b8a995",
";X c #bca99d",
":X c #a2a2a2",
">X c #acacac",
",X c #b4b3b4",
"<X c #bcbcbc",
"1X c #c7b09a",
"2X c #c5b6a6",
"3X c #c4b6aa",
"4X c #cab9ab",
"5X c #c1b5b0",
"6X c #c2beb7",
"7X c #e28c86",
"8X c #eea9a2",
"9X c #f2aca5",
"0X c #faaaaa",
"qX c #febcbc",
"wX c #cac3bb",
"eX c #d3c5b7",
"rX c #d8c9ba",
"tX c #eeedad",
"yX c #f7f6b4",
"uX c #c5c5c5",
"iX c #c7caca",
"pX c #cac6c5",
"aX c #cbc8c0",
"sX c #cccdcc",
"dX c #d4cdc8",
"fX c #dbd3cc",
"gX c #d4d3d3",
"hX c #dbd7d4",
"jX c #d8d8d7",
"kX c #dbdbdb",
"lX c #e2dbd5",
"zX c #f6cece",
"xX c #ffdede",
"cX c #e8e0d8",
"vX c #e4e4e3",
"bX c #e6eaea",
"nX c #eee9e5",
"mX c #ebebea",
"MX c #ededf1",
"NX c #f1edeb",
"BX c #f2f0ef",
"VX c #f4f3f3",
"CX c #fcfcfc",
"ZX c None",
/* pixels */
"ZXZXZXZXZXZXZXZXZXZXZXZXZXZXZXZXZX[.ZXZXZXZXZXZXZXZXZXZXZXZXZXZXZXZX",
"ZXZXZXZXZXZXZXZXZXZXZXZXZXZXZXZX].XX(.ZXZXZXZXZXZXZXZXZXZXZXZXZXZXZX",
"ZXZXZXZXZXZXZXZXZXZXZXZXZXZXZXZX.X XY.ZXZXZXZXZXZXZXZXZXZXZXZXZXZXZX",
"ZXZXZXZXZXZXZXZXZXZXZXZXZXZXZX].oX_./.ZXZXZXZXZXZXZXZXZXZXZXZXZXZXZX",
"ZXZXZXZXZXZXZXZXZXZXZXZXZXZXZX.XyXF.tXY.ZXZXZXZXZXZXZXZXZXZXZXZXZXZX",
"ZXZXZXZXZXZXZXZXZXZXZXZXZXZX{.}._.F.|.).ZXZXZXZXZXZXZXZXZXZXZXZXZXZX",
"ZXZXZXZXZXZXZXZXZXZXZXZXZXZXZX`.F.t.F.( ZXZXZXZXZXZXZXZXZXZXZXZXZXZX",
"ZXZXZXZXZXZXZXZXZXZXZXZXZXZXZXZXq.r ( ZXZXZXZXZXZXZXZXZXZXZXZXZXZXZX",
"ZXZXZXZXZXZXZXZXZXZXZXZXZXZXZXK.;.$ ;.k ZXZXZXZXZXZXZXZXZXZXZXZXZXZX",
"ZXZXZXZXZXZXZXZXZXZXZXZXZXZXI.1.D.D.j 2 ZXZXZXZXZXZXZXZXZXZXZXZXZXZX",
"ZXZXZXZXZXZXZXZXZXZXZXZXZXZX9XD.H.9XV.$ ZXZXZXZXZXZXZXZXZXZXZXZXZXZX",
"ZXZXZXZXZXZXZXZXZXZXZXZXZXZXP.CX,.H.7Xl ZXZXZXZXZXZXZXZXZXZXZXZXZXZX",
"ZXZXZXZXZXZXZXZXZXZXZXZXZXZXJ.zXxX>.>.2 ZXZXZXZXZXZXZXZXZXZXZXZXZXZX",
"ZXZXZXZXZXZXZXZXZXZX@X$.OX=.G.U.0X9X$ 1 =.#.#.@XZXZXZXZXZXZXZXZXZXZX",
"ZXZXZX  ZXZX@X=.=.OX6XsXbXmX7X1.<.K.P.> mXjXuX,X*.*.*.=.ZXZXZXZXZXZX",
"ZXZXZX@X@X>XgXVXCXCXCXVXBXCXC.CX1.-.>.2 VXVXMXMXmXbXvX,X%.] ` ZXZXZX",
"ZXZX%XjXbXCXVXVXMXVXVXVXVXCXL.qXxX;.j 2 mXVXMXmXmXvXbXvXbXkX:X) ZXZX",
"ZXOXvXCXmXVXVXCXCXCXCXCXCXCXH.1.9X8X> < sXsXgXgXkXkXkXkXkXkXkXiX  ZX",
"ZX@XvXVXVXVXVXCXCXCXCXCXCXVXsXK.;.z h $X>X,XiXdXgXgXsXjXjXsXgXgX  ZX",
"ZX@XmXCXCXVXCXCXCXCXCXVXVXVXjXuX<X>X>X:X:X>X,X,XuXuXsXgXkXvXvXvX  ZX",
"  +XlXCXmXuX>XnXVXCXCXVXmXmXvXjXlXsXiX,X>X<X<XiXkXlXgXdXsXmXMXpX  ZX",
"  *.*XVX,XS { @.VXCXVXmXwXeXfXvXVXCXVXjXE.3XlXmXmXvX=Xu @.sXmX&.. ZX",
"  #.z.VX| _ g.Q.NXVXVX3X} f 8.3XVXCXmX:X9 a a.NXVXkX..3 u #XhX+   ZX",
"  ' u.mXS +.c.B.*XNXhXS s A T C rXVXgX[ g v K 4XmX-Xu = X X.wXo   ZX",
"  ] A.;XR !.M.!.n.VX&Xd  .^ k.Z.e.VX@.4 5.B 2.w fXZ 3 5 = & [ o   ZX",
"  ' p.a.z.h.m.W.S.NXj.U k.8.7.5.4.nX+.c 0.B J c 2XV y 3 6 @ + @   ZX",
"ZX) z.s.v.S.m.T.N.1Xg.b.p./ 8.W L -X6.r.6.x H x s.D # p 3 o 7 O - ZX",
"ZX: i.s.n.c.N.B.m.^.x.z.X./ z.7.V 5.F 6.3.b x w 0 * E = = @ % @   ZX",
"  ) y.@.b.m.M.^.W.W.d.s.A.k.w.C 3.M F 3.B x w B e q D 3 = % % + ; ZX",
"ZX  ) ) a.W.n.!.N.m.A.s.X.k.7.4.~ ~ 3.G J e v 2.5 q 5 t 6 3     ZXZX",
"ZXZX    ) ) i.!.B.^.v.s.z.y.9.! 3.C K m n c 2.H y e m =     ZXZXZXZX",
"ZXZXZXZXZXZX) )   .   X.A.w.y.w.Q W L F K y v   .       ZXZXZXZXZXZX",
"ZXZXZXZXZXZXZXZXZXZXZX                        ZXZXZXZXZXZXZXZXZXZXZX",
"ZXZXZXZXZXZXZXZXZXZXZXZXZXZXZXZXZXZXZXZXZXZXZXZXZXZXZXZXZXZXZXZXZXZX"
};
