/* XPM */
static char *magick[] = {
/* columns rows colors chars-per-pixel */
"32 32 87 1",
"  c black",
". c #090201",
"X c #110d00",
"o c #2d2d2d",
"O c #770010",
"+ c #5a5a5a",
"@ c #7c7c7c",
"# c #84140e",
"$ c #87180e",
"% c #891d0d",
"& c #8d220d",
"* c #91270c",
"= c #942d0c",
"- c #96300c",
"; c #99340b",
": c #9d3a0a",
"> c #a13f0b",
", c #9d4239",
"< c #a2420a",
"1 c #a7480a",
"2 c #ab4f09",
"3 c #ae5408",
"4 c #b15708",
"5 c #b25a08",
"6 c #a55038",
"7 c #b76007",
"8 c #b66008",
"9 c #b96507",
"0 c #b86308",
"q c #bd6b06",
"w c #ff0000",
"e c #ff0b0b",
"r c #ff1313",
"t c #ff1d1d",
"y c #c06e06",
"u c #c37306",
"i c #c67905",
"p c #c97d05",
"a c #ff4949",
"s c #ff5c5c",
"d c #ff6363",
"f c #ff7575",
"g c #a39f22",
"h c #a9a523",
"j c #bbb728",
"k c #cd8204",
"l c #d08704",
"z c #d58e03",
"x c #d79003",
"c c #d99403",
"v c #dc9903",
"b c #d79b30",
"n c #ddac2f",
"m c #e09f03",
"M c #e2a301",
"N c #e7a901",
"B c #e9ac00",
"V c #ebb001",
"C c #f0b700",
"Z c #f1b900",
"A c #e5af2f",
"S c #c7c12b",
"D c #d3cd2e",
"F c #e9e333",
"G c #eee835",
"H c #fcf538",
"J c #808080",
"K c #8d8d8d",
"L c #a0a0a0",
"P c #cb988a",
"I c #d0a089",
"U c #ff9393",
"Y c #e4bd87",
"T c #ffa5a5",
"R c #ffaeae",
"E c #ffbebe",
"W c #dfc1bd",
"Q c #e9c586",
"! c #f3e0ba",
"~ c #c3c3c3",
"^ c gainsboro",
"/ c #ecd9cd",
"( c #ffc3c3",
") c #f2e1cc",
"_ c #fff1f1",
"` c #fefefe",
"' c None",
/* pixels */
"''''''''''''''''''           '''",
"''''''''''''''''  Bmzpq52>-%#  '",
"''''''''''''''' ZB9:-;<29yiu3#O ",
"''''''''''''''' Z:#%&;<39upxmlO ",
"'''''''''''''''' #n%*;149ikxiB '",
"'''''''''''''''''.n%6I/`)YbviX''",
"''''''''''''''''' n ``````` i ''",
"''''''''''''''''' n ``````` i ''",
"'''''''''''    '' n ``````` i ''",
"'''''''    JJJJ ' n ``````` i ''",
"''''   JJJJJJJJJ  n ``````` i ''",
"''' JJJJJJJJJJJJ+ n ``````` i ''",
"''' JJJJJ~^````J+ n oHHFSho i ''",
"''' J~^````````L+ n  HHFS`  i ''",
"''' ```````````L@ n ' HF` ' i ''",
"''' ```swwwE```L@ n '' ` '' i ''",
"''' ``wwTsww```L@ n '' ` '' i ''",
"'' ```sU`fws```L@ n ' `G` ' i ''",
"'' `````wwe````L@ n  ``G``  i ''",
"'' ````_rwwt```L@ n  ``G``  i ''",
"'' ``````Tww```L@ n ``HGD`` i ''",
"'' ``awR`dww```L@ n `HHGDj` i ''",
"'' ``wwwawwE```L@ n HHHGDjg i ''",
"' ````ewww(````L@ n HHHGDjg i ''",
"' `````````````L@ n HHHGDjg i ''",
"' `````````````L@ n HHHGDj` i ''",
"' `````````````L@.n&WHHGD`!MiX''",
"' `````````````L@%n#,P/`)QAViC '",
"' ~~~~~~~~~~~~~L@:##*:4qkvBCCxO ",
"'' KKKKKKKKKKKKK@M7>>3qpvMBx7#O ",
"'''               Mvku031:=%#  '",
"''''''''''''''''''           '''"
};
