/* XPM */
static char *magick[] = {
/* columns rows colors chars-per-pixel */
"32 32 7 1",
"  c black",
". c #585858",
"X c #808000",
"o c #c0c000",
"O c #a0a0a0",
"+ c white",
"@ c None",
/* pixels */
"@@@@@@@@@@ @@@@@@@@@@@@@@@@@@@@@",
"@@@@@@@@@@@ @@@@@@@@@@@@@@@@@@@@",
"@@@@@@@@@@@  @@@@@@@@@@@@@@@@@@@",
"@@@@@@@@@@@@  @@@@@@@@@@@@@@@@@@",
"@@@@@@@@@@@@   @@@@@@@@@@@@@@@@@",
"@@@@@@@@@@@@@  @@@ @@@@@@@@@@@@@",
"@@@@@@@@@@@@@   @   @@@@@@@@@@@@",
"@@@@@@@@@@@@@@     @@@@@@@@@@@@@",
"@@@@@@@@@@@@@@    @@@@@@@@@@@@@@",
"@@@@@@@@@@ @@@   @@@@@@@@@@@@@@@",
" @@@@@@@@   @     @@@@@@@@@@@@@@",
"@  @@@@@@@     @  @@@@@@@@@@@@@@",
"@@   @@@@@@   @@   @@@@@@@@@@@@@",
"@@@    @@@     @@  @@@@@@@@@@@@@",
"@@@@        @   @   @@@@@@@@@@@@",
"@@@@@@     @@@ @@@  @@@@@@@@@@@@",
"@@@@@@@      @@@@@   @@@@@@@@@@@",
"@@@@@@   @     @@@@       @@@@@@",
"@@@@@   @@@@     @@   XXX   @@@@",
"@@@@@@ @@@@@@@      XoooooX  @@@",
"@@@@@@@@@@@@@@@@   XoooooooX @@@",
"@@@@@@@@@@@@@@@@@  oooooO oO  @@",
"@@@@@@@@@@@@@@@@@ Xooooo   oX @@",
"@@@@@@@@@@@@@@@@@ Ooooo   ooX @@",
"@@@@@@@@@@@@@@@@@ XooO    Xo. @@",
"@@@@@@@@@@@@@@@@@  oo      X  @@",
"@@@@@@@@@@@@@@@@@@ Xoo oX    @@@",
"@@@@@@@@@@@@@@@@@@  XooooX   @@@",
"@@@@@@@@@@@@@@@@@@@   XXX     @@",
"@@@@@@@@@@@@@@@@@@@@@     @@   @",
"@@@@@@@@@@@@@@@@@@@@@@@@@@@@@   ",
"@@@@@@@@@@@@@@@@@@@@@@@@@@@@@@ @"
};
