/* XPM */
static char *magick[] = {
/* columns rows colors chars-per-pixel */
"32 32 8 1",
"  c black",
". c #585858",
"X c navy",
"o c #808080",
"O c #a0a0a0",
"+ c #c3c3c3",
"@ c white",
"# c None",
/* pixels */
"#                              #",
" @@@@@@@@@@@@@@@@@@@@@@@@@@@@@@ ",
" @++++++++++++++++++++++++++++o ",
" @+.+++.+++.+++.+++.+++.+++.++o ",
" @++++++++++++++++++++++++++++o ",
" @++++++++++++++++++++++++++++o ",
" @+@@@@@@@@@@@@@@ ++++++++++++o ",
" @+@+++++++++++++ +.+++.+++.++o ",
" @+@++++++@@@@@ + ++.........@o ",
" @+@++++++@++++ + ++.OOOOOOOO@o ",
" @+@++++++@++++ + ++.OOO@+OOO@o ",
" @+@++++++      + +..OO@+++OO@o ",
" @+@+++++++++++++ ++.O@+++++O@o ",
" @+               ++.O......O@o ",
" @++++++++++++++++++.OOOOOOOO@o ",
" @+.+++.+++.+++.+++..O@@@@@@O@o ",
" @++++++++++++++++++.O@++++.O@o ",
" @+              @++.O......O@o ",
" @+ @@@@@@@@@@@@+@++.OOOOOOOO@o ",
" @+ @X@X@@@@@@@@+@+..OOOOOOOO@o ",
" @+ @@X@@@@@@@@@+@++.O@@@@@@O@o ",
" @+ @@X@@@@@@@@@+@++.O@++++.O@o ",
" @+ @@X@@@@@@@@@+@++.OO@++.OO@o ",
" @+ @@X@@@@@@@@@+@+..OOO@.OOO@o ",
" @+ @X@X@@@@@@@@+@++.OOOOOOOO@o ",
" @+ +++++++++++++@++@@@@@@@@@@o ",
" @+@@@@@@@@@@@@@@@++++++++++++o ",
" @+.+++.+++.+++.+++.+++.+++.++o ",
" @++++++++++++++++++++++++++++o ",
" @++++++++++++++++++++++++++++o ",
" @ooooooooooooooooooooooooooooo ",
"#                              #"
};
