/* XPM */
static char *magick[] = {
/* columns rows colors chars-per-pixel */
"34 34 70 1",
"  c #000000",
". c #0b0b0b",
"X c #2e2e2c",
"o c #662204",
"O c #5a560c",
"+ c #56462c",
"@ c #524634",
"# c #5e4a3c",
"$ c #7a521c",
"% c #66422c",
"& c #62523c",
"* c #7a422c",
"= c #76523c",
"- c #464646",
"; c #4c4c4c",
": c #535353",
"> c #636363",
", c gray42",
"< c #747474",
"1 c #7d7d7c",
"2 c #924204",
"3 c #824a2c",
"4 c #8a4224",
"5 c #92522c",
"6 c #965634",
"7 c #965e34",
"8 c #b25204",
"9 c #ba5e24",
"0 c #866a4c",
"q c #ba7e54",
"w c #ba7264",
"e c #e66a34",
"r c #f26e24",
"t c #d26a44",
"y c #fe8204",
"u c #d28a6c",
"i c #ea8254",
"p c #ea9a54",
"a c #feaa5c",
"s c #febe7c",
"d c #838383",
"f c #8a8a8a",
"g c #929292",
"h c #9b9b9b",
"j c #a6a6a5",
"k c #adadac",
"l c #b2b2b2",
"z c #bbbbbb",
"x c #feae84",
"c c #f6b28c",
"v c #f6ba84",
"b c #fabe9c",
"n c #f6c684",
"m c #fece94",
"M c #fac2a4",
"N c #fac6ac",
"B c #fecabc",
"V c #fedeac",
"C c #c1c1c1",
"Z c #c9c9c9",
"A c #d0d0cf",
"S c #d4d4d4",
"D c gray86",
"F c #fad4c4",
"G c #fadacc",
"H c #e2e2e2",
"J c #ebebeb",
"K c #f4f4f4",
"L c #fefefe",
"P c None",
/* pixels */
"PPPPPPPPPPPPPPPPPPPPPPPPPPPPPPPPPP",
"PPPPPPPPPPPPPPPPPPPPPPPPPPPPPPPPPP",
"PPPPPPPPPPPPPPL:hh> >PPPPPPPPPPPPP",
"PPPPPPPPPPPPPP:dd-Z>J>PPPPPPPPPPPP",
"PPPPPPPPPPPPPP1:P -Z>K>PPPPPPPPPPP",
"PPPPPPPPPPPL:hh> HK1gKK>PPPPPPPPPP",
"PPPPPPPPPPP:dd-Z;CHlgKKJ>PPPPPPPPP",
"PPPPPPPPPPP1:L -z;zf.KSKK>PPPPPPPP",
"PPPPPPPPL:hh> HK1fC  KKSKK>PPPPPPP",
"PPPPPPPP:dd-Z;CHkgJJKKKKSKK>PPPPPP",
"PPPPPPPP1:L -z;Cf.KSKKKSKSKK>PPPPP",
"PPPPPL:hh> HK1fC  KKSKDKKKZKK>PPPP",
"PPPPP:dd-Z;CHkgJJKKKKSKKKKKCKK>PPP",
"PPPPP1:L -z;Cf.KDKKKDKSKKKZKCJJPPP",
"PPL:hh> HK1fC  KKSLSKKKSKZKKKzJPPP",
"PP:dd-Z;CHkgJJKKKKDKLKKKZKKKKJlPPP",
"PPd:< -z;Cf.KSKKKDKSKKKZKCKKKlKPPP",
"P::P HK1fC  KKDKSKKKSKZKKKzKlKJPPP",
"Pg- CCHlgJJKKKKDKKKKKZKj**oo.  PPP",
"P<.KHzCf.KDKKKSKDLKKjwwcbnpaaaaPPP",
"Pd KKHz  KKDKSKLKjwwcFFGFBxsmBVPPP",
"PP dKKJJKKKKSLh::cFNNMvcciyyyyyPPP",
"PP ddKKSKKKSKXXX0quuuuuteyyyyyyPPP",
"PP <ddKKSKDKKKhX-&=35679eryyyyyPPP",
"PP ><ddKKSKKKKJljOX-#@+%$888888PPP",
"PPP ><ddKKSKKKCDjzzjOX-##422222PPP",
"PPPP ><ddKKZKZKHHjZgzjk:       PPP",
"PPPPP ><ddKKZKJKJHjDSCzl1llklkdPPP",
"PPPPPP ><ddKKCKJKlJkHDSfCfCzCfCPPP",
"PPPPPPP ><ddJJzKzKKJjJjDSShShSSPPP",
"PPPPPPPP ,<ddJKzKKJJJkJJJJJjHJJPPP",
"PPPPPPPPPPPPPPPPPPPPPPPPPPPPPPPPPP",
"PPPPPPPPPPPPPPPPPPPPPPPPPPPPPPPPPP",
"PPPPPPPPPPPPPPPPPPPPPPPPPPPPPPPPPP"
};
