/* XPM */
static char * gnome_ee_xpm[] = {
"32 32 168 2",
"  	c None",
". 	c #D4A487",
"+ 	c #B67659",
"@ 	c #A34D4D",
"# 	c #9C5436",
"$ 	c #964218",
"% 	c #A4532D",
"& 	c #CEAC7F",
"* 	c #C7946C",
"= 	c #A76756",
"- 	c #8B4829",
"; 	c #933C13",
"> 	c #8A2C0A",
", 	c #8A330C",
"' 	c #C78865",
") 	c #D7A57C",
"! 	c #CB8A5B",
"~ 	c #924D3C",
"{ 	c #8A362B",
"] 	c #A34B1A",
"^ 	c #8B3614",
"/ 	c #A24C2A",
"( 	c #C27A54",
"_ 	c #D59C85",
": 	c #DEA98E",
"< 	c #7C3026",
"[ 	c #742614",
"} 	c #812D13",
"| 	c #8A3619",
"1 	c #B4663E",
"2 	c #D9A285",
"3 	c #E1AC8C",
"4 	c #D2A769",
"5 	c #B77149",
"6 	c #692914",
"7 	c #6E230B",
"8 	c #903821",
"9 	c #A45638",
"0 	c #B46C59",
"a 	c #C88875",
"b 	c #E1AC95",
"c 	c #E3B295",
"d 	c #AD613A",
"e 	c #954626",
"f 	c #D29576",
"g 	c #DBA58A",
"h 	c #D39A7D",
"i 	c #D49B6D",
"j 	c #B36A45",
"k 	c #DBB598",
"l 	c #7B2B0D",
"m 	c #C4896C",
"n 	c #8A4117",
"o 	c #DAB884",
"p 	c #B77B65",
"q 	c #AA6647",
"r 	c #783714",
"s 	c #683417",
"t 	c #9C5229",
"u 	c #D19E97",
"v 	c #5B331C",
"w 	c #573E30",
"x 	c #49362A",
"y 	c #33251B",
"z 	c #482817",
"A 	c #592A0E",
"B 	c #7D340F",
"C 	c #C37F66",
"D 	c #B88468",
"E 	c #272925",
"F 	c #271C18",
"G 	c #1B1A14",
"H 	c #B47556",
"I 	c #AB7559",
"J 	c #7B4E36",
"K 	c #131412",
"L 	c #100E0E",
"M 	c #0D0C0B",
"N 	c #3D1A0B",
"O 	c #571D08",
"P 	c #E5C698",
"Q 	c #CA9879",
"R 	c #BA7756",
"S 	c #6B432C",
"T 	c #483A35",
"U 	c #3A312B",
"V 	c #3D2F27",
"W 	c #B35520",
"X 	c #C45A23",
"Y 	c #CE6D4B",
"Z 	c #CB9984",
"` 	c #D7A996",
" .	c #885B47",
"..	c #59453D",
"+.	c #161B18",
"@.	c #E5BDB2",
"#.	c #664636",
"$.	c #472D20",
"%.	c #17201C",
"&.	c #0E110E",
"*.	c #364345",
"=.	c #A59D9D",
"-.	c #E8C5B8",
";.	c #E8CAC1",
">.	c #DB8675",
",.	c #E09876",
"'.	c #A85B46",
").	c #D4A18B",
"!.	c #AA7861",
"~.	c #7B6652",
"{.	c #28241B",
"].	c #373736",
"^.	c #8F939A",
"/.	c #DCD2D2",
"(.	c #E7DCDB",
"_.	c #F3D9D6",
":.	c #F0CEC8",
"<.	c #C89989",
"[.	c #99705D",
"}.	c #6B7882",
"|.	c #CAD0D5",
"1.	c #F4F3F1",
"2.	c #F6ECEB",
"3.	c #E5B9A7",
"4.	c #D37763",
"5.	c #783A36",
"6.	c #DDB6A8",
"7.	c #B6958B",
"8.	c #866558",
"9.	c #3B4F59",
"0.	c #778B93",
"a.	c #894B44",
"b.	c #CA947B",
"c.	c #AB806D",
"d.	c #2C383B",
"e.	c #4B646C",
"f.	c #485C65",
"g.	c #536A77",
"h.	c #F7E9E7",
"i.	c #F2D7C9",
"j.	c #813F41",
"k.	c #13120D",
"l.	c #4F5456",
"m.	c #8E9DA4",
"n.	c #B1ADAA",
"o.	c #F4ECCE",
"p.	c #995947",
"q.	c #9A8E87",
"r.	c #9DA0A3",
"s.	c #F0D9BC",
"t.	c #9A6555",
"u.	c #C28C72",
"v.	c #76513D",
"w.	c #192421",
"x.	c #2D4045",
"y.	c #6B7171",
"z.	c #8D796E",
"A.	c #776F6E",
"B.	c #9F8276",
"C.	c #87493F",
"D.	c #DCAA91",
"E.	c #553726",
"F.	c #957972",
"G.	c #AA937A",
"H.	c #A77966",
"I.	c #735748",
"J.	c #BD8674",
"K.	c #C9A99B",
"                                                                ",
"                                                                ",
"                                      . + @ # $ $ $ %           ",
"                                  & * = - ; ; > , $ % '         ",
"                                ) ! ~ { ] ; ; ; ^ / ( _ : :     ",
"                            ) ! # < [ } ^ ^ | / 1 ' 2 3 : :     ",
"                          4 5 # < 6 7 [ 8 9 0 a _ 3 3 3 3 b c   ",
"                        ! d e [ 7 , ; # ( f : g 2 h f h 3 b c   ",
"                      i 5 $ ; 7 > ] j ' _ : ) ' 5 1 1 ! 4 3 k   ",
"                    ) 0 % } l ^ e ( h : 2 m j % $ n $ d ( h b   ",
"                  o p # $ , $ q ' g g * q - r s s s s , t 0 u   ",
"                o m q t ; e 5 h g g m # s v w x y z z A B # C   ",
"              4 ' q / % j ' 2 : 2 D - v z E y F G F y A B q + _ ",
"            o ' H 9 j ' h g : h I J v y G K L K M N O ^ l 9 p _ ",
"          P Q + j R f 2 : : _ + S T U G M L V 6 ; W X Y ( ( p Z ",
"          ` * = R f _ : : 2 m  ...y K K +.T I ( ( Y X 3 b i e + ",
"        @.u C 0 a _ : : : Q I #.$.%.&.%.*.=.-.-.;.-.c >.,.'.e R ",
"      -.` C p a g : : : ).!.~.x {.K G ].^./.(.(._.:.@.>.Y { # ' ",
"      @.Z C a _ : : : : <.[.#.V K K {.}.|.1.2.2.:.;.3.4.9 5.= 6.",
"    ;.u C Z _ : : : : ` 7.8.x K K K *.9.0.(.2.2._.:.3.0 5.a.    ",
"    @.Z b._ ` 3 : : : g c...{.M +.d.e.f.e.g.(.h.h.i.2 j.5.[.    ",
"    ` b.a ).3 ` : : : Z 8.$.k.%.%.].l.m.0.}.n._.o.b = a.p.a q.  ",
"    _ a <.: : : : : _ I S {.K %.*.r.+.}.^.m.^.s.c = a.t.        ",
"    m b.: : : : : : u.v.$.k.K w.x.y.f.}.^.n.z.m @ @ '.u.        ",
"    m . g : : : : . !.S {.M %.E x.*.g.g.A.B.t.~ p.0 *           ",
"      : : : : : : ).t.x G %.G *.f.f.y.A.8.I C.a.I               ",
"        D.: 3 3 : . [.T E V E.v.A.F.G.H.p.= = =                 ",
"          D.D.3 : : Q I.E v - % 9 H D = t.p .                   ",
"            : : D.3 g [.T s t 9 ~ t.t.p u.                      ",
"              : : : : c.v.- # t.D p J.b.                        ",
"                    : Q J.+ p ).6.K.                            ",
"                                                                "};
