/* XPM */
static char *magick[] = {
/* columns rows colors chars-per-pixel */
"32 32 89 1",
"  c black",
". c #3c0022",
"X c #232323",
"o c #383838",
"O c #420026",
"+ c #612651",
"@ c #6b325c",
"# c gray35",
"$ c #704064",
"% c #76496a",
"& c gray38",
"* c #6b6b6b",
"= c #747474",
"- c #7d7d7d",
"; c #8e003e",
": c #bb0037",
"> c #921561",
", c #862965",
"< c #a10054",
"1 c #a93479",
"2 c #8f4273",
"3 c #815575",
"4 c #ca006a",
"5 c #c7157d",
"6 c #de0077",
"7 c #b23580",
"8 c #ba77a0",
"9 c #de0c83",
"0 c #c53c8c",
"q c #e32c92",
"w c #e5439d",
"e c #eb489c",
"r c #f369b4",
"t c #b3af72",
"y c #bfbd6a",
"u c #b7b773",
"i c #bcbc74",
"p c #bdbe78",
"a c #c1bf72",
"s c #c6c47c",
"d c #838383",
"f c gray55",
"g c #959595",
"h c #9b9c9c",
"j c #a19e81",
"k c #a4a4a4",
"l c #a9a9a9",
"z c #bea8b8",
"x c #b3b3b3",
"c c #bdbdbd",
"v c #cd88b3",
"b c #e495c5",
"n c #f6b5d9",
"m c #cac886",
"M c #cbca8a",
"N c #cece94",
"B c #d1cd93",
"V c #d0d096",
"C c #d2d29c",
"Z c #d5d4a3",
"A c #d7d6a8",
"S c #d8d7a7",
"D c #d8d7a8",
"F c #d9d8ac",
"G c #dcdbb2",
"H c #deddb8",
"J c #e0deba",
"K c #e1e0bd",
"L c #c5c5c5",
"P c #cdcdcd",
"I c LightGray",
"U c #dbdadb",
"Y c #e3e3c3",
"T c #e6e5c9",
"R c #e8e7cc",
"E c #e9e8ce",
"W c #eaead2",
"Q c #ededda",
"! c #f0efde",
"~ c #e2e2e2",
"^ c #ececec",
"/ c #fae3f1",
"( c #f1f1e2",
") c #f5f5eb",
"_ c gray96",
"` c #f8f7f0",
"' c #f9f9f4",
"] c #fefefe",
"[ c None",
/* pixels */
"[[[[[[[[[[[[[[[[[[[[[[[[[[[[[[[[",
"[[[[[[[[[[[[[[[[[[[[[[[[[[oooo[[",
"[[[[[[[[[[[[[[[[[[[[[[[oooWWQo[[",
"[[[[[[[[[[[[[[[[[[[[oooTTEQ)'o[[",
"[[[[[[[[[[[[[[[[[oooKYYE)z%$'o[[",
"[[[[[[[[[[[[[[oooGHJK!U3+@O2'o[[",
"[[[[[[[[[[[oooFGGGHJY)+.]]>1'o[[",
"[[[[[[[[oooDFFGGGHJYY),8]v;0]o[[",
"[[[[[oooZDDFFGGGHHKYT`7<]b:9'o[[",
"[[oooCZZZDDFFFGGHKYYT)54w6r/'o[[",
"[[oCCZZZDDFGGGGHKKYTR)qen`())o[[",
"[[oCZZZSDFFFGGGHKYYRR])!!!)))o[[",
"[[oZCZAADFFGGGHKKYTRWW!!(())`o[[",
"[[oCZZDDDGFGGHHJYYTWWW!!())`'o[[",
"[[oZZZDFFGGGHHKYYTWRWQ!(())''o[[",
"[[oZDDFFFGFGGKYYTTRWWQQ!((`''o[[",
"[[oSSFFFGGGGJKKTYTTTElcWQ!)`'o[[",
"[[oSADFFGGGJKKTKYYEgc^'HTW!)'o[[",
"[[oSAFFGFGHJKKKKHGfglL_]CKW)'o[[",
"[[oFFFFFGHGJJJGDCMdxcP~]_NTooo[[",
"[[oSFGGGGGGGGDZNyu-P~U^_]U [[[[[",
"[[oAFFFGGGFDZBMiuj#dglP^]U [[[[[",
"[[oFFGFGFDZVMMyihf*hxI^_'U [[[[[",
"[[oFGGFDDZVMsipg*kPU~~^_^P [[[[[",
"[[oFGFFAZVCMXo-cU^~IU___U [[[[[[",
"[[oGGFASZ=*o&xPUP~^__^Uc [[[[[[[",
"[[oGGGoo&] hUUUUUILlgf  [[[[[[[[",
"[[oooo[[[ kkd#X       [[[[[[[[[[",
"[[[[[[[[ l=    [[[[[[[[[[[[[[[[[",
"[[[[[[[ x  [[[[[[[[[[[[[[[[[[[[[",
"[[[[[[[[ [[[[[[[[[[[[[[[[[[[[[[[",
"[[[[[[[[[[[[[[[[[[[[[[[[[[[[[[[["
};
