/* XPM */
static char *magick[] = {
/* columns rows colors chars-per-pixel */
"32 32 154 2",
"   c #000000",
".  c #0a0a0c",
"X  c #16120c",
"o  c #1e1a14",
"O  c #1a1a1c",
"+  c #24221c",
"@  c #2e2e1c",
"#  c #2e2e24",
"$  c #323224",
"%  c #34332c",
"&  c #363a2c",
"*  c #3e3e34",
"=  c #3e4234",
"-  c #4e3e24",
";  c #423e34",
":  c #424237",
">  c #46463c",
",  c #464a3c",
"<  c #62421c",
"1  c #6e5e3c",
"2  c #424644",
"3  c #4b4c42",
"4  c #4a4a4c",
"5  c #4e4e54",
"6  c #4e5244",
"7  c #53524a",
"8  c #5a564c",
"9  c #5a5a4c",
"0  c #565650",
"q  c #5a5a54",
"w  c #5e5e5c",
"e  c #665e44",
"r  c #62625c",
"t  c #6a6a5c",
"y  c #766644",
"u  c #7e6a44",
"i  c #6d6a64",
"p  c #6e726c",
"a  c #767264",
"s  c #76766c",
"d  c #7a7664",
"f  c #767a74",
"g  c #7a7a74",
"h  c #7e827c",
"j  c #826a3c",
"k  c #9e8a4c",
"l  c #868278",
"z  c #8a867c",
"x  c #928a7c",
"c  c #ae864c",
"v  c #c2863c",
"b  c #c69e4c",
"n  c #dea44c",
"m  c #deaa4c",
"M  c #deaa54",
"N  c #deaa5c",
"B  c #deae64",
"V  c #d2b674",
"C  c #d2ba74",
"Z  c #e2a244",
"A  c #e3a64c",
"S  c #e6aa4c",
"D  c #eeaa44",
"F  c #eaaa4c",
"G  c #e6ad54",
"H  c #e5aa5c",
"J  c #eaae54",
"K  c #eaae5c",
"L  c #ecb454",
"P  c #e9b25d",
"I  c #eebc5c",
"U  c #f2b24c",
"Y  c #ecb564",
"T  c #eabe6c",
"R  c #eebe74",
"E  c #edbd7b",
"W  c #f2be64",
"Q  c #f2ba6c",
"!  c #f6c26c",
"~  c #fac670",
"^  c #82868c",
"/  c #8e8a84",
"(  c #929287",
")  c #9a968c",
"_  c #929694",
"`  c #9b9b94",
"'  c #9a9ea4",
"]  c #aea28c",
"[  c #a6a29c",
"{  c #aaa69c",
"}  c #aeaa9c",
"|  c #b2b284",
" . c #adada4",
".. c #aaaaac",
"X. c #b2b2a4",
"o. c #b2b2ac",
"O. c #bab6ac",
"+. c #b6b6b4",
"@. c #bebeb4",
"#. c #c2ae94",
"$. c #ceba9c",
"%. c #d6ba84",
"&. c #deba84",
"*. c #f2be84",
"=. c #c4c4bc",
"-. c #e6c284",
";. c #f5c58b",
":. c #faca8c",
">. c #f6c694",
",. c #f6ce9c",
"<. c #face94",
"1. c #fece9c",
"2. c #fed28c",
"3. c #fad29c",
"4. c #fed6a4",
"5. c #fad6ac",
"6. c #fedaa4",
"7. c #fedcac",
"8. c #fee2a4",
"9. c #fee2ac",
"0. c #fee2b3",
"q. c #fee6bc",
"w. c #feebb4",
"e. c #feeebc",
"r. c #c6c6c4",
"t. c #c2c6cc",
"y. c #cac6c4",
"u. c #d2cecc",
"i. c #dedacc",
"p. c gray83",
"a. c #d6dad4",
"s. c #dcdcdd",
"d. c #e2decc",
"f. c #e2ded4",
"g. c #e3e2dc",
"h. c #fae2c4",
"j. c #feeec4",
"k. c #fef3c4",
"l. c #fef2cc",
"z. c #fefac4",
"x. c #e4e6e4",
"c. c #e2e6ec",
"v. c #eae6e4",
"b. c #eae6ee",
"n. c #eaeae4",
"m. c #ebedec",
"M. c #eef2f4",
"N. c #f2eef4",
"B. c #f4f4f4",
"V. c #f6f6fc",
"C. c #f6fafc",
"Z. c #faf6f8",
"A. c #fcfcfb",
"S. c None",
/* pixels */
"S.S.S.S.S.S.S.S.S.S.S.S.S.S.S.S.S.S.S.S.S.S.S.S.S.S.S.S.S.S.S.S.",
"S.S.S.S.S.S.S.S.S.S.S.S.S.S.S.S.S.S.S.S.S.S.S.S.S.S.S.S.S.S.S.S.",
"S.S.S.S.S.S.S.S.S.S.S.S.S.S.      S.S.S.S.S.S.S.S.S.S.S.S.S.S.S.",
"S.S.S.S.S.S.S.S.S.S.S.S.S.   .a. .  S.S.S.S.S.S.S.S.S.S.S.S.S.S.",
"S.S.S.S.S.S.S.S.S.S.S.S.S.  A.A.Z.  S.S.S.S.S.S.S.S.S.S.S.S.S.S.",
"S.S.S.S.S.S.    S.S.S.S.S.  A.M.A.. S.S.S.S.S.    S.S.S.S.S.S.S.",
"S.S.S.S.S.  v.x..   S.    `  .a.[ z     S.    v.x.  S.S.S.S.S.S.",
"S.S.S.S.. x.A.B.s.(   =.n.B.n.p.v.B.A.=.  ` A.C.A.v.  S.S.S.S.S.",
"S.S.S.S.. a B.B.[ m.m.+.= 3 y u e 2 > +.m.m.{ B.m.a   S.S.S.S.S.",
"S.S.S.S.S.  a  .m.' = 1 L U U U W W W 1 5 r.m.o.a   S.S.S.S.S.S.",
"S.S.S.S.S.S.  m._ : c L G G S Y L I W ! b : s.m.  S.S.S.S.S.S.S.",
"S.S.S.S.S.  ` t.7 b F L G Y P I Q E R *.! b 7 m.w   S.S.S.S.S.S.",
"S.        i x.f k G A A J Y Y Y E ;.1.3.:.~ j ..g.8         S.S.",
"  +.u.u.g.{ A.p H S M H Y c - - c -.0.9.7.<.b ^ A.} s.p.p.+.  S.",
"  Z.b.b.p.@.x.x D m n H T < -   X v q.7.7.4.V h A.} b.M.B.s.  S.",
". r.V.V.s.{ A.x Z m m H I - S.S.  C w.0.0.0.%.` A.[ A.A.A.b.  S.",
". & * i } i x.] n A G Y ;.2.u   | z.k.w.0.w.&.@.m.0  .t * *   S.",
"S.      6 3 n.v.N S H R ;.0.j.l.l.z.z.k.w.9.#.v.p.$ 6       S.S.",
"S.S.S.S.  # z v.i.B A E >.6.9.k.e.z.z.e.8.$.m.A.w   . S.S.S.S.S.",
"S.S.S.S.S.  i ` A.i.H Y E 3.7.w.e.k.w.8.$.g.A.l g   S.S.S.S.S.S.",
"S.S.S.S.  r.a.7  .A.d.,.K Y ;.7.6.4.:.h.n.A./ d v.y.  S.S.S.S.S.",
"S.S.S.  r.n.c.g.0 h y.n.C.C.4.4.5.m.C.A.=.d z A.N.B.y.  S.S.S.S.",
"S.S.S.  a.x.n.b.c., 9 g o.m.A.A.A.g.[ f = g C.Z.B.A.a.  S.S.S.S.",
"S.S.S.  x.x.x.+.>   > 3 & 7 4 4 3 7 @ 3 &   3 +.b.B.=.  S.S.S.S.",
"S.S.S.  ; ( _ ,     S.  % v.B.N.V.v.o   S.    = ( =.%   S.S.S.S.",
"S.S.S.S.  0 7   S.S.S.S.  @.b.N.N.=.  S.S.S.S.  3 *   S.S.S.S.S.",
"S.S.S.S.S.    S.S.S.S.S.  i B.N.B.i   S.S.S.S.S.    S.S.S.S.S.S.",
"S.S.S.S.S.S.S.S.S.S.S.S.    v.N.n.O   S.S.S.S.S.S.S.S.S.S.S.S.S.",
"S.S.S.S.S.S.S.S.S.S.S.S.S.  O.X.=.. S.S.S.S.S.S.S.S.S.S.S.S.S.S.",
"S.S.S.S.S.S.S.S.S.S.S.S.S.3 + + + 6 S.S.S.S.S.S.S.S.S.S.S.S.S.S.",
"S.S.S.S.S.S.S.S.S.S.S.S.S.S.S.S.S.S.S.S.S.S.S.S.S.S.S.S.S.S.S.S.",
"S.S.S.S.S.S.S.S.S.S.S.S.S.S.S.S.S.S.S.S.S.S.S.S.S.S.S.S.S.S.S.S."
};
