/* XPM */
static char *magick[] = {
/* columns rows colors chars-per-pixel */
"32 32 226 2",
"   c black",
".  c #08201a",
"X  c #052027",
"o  c #05232b",
"O  c #07282e",
"+  c #062630",
"@  c #062833",
"#  c #072e3d",
"$  c #082a32",
"%  c #082e3b",
"&  c #07313d",
"*  c #083036",
"=  c #083838",
"-  c #11342a",
";  c #083243",
":  c #08354b",
">  c #09394c",
",  c #083751",
"<  c #08345b",
"1  c #083a54",
"2  c #093d5c",
"3  c #11344c",
"4  c #093d60",
"5  c #0c435d",
"6  c #084d5b",
"7  c #084164",
"8  c #08446b",
"9  c #0e4965",
"0  c #0d4b6c",
"q  c #094772",
"w  c #0d447c",
"e  c #0a4b73",
"r  c #0a4c7d",
"t  c #0f5277",
"y  c #104d6c",
"u  c #115174",
"i  c #11547a",
"p  c #787775",
"a  c #0a4e82",
"s  c #0a5285",
"d  c #0d5b93",
"f  c #0c5c99",
"g  c #115581",
"h  c #105881",
"j  c #115a89",
"k  c #126097",
"l  c #14649b",
"z  c #0d60a1",
"x  c #0e67b1",
"c  c #0e6ab2",
"v  c #1469a5",
"b  c #136aab",
"n  c #156fb4",
"m  c #1470b5",
"M  c #1473bb",
"N  c #1975b5",
"B  c #1c79b7",
"V  c #1c79ba",
"C  c #1576c1",
"Z  c #1579c5",
"A  c #157bcb",
"S  c #1a7cc1",
"D  c #167ed0",
"F  c #457f90",
"G  c #1c84ce",
"H  c #1581d3",
"J  c #1883d6",
"K  c #1885d9",
"L  c #1d8ad5",
"P  c #188add",
"I  c #168fe0",
"U  c #1992e6",
"Y  c #1992e8",
"T  c #1b9ae9",
"R  c #1ea0ed",
"E  c #1ea3f0",
"W  c #208ad4",
"Q  c #228fd8",
"!  c #2493dc",
"~  c #2993d9",
"^  c #2c99df",
"/  c #2499e4",
"(  c #24a3ef",
")  c #2fa3e7",
"_  c #29a3ec",
"`  c #23a5f0",
"'  c #23aef4",
"]  c #2dacf1",
"[  c #26b4f7",
"{  c #2fb0f4",
"}  c #2ab3f8",
"|  c #2bbcfa",
" . c #36a8ea",
".. c #39acee",
"X. c #33aef1",
"o. c #32b1f5",
"O. c #34bafb",
"+. c #3bb4f3",
"@. c #3dbbf9",
"#. c #35c6fe",
"$. c #3ac3fd",
"%. c #3accff",
"&. c #3dd3ff",
"*. c #49808f",
"=. c #4c8390",
"-. c #50868f",
";. c #508590",
":. c #528993",
">. c #489dbd",
",. c #4ea1bd",
"<. c #53a6bd",
"1. c #6c8a8e",
"2. c #789d9d",
"3. c #69afbb",
"4. c #4aadd6",
"5. c #54aac0",
"6. c #41b5f3",
"7. c #40b9f7",
"8. c #42bdf9",
"9. c #44c4fd",
"0. c #43cbff",
"q. c #4cc2fa",
"w. c #4ccbfe",
"e. c #42d3ff",
"r. c #42d8ff",
"t. c #4bd3ff",
"y. c #49dbff",
"u. c #51cdff",
"i. c #5acbfe",
"p. c #53d0ff",
"a. c #58d1ff",
"s. c #59dcff",
"d. c #52e0ff",
"f. c #5ae1ff",
"g. c #60c9e4",
"h. c #61d3ff",
"j. c #64ddff",
"k. c #69d4ff",
"l. c #6ed9ff",
"z. c #73ddff",
"x. c #62e2ff",
"c. c #6fe5ff",
"v. c #68eaff",
"b. c #76e1ff",
"n. c #75edff",
"m. c #7ce4ff",
"M. c #7cecff",
"N. c #7af0ff",
"B. c #80807e",
"V. c #a08b69",
"C. c #af9a7a",
"Z. c #b19a76",
"A. c #819a9c",
"S. c #969d9d",
"D. c #9b9895",
"F. c #849ea1",
"G. c #86a1a2",
"H. c #8aa3a3",
"J. c #91a7a5",
"K. c #b19f82",
"L. c #a3a099",
"P. c #b4a58c",
"I. c #b6a993",
"U. c #b8ac9b",
"Y. c #a1a5a5",
"T. c #a1a9a6",
"R. c #a8a6a3",
"E. c #aca9a5",
"W. c gray67",
"Q. c #b0a9a2",
"!. c #bbb3a5",
"~. c #bcb4a9",
"^. c #bcbdbd",
"/. c #83e7ff",
"(. c #83eaff",
"). c #8aedff",
"_. c #84f2ff",
"`. c #8cf3ff",
"'. c #92f5ff",
"]. c #92f8ff",
"[. c #9cf0ff",
"{. c #99f9ff",
"}. c #a2f0ff",
"|. c #a3feff",
" X c #aefcff",
".X c #b6fbfd",
"XX c #bbfeff",
"oX c #ceb189",
"OX c #cfb691",
"+X c #d3b486",
"@X c #d0b999",
"#X c #cdbca5",
"$X c #c8bba9",
"%X c #c3bfb5",
"&X c #d0bca0",
"*X c #eccea4",
"=X c #ead0ab",
"-X c #ecd4b4",
";X c #ebd6b9",
":X c #f1d8b5",
">X c #f0dbbc",
",X c gray79",
"<X c #d3d3d4",
"1X c #c4ffff",
"2X c #cbffff",
"3X c #d4ffff",
"4X c #dcffff",
"5X c #eedcc3",
"6X c #e3dfd8",
"7X c #f5dfc1",
"8X c #f2e2cc",
"9X c #f8e6cc",
"0X c #f4e5d0",
"qX c #f4e9d9",
"wX c #fbecd7",
"eX c #eeeeee",
"rX c #e4ffff",
"tX c #ebffff",
"yX c #f6ede2",
"uX c #f8efe4",
"iX c #faf2e5",
"pX c #faf5ee",
"aX c #f3ffff",
"sX c #fbf6f0",
"dX c #fefefe",
"fX c None",
/* pixels */
"fXfXfXfXfXfXfXfXfXfXfXfXfXfXfXfXfXfXfXfXfXfXfXfXfXfXfXfXfXfXfXfX",
"fXfXfXfXfXfXfXfXfXfXfXfXfXfXfXfXfXfXfXfXfXfXfXfXfXfXfXfXfXfXfXfX",
"fXfXfXfXfXfXfXfXfXs r r q q 7 7 7 7 8 8 8 q r fXfXfXfXfXfXfXfXfX",
"fXfXfXfXfXfXw r q q c H R | #.e.%.#.} T A z 8 4 8 7 fXfXfXfXfXfX",
"fXfXfXfX  r q x T %.f.v.'.3XrXrXtXrX3X_.j.t.O.I f 1 2 : fXfXfXfX",
"fXfXfXs q c ' y._.4XtXL.~.Q.Q.R.D.B.Y.tXtXrX2Xc.0.` k 1 9 fXfXfX",
"fXfXa 8 I %.M.4XaXaXaXE.dXdXdXdXdX<XE.S.aXaXrX3X1X}.9.H : 2 fXfX",
"fXs 8 E r.{.tXaXdXaXaXT.dXdXdXdXdXeX,X^.2..X.X XXX3X}.w.P : 2 fX",
"fXq I &.{.tXaXaXaX3XXXJ.dXdXdXdXdXdX^.R.p 3.).).).[.}.m.@.M : . ",
"r f #.n.rXaXaX3XXX|.{.H.dXdXdXdXdXdXdX6XL.:.(.(./.m./.m.9._ 0 1 ",
"q P r.].4X3XXX|.{.].].H.dXdXdXdXdXdXsXyX$X-./././.m.m.z.a.o.n ; ",
"7 [ d.`. X|.{.].'.].].H.dXdXdXdXdXpXuXwX$X;.(.(.m.m.m.z.h.@.L ; ",
"7 | f._.{.{.].].'.'.'.H.dXdXdXdXpXyXqX9X#X-.m.m.m.m.b.b.k.9.! # ",
"7 [ d._.].].].].'.'.`.G.dXdXdXsXyXqX8X7X&X-.m.m.b.b.z.z.k.8.L # ",
"8 T r.n.`.].].].'.'.`.G.dXdXpXuXqX8X5X;X@X-.m.z.b.z.z.l.h.+.S # ",
"q c #.f._.`.].`.`.`.`.A.dXsXuXqX8X7X;X-XOX-.z.z.z.z.z.k.i.X.v # ",
"w 7 ( %.x.M.`.`.`.'.`.A.dXiXqX8X5X;X=X=XoX=.z.z.l.z.l.k.8. .i % ",
"fXe s [ e.s.n.).).)._.A.dXiXwX9X7X;X=X*X+X=.z.z.l.k.k.h.6.~ 1 % ",
"fXfXq d ` #.y.x.b.M./.1.%X!.U.I.P.K.C.Z.V.F k.h.i.i.i.8. .V @ % ",
"fXfXfX8 2 H } #.0.s.x.g.<.<.<.<.<.,.<.,.>.4.q.7.+.+.+...~ i @ fX",
"fXfXfXfXq 2 r A ` O.$.0.w.t.a.p.u.u.w.9.+.X.) Q N W ^ ~ V % % fX",
"fXfXfXfXfXfX8 1 1 d Z ! _ ] { { X.X._ / G v 0 ; ; j V V 9 @ fX  ",
"fXfXfXfXfXfXfXfX8 2 1 : > 7 e r e 0 2 : & ; ; : ; > l h O & fX  ",
"fXfXfXfXfXfXfXfXfXfXfX6 2 5 1 1 1 > > 1 < fXfX% O u i $ $ fX    ",
"fXfXfXfXfXfXfXfXfXfXfXfXfXfXfXfXfXfXfXfXfXfX= o 5 9 O @ fXfX    ",
"fXfXfXfXfXfXfXfXfXfXfXfXfXfXfXfXfXfXfXfXfX$ o > > X O fXfXfXfX  ",
"fXfXfXfXfXfXfXfXfXfXfXfXfXfXfXfXfXfXfXfX$ o 3 o X $ fXfXfXfXfX  ",
"fXfXfXfXfXfXfXfXfXfXfXfXfXfXfXfXfXfX% o o o o O fXfXfXfXfXfXfXfX",
"fXfXfXfXfXfXfXfXfXfXfXfXfXfXfXfX- $ o o o $ fXfXfXfXfXfXfXfXfXfX",
"fXfXfXfXfXfXfXfXfXfXfXfXfXfXfXfXfXfXfXfXfXfXfXfXfXfXfXfXfXfXfXfX",
"fXfXfXfXfXfXfXfXfXfXfXfXfXfXfXfXfXfXfXfXfXfXfXfXfXfXfXfXfXfXfXfX",
"fXfXfXfXfXfXfXfXfXfXfXfXfXfXfXfXfXfXfXfXfXfXfXfXfXfXfXfXfXfXfXfX"
};
