/* XPM */
static char *magick[] = {
/* columns rows colors chars-per-pixel */
"32 32 9 1",
"  c black",
". c #585858",
"X c #c00000",
"o c red",
"O c #808080",
"+ c #a0a0a4",
"@ c #c0c0c0",
"# c white",
"$ c None",
/* pixels */
"$$$$$$$$$$$$$$$$$$$$$$$$$$$$$$$$",
"$$$$$$$$$$$$$$$  $$$$$$$$$$$$$$$",
"$$$$$$$$$$$$$$ O.  $$$$$$$$$$$$$",
"$$$$$$$$$$$$$ .##+.  $$$$$$$$$$$",
"$$$$$$$$$$$$$ .+###+.  $$$$$$$$$",
"$$$$$$$$$$$$$   .+###+.  $$$$$$$",
"$$$$$$  $$$$$ $$  .+###+.  $$$$$",
"$$$$$ O.  $$$$$$$+  .+###+. $$$$",
"$$$$ .##+.  $$$$$+    .+##@ $$$$",
"$$$$ .+###+.  $$$+      .@@ $$$$",
"$$$$ oo.+###+.  $+    @@ @@ $$$$",
"$$$$ $$oo.+###+.      @@ @ $$$$$",
"$$$$$$$$+oo.+###+.    @@  $$$$$$",
"$$$$$$$$+oooo.+##@    @@ $$$$$$$",
"$$$$$$$$+oooXoo.@@    @@ $$$$$$$",
"$$$$$$$$+oooX@@ @@    @@ $$$$$$$",
"$$$$$$$$+oooX@@ @     @@ $$$$$$$",
"$$$$$$$$+oooX@@       @@ $$$$$$$",
"$$$$$$$$+oooX@@       @@ $$$$$$$",
"$$$$$$$$+oooX@@       @@ $$$$$$$",
"$$$$$$$$+oooX@@       @@ $$$$$$$",
"$$$$$$$$+oooX@@       @@ $$$$$$$",
"$$$$$$$$+oooX@@ $     @@# $$$$$$",
"$$$$$$$$+oooX@@ $$$    #@@ $$$$$",
"$$$$$$$$+oooX@@ $$$$$   @ $$$$$$",
"$$$$$$$XooooX@@ $$$$$$$  $$$$$$$",
"$$$$$$XXooooX@@ $$$$$$$$$$$$$$$$",
"$$$$$$$$XXooX@@#X$$$$$$$$$$$$$$$",
"$$$$$$$$$$XXoo#@@X$$$$$$$$$$$$$$",
"$$$$$$$$$$$$XXo@X$$$$$$$$$$$$$$$",
"$$$$$$$$$$$$$$XX$$$$$$$$$$$$$$$$",
"$$$$$$$$$$$$$$$$$$$$$$$$$$$$$$$$"
};
