/* XPM */
static char *magick[] = {
/* columns rows colors chars-per-pixel */
"32 32 128 2",
"   c #1b1a1a",
".  c #251f1a",
"X  c #24201c",
"o  c #2c241b",
"O  c #31261b",
"+  c #36291c",
"@  c #3c2c1d",
"#  c #292925",
"$  c #2c2c2c",
"%  c #302e2c",
"&  c #34302c",
"*  c #3b332c",
"=  c #333331",
"-  c #40362c",
";  c #44382c",
":  c #4a3b2d",
">  c #403f3b",
",  c #4b4845",
"<  c #574f46",
"1  c #60574d",
"2  c #665d53",
"3  c #676059",
"4  c #766c60",
"5  c #7e776c",
"6  c #806e5b",
"7  c #807060",
"8  c #8a7661",
"9  c #ff0100",
"0  c #ff0e0b",
"q  c #ff1406",
"w  c #ff160a",
"e  c #ff2112",
"r  c #fb2525",
"t  c #fc4646",
"y  c #f57257",
"u  c #91806d",
"i  c #968878",
"p  c #a28a70",
"a  c #ad9378",
"s  c #a59381",
"d  c #ad9e8e",
"f  c #b49b84",
"g  c #baaa9a",
"h  c #acacaa",
"j  c #b8b1a0",
"k  c gray72",
"l  c #c1aa90",
"z  c #cdb299",
"x  c #dcbe9f",
"c  c #c2b2a3",
"v  c #c7b7a8",
"b  c #c4b9ae",
"n  c #cdb9a4",
"m  c #cbbba9",
"M  c #ee9c9c",
"N  c #f28989",
"B  c #f19191",
"V  c #f09e9e",
"C  c #eebc98",
"Z  c #f9a787",
"A  c #f8b18e",
"S  c #eea4a4",
"D  c #eeb0b0",
"F  c #f0a4a1",
"G  c #f5aeab",
"H  c #fcbea6",
"J  c #fdbcb5",
"K  c #e7c39f",
"L  c #e7c5a1",
"P  c #e0c4a9",
"I  c #e1caaf",
"U  c #edc9a5",
"Y  c #ecccaa",
"T  c #e2c9b2",
"R  c #e6d3bd",
"E  c #eed0b2",
"W  c #edd5bb",
"Q  c #f4c9a4",
"!  c #f2ceaa",
"~  c #f9ceaa",
"^  c #fecebd",
"/  c #f4d1ad",
"(  c #f9d1ac",
")  c #f5d3b3",
"_  c #f4d6b9",
"`  c #f3d8bc",
"'  c #f9d5b3",
"]  c #fbd7b8",
"[  c #fad8b6",
"{  c #fadbbb",
"}  c #c3c2c2",
"|  c #c8c7c6",
" . c gray80",
".. c #dfd5c7",
"X. c #d2d1d0",
"o. c #d9d9d9",
"O. c #ecc8c8",
"+. c #e5d4c0",
"@. c #eddcc9",
"#. c #ffcfcc",
"$. c #ffd7c5",
"%. c #fdd1cc",
"&. c #fadec2",
"*. c #ffd4d2",
"=. c #fedcd1",
"-. c #ffdcda",
";. c #f6e0cc",
":. c #fce1c5",
">. c #fde4cb",
",. c #f7e5d4",
"<. c #f6e9db",
"1. c #fce6d1",
"2. c #fee7db",
"3. c #fdead4",
"4. c #fdecdb",
"5. c #fef2dd",
"6. c #f1ebe5",
"7. c #ffe3e1",
"8. c #fdece3",
"9. c #ffefee",
"0. c #fef1e2",
"q. c #fdf4eb",
"w. c #fef9e6",
"e. c #fef9ed",
"r. c #fbf7f4",
"t. c #fefbf3",
"y. c #fefefe",
"u. c None",
/* pixels */
"u.u.u.u.u.u.u.u.u.u.u.u.u.u.u.u.u.u.u.u.u.u.u.u.u.u.u.u.u.u.u.u.",
"u.u.u.u.u.u.u.u.u.u.u.u.u.u.u.u.u.u.u.u.u.u.u.u.u.u.u.u.u.u.u.u.",
"u.u.u.u.u.u.u.u.u.u.u.u.$ $ $ $ $ = $ = $ $ u.u.u.u.u.u.u.u.u.u.",
"u.u.u.u.u.u.u.u.u.u.u.$ y.-.y.y.y.r.q.8...<.$ u.u.u.u.u.u.u.u.u.",
"u.u.u.u.u.u.u.u.u.u.u.$ 7.w 8.y.y.r.w.0.> m * u.u.u.u.u.u.u.u.u.",
"u.u.u.u.u.u.u.u.u.u.u.$ y.*.y.y.y.t.w.w.j >.; u.u.u.u.u.u.u.u.u.",
"u.u.u.u.u.u.u.u.u.u.u.$ y.y.y.y.t.w.5.5.5.3.* u.u.u.u.u.u.u.u.u.",
"u.u.u.u.u.u.u.$ $ $ $ $ y.y.y.y.0.5.&.3.3.>.& u.u.u.u.u.u.u.u.u.",
"u.u.u.u.u.u.$ y. .y.y.$ y.y.y.e.q q ^ 5.3.8.$ u.u.u.u.u.u.u.u.u.",
"u.u.u.u.u.u.$ }   | t.$ y.y.t.w q q 0 6., = $ $ $ $ $ & ; * u.u.",
"u.u.u.u.u.u.# y.h q.q.$ e.5.e w q 9 9 $ t.-.y.y.y.r.w.5.+.@.& u.",
"u.u.u.u.u.u.$ y.q.0.0.* 3.>.3.q 9 9 9 $ 7.e #.y.y.t.w.0.$ 2 & u.",
"u.u.$ $ $ $ $ y.0.4.b $ 3.3.3.<.9 9 q.$ y.-.7.y.y.t.e.w.5 R % u.",
"u.$ y.o.y.y.$ q.0.0.. $ 4.3.5.<.3.>.>.$ r.y.y.y.t.y.t.w.4.3.* u.",
"u.$ o.  X.y.$ q.v + 0.$ 8.3.3.1.:.{ { = 6.t.t.y.y.e.t.e.5.>.: u.",
"u.$ y.o.r.t.$ 0.@ O   $ <.3.;.:.{ [ { * q.q.t.O.e.t.O.w.3.:.: u.",
"u.$ y.y.y.e.% 5.g o 0.$ 1.s I { [ ' { * 0.q.N r #.=.t B >.:.: u.",
"u.$ y.y.y.e.* 3.3.4.} $ ,.< l [ ' [ [ * q.J r r r r r r H :.: u.",
"u.$ e.y.t.t.- >.3.4.$ $ >.P E ' ' ] ' $ 0.2.V r r r r S &.{ : u.",
"u.* 4.q.k   % 3.1.1.1.<.$ & * & * * $ $ 3.8.8.D r r G &.] _ : u.",
"u.; 4.c X   $ 4.>.:.{ :.` ` _ _ W $ u.$ 4.3.3.3.S M =.] _ E : u.",
"u.- 5.@ o   $ 3.4 I { { ' ~ U a Y $ u.$ 4.3.3.>.>.>.{ ' ~ Y ; u.",
"u.- 4.v O 5.$ <.1 z ` ` / / p X u $ u.$ 3.>.>.>.>.[ ' ' ! ! ; u.",
"u.* 3.3.>.} $ ,.;.) ' ' ! / Y f m $ u.* >.2 s :.{ ' ( ~ Z U - u.",
"u.* >.>.>.o   $ % $ * * & * % $ $ u.u.: [ 7 x [ ' ( ~ A e C * u.",
"u.* >.{ :.{ T W ` E E E $ u.u.u.u.u.u.- { [ ' ( ( ~ ~ Q y Y $ u.",
"u.$ :.i ` { ' ' U U a L & u.u.u.u.u.u.u.& ; ; ; * & $ % * $ u.u.",
"u.$ ;.$ W ` ~ ! ~ a   6 $ u.u.u.u.u.u.u.u.u.u.u.u.u.u.u.u.u.u.u.",
"u.$ ,.d ` ' ! Y Y K 8 z $ u.u.u.u.u.u.u.u.u.u.u.u.u.u.u.u.u.u.u.",
"u.u.$ = $ $ $ $ $ & % $ u.u.u.u.u.u.u.u.u.u.u.u.u.u.u.u.u.u.u.u.",
"u.u.u.u.u.u.u.u.u.u.u.u.u.u.u.u.u.u.u.u.u.u.u.u.u.u.u.u.u.u.u.u.",
"u.u.u.u.u.u.u.u.u.u.u.u.u.u.u.u.u.u.u.u.u.u.u.u.u.u.u.u.u.u.u.u."
};
