/* XPM */
static char *magick[] = {
/* columns rows colors chars-per-pixel */
"32 32 209 2",
"   c #020202",
".  c #0e0a07",
"X  c #0b0a09",
"o  c #110a03",
"O  c #120e0a",
"+  c #12100f",
"@  c #151514",
"#  c #1a1815",
"$  c #1c1b19",
"%  c #2d1600",
"&  c #2d1b09",
"*  c #311a02",
"=  c #3b1e00",
"-  c #26251f",
";  c #3d2103",
":  c #3d250d",
">  c #332013",
",  c #382410",
"<  c #3d2c1b",
"1  c #242421",
"2  c #2a242b",
"3  c #2b2c2a",
"4  c #302f28",
"5  c #3c3c37",
"6  c #1b346c",
"7  c #1f3f7e",
"8  c #2a3d65",
"9  c #2b3f68",
"0  c #3b425b",
"q  c #264078",
"w  c #354266",
"e  c #3f496b",
"r  c #374d7b",
"t  c #432303",
"y  c #43260a",
"u  c #402c17",
"i  c #522c06",
"p  c #522e0a",
"a  c #55310a",
"s  c #59330d",
"d  c #543312",
"f  c #50361c",
"g  c #5e3811",
"h  c #5f3c18",
"j  c #651700",
"k  c #601b01",
"l  c #750e0c",
"z  c #613911",
"x  c #783016",
"c  c #663c24",
"v  c #59412e",
"b  c #65401a",
"n  c #68421b",
"m  c #654422",
"M  c #6c4621",
"N  c #6e4a25",
"B  c #684b2c",
"V  c #704a24",
"C  c #714d29",
"Z  c #75512d",
"A  c #7a552e",
"S  c #735232",
"D  c #7b5631",
"F  c #7c5a35",
"G  c #7e5c39",
"H  c #514643",
"J  c #4c536d",
"K  c #5a5d6e",
"L  c #68624b",
"P  c #746354",
"I  c #716f5f",
"U  c #6d6d64",
"Y  c #0e3787",
"T  c #073694",
"R  c #0d3b96",
"E  c #103d96",
"W  c #194397",
"Q  c #204084",
"!  c #23468d",
"~  c #244b9a",
"^  c #344f8c",
"/  c #3f5488",
"(  c #325598",
")  c #274fa0",
"_  c #375eae",
"`  c #466298",
"'  c #4b669c",
"]  c #5d6f8d",
"[  c #4065ab",
"{  c #4969a1",
"}  c #7792c7",
"|  c #7893c7",
" . c #871d0b",
".. c #9e0e00",
"X. c #ba140a",
"o. c #b52a16",
"O. c #a42e25",
"+. c #8d4a2b",
"@. c #864639",
"#. c #805a36",
"$. c #805e3a",
"%. c #945537",
"&. c #82603b",
"*. c #a3513c",
"=. c #836241",
"-. c #896542",
";. c #8a6845",
":. c #8c6c4b",
">. c #847d5e",
",. c #937453",
"<. c #977758",
"1. c #977859",
"2. c #9a7c5d",
"3. c #8a7767",
"4. c #957261",
"5. c #b95943",
"6. c #a06141",
"7. c #a26a5c",
"8. c #ba644e",
"9. c #ce0e0b",
"0. c #d02921",
"q. c #e10503",
"w. c #e30d06",
"e. c #e21917",
"r. c #ec1511",
"t. c #e02423",
"y. c #ee392d",
"u. c #ea523f",
"i. c #c97b69",
"p. c #ea5040",
"a. c #9f8364",
"s. c #93927b",
"d. c #9c9578",
"f. c #a38769",
"g. c #a68a6f",
"h. c #b38b6c",
"j. c #a9a27f",
"k. c #8b9bae",
"l. c #afa886",
"z. c #afaa89",
"x. c #b1aa87",
"c. c #b5b49d",
"v. c #b8b69b",
"b. c #babaa0",
"n. c #bab9ab",
"m. c #849ccc",
"M. c #a9b7c3",
"N. c #c4bb93",
"B. c #ff9696",
"V. c #f8a9a7",
"C. c #c5c09f",
"Z. c #c2c1a7",
"A. c #c5c4a8",
"S. c #cec8a1",
"D. c #c6c6b9",
"F. c #cacab1",
"G. c #c9cab9",
"H. c #dfd8ac",
"J. c #d3d0b2",
"K. c #d6d6b8",
"L. c #dbd5b1",
"P. c #dbdabc",
"I. c #e5d69c",
"U. c #efdc9e",
"Y. c #e5dba4",
"T. c #e1dbae",
"R. c #e0d5b5",
"E. c #e2ddb7",
"W. c #e4e0b9",
"Q. c #f6e3a5",
"!. c #f1e2ae",
"~. c #f7e9ac",
"^. c #f8e7a8",
"/. c #f2e4b5",
"(. c #f3e6b8",
"). c #f7ebb2",
"_. c #f3ebbb",
"`. c #f8eeb6",
"'. c #f8ecbb",
"]. c #f8f0b7",
"[. c #f8f1ba",
"{. c #cacac8",
"}. c #dbdbc0",
"|. c #e3e1c2",
" X c #e2e2ce",
".X c #eceac3",
"XX c #eceacc",
"oX c #e7e6d0",
"OX c #e2e2dc",
"+X c #ebebdb",
"@X c #f5ecc3",
"#X c #f9edc3",
"$X c #f0efde",
"%X c #f5f1c6",
"&X c #f4f2ce",
"*X c #f9f2c4",
"=X c #faf4cb",
"-X c #fcf8cc",
";X c #f4f3de",
":X c #f9f5d1",
">X c #fcfad4",
",X c #fefcdb",
"<X c #f1f1e7",
"1X c #f7f7ee",
"2X c #fdfce2",
"3X c #fefdeb",
"4X c #fefef3",
"5X c #fffefe",
"6X c None",
/* pixels */
"6X6X6X6X6X6X6X6X6X6X6X6X6X6X6X6X6X6X6X6X6X6X6X6X6X6X6X6X6X6X6X6X",
"6X6X6X6X6X6X6X6X6X6X6X6X6X6X6X6X6X6X6X6X6X6X6X6X6X6X6X6X6X6X6X6X",
"6X6X6X6X6X6X6X6X6X6X6X6X6X6X6X6X6X6X6X6X6X6X6X6X6X6X6X6X6X6X6X6X",
"6X6X6Xs b C z N b Z C n n s s a a t = = = = = = = = = = = 6X6X6X",
"6X6X6Xn M C S 4X4X5X$.Z V 4X4X3Xi t ; >X>X>X= c  .E.L.#X= 6X6X6X",
"6X6X6XZ A G =.4X5X4X&.&.A 4X4X2Xi i t ,X>X>Xj B.t.4 C.*X= 6X6X6X",
"6X6X6XZ C D Z 4X5X5X;.;.C 4X4X3Xz i i ,X,X>X..q.l $ E.=X= 6X6X6X",
"6X6X6X$.4X5X4X:.,.,.5X5X4XD n a 3X2X,Xt ; = R.X X O = = = 6X6X6X",
"6X6X6XD 4X4X5X,.:.,.5X5X5XD V n 3X,X,Xt ; = K.c.Z.: = = = 6X6X6X",
"6X6X6X#.4X5X5X2.<.g.5X5X5XS n N 4X2X,Xt = ; =X|.J.= = = = 6X6X6X",
"6X6X6X,.,.f.1.5X5X5X=.h.=.5X5X4Xm v e ,X>X>X= = = >X-X=X= 6X6X6X",
"6X6X6X;.:.2.a.5X5X5Xi.B.0.X OX4X/ m._ 3 J.>X= = = >X-X=X= 6X6X6X",
"6X6X6X;.D D F 5X5X5X5.r.O.  n.$X^ ) 6   Z.>X= = = -X*X=X= 6X6X6X",
"6X6X6XG 4X4X4XD =.:.{.1 X # 4.C 2XG.1 . 7.x >X-X-X= K w = 6X6X6X",
"6X6X6XF 3X4X3XS G P 3X1X<X8.B.y.n.XX&XB B.u.v.s.=Xy m.` o 6X6X6X",
"6X6X6Xh 4X3X3Xh G S 4X4X4X6.p.*.$ b.>X%.r.@.# L.-Xr ! 8 . 6X6X6X",
"6X6X6Xz N +.o.;X1X4XC P J D.U @ + ; t W.I # , = = %XS.1 . 6X6X6X",
"6X6X6Xp S V.w.5 +X3X3.m.R 3 D.|.y ; ; -X%X.X; = ; [._.].; 6X6X6X",
"6X6X6Xk X.e.9.X oX3XQ T 7   K.>X; ; = -X-X-X= ; = ].[._.= 6X6X6X",
"6X6X6X; XX3   o y d ,X3   O y ; -X-X:X= = ; %X[.[.; ; = = 6X6X6X",
"6X6X6X= >X}.|.= ; y >XP.&X; ; = =X=X-X; * ; ].].`.= = = = 6X6X6X",
"6X6X6X= :X:X:X= = = :X:X=X; = = %X-X[.; = = ].].`.= = = = 6X6X6X",
"6X6X6X= = = = :X=X=X= = = =XM.{ ; f q ].].].= : 0 H.).~.= 6X6X6X",
"6X6X6X= = = = :X=X#X= = = oXm.( < } ' X z.].H } ~ 3 >.^.= 6X6X6X",
"6X6X6X= = = = %X#X%X= = 2 k.E ]   R 8   j.`.Y [ Y $ L Q.= 6X6X6X",
"6X6X6X= #X%X=X= = = %X%X}.>     X - X   ; ; T.N.    & = = 6X6X6X",
"6X6X6X= #X#X#X= = = @X@X@X= % * l.l.N.y ; = ~.Y.d.< = = = 6X6X6X",
"6X6X6X= '.'.#X= = = @X(./.= = = /./.!.= = = ^.I.U.= = = = 6X6X6X",
"6X6X6X= = = = = = = = = = = = = = = = = = = = = = = = = = 6X6X6X",
"6X6X6X6X6X6X6X6X6X6X6X6X6X6X6X6X6X6X6X6X6X6X6X6X6X6X6X6X6X6X6X6X",
"6X6X6X6X6X6X6X6X6X6X6X6X6X6X6X6X6X6X6X6X6X6X6X6X6X6X6X6X6X6X6X6X",
"6X6X6X6X6X6X6X6X6X6X6X6X6X6X6X6X6X6X6X6X6X6X6X6X6X6X6X6X6X6X6X6X"
};
