/* XPM */
static char *magick[] = {
/* columns rows colors chars-per-pixel */
"32 32 161 2",
"   c #191919",
".  c gray20",
"X  c #3c3c3c",
"o  c #036632",
"O  c #056831",
"+  c #027d24",
"@  c #027b28",
"#  c #0b7b2b",
"$  c #1b6531",
"%  c #226633",
"&  c #3c7040",
"*  c #683c1f",
"=  c #69362c",
"-  c #6b3a22",
";  c #6d382a",
":  c #663332",
">  c #683534",
",  c #6e3a33",
"<  c #713d23",
"1  c #703c2c",
"2  c #713e33",
"3  c #703f3c",
"4  c #674713",
"5  c #6d431e",
"6  c #75410b",
"7  c #7a430d",
"8  c #744512",
"9  c #72451d",
"0  c #71491c",
"q  c #7a4613",
"w  c #79461b",
"e  c #7d4913",
"r  c #7c4818",
"t  c #7a521f",
"y  c #714225",
"u  c #744128",
"i  c #79442a",
"p  c #7c4e21",
"a  c #7c4928",
"s  c #744133",
"d  c #754439",
"f  c #794530",
"g  c #7d4a30",
"h  c #715825",
"j  c #796719",
"k  c #736a34",
"l  c #7c7629",
"z  c #6d4345",
"x  c #646464",
"c  c #6a6a6a",
"v  c gray44",
"b  c #7c7c7c",
"n  c blue",
"m  c #009b1f",
"M  c #008427",
"N  c #008328",
"B  c #038825",
"V  c #009322",
"C  c #0f9d23",
"Z  c #108725",
"A  c #11823b",
"S  c #00aa19",
"D  c #00bc14",
"F  c #309a31",
"G  c #24ae27",
"H  c #00c80f",
"J  c #00d60b",
"K  c #00d80c",
"L  c #00e506",
"P  c #00ee05",
"I  c #0deb11",
"U  c #00fc00",
"Y  c #74b233",
"T  c #52a947",
"R  c #67ca33",
"E  c #75c333",
"W  c #6ecbfa",
"Q  c #74ccf9",
"!  c #7acef9",
"~  c #7fd0f9",
"^  c #804a14",
"/  c #824d1a",
"(  c #85521c",
")  c #88531a",
"_  c #844e22",
"`  c #824e29",
"'  c #804c33",
"]  c #865223",
"[  c #865129",
"{  c #875c20",
"}  c #845b2a",
"|  c #8c5720",
" . c #8a552b",
".. c #8c5926",
"X. c #8d582c",
"o. c #895533",
"O. c #8d5832",
"+. c #905924",
"@. c #945e2c",
"#. c #905d33",
"$. c #81611b",
"%. c #836921",
"&. c #8a6023",
"*. c #836233",
"=. c #887328",
"-. c #906527",
";. c #95612d",
":. c #99642f",
">. c #916035",
",. c #926238",
"<. c #9a6633",
"1. c #9c6a37",
"2. c #9b6a3a",
"3. c #835345",
"4. c #86594a",
"5. c #825854",
"6. c #8d6047",
"7. c #8d6055",
"8. c #906344",
"9. c #966f59",
"0. c #9a7349",
"q. c #a17141",
"w. c red",
"e. c #83b640",
"r. c #ad8359",
"t. c #8bca3f",
"y. c #cc9933",
"u. c #ffcc00",
"i. c #ffff66",
"p. c #9a9a9a",
"a. c #a3a3a3",
"s. c #aaaaaa",
"d. c gray71",
"f. c #bbbbbb",
"g. c #87d3f7",
"h. c #83d2f9",
"j. c #8cd5f2",
"k. c #89d3f9",
"l. c #93cfef",
"z. c #91d6fa",
"x. c #95d8fa",
"c. c #9cdafa",
"v. c #a4defa",
"b. c #abe0fb",
"n. c #b2e2fb",
"m. c #bce6fb",
"M. c #ffcc99",
"N. c #c3c3c3",
"B. c #cacaca",
"V. c #d5d5d5",
"C. c #dadada",
"Z. c #c3e6f8",
"A. c #c5e9fb",
"S. c #ccecfc",
"D. c #d2edfc",
"F. c #dbf1fc",
"G. c gray90",
"H. c #e4f4fd",
"J. c #ebf7fd",
"K. c #ecf8fd",
"L. c #f2f9fd",
/* pixels */
". . . . . . . . . . . . . . . . . . . . . . . . . . . . . . . . ",
". Q Q   Q   W       Q       W Q Q W Q   M.W   M.W   M.Q Q W Q . ",
". Q Q Q Q ! Q Q Q ! Q ! Q Q Q ! Q Q Q w.w.Q w.w.Q w.w.Q Q Q Q . ",
". ! ! ! ! ! ! ! ! ! G.G.! ! ! ! ! ! ! n n Q n n Q n n ! ! ! ! . ",
". ~ h.! h.! G.G.h.C.C.C.V.~ ~ ~ h.! h.h.! h.! h.h.! h.! h.! h.. ",
". h.h.h.h.C.C.V.B.B.B.N.N.f.h.h.h.h.h.h.h.h.h.h.h.h.h.h.h.h.h.. ",
". k.k.k.B.B.N.N.f.f.f.d.s.s.a.h.k.k.k.k.h.k.k.k.g.t.Y E R E Y . ",
". k.k.f.f.f.d.s.s.s.a.a.a.p.p.p.k.k.k.k.k.k.k.z.j.T G C B @ # . ",
". z.z.s.s.a.a.p.p.p.p.p.p.p.p.p.z.z.z.x.z.z.z.x.z.e.F Z + M M . ",
". x.x.x.x.x.x.x.x.x.x.x.x.x.z.x.x.x.x.x.x.x.x.x.x.l.2 q.@.( ( . ",
". c.c.c.c.c.c.c.c.c.c.c.c.c.c.x.c.x.c.x.x.c.x.x.c.c.#.@.) ^ 6 . ",
". c.c.c.c.c.c.v.c.c.c.c.c.c.v.v.c.v.c.c.c.v.v.v.c.c.0.@.) e 7 . ",
". v.v.v.v.v.v.v.v.c.v.v.v.v.v.v.v.v.v.v.v.v.v.v.v.v.z X.) e e . ",
". v.v.v.v.v.v.v.v.v.v.v.v.v.v.v.v.v.v.v.v.v.v.v.v.v.>  ._ w r . ",
". v.n.v.v.n.v.v.n.v.v.n.v.v.n.v.v.n.v.n.n.v.n.v.v.n.> i ` < e . ",
". n.n.n.n.n.n.n.n.n.n.n.n.n.n.n.n.v.n.n.v.n.n.n.n.n., 3.` - > . ",
". n.n.n.n.n.n.n.n.n.n.n.n.n.n.n.m.n.# K B O U m.n.n.g 7.f ; 6 . ",
". m.m.m.m.m.m.m.i.m.m.m.m.m.m.m.m.m.& k l -.O m.m.m.d 6.a ; / . ",
". A.m.m.m.A.m.i.u.y.m.m.A.m.m.m.m.m.A.*.} 9.m.m.m.m.2 #.p = | . ",
". A.A.m.A.A.A.A.y.A.A.A.Z.A.A.A.A.A.A.A.A.A.A.A.A.A.o.,.] = ] . ",
". A.A.A.A.S.A.A.A.A.S.A.A.S.A.A.A.A.A.S.A.A.S.A.S.A.2 2.( ; ] . ",
". S.      S.S.S.S.S.S.S.S.S.S.S.S.S.S.S.S.S.S.S.S.S.2 1.( 1 ] . ",
". D.  M.M.D.D.N.N.c D.S.D.D.D.D.S.D.D.D.D.D.D.D.D.S.o.<./ u ] . ",
". D.D.M.D.F.D.p.a.v D.D.D.L m J N P D.D.D.D.D.D.D.D.O.<./ i  .. ",
". D.w.n w.F.F.s.p.x F.F.F.$ h 8 ..$ F.D.F.F.F.F.F.F.2 :.] 2 +.. ",
". H.n n n F.F.a.b X F.F.F.F.q.<.<.H.F.H.F.F.F.F.F.F.3 @.[ 1 @.. ",
". H.n H.n H.H.c c x H.H.H.F.H.F.H.F.H.H.H.H.H.H.H.F.5.O.` 1 | . ",
". U L V U U J S I U U H.J.J.J.H.H.H.H.H.H.H.H.H.J.J.9.O.a < [ . ",
". V K P J m S H D M o J.J.J.J.K.J.J.J.J.K.K.K.J.K.K.d #.u 5 +.. ",
". =.-.$.( j %.&.X.4.J.K.L.L.L.L.L.L.L.L.L.L.L.L.L.L.2 ,.- 9 4 . ",
". ^ 7 7 e / / e [ 2 L.L.L.L.L.L.L.L.L.L.L.L.L.L.L.L.O.8.* 0 t . ",
". . . . . . . . . . . . . . . . . . . . . . . . . . . . . . . . "
};
