/* XPM */
static char *magick[] = {
/* columns rows colors chars-per-pixel */
"32 32 121 2",
"   c #000000",
".  c #27272b",
"X  c #5f6132",
"o  c #4d4f50",
"O  c #5b5a57",
"+  c #69695e",
"@  c #75724d",
"#  c #79794c",
"$  c #747256",
"%  c #6f6d74",
"&  c #767478",
"*  c #7d7d7b",
"=  c #797980",
"-  c #af2000",
";  c #b93b00",
":  c #bd4d00",
">  c #c46000",
",  c #ce7500",
"<  c #d07c00",
"1  c #81815e",
"2  c #8c8c63",
"3  c #9c9c77",
"4  c #ce8200",
"5  c #db9700",
"6  c #db9c00",
"7  c #d5a300",
"8  c #d2ae00",
"9  c #dba200",
"0  c #d2b400",
"q  c #d4b900",
"w  c #dfa626",
"e  c #dfac28",
"r  c #e2b029",
"t  c #e1bc2d",
"y  c #eeb129",
"u  c #d7c000",
"i  c #d4c900",
"p  c #e3cb0d",
"a  c #e0d300",
"s  c #e2da00",
"d  c #e9df11",
"f  c #e4c32f",
"g  c #e9c32f",
"h  c #e8cd34",
"j  c #e8da28",
"k  c #ecd034",
"l  c #e8d739",
"z  c #e8d939",
"x  c #f0c330",
"c  c #f0c930",
"v  c #ffd433",
"b  c #ebec00",
"n  c #e9e019",
"m  c #f1f000",
"M  c #eae33f",
"N  c #f0e23d",
"B  c #fcea3b",
"V  c #f7f933",
"C  c #fff038",
"Z  c #efea44",
"A  c #f3ed45",
"S  c #fdef42",
"D  c #f4f14b",
"F  c #ffff41",
"G  c #fefd4c",
"H  c #f6f751",
"J  c #ffff51",
"K  c #ffff5c",
"L  c #ffff75",
"P  c #ffff79",
"I  c #85858b",
"U  c #86888c",
"Y  c #88868c",
"T  c #8b8b8d",
"R  c #8f8f95",
"E  c #979589",
"W  c #979889",
"Q  c #9c9c80",
"!  c #939391",
"~  c #9d9d97",
"^  c #9d9e9b",
"/  c #a7a785",
"(  c #aba785",
")  c #a6a693",
"_  c #a5a59b",
"`  c #a7a99d",
"'  c #a9a79c",
"]  c #a9a99c",
"[  c #b2b293",
"{  c #a6a6ad",
"}  c #acacb4",
"|  c #b3b3a4",
" . c #b3b3a8",
".. c #bfbfad",
"X. c #bfc0ad",
"o. c #c0bfae",
"O. c #c0c0ad",
"+. c #c5c5b1",
"@. c #c3c3ba",
"#. c #c9c9b5",
"$. c #c9cab8",
"%. c #d0d0bb",
"&. c #ffff85",
"*. c #ffffa0",
"=. c #ffffad",
"-. c #ffffb4",
";. c #d2d2c2",
":. c #dcdccd",
">. c #e2e2ce",
",. c #e1e2d4",
"<. c #e7e6db",
"1. c #eaebd5",
"2. c #e6e6ed",
"3. c #ecede6",
"4. c #ebebe9",
"5. c #f1f2ea",
"6. c #ffffee",
"7. c #f5f0f0",
"8. c #f9f9f6",
"9. c #fefefe",
"0. c None",
/* pixels */
"0.0.0.0.0.0.0.0.0.0.0.0.0.0.0.0.0.0.0.0.0.0.0.    0.0.0.0.0.0.0.",
"0.0.0.0.0.0.0.0.0.0.0.0.0.0.0.0.0.0.0.0.0.0.  -.L   0.    0.0.0.",
"0.0.0.0.0.0.0.0.0.0.0.0.0.0.0.0.0.0.0.        &.G A   L g   0.0.",
"0.0.0.0.0.0.0.0.0.0.0.0.0.0.0.0.0.0.  -.*.*.*.P Z S G G :   0.0.",
"0.0.0.0.0.0.0.0.0.0.0.0.0.0.0.0.0.0.  G V H D a a p f r ;   0.0.",
"0.0.0.0.0.0.0.0.0.0.0.0.0.0.0.0.0.0.0.  K D s 0   7 9 w 6     0.",
"0.0.0.0.0.0.0.0.0.0.0.0.0.0.0.0.0.0.  =.P a q   0.  , 5 c F N   ",
"0.0.0.0.0.0.0.0.0.0.0.      0.0.0.  &.P Z d   0.0.0.  v h q u   ",
"0.0.0.0.0.0.0.0.0.0.  9.9.9.  0.0.  m s n B h   0.  K J q q   0.",
"0.0.0.0.0.  0.0.0.0.  9.8.3.  0.0.0.    j h x r   K G z d   0.0.",
"0.0.0.0.  9.        9.9.5.5.,.          F t e y C G l M G b   0.",
"0.0.0.  9.9.9.9.9.9.9.5.<.:.>.6.9.9.9.  B > < 9 f 8 0 i s b   0.",
"0.0.  9.9.9.9.9.9.8.5.<.:.;.#.o.| ] ~   4 -   7 p 0         0.0.",
"0.0.0.  9.9.9.9.8.5.<.:.;.$.o. .] ~ ! T     0.  8 i   0.0.0.0.0.",
"0.0.0.  9.9.9.8.5.<.:.;.$... .] ~ ! T Y     0.0.    0.0.0.0.0.0.",
"0.0.0.  9.9.8.5.3.:.( # X $ E ~ ! T Y I     0.0.0.0.0.0.0.0.0.0.",
"0.0.0.  9.8.5.<.:./ #       + * T I U I &   0.0.0.0.0.0.0.0.0.0.",
"0.    9.9.5.<.:.( #   0.0.0.  o % U U T ~ ^     0.0.0.0.0.0.0.0.",
"  9.9.9.5.<.:.;.#   0.0.0.0.0.  = I T ! ~ | 1.+.  0.0.0.0.0.0.0.",
"  9.8.5.<.:.;.$.@   0.0.0.0.0.  { T ! ~ _ | ..2   0.0.0.0.0.0.0.",
"  8.,.,.:.;.$.o.)   0.0.0.0.0.  2.! ~ ` | 1 # 2   0.0.0.0.0.0.0.",
"0.    #.#.$.o.|  .`   0.0.0.  9.4.~ ' | 1 #     0.0.0.0.0.0.0.0.",
"0.0.0.  #...| ] ~ ~ R       9.3.~ '  ...#   0.0.0.0.0.0.0.0.0.0.",
"0.0.0.  1.| ] ~ ! T R } 8.9.4.~ ` | ..#.3   0.0.0.0.0.0.0.0.0.0.",
"0.0.0.  :.] ~ ! T U I U Y ! ~ ' | X.$.%.[   0.0.0.0.0.0.0.0.0.0.",
"0.0.0.  9.~ ! T Y I Y T ! ~ ' | X.#.;.:.,.  0.0.0.0.0.0.0.0.0.0.",
"0.0.  ;.@.! T Y U U T ! ~ ' | o.#.;.:.<.<.5.  0.0.0.0.0.0.0.0.0.",
"0.0.0.  O         . * ~ '  .1 # 2 / %.:.5.  0.0.0.0.0.0.0.0.0.0.",
"0.0.0.0.            + E | 1 #         7.  0.0.0.0.0.0.0.0.0.0.0.",
"0.0.0.0.0.  0.0.0.0.  ] X.#   0.0.0.0.  0.0.0.0.0.0.0.0.0.0.0.0.",
"0.0.0.0.0.0.0.0.0.0.  3 # 2   0.0.0.0.0.0.0.0.0.0.0.0.0.0.0.0.0.",
"0.0.0.0.0.0.0.0.0.0.0.      0.0.0.0.0.0.0.0.0.0.0.0.0.0.0.0.0.0."
};
