/* XPM */
static char *magick[] = {
/* columns rows colors chars-per-pixel */
"32 32 257 2",
"   c black",
".  c #0c0a1d",
"X  c #11101e",
"o  c #18171f",
"O  c gray10",
"+  c #0b0824",
"@  c #0f0b2e",
"#  c #100c30",
"$  c #151321",
"%  c #16122d",
"&  c #191634",
"*  c #1b1933",
"=  c #1f1c38",
"-  c #311501",
";  c #3d1c00",
":  c #3c2500",
">  c #342110",
",  c #222223",
"<  c #2a2a2b",
"1  c #302e3e",
"2  c #303033",
"3  c #1c1742",
"4  c #1f1a46",
"5  c #1e194a",
"6  c #211d46",
"7  c #211c4d",
"8  c #231e51",
"9  c #27224e",
"0  c #29264b",
"q  c #2a2452",
"w  c #2f2a55",
"e  c #2d285a",
"r  c #322c57",
"t  c #332e5c",
"y  c #3e3d42",
"u  c #3c3d4b",
"i  c #343055",
"p  c #393555",
"a  c #3b375f",
"s  c #332d60",
"d  c #333061",
"f  c #3a3465",
"g  c #3d3863",
"h  c #431d00",
"j  c #481800",
"k  c #493400",
"l  c #542600",
"z  c #5f2700",
"x  c #5d3600",
"c  c #5d3900",
"v  c #612d00",
"b  c #633719",
"n  c #733a00",
"m  c #723f15",
"M  c #622e27",
"N  c #6d392e",
"B  c #6c3d30",
"V  c #423d66",
"C  c #433d6b",
"Z  c #534200",
"A  c #525100",
"S  c #6a560e",
"D  c #6f5216",
"F  c #695c11",
"G  c #7b4e00",
"H  c #7d540f",
"J  c #6b4222",
"K  c #784225",
"L  c #79432a",
"P  c #7b463a",
"I  c #7f5a31",
"U  c #78583f",
"Y  c #78642a",
"T  c #464547",
"R  c #47464a",
"E  c #4c4c4d",
"W  c #424054",
"Q  c #43405e",
"!  c #4d4c5c",
"~  c #535355",
"^  c #52515b",
"/  c #454164",
"(  c #47416d",
")  c #4a4662",
"_  c #49436e",
"`  c #4d4a65",
"'  c #524e6a",
"]  c #514b73",
"[  c #564f78",
"{  c #56516f",
"}  c #5a5568",
"|  c #565177",
" . c #5a5575",
".. c #5e577b",
"X. c #5f5b71",
"o. c #5f597c",
"O. c #7e4d52",
"+. c #635c7d",
"@. c #794368",
"#. c #7b486b",
"$. c #7f5070",
"%. c #64656c",
"&. c #6a656f",
"*. c #6c6c6e",
"=. c #67657c",
"-. c #6c6772",
";. c #69637c",
":. c #6e6a7e",
">. c #686674",
",. c #727276",
"<. c #5f5f80",
"1. c #6a6482",
"2. c #6e6883",
"3. c #726d83",
"4. c #756f88",
"5. c #747082",
"6. c #767189",
"7. c #7a7785",
"8. c #7b748a",
"9. c #7e7c83",
"0. c #7d7b8c",
"q. c #874700",
"w. c #915200",
"e. c #8d5834",
"r. c #8d6c0b",
"t. c #9d6515",
"y. c #946631",
"u. c #a36c00",
"i. c #a86f00",
"p. c #aa7400",
"a. c #a87408",
"s. c #a7721f",
"d. c #b17f00",
"f. c #835774",
"g. c #845a76",
"h. c #865e78",
"j. c #8b6843",
"k. c #8a6a5c",
"l. c #8c7151",
"z. c #8d7758",
"x. c #887c50",
"c. c #94604c",
"v. c #9c6847",
"b. c #956550",
"n. c #8b6560",
"m. c #8b687e",
"M. c #91767c",
"N. c #a77a6d",
"B. c #8c6c80",
"V. c #81778d",
"C. c #807f80",
"Z. c #827c8c",
"A. c #937d8a",
"S. c #9c768c",
"D. c #a67d93",
"F. c #9a9212",
"G. c #b48301",
"H. c #b18214",
"J. c #bc951e",
"K. c #968f6d",
"L. c #97877c",
"P. c #a8804f",
"I. c #b08d64",
"U. c #c4a021",
"Y. c #c5a52b",
"T. c #c5a131",
"R. c #c1a03d",
"E. c #c09e44",
"W. c #ceb343",
"Q. c #ccb04a",
"!. c #cfb651",
"~. c #d0b653",
"^. c #d1b65c",
"/. c #d1ba55",
"(. c #c1a163",
"). c #cbb37d",
"_. c #d6c358",
"`. c #d9c776",
"'. c #ddce75",
"]. c #e5d66a",
"[. c #eee57a",
"{. c #838384",
"}. c #858389",
"|. c #88868c",
" X c #89898a",
".X c #878491",
"XX c #8a8391",
"oX c #8e8d90",
"OX c #96868f",
"+X c #988b80",
"@X c #948692",
"#X c #938c96",
"$X c #958e98",
"%X c #998c93",
"&X c #929293",
"*X c #969398",
"=X c #9a9499",
"-X c #9c9b9b",
";X c #a88583",
":X c #a88095",
">X c #a39c9e",
",X c #a69ea1",
"<X c #a5a09f",
"1X c #a1a0a1",
"2X c #a9a3a1",
"3X c #aba9a5",
"4X c #aaaaab",
"5X c #b3aca6",
"6X c #b4aea9",
"7X c #b7b2a9",
"8X c #bab2aa",
"9X c #bfb8af",
"0X c #b6b5b7",
"qX c #cfb988",
"wX c #d0bd85",
"eX c #c0b9af",
"rX c #c4bdb1",
"tX c #c0bec1",
"yX c #d9c983",
"uX c #d6c897",
"iX c #c7c0b2",
"pX c #cec7b7",
"aX c #cfc8b7",
"sX c #d1c9ba",
"dX c #d6d1bf",
"fX c #d9d1bf",
"gX c #ede595",
"hX c #f7f687",
"jX c #e6e1b9",
"kX c #f2ecae",
"lX c #c0c0c1",
"zX c #c8c8ca",
"xX c #d9ceca",
"cX c #dcd4c3",
"vX c #d1d1d2",
"bX c #ddd5d0",
"nX c #d9d9da",
"mX c #e0d8c6",
"MX c #e4dccb",
"NX c #e9dfd0",
"BX c #ece4d5",
"VX c #eee7d8",
"CX c #f1ebdf",
"ZX c #fffdcc",
"AX c #fcf9d4",
"SX c #fcfbdd",
"DX c #e1e1e3",
"FX c #eeebe6",
"GX c #eaeaec",
"HX c #f2ece2",
"JX c #f0eeea",
"KX c #f6f2e9",
"LX c #ffffe3",
"PX c #f4f3f3",
"IX c #fbf8f3",
"UX c #fefefe",
"YX c None",
/* pixels */
"YXYXYXYXYXYXYXYXYXYXYXYXYXYXYXYXYXYXYXYXYXYXYXA.#.%XYXYXYXYXYXYX",
"YXYXYXYXYXYXYXYXYXYXYXYXYXYXYXYXYXYXYXYX{.YX-X#.KX;X+X+Xj.D < YX",
"YXYXYXYXYXYXYXYXYXYXYXYXYXYXYXYXYXYXYXOXh.B.f.FXLXkXI.v.Y.h A YX",
"YXYXYXYXYXYXYXYXYXYXYXYXYXYXYXYXYXYX  m.bXxXFXAXwX(./.Y.w.; YXYX",
"YXYXYXYXYXYXYXYXYXYXYXYXYXYXYXYXYXYXYX%XD.UXAXc.J x v i.u.l F YX",
"YXYXYXYXYXYXYXYXYXYXYXYXYXYXYXYXYXYXYX%X:XSXb.Y YXYXZ l p.J.L U ",
"YXYXYXYXYXYXYXYXYXYXYXYXYXYXYXYXYXYX%XS.FXuXJ YXYXYXYXc t.W.!.M ",
"YXYXYXYXYXYXYXYXYXYXYXYXYXYXYXYXYXYX@.FXZX).J YXYXYXYXH R.Q.e.z.",
"YXYXYXYXYXYXYXYXYXYX7.] ] {.YXYXYXYXM.O.'.].K S YXYXF.y.[.v.l.YX",
"YXYXYXYXYXYXYXYXYX-X+.IXcX| YXYXYXYXYXx.N I.U.n G r.y.hXgXN.L.YX",
"YXYXYXYX-XYXYXYXL.3.MXIXKXoX>.YXYXYX=X9.I s.G.d.a.T.].`.wXjXh.,.",
"YXYX  }.+.3.|. X=.mXUXCXBXVXZ.2.{.3.2.=.b q.j z H._.!.P n.g.OX{.",
"YXYX X>XIXMX5X3XBXUXCXBXMXcXcX8XiXcXcX8.> - : k m ^.P K.YX4XYXYX",
"YXYX&XZ.UXUXUXIXJXCXBXNXcXsXrX7X<X*X.X5 . , YXYXY N k.YXYXYXYXYX",
"YXYXYX;.BXUXIXKXCXBXbXaXiXiX7X,X*X.X0.@ X YXYXYXYXYXYXYXYXYXYXYX",
"YXYXYX7.fXIXKXCXMX*Xg 4 3 5 [ XXXXV.8.5 $ YXYXYXYXYXYXYXYXYXYXYX",
"YXYXYX;.VXKXCXNX*Xi ! R T 1 % f 6.8.4.] &   YXYXYXYXYXYXYXYXYXYX",
"YXYX}.7XUXCXBX=Xi ~ YXYXYXYX2 & C 4.8..X] p ,.YXYXYXYXYXYXYXYXYX",
"&X:.7XUXCXBXcXd ! YXYXYXYXYXYXu 7 4.8..X>X8.g ) YXYXYXYXYXYXYXYX",
"] MXUXCXBXbX9X0 ~ YXYXYXYXYXYX! 4 4..X%X>X8X9X5 YXYXYXYXYXYXYXYX",
"_ HXHXBXNXcX6X4 ~ YXYXYXYXYXYX~ 8 #X%X,X5X5X3.8 YXYXYXYXYXYXYXYX",
"X.] 8XMXmXaXrX7 y YXYXYXYXYXYX&...,X>X5X#X] w } YXYXYXYXYXYXYXYX",
"C.-.a >XaXiX7X2.0   YXYXYXYX4X>.MX2X5X5X] Q *.YXYXYXYXYXYXYXYXYX",
"YXYX*.r -X6X<X<X| i %.+.-X*X7.mXcX5XrX.Xe   YXYXYXYXYXYXYXYXYXYX",
"YXYXYX' 1.,X*X.XXXo.t (  .2.mXbX5XrXsX8./ YXYXYXYXYXYXYXYXYXYXYX",
"YXYXYXX.-X$X.XV.8.6.V.Z.2X8X2X5XrXsXcX5X/ YXYXYXYXYXYXYXYXYXYXYX",
"YXYX{.' sXZ.V.8.4.8.8..X$X>X5XrXsXcXMXBX(  XYXYXYXYXYXYXYXYXYXYX",
"YXYX%.s =X+.8 7 C 8.XX*X,X5X6X0.o.8.pXMX8.{.YXYXYXYXYXYXYXYXYXYX",
"YXYXT = # + . X . 7 Z.,X5X3X1.w ` ' V 1.:.-XYXYXYXYXYXYXYXYXYXYX",
"YXYXYXO $ $ y YX< * C 3X9X1.r *.YXYX0.|.4XYXYXYXYXYXYXYXYXYXYXYX",
"YXYXYXYXYXYXYXYXYXE 0 .X>Xe &.YXYXYXYXYXYXYXYXYXYXYXYXYXYXYXYXYX",
"YXYXYXYXYXYXYXYXYXYXW 5 9 / YXYXYXYXYXYXYXYXYXYXYXYXYXYXYXYXYXYX"
};
