/* XPM */
static char *magick[] = {
/* columns rows colors chars-per-pixel */
"32 32 64 1",
"  c #000000",
". c #090909",
"X c #121212",
"o c #1b1b1b",
"O c #232323",
"+ c #2a2a2a",
"@ c #312424",
"# c #343333",
"$ c #383737",
"% c #393939",
"& c #442221",
"* c #452827",
"= c #683332",
"- c #434343",
"; c #4a4a4a",
": c #514949",
"> c #525252",
", c #5b5b5b",
"< c #6c5958",
"1 c #7b4f4e",
"2 c #616161",
"3 c #6b6b6b",
"4 c #737373",
"5 c #7b7b7b",
"6 c #951714",
"7 c #b21c18",
"8 c #b5201c",
"9 c #b52521",
"0 c #bb3431",
"q c #bd3a36",
"w c #bf403d",
"e c #8b4341",
"r c #9b7d7d",
"t c #af4a47",
"y c #ab7573",
"u c #bd7270",
"i c #c34a47",
"p c #cc6663",
"a c #d17673",
"s c #d27b78",
"d c #848484",
"f c #898989",
"g c #9f8c8b",
"h c #929292",
"j c #9a9a9a",
"k c #b79594",
"l c #a1a1a1",
"z c #aaaaaa",
"x c #b2b2b2",
"c c gray73",
"v c #d78785",
"b c #d98e8d",
"n c #d79f9e",
"m c #daa2a0",
"M c #c3c3c3",
"N c gray81",
"B c #d5d5d5",
"V c #dadada",
"C c #e4e4e4",
"Z c #eaeaea",
"A c #f2f2f2",
"S c #f9f0f0",
"D c #fefefe",
"F c None",
/* pixels */
"FFFFFFFFFFFFFFFFFFFFFFFFFFFFFFFF",
"FFFFFFFFFFFFFFFFFFFFFFFFFFFFFFFF",
"FFFFFFFFFFFFFFFFFFFFFFFFFFFFFFFF",
"FFFFFFFFFFFFFFFFFFFFFFFFFFFFFFFF",
"FFFFFFFFFFFFFFFFFFFFFFFFFFFFFFFF",
"FFFFFFFFFFFFFFFFFFFFFFFFFFFFFFFF",
"FFFFFFFFFFFFFFFFFFFFFFFFFFFFFFFF",
"FFFFFFFFFFj3%O.  .o%2hFFFFFFFFFF",
"FFFFFF;+f>$>lBADDAVx,%ev&:FFFFFF",
"FFFFF>4+odBDDDDDDDDDDCmq0pr%FFFF",
"FFF+5X ;ADDDDDDDDDDDDDDDa99a@FFF",
"FFO>. ;CDDDDDDDDDDDDDDDDSs77tgFF",
"F#>  .ZDDDDDDDDBZDDDDDDDDDq77i@F",
"F>.  ;DDDDDDDDB;>MDDDDDDDDb777u$",
"%%   5DDDDDDDDDh5d34dhzMNBn777q*",
"XX  .5DDDDDDDDDDDDDZBMcld516777y",
"O#.Ozzzzzzzzzzzzzzzzzzzzzzlld<=k",
"oo o X2+     2FFFF+     OX... 43",
"   #+>3$. +2$ %;FF+ Odf$  hhf  f",
"   dF;FF. %%,+ O2F+ ++FX  3Fl  d",
"   5FFFF. %%FO  2F+ +OFX  3Fl  d",
"   5FFFF. %%oO XhF+ ++FX  3Fl  d",
"   5FFFF. XO.X%5FF+ O+F.  3Fl  d",
"O,2xFFFF. o,f;+FFF525%F;,2dFM22x",
"FFFFFFFF. -%FFFFFFFFFFFFFFFFFFFF",
"FFFFFFFF. oXFFFFFFFFFFFFFFFFFFFF",
"FFFFFFFFFFFFFFFFFFFFFFFFFFFFFFFF",
"FFFFFFFFFFFFFFFFFFFFFFFFFFFFFFFF",
"FFFFFFFFFFFFFFFFFFFFFFFFFFFFFFFF",
"FFFFFFFFFFFFFFFFFFFFFFFFFFFFFFFF",
"FFFFFFFFFFFFFFFFFFFFFFFFFFFFFFFF",
"FFFFFFFFFFFFFFFFFFFFFFFFFFFFFFFF"
};
