/* XPM */
static char *magick[] = {
/* columns rows colors chars-per-pixel */
"32 32 98 2",
"   c #000000",
".  c #05050a",
"X  c #090906",
"o  c #0b0b0b",
"O  c #0e0e13",
"+  c #10100b",
"@  c #121213",
"#  c #151518",
"$  c #191914",
"%  c #1b1b1b",
"&  c #1c1c21",
"*  c #22221d",
"=  c #242424",
"-  c #25252a",
";  c #2a2a25",
":  c #2b2b2b",
">  c #2f2f34",
",  c #34342f",
"<  c #343433",
"1  c #343438",
"2  c #383837",
"3  c #3b3b3b",
"4  c #353b43",
"5  c #3d3d42",
"6  c #434343",
"7  c #444448",
"8  c #494745",
"9  c #484845",
"0  c #4a4a4c",
"q  c #4d4e51",
"w  c #4b5055",
"e  c #535353",
"r  c #57575b",
"t  c #5a5a55",
"y  c #5a5a5a",
"u  c #636363",
"i  c #65656a",
"p  c #686766",
"a  c #68676b",
"s  c #696964",
"d  c #6a6a6a",
"f  c #706f6f",
"g  c #737373",
"h  c #797976",
"j  c #7a797a",
"k  c #184f92",
"l  c #1c5497",
"z  c #777e88",
"x  c #7d7d82",
"c  c #758fac",
"v  c #817f7d",
"b  c #82807f",
"n  c #838383",
"m  c #858589",
"M  c #898986",
"N  c #8a8a8a",
"B  c #8b9399",
"V  c #93938f",
"C  c #929292",
"Z  c #97979b",
"A  c #999996",
"S  c #9b9b9c",
"D  c #8895a3",
"F  c #8e98a5",
"G  c #9d9da1",
"H  c #93a4b8",
"J  c #a3a39e",
"K  c #a3a3a3",
"L  c #a5a5aa",
"P  c #a8a7ab",
"I  c #ababaa",
"U  c #abadb1",
"Y  c #b3b3ad",
"T  c #b2b2b2",
"R  c #b7b7bc",
"E  c #bbbbba",
"W  c #bebec3",
"Q  c #c0bfc3",
"!  c #c1c1bc",
"~  c #c3c2c3",
"^  c #c9c9c4",
"/  c #cbcbcb",
"(  c #ceced2",
")  c #d2d2cd",
"_  c #d4d4d3",
"`  c #d6d6da",
"'  c #dadad5",
"]  c #dbdbda",
"[  c #dfdfe4",
"{  c #e0e0db",
"}  c #e3e3e2",
"|  c #e4e4e8",
" . c #e9e9e4",
".. c #eaeaeb",
"X. c #f0eeed",
"o. c #f2f2f1",
"O. c #fcfcfc",
"+. c None",
/* pixels */
"+.+.+.+.+.+.+.+.+.+.+.+.+.+.+.+.+.+.+.+.+.+.+.+.+.+.+.+.+.+.+.+.",
"+.+.+.+.E J N x h M K +.+.+.+.+.+.+.+.+.+.+.+.+.S A h h d +.+.+.",
"+.+.~ I a : $ @ O @ > g S +.+.+.+.+.+.+.+.+.j e 6 : @ @ @ < +.+.",
"+.' E 0 $ o * +.+.+.+.+.+.+.+.+.+.+.+.+.+.+.+.+.+.+.2 2 @ . < +.",
"+.E r @ % +.+.+.+.+.+.+.+._ +.+.+.+.+.+.+.+.+.+.+.+.+.g 6 . o +.",
"+.A = . +.+.+.+.+.+.+.! E K C V +.+.S I ~ +.+.+.+.+.+.+.V = . 0 ",
"R p # . +.+.+.+.+.+.K u 2 $ @ : q r 2 : 8 j I +.+.+.+.+.I 0 + < ",
"E 6 o . +.+.+.+.+.Y e +       X . 0 e < . o e R +.+.+.+.E 0 o 2 ",
"Y 3 + @ +.+.+.+.+.y o . O O + $ ; y x d : . . 9 P +.+.+.L < X < ",
"G 5 o % +.+.+.+.d < y N S N c b n h a p f e t 3 0 n +.L g % o +.",
"C e + O - M M 0 h / ..' j 1 M I A G I N V Z S T 0 - 2 8 % . % +.",
"+.j % + o % . s O.O.) u ; e I ~ S L ) o.p m C ! I 2 # . + @ +.+.",
"+.x 3 @ + o - ~ O.| n g t K g q v R E ..g 4 e S / N @ o @ +.+.+.",
"+.+.i , = % g O.o.J j m u ! H k D / ) ..B l c d T ^ e 6 +.+.+.+.",
"+.+.+.y 5 : A O._ A R d y ~ / F ~ ( | [ X.z 9 0 j T K +.+.+.+.+.",
"+.+.+.+.+.+.[ ..~ _ ! 6 x _ } | ] } | _ ..^ e t r j N p +.+.+.+.",
"+.+.+.+.+.+.o._ ~ L 3 9 S o.o.O.o._ Y I I | S +.+.e 6 2 +.+.+.+.",
"+.+.+.+.+.} _ I s 6 3 N S ..O.O.| N I E M S ] L ..+.+.+.+.+.+.+.",
"+.+.+.+.E L d 2 +.e K / ~ _ o.O.' p   M ^ P } o.~ +.+.+.+.+.+.+.",
"+.+.+.+.L 8 +.+.+.r ~ / { W / ] _ ) S r V / _ T d +.+.+.+.+.+.+.",
"+.+.+.+.+.+.+.+.+.+.n ! { ' ` T V { ] R T G p 2 +.+.+.+.+.+.+.+.",
"+.+.+.+.+.+.+.+.+.+.r L / .. ...d ] | / E M 0 3 +.+.+.+.+.+.+.+.",
"+.+.+.+.+.+.+.+.+.+.+.h P ] ( ' U u ' | ( ! L v +.+.+.+.+.+.+.+.",
"+.+.+.+.+.+.+.+.+.+.+.+.d ` ` U ] Y g q < 8 9 +.+.+.+.+.+.+.+.+.",
"+.+.+.+.+.+.+.+.+.+.+.+.e T ' ~ I } } U L Y n +.+.+.+.+.+.+.+.+.",
"+.+.+.+.+.+.+.+.+.+.+.+.+.h ~ _ E I n e 3 y +.+.+.+.+.+.+.+.+.+.",
"+.+.+.+.+.+.+.+.+.+.+.+.+.+.V L ~ J u : & +.+.+.+.+.+.+.+.+.+.+.",
"+.+.+.+.+.+.+.+.+.+.+.+.+.+.p r I _ K e < +.+.+.+.+.+.+.+.+.+.+.",
"+.+.+.+.+.+.+.+.+.+.+.+.+.+.+.+.f E m 5 < +.+.+.+.+.+.+.+.+.+.+.",
"+.+.+.+.+.+.+.+.+.+.+.+.+.+.+.+.j m 6 0 +.+.+.+.+.+.+.+.+.+.+.+.",
"+.+.+.+.+.+.+.+.+.+.+.+.+.+.+.+.+.u 3 +.+.+.+.+.+.+.+.+.+.+.+.+.",
"+.+.+.+.+.+.+.+.+.+.+.+.+.+.+.+.+.y 9 +.+.+.+.+.+.+.+.+.+.+.+.+."
};
