/* XPM */
static char *magick[] = {
/* columns rows colors chars-per-pixel */
"32 32 140 2",
"   c black",
".  c #01070b",
"X  c #010a12",
"o  c #03101d",
"O  c #031326",
"+  c #03192c",
"@  c #0a1727",
"#  c #091c2d",
"$  c #031d37",
"%  c #0d2330",
"&  c #112638",
"*  c gray15",
"=  c #303030",
"-  c #052444",
";  c #062848",
":  c #062d54",
">  c #0f314c",
",  c #0e3454",
"<  c #08365d",
"1  c #0a385f",
"2  c #1a3443",
"3  c #1b3d57",
"4  c #0b3b64",
"5  c #093e68",
"6  c #215907",
"7  c #246a16",
"8  c #267016",
"9  c #2b7b1c",
"0  c #09406b",
"q  c #0b4572",
"w  c #0d4d7a",
"e  c #114770",
"r  c #104c7a",
"t  c #19527a",
"y  c #234f69",
"u  c gray27",
"i  c #484848",
"p  c #585858",
"a  c gray39",
"s  c #7e7e7e",
"d  c #0011b7",
"f  c #2228b1",
"g  c #0d5789",
"h  c #0d5b8e",
"j  c #0d5d90",
"k  c #125988",
"l  c #195e8a",
"z  c #105f90",
"x  c #0c6294",
"c  c #136293",
"v  c #176f9d",
"b  c #196c9a",
"n  c #29638c",
"m  c #276994",
"M  c #33759b",
"N  c #3b789b",
"B  c #2376a2",
"V  c #2e7ea8",
"C  c #347ca4",
"Z  c #3b7fa3",
"A  c #008000",
"S  c #2b870b",
"D  c #2b890d",
"F  c #2d801c",
"G  c #2d8d10",
"H  c #2f9013",
"J  c #308c1c",
"K  c #319315",
"L  c #329419",
"P  c #34991a",
"I  c #369923",
"U  c #399e28",
"Y  c #37a01f",
"T  c #39a423",
"R  c #3ba52b",
"E  c #3ba825",
"W  c #3ead2a",
"Q  c #3fb02c",
"!  c #45a236",
"~  c #40ae33",
"^  c #40b12d",
"/  c #44ba34",
"(  c #77814e",
")  c #7f8b53",
"_  c #47c038",
"`  c #53c442",
"'  c #59d346",
"]  c #5bd648",
"[  c #3181a9",
"{  c #3a80a9",
"}  c #52809a",
"|  c #4086ae",
" . c #438aaf",
".. c #4889ab",
"X. c #649cb9",
"o. c #729cb3",
"O. c #6da5c1",
"+. c #73a7c2",
"@. c #71a8c2",
"#. c red",
"$. c #818c5c",
"%. c #8b9863",
"&. c #909d67",
"*. c #98a664",
"=. c #98a66d",
"-. c #a1af69",
";. c #a6b56d",
":. c #a8b76e",
">. c #abba7a",
",. c #808080",
"<. c #939393",
"1. c #82a3b3",
"2. c #86abbf",
"3. c #a0a0a3",
"4. c #a9a9a9",
"5. c #b9bdbe",
"6. c #8eb6cb",
"7. c #94b5c6",
"8. c #9db4c1",
"9. c #9dbbcb",
"0. c #92bbd1",
"q. c #b6c783",
"w. c #b8c884",
"e. c #a6c5d6",
"r. c #acc5d2",
"t. c #b2ccd9",
"y. c #b9d2df",
"u. c #c0d189",
"i. c #c6d88e",
"p. c #c8da8f",
"a. c #c9db90",
"s. c #e2e38f",
"d. c #c0c0c0",
"f. c #c3d3dd",
"g. c #cbd6dc",
"h. c gainsboro",
"j. c #d9e2e6",
"k. c #ffffc0",
"l. c white",
"z. c None",
/* pixels */
"z.z.z.z.z.z.z.z.z.z.              z.z.z.z.z.z.z.z.z.z.z.z.z.z.z.",
"z.z.z.z.z.z.z.z.    5 5 5 5 5         z.z.z.z.z.z.z.z.z.z.z.z.z.",
"z.z.z.z.z.z.z.  5 5 5.g.f.r.7.5 5       z.z.z.z.z.z.z.z.z.z.z.z.",
"p p p z.z.z.  5 5.j.y.6.e.O.V C N 5       z.z.z.z.z.z.z.z.z.z.z.",
"= h.h.  z.  5 5.g.t.@.0.l.l.C j c l 5       z.z.z.z.z.z.z.z.z.z.",
"z.= 3.  z.  5 8.t.@.V B l.l.c h j k 5       z.z.z.z.z.z.z.z.z.z.",
"z.= 3.    5 5.r.6. .v x j j j h j h w 1                         ",
"z.= 3.  ' 5 1.9.X.V { l.l.l.h h x h w 1 ! ` ' ] ] ] ] ] ] ] ]   ",
"z.= 3.  ' 5 1.2...b x j l.l.h j j h q 1 %.L Y P P K a.a.a.a.6   ",
"z.= 3.  ' 5 } o.Z c h j l.l.j j j g 5 , ( J P P P K a.G D a.6   ",
"z.= 3.  ' 1 2 } M j h h l.l.j g g w 1 3 d f L P K K :.G D a.6   ",
"z.= 3.  ' w.1 y n k m l.l.l.l.t r 0 > 7 ) L P P 4.4.4.4.$.a.6   ",
"z.= 3.  ' u.1 % e w n t t t t t 4 ; & 8 >.w.a.:.4.a u * X ;.6   ",
"z.= 3.  ] i.~ 1 # < 5 5 5 5 4 : - . $.=.w.L P P $.      . i.6   ",
"z.= 3.  ] p./ <.1 @ $ - : : $ O o 8 9 J L P L J J J D D G a.6   ",
"z.= 3.  ] a.;.3.i = * . X X + $.%.=.>.u.p.P H J 4.4.4.4.,.a.6   ",
"z.= 3.  ' a.` )           9 9 9 J *.P P a.a.a.:.4.a u *   :.6   ",
"z.= 3.  ] a._ _ ;./ -.R R I I I 3.4.,.P P K K G $.        a.6   ",
"z.= 3.. ] a.#._ / / p.^ W i.i.;.4.p   :.p.K K G F D S S D a.6   ",
"z.= 3.X ] a._ / / / a.^ W a.E T ,.    P p.K G D F D S S D a.6   ",
"z.= 3.  ] a.a.a./ p.p.Q W a.T T P :.P P a.a.a.a.a.a.a.a.a.a.6   ",
"z.= 3.  ] 6 6 :.6 :.6 6 6 :.6 6 6 :.6 6 6 6 6 6 6 6 6 6 6 6 6   ",
"z.= 3.      s.k.s.k.s.k.s.k.s.k.s.k.A                           ",
"z.= 3.  z.  s.k.s.k.s.k.s.k.s.k.s.k.A   z.z.z.z.z.z.z.z.z.z.z.z.",
"z.= 3.  z.                        =     z.z.z.z.z.z.z.z.z.z.z.z.",
"z.= 3.  z.z.z.z.z.z.z.z.z.z.z.z.z.z.z.z.z.z.z.z.z.z.z.z.z.z.z.z.",
"z.z.= z.z.z.z.z.z.z.z.z.z.z.z.z.z.z.z.z.z.z.z.z.z.z.z.z.z.z.z.z.",
"z.z.z.z.d.d.d.p d.p d.p d.p d.p d.p d.d.  z.z.z.z.z.z.z.z.z.z.z.",
"z.z.z.z.3.l.l.d.l.d.l.d.l.d.l.d.l.d.l.l.  z.z.z.z.z.z.z.z.z.z.z.",
"z.z.z.z.,.l.l.l.l.l.l.l.l.l.l.l.l.l.l.l.  z.z.z.z.z.z.z.z.z.z.z.",
"z.z.z.z.p l.l.l.l.l.l.l.l.l.l.l.l.l.l.l.  z.z.z.z.z.z.z.z.z.z.z.",
"z.z.z.z.                                  z.z.z.z.z.z.z.z.z.z.z."
};
