/* XPM */
static char *magick[] = {
/* columns rows colors chars-per-pixel */
"32 32 97 2",
"   c black",
".  c #3d6435",
"X  c #6f375f",
"o  c #70385f",
"O  c #703760",
"+  c #723860",
"@  c #793c64",
"#  c #7f3f68",
"$  c #406637",
"%  c #476d31",
"&  c #456b3d",
"*  c #55792c",
"=  c #52763d",
"-  c #456a42",
";  c #50744e",
":  c #7e4168",
">  c #678727",
",  c #688836",
"<  c #779521",
"1  c #789621",
"2  c #86436c",
"3  c #8e4871",
"4  c #885979",
"5  c #964d76",
"6  c #9f517b",
"7  c #a7557f",
"8  c #ae5982",
"9  c #b45d86",
"0  c #a57895",
"q  c #bb618b",
"w  c #c3658f",
"e  c #cb6993",
"r  c #d26d97",
"t  c #d36d98",
"y  c #da719b",
"u  c #e0759f",
"i  c #e075a0",
"p  c #e678a3",
"a  c #eb7ba5",
"s  c #809c2d",
"d  c #87a21b",
"f  c #95ae17",
"g  c #95ad27",
"h  c #a5bb11",
"j  c #a8bd2d",
"k  c #9cb244",
"l  c #90a862",
"z  c #b5c80c",
"x  c #b9cb1a",
"c  c #c3d407",
"v  c #c3d508",
"b  c #cfdf03",
"n  c #c7d716",
"m  c #d8e600",
"M  c #dae70b",
"N  c #d2e012",
"B  c #dbe56b",
"V  c #ac87a0",
"C  c #b590a7",
"Z  c #ba9db1",
"A  c #afbf9b",
"S  c #b2c1ab",
"D  c #c187a4",
"F  c #d090ae",
"G  c #cfaabe",
"H  c #ccb6c5",
"J  c #d2becb",
"K  c #dfb5c8",
"L  c #e8a6c0",
"P  c #eab5cb",
"I  c #eebfd2",
"U  c #ced9af",
"Y  c #e4ec8f",
"T  c #e8ef9f",
"R  c #dee5c8",
"E  c #dbe3d5",
"W  c #e1cbd7",
"Q  c #efcad9",
"!  c #e9d2dd",
"~  c #e3d7e0",
"^  c #e6d9e1",
"/  c #e9d7e0",
"(  c #ebdce4",
")  c #f3d4e1",
"_  c #f1dce6",
"`  c #f2dfe8",
"'  c #e1e8c3",
"]  c #e1e7d4",
"[  c #e5ebd2",
"{  c #eaefd0",
"}  c #edf1cf",
"|  c #edf1d0",
" . c #f0f4cd",
".. c #f4e1e9",
"X. c #f8e3eb",
"o. c white",
"O. c None",
/* pixels */
"O.O.O.O.O.O.O.O.O.O.O.O.O.O.O.O.O.O.O.O.O.O.O.O.O.O.O.O.O.O.O.O.",
"O.O.  O.O.O.  O.O.O.  O.O.O.  O.O.O.  O.O.O.  O.O.O.O.O.O.O.O.O.",
"O.  o.  O.  o.  O.  o.  O.  o.  O.  o.  O.  o.  O.O.O.O.O.O.O.O.",
"  o.o.o.  o.o.o.  o.o.o.  o.o.o.  o.o.o.  o.o.o.  O.O.O.O.O.O.O.",
"O.  o.o.o.o.o.o.o.o.o.o.o.o.o.o.o.o.o.o.o.o.o.  O.O.O.O.O.O.O.O.",
"O.O.  o.X X X X X X X X X X X o X X X X X o.  O.O.O.O.O.O.O.O.O.",
"O.  o.o.X o X X o o X X X X o o X o X X X o.o.  O.O.O.O.O.O.O.O.",
"  o.o.o.o O O O o o : J 4 O o O O O O o o o.o.o.  O.O.O.O.O.O.O.",
"O.  o.o.+ + + + + + H ^ ~ Z Z + + + + + O o.o.  O.O.O.O.O.O.O.O.",
"O.O.  o.@ @ @ @ V ^ ~ ! ~ ~ ~ H @ @ @ @ @ o.  O.O.O.O.O.O.O.O.O.",
"O.  o.o.: # # # 0 ^ ^ ~ ^ ^ ^ J C   # : 2   o.  O.  O.O.O.  O.O.",
"  o.o.o.2 2 2 2 G ^ ^ ^ ^ ^ ^ ^   o.  2   o.  o.  o.  O.  o.  O.",
"O.  o.o.3 3 3 3 ( ^ ^ ^ ( ^ ^   o.o.o.  o.o.o.  o.o.o.  o.o.o.  ",
"O.O.  o.5 5 5 W ( ( ( ( ( ( ( !   o.o.o.o.o.o.o.o.o.o.o.o.o.  O.",
"O.  o.o.6 6 6 D ( ( ( ( ( ( ( ^ 6   o.- - - - - - - - ; o.  O.O.",
"  o.o.o.7 7 7 7 ( ( ` ( ( ( ` (   o.o.. . . . S $ . . & o.o.  O.",
"O.  o.o.8 8 8 9 D G ` ( ` ( !   o.o.o.% % % E E E S % = o.o.o.  ",
"O.O.  o.9 9 9 9 9 9 ` ( ` ` 9 9   o.o.* * * E E E E S , o.o.  O.",
"O.  o.o.9 q q q q q K ` ` ` F q ..  o.> > l ] ] ] ] l , o.  O.O.",
"  o.o.o.w w w w w w ) ` ....` w   o.o.< < U [ [ [ R < 1 o.o.  O.",
"O.  o.o.e e e e e Q ....` ` X.  o.o.o.d d k { [ { ' d g o.o.o.  ",
"O.O.  o.t t t t P ......X.X.X.X.  o.o.f f f j } R f f g o.o.  O.",
"O.  o.o.y y y P X.X.) _ ) Q Q L X.  o.h h h h } } h h j o.  O.O.",
"  o.o.o.u u u u u u u u u u u y   o.o.z z z } } } } z x o.o.  O.",
"O.  o.o.p p p p p p p p p p p   o.o.o.c c B } T T Y v n o.o.o.  ",
"O.O.  o.a a a a a a a a a a a a   o.o.b b b m b b m b N o.o.  O.",
"O.  o.o.o.o.o.o.o.o.o.o.o.o.o.o.o.  o.m m m m m m m m M o.  O.O.",
"  o.o.o.  o.o.o.  o.o.o.  o.o.o.  o.o.o.o.o.o.o.o.o.o.o.o.o.  O.",
"O.  o.  O.  o.  O.  o.  O.  o.  o.o.o.  o.o.o.  o.o.o.  o.o.o.  ",
"O.O.  O.O.O.  O.O.O.  O.O.O.  O.  o.  O.  o.  O.  o.  O.  o.  O.",
"O.O.O.O.O.O.O.O.O.O.O.O.O.O.O.O.O.  O.O.O.  O.O.O.  O.O.O.  O.O.",
"O.O.O.O.O.O.O.O.O.O.O.O.O.O.O.O.O.O.O.O.O.O.O.O.O.O.O.O.O.O.O.O."
};
