/* XPM */
static char *magick[] = {
/* columns rows colors chars-per-pixel */
"32 32 92 1",
"  c black",
". c #7d5927",
"X c #815c28",
"o c #8e652d",
"O c #946b30",
"+ c #996e32",
"@ c #96703a",
"# c #9d7133",
"$ c #a37535",
"% c #a67837",
"& c #a2793e",
"* c #a87937",
"= c #ac7c38",
"- c #9b7846",
"; c #b3823b",
": c #b9863c",
"> c #be8a3e",
", c #bf8f49",
"< c #b38a50",
"1 c #b88e52",
"2 c #a38c6a",
"3 c #ac926e",
"4 c #a69376",
"5 c #aa9578",
"6 c #c08b3f",
"7 c #c38e40",
"8 c #c79142",
"9 c #c3924b",
"0 c #cc9342",
"q c #ce9f5b",
"w c #d09744",
"e c #d49a45",
"r c #d89d47",
"t c #da9e48",
"y c #dda048",
"u c #d4a35e",
"i c #dea655",
"p c #c2a57b",
"a c #e3a54a",
"s c #e7a84c",
"d c #ecac4d",
"f c #e3a956",
"g c #edb15a",
"h c #ebb668",
"j c #848484",
"k c gray55",
"l c gray62",
"z c #b69f80",
"x c #ada18f",
"c c #b2a593",
"v c #b0a79b",
"b c #b5a894",
"n c #b1a89c",
"m c #a3a3a3",
"M c #b3aea8",
"N c #b6b2ab",
"B c #b6b6b6",
"V c #bcb7b0",
"C c #bbbbbb",
"Z c #cfb084",
"A c #cab18c",
"S c #c5b6a0",
"D c #c2b8aa",
"F c #dfc39a",
"G c #c2c0bc",
"H c #cbc1b2",
"J c #c9c3bc",
"K c #d5caba",
"L c #d8c8b0",
"P c #e5c290",
"I c #f0cb96",
"U c #eccea3",
"Y c #e8d6bd",
"T c #ead8be",
"R c #f1d2a5",
"E c #c3c3c3",
"W c #cbcbcb",
"Q c #d1d0cf",
"! c #ded3c2",
"~ c #dcd6cd",
"^ c #d3d3d3",
"/ c #dfd9d0",
"( c #dbdbdb",
") c #ebe4da",
"_ c #f2e0c5",
"` c #f3e6d3",
"' c #e3e3e3",
"] c #ebebeb",
"[ c #f4ede3",
"{ c #f1f0ef",
"} c #f3f2f2",
"| c None",
/* pixels */
"|||||     ||||||||||||     |||||",
"|||| ar0:* |||||||||| aasat ||||",
"||| at0:$o |||||||||| aaatw7 |||",
"|  at8:$o6||        ||eatw7:= ||",
"| sa6:$o6|  dddddsss  |:66:=$+ |",
" ay66$o|  dddddfssssaa  |==$+oX ",
" w66*o| ddggI_[}{)TPittr |O+oX. ",
"| :*o| dddR}}}}]m]]]'Fret |oXX |",
"||  | ddh`}m}}{]k]]'m'!uew |  ||",
"|||| ddh[}}}m]]] ]'m''(~q00 ||||",
"|||| ss`}}}{]]]] ''''(((K06 ||||",
"||| saU}m{{]]]'' ''((((m^A66 |||",
"||| af}{{m]]'''( '(((^m^^Q,> |||",
"|| aaP]]]]]''''( ((((^^^QWp:: ||",
"|| ytY]]']''''(( (^^^^QQQWS;; ||",
"|| tr)]''''''((( (^^^QQWWWJ;= ||",
"|| er'mmm''((((m mQ^WWWkkkE== ||",
"|| ew''''((((^(m mQWWWWEEEE=% ||",
"|| ww~'((((^^^^ mmQWWWEEEEV%% ||",
"|| 00L(((((^^^kkWWWEEEEEECb$$ ||",
"|| 08Z((l^^^^k WWWEEEEEjCC3## ||",
"||| 69^lQ^^QW WWWECEEECCjC## |||",
"||| ,>A^^QQWWWWEEEEECCCCB5#+ |||",
"|||| ::HWQWkEWEEECCCjBBBn++ ||||",
"|||| :;1JWkWEEEjCCCCBjBM-+O ||||",
"||||| ;=<DEEEECjCCCBBBn-OO |||||",
"|||||| ==*zEECCjCBBBB4OOO ||||||",
"||||||| *%$&3cNBBMx2@OOO |||||||",
"|||||| #+ $###++OOOOOO ++ ||||||",
"||||| +++   ++OOOOOO   +++ |||||",
"|||| ++++ ||        || ++#+ ||||",
"||||      ||||||||||||      ||||"
};
