/* XPM */
static char *magick[] = {
/* columns rows colors chars-per-pixel */
"32 32 103 2",
"   c #010102",
".  c #050e04",
"X  c #061204",
"o  c #061a04",
"O  c #151618",
"+  c #161818",
"@  c #181818",
"#  c #022604",
"$  c #0a2e04",
"%  c #0e360c",
"&  c #123e14",
"*  c #124614",
"=  c #167e0c",
"-  c #2e5a2c",
";  c #365234",
":  c #3a5a3c",
">  c #2a7e14",
",  c #326e34",
"<  c #3e6234",
"1  c #42363c",
"2  c #523a2c",
"3  c #427e3c",
"4  c #66563c",
"5  c #464a4c",
"6  c #564644",
"7  c #545454",
"8  c #5e5e5c",
"9  c #666664",
"0  c #6e6664",
"q  c #6a6a6c",
"w  c #6e6e74",
"e  c gray46",
"r  c #7e7d7c",
"t  c #2a860c",
"y  c #2b9314",
"u  c #2e9a14",
"i  c #2e9e1c",
"p  c #2e8e24",
"a  c #369e2c",
"s  c #3a9e2c",
"d  c #36a214",
"f  c #3da32c",
"g  c #3eaa2c",
"h  c #3ab62c",
"j  c #3eba2c",
"k  c #42ae2c",
"l  c #42b22c",
"z  c #42be2c",
"x  c #46b634",
"c  c #4aba34",
"v  c #4abe38",
"b  c #46c434",
"n  c #4ec33c",
"m  c #4aca3c",
"M  c #52ca44",
"N  c #c00000",
"B  c #c60e0c",
"V  c red",
"C  c #808181",
"Z  c #8a8284",
"A  c #8a8a90",
"S  c #9e968c",
"D  c #9e9a9c",
"F  c #9a9ea4",
"G  c #a0a0a4",
"H  c #aaaaaa",
"J  c #b2b3b2",
"K  c #b6babc",
"L  c #beb6bc",
"P  c #bababc",
"I  c #babec0",
"U  c #aeaeee",
"Y  c #aaaaf4",
"T  c #b6b6fc",
"R  c #babaf8",
"E  c #a2d29c",
"W  c #faaeac",
"Q  c #febebc",
"!  c #cec6bc",
"~  c #c0c0c0",
"^  c #cac6c4",
"/  c #cacacc",
"(  c #d6d6d9",
")  c gray87",
"_  c #c2c2fc",
"`  c #cecefc",
"'  c #dbdbf9",
"]  c #c9e5ee",
"[  c #e2dedc",
"{  c #ffc0c0",
"}  c #fedadc",
"|  c #e2e2e4",
" . c #eaeaec",
".. c #e5e5fc",
"X. c #eeeef8",
"o. c #edfbff",
"O. c #f4f4f4",
"+. c #f3fbfe",
"@. c #fef2f1",
"#. c #faf6fc",
"$. c #fefaf4",
"%. c #fdfdfc",
"&. c None",
/* pixels */
"&.                                                          &.&.",
"  v m b b z v z j h h h j p , - s p i a i u u u y y y y y u o   ",
"  b E %.%.%.%.%.%.%.%.$.+.r L | r %.%.%.%.%.%.%.%.%.$.$.> > $   ",
"  m %.%.%.%.%.%.%.%.%.%.%.O.J Z %.%.%.%.%.%.%.%.%.%.%.%.#.3 #   ",
"  M %.%.%.%.%.%.%.%.%.%.%.+.J 8 #.%.%.%.%.%.%.%.%.%.%.%.#.: #   ",
"  n %.W } Q %.%.%.%.%.O.D X.J 7 #.D ( %.%.%.%.%.%.W } Q %.: #   ",
"  n %.W @.W %.%.%.%.%.D 6 4 !  .S 2 Z %.%.%.%.%.%.W @.W %.: #   ",
"  n %.%.%.%.%.%.%.%.%.K q ^ J / [ 0 K %.%.%.%.%.%.%.%.%.%.: #   ",
"  v %.%.%.%.%.%.%.%.%.%.| %.F 7 ) %.| %.%.%.%.%.%.%.%.%.%.: #   ",
"  n %.H H H H H H H H %.%.%.P 9 %.%.%.%.H H H H H H H H %.: #   ",
"  c %.%.%.%.%.%.%.%.%.%.%.%.J 9 %.%.%.%.%.%.%.%.%.%.%.%.%.: #   ",
"  c %.Y ..` %.%.%.%.%.%.%.%.J 9 %.%.%.%.r       C %.%.%.%.: #   ",
"  c %.' #...%.%.%.%.%.%.%.%.~   P %.%.%.  r F %.  %.%.%.~   #   ",
"  x %.%.%.%.%.%.%.%.%.%.$.~   Q   ~ !               ~ ~   C     ",
"  l %.%.%.%.%.%.%.%.%.%.%.  N V Q   O 8 C C r C r 8 @   r F %.  ",
"  x %.H H H H H H H H %.%.!   N   8 A r ~ ~ ~ ~ ~ C Z 8   %.    ",
"  k %.%.%.%.%.%.%.%.%.%.%.%.~   8 C ~ ~ %.%.e %.%.~ ~ C 8   #   ",
"  k %.U ' R %.%.%.%.%.%.%.%.  8 r ~ %.e +.%.H %.%.e +.~ C 8     ",
"  l %.R .._ %.%.%.%.%.%.%.~ @ Z ~ %.%.%.H %.C %.B +.+.+.~ Z @   ",
"  k %.%.%.%.%.%.%.%.%.%.%.C 8 r ~ e %.%.%.+.C %.B +.+.e ~ r 8   ",
"  k %.%.%.%.%.%.%.%.%.%.%.  r ~ +.%.H %.%.%.C B +.+.H +.] ~ C   ",
"  f %.H H H H H H H H %.%.  C ~ +.%.%.%.%.%.C B +.+.+.+.] ~ r   ",
"  f %.%.%.%.%.%.%.%.%.%.%.  C ~ e H %.%.+.%.B +.o.o.o.H e ~ C   ",
"  f %.T ..Y %.%.%.%.%.P r   C ~ %.+.+.+.+.+.B o.o.o.+.o.] ~ r   ",
"  f %.Y  .' %.%.%.%.%.D 1   C ~ ] #.H +.+.+.+.o.o.o.H o.] ~ r   ",
"  s %.%.%.%.%.%.%.%.%.K A C 8 C ~ e +.+.+.+.o.o.o.o.o.e ~ C 8   ",
"  s %.%.%.%.%.%.%.%.%.%.| ~ + C ~ ] +.+.H +.+.o.H o.o.] ~ C O   ",
"  s %.%.%.%.%.%.%.%.%.%.%.%.  8 C ~ ] e +.+.H o.o.e ] ~ C 8     ",
"  k E %.%.%.%.%.%.%.%.%.%.r w   8 r ~ ~ ] +.e o.] ~ I C 8   #   ",
"  d = * & & & & & & & & % ; 5 8   8 Z C ~ ~ ~ ~ ~ r A 8   r o   ",
"&.  o X . X . . . . . X . .         + 8 r C C r C 8 O   X X     ",
"&.&.                                                            "
};
