/* XPM */
static char *magick[] = {
/* columns rows colors chars-per-pixel */
"32 32 54 1",
"  c black",
". c #161715",
"X c #1b1b19",
"o c #2f302e",
"O c #353633",
"+ c #3c3d39",
"@ c #4b4a45",
"# c #52534d",
"$ c #5a5b53",
"% c #5a5a5c",
"& c #67665d",
"* c #666664",
"= c #6d6d65",
"- c #717167",
"; c #73726a",
": c #767674",
"> c #7a7a72",
", c #7e7e7c",
"< c navy",
"1 c #0202ac",
"2 c #0202dc",
"3 c #1212dc",
"4 c #4e4ee4",
"5 c red",
"6 c #ee7604",
"7 c #84847a",
"8 c #8a8a7e",
"9 c #ffa858",
"0 c #f6b66c",
"q c #808080",
"w c #8c8c82",
"e c #8d9086",
"r c #96958b",
"t c #99998d",
"y c #929294",
"u c #9c9b90",
"i c #a0a092",
"p c #aaaa9e",
"a c #acaba0",
"s c #a8a8a8",
"d c #b3b4a4",
"f c #bab8a7",
"g c #bfbeb1",
"h c #bebebc",
"j c #c2c0b2",
"k c #ffdca8",
"l c #c0c0c0",
"z c #cececc",
"x c #d6d6d4",
"c c #ffffc0",
"v c gray90",
"b c gray93",
"n c #fefefe",
"m c None",
/* pixels */
"mmmmm    mmm   mmmmmmmmmmmmmmmmm",
"mmm .+$;; mm ck mmmmmmmmmmmmmmmm",
"mm XO#>wii m k50 mmmmmmmmmmmmmmm",
"m X+@=w8aa mm 059 mmmmmmmmmmmmmm",
"mXO#$;7wfd mmm 96 mmmmmmmmmmmmmm",
" o##=7raj mmmm    mmmmmmmmmmmmmm",
" +$$wwudj mmmmmmmmmmmmmmmmmmmmmm",
" +#=twwg mmmmmmmmm   mmmmmmmmmmm",
" $#r7ww mmmmmmmmmm ck mmmmmmmmmm",
"m @:&  mmmmmmmmmmm k50 mmmmmmmmm",
"mm   mmmmmmmmmmmmmm 059 mmmmmmmm",
"mmmmmmmmmmmmmmmmmmmm 96 mmmmmmmm",
"   mmmmmmmmmmmmmmmmmm   mmmmmmmm",
" ck mmmmmmmmmmmmmmmmmmmm   mmmmm",
" k50  mmmmmmmmmmmmmmmmmm ln mmmm",
"m 059 mmmmmmmmmm     mmm %ln mmm",
"mm 96 mmmmmmmmm *,lxs mmm qln mm",
"mmm   mmmmmmmmm qhxbvs m , %ln m",
"mmmmmmm   mmmmm szlnbls yll qln ",
"mmmmmmm ck mmmm whh224ls lsq q% ",
"mmmmmmm k50 mmm :sh 1n4ls q m  m",
"mmmmmmmm 059 mmm qh <1n4ls mmmmm",
"mmmmmmmmm 96 mmmm ql <134ls mmmm",
"mmmmmmmmmm   mmmmm ql <134ls mmm",
"mmmmmmmmmmmmm   m , ql <1 l, mmm",
"mmmmmmmmmmmmm ln yll ql  lq  mmm",
"mmmmmmmmmmmmm %ln lsq qllq lq mm",
"mmmmmmmmmmmmmm qln q m qq ls mmm",
"mmmmmmmmmmmmmmm %ln mmm   q mmmm",
"mmmmmmmmmmmmmmmm qln mmmmm mmmmm",
"mmmmmmmmmmmmmmmmm q% mmmmmmmmmmm",
"mmmmmmmmmmmmmmmmmm  mmmmmmmmmmmm"
};
