/* XPM */
static char *magick[] = {
/* columns rows colors chars-per-pixel */
"32 32 90 1",
"  c #000000",
". c #13130e",
"X c #1e110d",
"o c #1e1e17",
"O c #330000",
"+ c #380503",
"@ c #23231a",
"# c #3a2d22",
"$ c #3a3a2c",
"% c #3f3f30",
"& c #400000",
"* c #4c0000",
"= c #510000",
"- c #562323",
"; c #641717",
": c #6a1d1d",
"> c #643130",
", c #7b2e2e",
"< c #434332",
"1 c #4f4f3b",
"2 c #54543f",
"3 c #5e513d",
"4 c #4b4b41",
"5 c #565641",
"6 c #53534b",
"7 c #5b5b45",
"8 c #5d5d53",
"9 c #7b4848",
"0 c #7a6d52",
"q c #757559",
"w c #7a7a5c",
"e c #6f6f64",
"r c #797962",
"t c #7e7e78",
"y c #800000",
"u c #853838",
"i c #855251",
"p c #9a4e4d",
"a c #a46969",
"s c #a87575",
"d c #848463",
"f c #82826a",
"g c #898967",
"h c #998c69",
"j c #92926e",
"k c #969671",
"l c #95957b",
"z c #9b9b75",
"x c #94948b",
"c c #99998f",
"v c #a5a58f",
"b c #acac82",
"n c #baad82",
"m c #b7b78a",
"M c #bbbb8d",
"N c #bbbb92",
"B c #adada3",
"V c #bbbba3",
"C c #c2b6af",
"Z c #c9bcae",
"A c #c4c493",
"S c #c9c997",
"D c #cdcd9a",
"F c #d8cc99",
"G c #d1d19d",
"H c #cbcba5",
"J c #d0c3ae",
"K c #d7caae",
"L c #d6d6a1",
"P c #ddd1ad",
"I c #dadaa4",
"U c #d3d3b9",
"Y c #dfdfb9",
"T c #e5d8ad",
"R c #ebdead",
"E c #e8e8ae",
"W c #e2e2bb",
"Q c #eeeeb3",
"! c #f2e5ac",
"~ c #f3f3b9",
"^ c #fcfcbe",
"/ c #c3c3c2",
"( c #cbcbc2",
") c #d3d3c1",
"_ c #dbdbc1",
"` c #e3e3c1",
"' c #eaeac0",
"] c #f2f2c0",
"[ c #fefec0",
"{ c None",
/* pixels */
"{{{{{{{{{{{{{{{{{{{{{{{{{{{{{{{{",
"{{{{{{{{{{{{{{{{{{{{{{{{{{{{{{{{",
"{{{{{{{{{{{{{{{{{{{{{{{{{{{{{{{{",
"+&&&&&&+&&&+&&&&&&&&&&&+&&&&&&&&",
"y=*,pu==pp;*:ppyy==,pu=*pp;*:ppy",
"yX t/B  //8 6/(yyX t/B  //8 6/(y",
"y# v/U @(/f r/)yy# v/U @)/r r/)y",
"y3 H/'.<)/b z/_yy3 H/`.<)/b z/_y",
"y0 ~/'$7_(D M(_y;0 ~/'$7_(D N(_;",
"yho[/]5q`)Q L)`yyho[/~5q`)Q I)Ry",
";n%[/[qk'_[.~)~yyn%[/[qk'_[.~_]y",
"yF7[)[kb~_[<[`]yyF7[)[zb'`[<[`]y",
"y!g^`[MD[`[d[`[;y!h^`[MD[`[d[`]y",
"y!A[~[LE['[N[~[yy!A^'[LE[~[N[][y",
"y!^[[[[[[[[[[[[yy!^[[[[[[[[[[[[y",
"y![[[[[[[[[[[[[yy![[[[[[[[[[[[[y",
"y![[[[[[[[[[[[[yy![[[[[[[[[[[[[;",
"y![[[[[[[[[[[[[yy![[[[[[[[[[[[^y",
"y!~[S[][[S[~[S^y;!~[D[][[S[~^S^y",
"y!`[g[']~k[`[j~yy!`[g[']^j[`^k~y",
"yR_[2^`~Iq[)^qLyy!Y[1[`~Iq[)[qGy",
"yT)[@Q``N2[(^7m;yT)^@Q_`N5[/[7my",
";P([ G)`z$[/^$zyyP(^ G)`z$[/[$ky",
"yK/I b(_w.'/~oiyyP/T b)_w.~/'.wy",
"yK/M j/)7 W/W 7;;J/N j/)7 W/Y 7y",
"yZ/l q/(% V/V -yyZ/l q/(% V/V $y",
"yZ/e 4//@ c/x oyyZ/e 4//@ c/x oy",
"yas>+-ss+Ois9O+;yas>O-ss+Ois9O+y",
"****************===*************",
"{{{{{{{{{{{{{{{{{{{{{{{{{{{{{{{{",
"{{{{{{{{{{{{{{{{{{{{{{{{{{{{{{{{",
"{{{{{{{{{{{{{{{{{{{{{{{{{{{{{{{{"
};
