/* XPM */
static char *magick[] = {
/* columns rows colors chars-per-pixel */
"32 32 120 2",
"   c #010102",
".  c #0d0d0c",
"X  c #151514",
"o  c #1c1c1c",
"O  c #1e1e24",
"+  c #262624",
"@  c #2c2c2c",
"#  c #323234",
"$  c #36363c",
"%  c #3a3a3c",
"&  c #3e3e44",
"*  c #024244",
"=  c #026664",
"-  c #027e7c",
";  c #522614",
":  c #562224",
">  c #7a3604",
",  c #454544",
"<  c #4c4c4c",
"1  c #5a564c",
"2  c #555554",
"3  c #5a5a5c",
"4  c #737474",
"5  c #6a6a8c",
"6  c #6e6e94",
"7  c #727294",
"8  c #74749c",
"9  c #7afe7c",
"0  c #028384",
"q  c #028a84",
"w  c #068e8c",
"e  c #06928c",
"r  c #069694",
"t  c #069a94",
"y  c #02bebc",
"u  c #02c2c4",
"i  c #0ac2c4",
"p  c #16c6c4",
"a  c #1ecacc",
"s  c #26cecc",
"d  c #32d2d4",
"f  c #3ad6d4",
"g  c #42dadc",
"h  c #4ee2dc",
"j  c #5eeae4",
"k  c #6aeeec",
"l  c #72f2ec",
"z  c #7af6f4",
"x  c #823604",
"c  c #823a04",
"v  c #923e04",
"b  c #86562c",
"n  c #9e623c",
"m  c #a24604",
"M  c #ae5604",
"N  c #ba7e3c",
"B  c #827a64",
"V  c #aa6e54",
"C  c #b27644",
"Z  c #fe0204",
"A  c #d66a04",
"S  c #fe6e6c",
"D  c #b6824c",
"F  c #be8644",
"G  c #ba864c",
"H  c #fe8204",
"J  c #c28a44",
"K  c #ca8264",
"L  c #e69e7c",
"P  c #fea244",
"I  c #f6aa6c",
"U  c #8e8e8c",
"Y  c #969694",
"T  c #9e9e9c",
"R  c #8282ac",
"E  c #8686b4",
"W  c #8a8ab4",
"Q  c #8b8bbc",
"!  c #b69284",
"~  c #a4a4a4",
"^  c #aaaaa4",
"/  c #aaaaac",
"(  c #b2b2b4",
")  c #bcbcbc",
"_  c #9292c4",
"`  c #9d9dd4",
"'  c #a2a2d4",
"]  c #a4a4dc",
"[  c #bebec4",
"{  c #ababe4",
"}  c #aeaeec",
"|  c #b2b2ec",
" . c #86faf4",
".. c #8efefc",
"X. c #d29e9c",
"o. c #d2a6a4",
"O. c #fe9294",
"+. c #e6aeac",
"@. c #c2c2bc",
"#. c #eac6ac",
"$. c #feceac",
"%. c #faceb4",
"&. c gray77",
"*. c #c6cac4",
"=. c #cacac4",
"-. c #cacacc",
";. c #d2d2cc",
":. c #d4d4d4",
">. c #d7dad5",
",. c #dddddb",
"<. c #fec2c4",
"1. c #fee2d4",
"2. c #e5e5e6",
"3. c #e8e8e6",
"4. c #eaeaec",
"5. c #ededf2",
"6. c #f1f1f2",
"7. c #f9f9f7",
"8. c #fefefc",
"9. c None",
/* pixels */
"9.9.9.9.9.9.9.9.    . . X X o O + @ @ # # % , , < < 2 2 3 9.9.9.",
"9.9.9.9.9.9.9.9.  8.8.8.| 8.8.8.| 8.8.8.| 8.8.8.} 8.) 3 7.3 9.9.",
"9.9.9.9.9.9.9.9.  8.8.8.| 8.8.8.| 8.8.8.| 8.8.8.| 8.) 3 8.8.3 9.",
"9.9.9.9.9.9.9.9.  | | | | | | | | | | | | | | | | | E 3 7.8.8.3 ",
"9.                  .             ;.8.8.| 8.8.8.} 8.) 3 3 3 3 3 ",
"  ..z z l j j h h g f d s a p i y   / :.c m ; ) | 8.8.) W ) ) 3 ",
"   .t r r r r t r r t t t t t w *   / C P A > @.| 8.8.8.| 8.8.2 ",
"  z t * * * * * * * * * * * = w *   8 G $.H M ; E | | | | | | < ",
"  l r *       9   9   9 9   u w *   / b I P A v E 8.8.8.| 8.8.< ",
"  k r *         9 9   . 9   y r *   ^ @.F $.H M ; ) 8.8.| 8.8.< ",
"  j t *           9   9 9   u w *   / ;.b I P A > ) 8.8.| 8.8., ",
"  h r = y y y y y y y u y y y q *   8 _ 6 G $.H M ; E | | } } , ",
"  h t r r r t r w r w w w w w q *   / 2.8 b I P A x ) 8.| 7.8.& ",
"  g t =.) ( ( *.[ ( ( *.) ( ( q *   / ,._ T N $.H M ; ) { 7.7.% ",
"  f t [ 2 4 , ) 2 4 , ) 2 4 , 0 *   / ,._ ^ b I P A c [ } 7.7.$ ",
"  d r ( 4 U # ( 4 U # ( 4 U # q *   8 _ | _ 6 N $.H M ; 8 { { # ",
"  s e , #     , #     , $     0 *   ^ ,.| -.^ b I P A c R 7.6.@ ",
"  a e =.) ( ( -.) ( ( -.) ( ( 0 *   / ,.{ 7.-.Y D $.H M ; ( 6.@ ",
"  p e ) 2 4 , @.2 4 , ) 2 4 , - *   ^ ,.} 7.=.~ b I P A v ( 6.+ ",
"  i e ( 4 U # ( 4 U # ( 4 U # - *   8 Q { { { Q 5 J $.H M n { + ",
"  y r , #     , #     , $     - *   ~ :.} 7.7.&.7 b I #.K V 6.o ",
"  y q =.) ( ( -.o.[ ( <.+.o.X.- *   ~ >.{ 7.6.6.Q Y 1.%.L K 6.o ",
"  y q ) 2 4 , ) 2 4 , +.Z S : - *   ~ :.{ 5.6.6.{ &.^ !   1 6.X ",
"  y 0 ( 4 U # ( 4 U $ o.S O.  - *   8 Q ] { ] { ] ] W 8 B   ' X ",
"  y 0 , $     , #     :       - *   T :.] 7.6.5.] 6.4.4.' 4.4.. ",
"  y 0 0 0 - - - - 0 - - - - - 0 *   ~ :.] 5.6.4.] 4.6.4.' 4.4.. ",
"  * * * * * * * * * * * * * * * *   T :.] 6.5.4.] 4.4.4.` 4.4.  ",
"9.                                6 E ` ] ' ` ] ' ` ' ` ' ' '   ",
"9.9.9.9.9.9.9.9.  T T ~ 6 T T T 6 :.-.6.{ 4.4.4.] 4.4.4.` 2.2.  ",
"9.9.9.9.9.9.9.9.  ,.:.:.W :.:.:.Q 5.6.4.` 4.4.4.` 4.2.4.` 2.3.  ",
"9.9.9.9.9.9.9.9.  6.6.6.] 6.6.4.] 5.4.4.] 4.4.5.` 2.3.3.` 4.2.  ",
"9.9.9.9.9.9.9.9.                                                "
};
