/* XPM */
static char *magick[] = {
/* columns rows colors chars-per-pixel */
"32 32 157 2",
"   c black",
".  c #0b0b0b",
"X  c #121212",
"o  c #1a1a1a",
"O  c #252525",
"+  c gray22",
"@  c #276427",
"#  c #336733",
"$  c #3a683a",
"%  c #7f007f",
"&  c gray28",
"*  c gray37",
"=  c #606060",
"-  c #6d6d6d",
";  c #767264",
":  c #747474",
">  c #787876",
",  c #7a7a7a",
"<  c #238423",
"1  c #358935",
"2  c #1bc61b",
"3  c #27c927",
"4  c #2fcb2f",
"5  c #35cc35",
"6  c #3ece3e",
"7  c #428242",
"8  c #448c44",
"9  c #559255",
"0  c #45d045",
"q  c #4bd14b",
"w  c #56d456",
"e  c #5cd65c",
"r  c #7efe7e",
"t  c #800000",
"y  c #8c0000",
"u  c #990000",
"i  c #a60000",
"p  c #b20000",
"a  c #bf0000",
"s  c #8e652c",
"d  c #906830",
"f  c #956f38",
"g  c #99743f",
"h  c #997541",
"j  c #927454",
"k  c #9f7b55",
"l  c #b76f6f",
"z  c #bf7f7f",
"x  c #cc0000",
"c  c #d80000",
"v  c #e50000",
"b  c #f20000",
"n  c red",
"m  c #c05800",
"M  c DarkOrange1",
"N  c #880088",
"B  c #900090",
"V  c #990099",
"C  c #a100a1",
"Z  c #aa00aa",
"A  c #b200b2",
"S  c #bb00bb",
"D  c #c300c3",
"F  c #cc00cc",
"G  c #d400d4",
"H  c #dd00dd",
"J  c #e500e5",
"K  c magenta2",
"L  c #f600f6",
"P  c magenta",
"I  c #999949",
"U  c #ac8e5e",
"Y  c #aa8b60",
"T  c #b29569",
"R  c #a4a449",
"E  c #b5b549",
"W  c #ffbf00",
"Q  c #fe9f40",
"!  c #fea144",
"~  c #ffaa55",
"^  c #fea858",
"/  c #feb062",
"(  c #feb66e",
")  c #feb974",
"_  c #febc7c",
"`  c yellow",
"'  c #fefe1a",
"]  c #fefe24",
"[  c #fbfb30",
"{  c #fdfd3c",
"}  c #e0e043",
"|  c #fefe44",
" . c #f5f553",
".. c #fefe5e",
"X. c #f8f874",
"o. c gray51",
"O. c #a39e8b",
"+. c #85e185",
"@. c #8de18d",
"#. c #81fd81",
"$. c #8df68d",
"%. c #8bfd8b",
"&. c #91e391",
"*. c #c78f8f",
"=. c #cf9f9f",
"-. c #c5ae87",
";. c #c8b496",
":. c #cfba95",
">. c #d7afaf",
",. c #dfbfbf",
"<. c #e5b583",
"1. c #f6be85",
"2. c #ffbe82",
"3. c #fec186",
"4. c #fec38b",
"5. c #ffc692",
"6. c #ffc896",
"7. c #ffcb9c",
"8. c #ffcea2",
"9. c #ffd0a6",
"0. c #ffd3ac",
"q. c #ffd6b1",
"w. c #ffd8b5",
"e. c #ffdcbc",
"r. c #f6e18f",
"t. c #f6e395",
"y. c #f6e49c",
"u. c #f7e6a3",
"i. c #f8e8ac",
"p. c #f8eab3",
"a. c #f8edbb",
"s. c #e7cfcf",
"d. c #e2d7c6",
"f. c #efdfdf",
"g. c #ffdec1",
"h. c #ffe0c5",
"j. c #ffe2c9",
"k. c #f9eec2",
"l. c #f5ecd0",
"z. c #f0eadf",
"x. c #ffe6d0",
"c. c #ffe9d5",
"v. c #ffecdb",
"b. c #faf0c6",
"n. c #faf1cc",
"m. c #faf3d5",
"M. c #fbf4db",
"N. c #f7efef",
"B. c #ffeee0",
"V. c #fcf5e2",
"C. c #fff3e9",
"Z. c #fcf8e5",
"A. c #fcf9ea",
"S. c #fff7f1",
"D. c #fdfbf3",
"F. c #fefefe",
"G. c None",
/* pixels */
"G.G.G.G.G.G.G.G.G.G.G.G.G.G.G.G.G.    G.G.G.G.G.G.G.G.G.G.G.G.G.",
"G.G.G.G.G.G.G.G.G.G.G.G.G.G.G.    D.Y   G.G.G.G.G.G.G.G.G.G.G.G.",
"G.G.G.G.G.G.G.G.G.G.G.G.G.    F.Z.m.U   G.G.G.G.G.G.G.G.G.G.G.G.",
"G.G.G.G.G.G.G.G.G.G.G.    F.n.n.n.m.m.f   G.G.G.G.G.G.G.G.G.G.G.",
"G.G.G.G.G.G.G.G.G.    F.V.a.b.b.m.m.m.U   G.G.G.G.G.G.G.G.G.G.G.",
"G.G.G.G.G.G.G.    F.Z.a.a.a.k.b.b.m.m.m.d   G.G.G.G.G.G.G.G.G.G.",
"G.G.G.G.G.    F.M.p.i.p.p.a.a.k.k.n.M.M.T   G.G.G.G.G.G.G.G.G.G.",
"G.G.G.    F.D.i.u.u.u.i.- - - - * n.m.m.l.g   G.G.G.G.G.G.G.G.G.",
"G.    F.D.p.t.y.y.u., , #.#.#.r ) = & m.M.-.  G.G.G.G.G.G.G.G.G.",
"  F.Z.a.t.t.t.t.y., +.%.%.%.%.%._ ( ~ + m.:.d   G.G.G.G.G.G.G.G.",
"G.  Z.y.t.t.t.y., +.&.&.  $.+.5.4.) ^ ! O V.T     G.G.G.G.G.G.G.",
"G.  F.u.t.y.y.y.o.@.&.  D.  9 <.4._ / ! O Z.    W   G.G.G.G.G.G.",
"G.G.  M.u.y.u.: +.&.  C.D.D.  j 3.) / | ] X F.` W M   G.G.G.G.G.",
"G.G.  F.u.u.u.> +.  v.C.^ S.D.  k X...{ ] X F.P W t   G.G.G.G.G.",
"G.G.G.  m.u.u.:   c.v.B.C.  D.^   R  .{ ] . F.P P t   G.G.G.G.G.",
"G.G.G.  F.p.p.  j.x.c.v.B.C.m   I E } [ ' . F.L L t   G.  G.G.G.",
"G.G.G.G.  V.  e.h.~ c.c.  ^   $ 7 w 6 ]   . F.K K t     W   G.G.",
"G.G.G.G.    w.e.h.h.  c.^   $ 8 e 0     W   F.J J t F.` W M   G.",
"G.G.G.G.  9.0.w.e.a.j.m   # 8 w 0   F.` W M F.H H t F.n W t   G.",
"G.G.G.  8.8.^ q.w.  ^   @ 1 q 6 4   F.n W t F.G G t F.n n t   G.",
"G.G.  5.7.7.8.  q.^   o < 5 4 3 2 X F.n n t F.F F t F.n n t   G.",
"G.  4.4.5.7.8.9.m   ; O.o o o X .   N.n n t N.D D t N.n n t   G.",
"  _ 2.^ 5.6.  ^   ; O.m.M.M.M.Z.Z.  f.b b t f.S S t f.b b t   G.",
"G.  2.2.  5.^   > O.M.M.M.Z.Z.Z.Z.  s.v v t s.A A t s.v v t   G.",
"G.G.  2.2.m   G.  Z.V.V.V.V.A.A.A.  ,.c c t ,.Z Z t ,.c c t   G.",
"G.G.G.  ^   G.G.  F.V.Z.Z.A.A.A.D.  >.x x t >.C C t >.x x t   G.",
"G.G.G.G.  G.G.G.G.  A.A.A.A.A.D.D.  =.a a t =.V V t =.a a t   G.",
"G.G.G.G.G.G.G.G.G.  F.A.D.D.D.D.d.  *.p p t *.B B t *.p p t   G.",
"G.G.G.G.G.G.G.G.G.G.  D.D.D.d.Y d       i   z N N t z i i t   G.",
"G.G.G.G.G.G.G.G.G.G.  z.;.h s     G.G.G.        %   l u u t   G.",
"G.G.G.G.G.G.G.G.G.G.G.  s     G.G.G.G.G.G.G.G.G.        y t   G.",
"G.G.G.G.G.G.G.G.G.G.G.    G.G.G.G.G.G.G.G.G.G.G.G.G.G.G.    G.G."
};
