/* XPM */
static char *magick[] = {
/* columns rows colors chars-per-pixel */
"32 32 13 1",
"  c black",
". c blue",
"X c #00bf00",
"o c #3bddd3",
"O c #4787cc",
"+ c red",
"@ c #e034ef",
"# c #ffac47",
"$ c #9bb2c9",
"% c #d8c98a",
"& c #d3cdb6",
"* c white",
"= c None",
/* pixels */
"================================",
"================================",
"======================  ========",
"====================== .  ======",
"====================   ...  ====",
"==  ================ @  ....  ==",
"= %% =============   @@@  ... ==",
"= %% ============= o  @@@@  . ==",
"= %% ===========   ooo  @@@ . ==",
"= %%% ========== X  oooo  @ . ==",
"== %% ========   XXX  ooo @ . ==",
"== %% ======== #  XXXX  o @ . ==",
"== %%% =====   ###  XXX o @ . ==",
"=== %% ===== +  ####  X o @   ==",
"=== %% ===== +++  ### X o @ ====",
"=== %%% ==== +++++  # X o   ====",
"==== %% ==== ++++++ # X o ======",
"==== %% ==== ++++++ # X   ======",
"==== %%% === ++++++ # X ========",
"===== %% === ++++++ #   ========",
"===== %% ===  +++++ # ==========",
"===== %%% ====  +++   ==========",
"====== %% ======  + ============",
"=======    =======  ============",
"======= &&& ====================",
"======= &&$O ===================",
"======= &$OO ===================",
"======== OOOO ==================",
"========= OOO ==================",
"==========   ===================",
"================================",
"================================"
};
