/* XPM */
static char * kcontrol_xpm[] = {
"34 34 94 2",
"  	c None",
". 	c #010102",
"+ 	c #1B1B1C",
"@ 	c #66DA54",
"# 	c #62DA4C",
"$ 	c #4EB63C",
"% 	c #225A04",
"& 	c #92928C",
"* 	c #FEFEFC",
"= 	c #ABABAC",
"- 	c #DEE2A4",
"; 	c #E2E28C",
"> 	c #AAB66C",
", 	c #CADA94",
"' 	c #636364",
") 	c #CCCCCC",
"! 	c #C3C3C4",
"~ 	c #BDBDBC",
"{ 	c #BABAB4",
"] 	c #B3B3B4",
"^ 	c #B2B2AC",
"/ 	c #767674",
"( 	c #C6C624",
"_ 	c #AEAA24",
": 	c #46BE3C",
"< 	c #4AC23C",
"[ 	c #FE0204",
"} 	c #D22A2C",
"| 	c #46BA34",
"1 	c #43B334",
"2 	c #3EAB2C",
"3 	c #4C4C4C",
"4 	c #6A6A6C",
"5 	c #66666C",
"6 	c #5D5D5C",
"7 	c #525254",
"8 	c #161614",
"9 	c #42AE2C",
"0 	c #028284",
"a 	c #028204",
"b 	c #828204",
"c 	c #C25A04",
"d 	c #820204",
"e 	c #0A0A0C",
"f 	c #3AA424",
"g 	c #A5A5A4",
"h 	c #02C2C4",
"i 	c #02C204",
"j 	c #C2C204",
"k 	c #FE8204",
"l 	c #C20A0C",
"m 	c #4E4254",
"n 	c #A2A29C",
"o 	c #369E24",
"p 	c #262EC4",
"q 	c #9E9EA4",
"r 	c #3C3C3C",
"s 	c #36862C",
"t 	c #021AFC",
"u 	c #02FEFC",
"v 	c #02FE04",
"w 	c #FEFE04",
"x 	c #FEAA5C",
"y 	c #9C9C9C",
"z 	c #2A7624",
"A 	c #369A1C",
"B 	c #33941C",
"C 	c #3A9E24",
"D 	c #9A9A94",
"E 	c #329214",
"F 	c #328E14",
"G 	c #C2FEFC",
"H 	c #C2FEC4",
"I 	c #FEFEC4",
"J 	c #FEDEAC",
"K 	c #FEC2C4",
"L 	c #949494",
"M 	c #2E8B14",
"N 	c #4E424C",
"O 	c #2A840C",
"P 	c #8E8E8C",
"Q 	c #424244",
"R 	c #AAAAA4",
"S 	c #009000",
"T 	c #38FB30",
"U 	c #32762C",
"V 	c #1A4E0C",
"W 	c #262624",
"X 	c #323234",
"Y 	c #EEEEEC",
"Z 	c #DADAD4",
"` 	c #DEDEDC",
" .	c #D2D2D4",
"..	c #838384",
"                                                                    ",
". + @ # # # # @ @ @ # # # @ $ % & * * * * * * * * * * * * * =       ",
". - ; > , > , , , , , , , , , % ' ) ) ) ! ! ! ! ~ ~ { ] ] ^ /       ",
". ( _ : < [ } | > 1 | 1 2 2 , % 3 4 5 ' ' ' 5 5 ' ' ' 6 ] ] /       ",
". - ; > , > | | = = = 7 1 2 , % . . . . . . . . . . . * ^ ^ /       ",
". ( _ : | | | 1 = ' 6 8 9 2 , % . 0 . a . b . c . d . * = = /       ",
". - ; > , , , > = 6 3 8 2 2 , % . 0 . a e b . c e d . * ^ = /       ",
". ( _ | 1 1 1 1 7 8 8 8 2 2 , % e 0 . a . b . c . d . * = = /       ",
". - ; > , , , 9 > 2 > 2 2 f , % . e . . . . . . . . . * = g /       ",
". ( _ 1 1 2 > 2 , 2 , f } f , % . h . i . j e k . l . * = g /       ",
"e - ; > > = = m , f , > [ > , % . h . i . j . k . l . * = n /       ",
". ( _ 2 2 = 5 8 , f , f f o , % . h . i e j . k . l . * g n /       ",
". - ; > 2 3 8 8 , f , f p o , % e . . . . . e . . . . * g q /       ",
". r s , f f f f , f , > t > , % . u . v . w . x e [ . * n y /       ",
". * z , , , f , , f , A A B , % . u . v . w . x . [ . * y y /       ",
". * z , f , C , C A , A p B , % . u . v . w . x . [ . * n D /       ",
". * z , f , f , A B , > t > , % . . e . . . e . . . . * q D /       ",
". * z , o , B , A B , B E E F % . G . H . I . J . K . * L L /       ",
". * z , B > B > B B > E B M F % . G . H . I . J . K . * q L /       ",
". * z , B = = m E E = = N F M % . G . H . I . J e K . * L & /       ",
". * z , B = ' 8 B M = ' 8 M M % . . . . . . . . . . . * & L /       ",
"e * z , B N 8 8 E M N 8 8 O O % P * * * * * * * * * * * & P /       ",
". * z , E B > , , , , > O O O % 5 = g g n y y y D L L L P P /       ",
". * z , > N N N N N N N Q O z % 6 = g R g y n y L L S T P P /       ",
". = U M M O M M M M M M M O O % Q / / / / / / / / / / / / / /       ",
"  . V % %   % % % % % % % % % % . . . . e .                         ",
"                      W X Q N 7 * Y ~ P ' X                         ",
"                      3 5 P ! Y * Y ~ P ' r                         ",
"        . . . . r Q Q Q Q Q Q r r r Q Q Q Q Q                       ",
"        . Z ` ` ` ` ` ` ` ` ` ` ` ` ` ` ` ` ` ` `  .                ",
"          P ..........P ..........................                  ",
"          . . . . . . . . . . . e . . . . . . . .                   ",
"          . . . . . . . . . . . . . . . . . . . .                   ",
"      . . . . . . . . . . . . . . . . . . . . . . .                 "};
