/* XPM */
static char *magick[] = {
/* columns rows colors chars-per-pixel */
"32 32 14 1",
"  c black",
". c #004000",
"X c #585858",
"o c #008000",
"O c #ffa858",
"+ c #808080",
"@ c #a0a0a0",
"# c #ffdca8",
"$ c #c3c3c3",
"% c gainsboro",
"& c #c0c0ff",
"* c #ffffc0",
"= c white",
"- c None",
/* pixels */
"-                              -",
" oooooooooooooo..oooooooooooooo ",
" o$$$$$$$$$$$$$+$$$$$$$$$$$$$+. ",
" o$============+$============+. ",
" o$=&&=========+$=========&&=+. ",
" o$=&&=========+$=========&&=+. ",
" o$============+$============+. ",
" o$============+$============+. ",
" o$==========******==========+. ",
" o$=$$$$$$$$=      =$$$$$$$$=+. ",
" o$============+$============+. ",
" o$=&&=========+$=========&&=+. ",
" o$=&&=========+$=========&&=+. ",
" o$============+$============+. ",
" o$============+$===  =======+. ",
" o$==========***  * %% =  ===+. ",
" o$=$$$$$$$$=   %@ @$$@ @% $=+. ",
" o$============ @%+@OO@+%@ ==+. ",
" o$=&&=========+ +OO#O#O+ &&=+. ",
" o$=&&========  %@O#++O#@%  =+. ",
" o$========== %$@O#O@@#*O@$% +. ",
" o$========== +@%+#*##=*+%@+ +. ",
" o$==========* XX%+#*=#+%XX =+. ",
" o$=$$$$$$$$=   +$%%++%%$+ $=+. ",
" o$=========== @=+X+%%+X+=@ =+. ",
" o$=&&======== %@X  @@  X@% =+. ",
" o$=&&=========   = %= =   &=+. ",
" o$============+$== X+ ======+. ",
" o$============+$===  =======+. ",
" o$+++++++++++++$+++++++++++++. ",
" o............................. ",
"-                              -"
};
