/* XPM */
static char *magick[] = {
/* columns rows colors chars-per-pixel */
"34 34 33 1",
"  c #000000",
". c #0b0b0b",
"X c #131313",
"o c gray11",
"O c #232323",
"+ c #2b2b2b",
"@ c #333333",
"# c #3b3b3b",
"$ c #424242",
"% c #4b4b4b",
"& c #525252",
"* c #5d5d5d",
"= c #636363",
"- c #6b6b6b",
"; c #737373",
": c #7c7c7c",
"> c #838383",
", c #8b8b8b",
"< c #939393",
"1 c #9b9b9b",
"2 c #a3a3a3",
"3 c #acacac",
"4 c #b3b3b3",
"5 c gray74",
"6 c #c5c5c5",
"7 c #cdcdcd",
"8 c #d4d4d4",
"9 c #dcdcdc",
"0 c #e1e1e1",
"q c #eaeaea",
"w c #f4f4f4",
"e c white",
"r c None",
/* pixels */
"rrrrrrrrrrrrrrrrrrrrrrrrrrrrrrrrrr",
"rrrrrrrrrrrrrrrrrrrrrrrrrrrrrrrrrr",
"rrrrrrrrrrrrrrrrrrrrrrrrrrrrrrrrrr",
"rrrrrrrrrrrrrrrrrrrrrrrrrrrrrrrrrr",
"rrrrrrrrrrrrrrrrr   rrrrrrrrrrrrrr",
"rrrrrrrrrrrrrrrr w8=  rrrrrrrrrrrr",
"rrrrrrrrrrrrrrr 07=:,-  rrrrrrrrrr",
"rrrrrrrrrrrrrr w9=-$o..O  rrrrrrrr",
"rrrrrrrrrrrrr q8=-$@+o. .&  rrrrrr",
"rrrrrrrrrrrr 08=>-=%@@o.#e,,  rrrr",
"rrrrrrrrrrr q6=3<1>:<1:*e<<,>,  rr",
"rrrrrrrrrr 76=3323<43,,e1<<,>>,& r",
"rrrrrrrrr 85=<3312<42>e111,,>:%# r",
"rrrrrrrr 54=><22<<:>2e111<,,,%## r",
"rrrrrrr 43%-:><2>;*=e221<<,,&$#@ r",
"rrrrrr 41%&-;>,11==e121<<,,&$##+ r",
"rrrrr 11#&*%@@$=><e1111<,<&$$@+ rr",
"rrrr 2>O%$X ..X.@e<11<<,,&#$@+ rrr",
"rrr ,:+$%o  $%@#e<1<<<,<%#@@@ rrrr",
"rr >:+#$@ .&;-:e,<<<,,,&#@@@ rrrrr",
"r --+##$O o-%=e>,,,,>,&#@@@ rrrrrr",
"r %$@@@$O .&-e>>>,>>,&@@@+ rrrrrrr",
"r &&%%@#+. #e;>>>::>%#@@+ rrrrrrrr",
"r &*&&&##.#e;;;:::>%#@@@ rrrrrrrrr",
"r &&&&&&%&2-;;;;;;%@#@+ rrrrrrrrrr",
"rr  %%%%&&#%;---;$@@@+ rrrrrrrrrrr",
"rrrr  $$%%%%@$--%@@@+ rrrrrrrrrrrr",
"rrrrrr O##$$$$@@#++@ rrrrrrrrrrrrr",
"rrrrrrrr X#@#$$@@+@ rrrrrrrrrrrrrr",
"rrrrrrrrrr  O+@++O rrrrrrrrrrrrrrr",
"rrrrrrrrrrrr XoO+ rrrrrrrrrrrrrrrr",
"rrrrrrrrrrrrrr   rrrrrrrrrrrrrrrrr",
"rrrrrrrrrrrrrrrrrrrrrrrrrrrrrrrrrr",
"rrrrrrrrrrrrrrrrrrrrrrrrrrrrrrrrrr"
};
