/* XPM */
static char *magick[] = {
/* columns rows colors chars-per-pixel */
"32 32 16 1",
"  c black",
". c #000040",
"X c #400040",
"o c #008000",
"O c #00c000",
"+ c green",
"@ c #008080",
"# c #00c0c0",
"$ c cyan",
"% c #808000",
"& c #c0c000",
"* c yellow",
"= c #beffbe",
"- c #beffff",
"; c #ffffbe",
": c None",
/* pixels */
"::::::::::::::::::::::::::::::::",
"::::::::::: ::::::::::::::::::::",
":::::::::: =  ::::::::::::::::::",
"::::::::: ====  ::::::::::::::::",
":::::::: =======  ::::::::::::::",
"::::::: ========+o :::::::::::::",
":::::: ++======+oo :::::::::::::",
"::::: +++++===+ooo ::: :::::::::",
":::: +++++++++oooo :: -  :::::::",
":::: OO++++++oooooX: ----  :::::",
":::: OOOO+++ooooooX -------  :::",
":::: OOOOOOooooooo --------$@ ::",
":::: OOOOOOoooooo $$------$@@ ::",
":::: OOOOOOooooo $$$$$---$@@@ ::",
":::: OOOOO oooo $$$$$$$$$@@@@ ::",
":::: OOOO ;  oo ##$$$$$$@@@@@ ::",
":::::    ;;;;   ####$$$@@@@@@ ::",
"::::::: ;;;;;;;  #####@@@@@@@ ::",
":::::: ;;;;;;;;*% ####@@@@@@ :::",
"::::: **;;;;;;*%% ####@@@@@ ::::",
":::: *****;;;*%%% ####@@@@ :::::",
"::: *********%%%% ####@@@ ::::::",
"::: &&******%%%%% ####@@ :::::::",
":::.&&&&***%%%%%%   ##@ ::::::::",
"::: &&&&&&%%%%%%% ::   :::::::::",
"::: &&&&&&%%%%%% :::::::::::::::",
":::.&&&&&&%%%%% ::::::::::::::::",
"::: &&&&&&%%%% :::::::::::::::::",
"::: &&&&&&%%% ::::::::::::::::::",
"::::  &&&&%% :::::::::::::::::::",
"::::::  &&% ::::::::::::::::::::",
"::::::::   :::::::::::::::::::::"
};
