/* XPM */
static char *magick[] = {
/* columns rows colors chars-per-pixel */
"32 32 206 2",
"   c black",
".  c #000b0e",
"X  c #0e0e0e",
"o  c #111111",
"O  c #002129",
"+  c #002933",
"@  c #3e3e3f",
"#  c #3f3f40",
"$  c #0d7f7a",
"%  c #42413f",
"&  c #424243",
"*  c #635743",
"=  c #665c47",
"-  c #645c4e",
";  c #665e51",
":  c #6d614b",
">  c #6b6355",
",  c #6f6857",
"<  c #70644d",
"1  c #726652",
"2  c #756953",
"3  c #776e58",
"4  c #7a6d55",
"5  c #7a7263",
"6  c #707071",
"7  c #0d827c",
"8  c #0f8983",
"9  c #0f8e88",
"0  c #019395",
"q  c #01989a",
"w  c #039fa1",
"e  c #02a1a4",
"r  c #02a6a8",
"t  c #02abad",
"y  c #02b1b4",
"u  c #02b5b8",
"i  c #02bbbd",
"p  c #02c1bc",
"a  c #02c4c2",
"s  c #02c6c8",
"d  c #02cbc6",
"f  c #02c9cc",
"g  c #02d0cc",
"h  c #02d6d1",
"j  c #02dad6",
"k  c #02dfdc",
"l  c #0ae1df",
"z  c #02e5e1",
"x  c #02e9e6",
"c  c #02efec",
"v  c #02f4f1",
"b  c #02f8f6",
"n  c #02fefc",
"m  c #0bf6f3",
"M  c #409fa8",
"N  c #46a4ac",
"B  c #46a7b5",
"V  c #4bacb4",
"C  c #4cb4be",
"Z  c #56adb6",
"A  c #57b5bd",
"S  c #7e8180",
"D  c #56b8c6",
"F  c #63bec8",
"G  c #6abdc9",
"H  c #4ec3ce",
"J  c #50c8d3",
"K  c #65c1ce",
"L  c #79cad4",
"P  c #74d0de",
"I  c #81735a",
"U  c #85785d",
"Y  c #807767",
"T  c #847861",
"R  c #867c6b",
"E  c #8d8169",
"W  c #918263",
"Q  c #91856d",
"!  c #9a8a6a",
"~  c #918572",
"^  c #948974",
"/  c #998c75",
"(  c #9a8e7a",
")  c #9e936b",
"_  c #9f9573",
"`  c #9d917c",
"'  c #a28d68",
"]  c #aa946d",
"[  c #a3957d",
"{  c #c3aa7e",
"}  c #808382",
"|  c #9c9383",
" . c #999b9a",
".. c #a09681",
"X. c #a69880",
"o. c #aa9c82",
"O. c #a99e88",
"+. c #aea282",
"@. c #aea38d",
"#. c #aca392",
"$. c #b1a086",
"%. c #bcab8d",
"&. c #b2a790",
"*. c #b3a895",
"=. c #b4aa9a",
"-. c #bdb39e",
";. c gray67",
":. c #aeb6b7",
">. c #bdb4a0",
",. c #bdb9ac",
"<. c #b6bdbc",
"1. c #84ced7",
"2. c #84d5de",
"3. c #8bd4dc",
"4. c #95d5dd",
"5. c #9dd5de",
"6. c #81d5e1",
"7. c #84d8e1",
"8. c #8bd5e0",
"9. c #92d9e4",
"0. c #9bdce5",
"q. c #99dde8",
"w. c #bac2c4",
"e. c #b5d1d5",
"r. c #a4dce6",
"t. c #b8dfe3",
"y. c #a6e3eb",
"u. c #ade3eb",
"i. c #b3e0e6",
"p. c #b3e6ee",
"a. c #baebef",
"s. c #bbeaf0",
"d. c #c6ad80",
"f. c #c5b593",
"g. c #c8b899",
"h. c #d7bf90",
"j. c #c0b7a3",
"k. c #c4baa3",
"l. c #c1baab",
"z. c #cabca0",
"x. c #c4bdb1",
"c. c #d0bfa5",
"v. c #d6c295",
"b. c #d9c49c",
"n. c #cec5b0",
"m. c #cac5bb",
"M. c #cfc8ba",
"N. c #dbc8a3",
"B. c #dcccab",
"V. c #dbcdb5",
"C. c #ddcfb8",
"Z. c #e3cca5",
"A. c #e4d0ac",
"S. c #ead3ac",
"D. c #e7d5b0",
"F. c #e9d5b3",
"G. c #e8d7bc",
"H. c #ebdbbb",
"J. c #c7c5c2",
"K. c #c8cecf",
"L. c #d4cfc6",
"P. c #d1cfcb",
"I. c #d2d1ce",
"U. c #dad3c5",
"Y. c #d1dcdc",
"T. c #d8d6d2",
"R. c #deddd9",
"E. c #c0e0e3",
"W. c #c4e9ec",
"Q. c #cbe2e6",
"!. c #c4ecf2",
"~. c #ceeef2",
"^. c #cbf1f4",
"/. c #d8e3e2",
"(. c #dcebec",
"). c #d3eff4",
"_. c #d9eff2",
"`. c #d4f1f4",
"'. c #dcf3f5",
"]. c #e5dac6",
"[. c #e9dfca",
"{. c #e3dfda",
"}. c #e4e1dc",
"|. c #ebe1d1",
" X c #eae4da",
".X c #f4e3c3",
"XX c #f3e5cb",
"oX c #f5ead3",
"OX c #f3ebdb",
"+X c #f8eedd",
"@X c #eeedea",
"#X c #e0f3f5",
"$X c #e6f6f8",
"%X c #e9f7f9",
"&X c #ebfafa",
"*X c #f7efe0",
"=X c #f0eeeb",
"-X c #f8efe1",
";X c #f2f1ed",
":X c #f8f2e4",
">X c #faf5ec",
",X c #f1f1f1",
"<X c #faf7f2",
"1X c #fcfaf5",
"2X c #fefefe",
"3X c None",
/* pixels */
"3X  3X3X3X3X3X3X3X3X3X3X3X3X3X3X3X3X3X3X3X3X3X3X3X3X3X3X3X3X3X3X",
"+ n     3X3X3X3X3X3X3X3X3X3X3X3X3X3X3X3X3X3X3X3X3X3X3X3X3X3X3X3X",
"+ b f O.  3X3X3X3X3X3X3X3X3X3X3X3X3X3X3X3X3X3X3X3X3X3X3X3X3X3X3X",
"+ v s $.2X  3X3X3X3X3X3X3X3X3X3X3X3X3X3X3X3X3X    3X3X3X3X3X3X3X",
"+ c a $.2X2X  3X3X3X3X3X3X3X3X3X3X3X3X3X3X     X  3X3X3X3X3X3X3X",
"+ x i $.2X2X2X  3X3X3X3X3X3X3X3X3X3X3X    {.<X<X  3X3X3X3X3X3X3X",
"+ z i O.2X2X2X2X  3X3X3X3X3X3X3X3X3X  T.1X1X1X<X  3X3X3X3X3X3X3X",
"+ k u $.2X2X2X2X2X  3X3X3X3X3X3X    @X@X1X1X1X<X  3X3X3X3X3X3X3X",
"+ j y $.2X2X2X2X2X2X  3X3X3Xo o o o o =X@X;X1X<Xo & & & & % 3X3X",
"+ h t $.2X2X2X2X2X2X2X  o o  .:.w.:. .o o @X,X@X= *.n.>X2Xo.  3X",
"+ f t o.2X2X2X2X2X2X2Xo S Y.(.'.'.`.~.'.S o ;X,X: &.n.>X1XX.8 . ",
"+ f r o.2X2X2X2X2X2Xo S /.%X$X^.~.p.r.p.'.S X m.< &.n.OX1XX.8 . ",
"+ d e [ 2X2X2X2X2X2Xo Y.&X&X&X'.!.u.9.1.r.#Xo I.: &.n.OX1XX.8 . ",
"+ p e [ 2X2X2X2X2Xo  .(.%X&X$X`.a.y.9.L L p. .o : &.n.OX1Xo.8 . ",
"+ p e [ 2X2X2X2X,Xo <.%X^.'.`.!.u.q.P K K y.e.o : &.n.OX1XX.8 . ",
"+ p e ` 2X2X2X1X,Xo K.$XW.!.a.u.q.8.P D A y.t.o < &.n.OX1XX.8 . ",
"+ i w ( 2X1X1X=X=Xo w._.i.u.y.q.7.P H D V 9.e.o < &.n.OX1X[ 8 . ",
"+ i e / 1X1X1X;X{.o  .`.5.8.9.7.P J C N G a. .X < &.n.OX1X[ 8 . ",
"+ p e ^ <X>X>X:X X Xo Q.u.2.L K D A M B 7.'.X L.< @.n.OX1X/ 8 . ",
"+ p e ~ :X:X:XOX+X|.X } #Xr.1.F Z N K P '. .o m.< ..n.OX1X^ 8 . ",
"+ p e Q -X+X+X+XoX[.].o } '.i.0.3.2.u.#X .o ;.m 1 ^ -.OX1X^ 8 . ",
"  9 r Y o.oXoXoXoXXXC.k.X o  .e.E.e. .o o # l ;.o ( *.OX1XQ 8 . ",
"3X  8 y 1 o.XXXXXXH.H.c.* ' X X o o X ,.&.r % 6 ;.o =.U.1XE 8 . ",
"3X3X  8 u 1 o..XH.F.F.B.2 ] $.*.l.l.,.< 2 Y X & 6 ;.o M.I.U 8 . ",
"3X3X3X  8 y , o.F.A.A.N.4 d.Z.C.n.-.2 O.O.| | X # 6 ;.X T.3 7 . ",
"3X3X3X3X  9 y > o.A.Z.b.4 d.S.S.W ! $.g.g.j.*.@.X # 6 ;.o 2 7 . ",
"3X3X3X3X3X  9 y > o.b.h.4 d.S.U _ +.f.F.H.G.V.*.,.o # 6 ;.o 7 . ",
"3X3X3X3X3X3X  8 y , o.h.4 { U ) { b.N.%.%.$.O.[ / E X & 6 o 8 . ",
"3X3X3X3X3X3X3X  8 y - o.4 4 ) > > ; > > > > > > 1 - - o o 5 8 . ",
"3X3X3X3X3X3X3X3X  8 y , 4 R 5 e q r e e e e e e e e 0 q e e e . ",
"3X3X3X3X3X3X3X3X3X  8 8 8 9 8 O                               3X",
"3X3X3X3X3X3X3X3X3X3X. . . . . 3X3X3X3X3X3X3X3X3X3X3X3X3X3X3X3X3X"
};
