/* XPM */
static char *magick[] = {
/* columns rows colors chars-per-pixel */
"32 32 10 1",
"  c black",
". c #004040",
"X c #585858",
"o c #008080",
"O c #00c0c0",
"+ c #808080",
"@ c #c0c0c0",
"# c #c0ffff",
"$ c white",
"% c None",
/* pixels */
"%%%%%%%%%%%%%%%%%%%%%    %%%%%%%",
"%%%%%%%%%%%%%%%%%%%  $$$$  %%%%%",
"%%%%%%%%%%%%%%%%%% $$$$@+@+ %%%%",
"%%%%%%%%%%%%%%%%% $$$@@@@+++ %%%",
"%%%%%%%%%%%%%%%%% $$@$@@++++ %%%",
"%%%%%%%    %%%%%% $@$@@+++++ %%%",
"%%%%%  ####  %%%% $$@@++++++ %%%",
"%%%% ####OoOo %  @ @@++++++ %%%%",
"%%% ###OOOOooo @@@@  ++++   %%%%",
"%%% ##O#OOoooo $$@@@+    X++  %%",
"%%% #O#OOooooo @@$$@@@+++++@@@  ",
"%%% ##OOoooooo @@@@$$@@@@@@@@++ ",
"%  O OOoooooo  @@@@@@$$@@@@++++ ",
" OOOO  oooo    @@@@@@@@$$++++++ ",
" ##OOOo    .oo  @@@@@@@@@++++++ ",
" OO##OOOoooooOOO  @@@@@@@++++++ ",
" OOOO##OOOOOOOOoo @@@@@@@++++++ ",
" OOOOOO##OOOOoooo @@@@@@@+++++  ",
" OOOOOOOO##oooooo @@@@@@@+++  %%",
" OOOOOOOOOOoooooo @@@@@ ++  + %%",
" oOOOOOOOOOoooooo @@@@@+  +++ %%",
"%  OOOOOOOOoooooo @@@@@++++++ %%",
"%% OOOOOOOOooooo  @@@@@++++++ %%",
"%% OOOOOOOOooo    +@@@@+++++  %%",
"%% OOOOOO oo  o %%  +@@+++  %%%%",
"%% OOOOOOo  ooo %%%%  ++  %%%%%%",
"%% OOOOOOoooooo %%%%%%  %%%%%%%%",
"%% OOOOOOoooooo %%%%%%%%%%%%%%%%",
"%%  oOOOOooooo  %%%%%%%%%%%%%%%%",
"%%%%  oOOooo  %%%%%%%%%%%%%%%%%%",
"%%%%%%  oo  %%%%%%%%%%%%%%%%%%%%",
"%%%%%%%%  %%%%%%%%%%%%%%%%%%%%%%"
};
