/* XPM */
static char *magick[] = {
/* columns rows colors chars-per-pixel */
"32 32 217 2",
"   c #000001",
".  c #22221c",
"X  c #3a3a34",
"o  c #6a6a5c",
"O  c #737374",
"+  c #817c5a",
"@  c #967e74",
"#  c #a27a5c",
"$  c #ba6244",
"%  c #ba6e58",
"&  c #ba725c",
"*  c #ae7a6c",
"=  c #b27664",
"-  c #be7e64",
";  c #da3e20",
":  c #e22204",
">  c #e73615",
",  c #e63e1c",
"<  c #ea3a1c",
"1  c #ce462c",
"2  c #ce522c",
"3  c #de4624",
"4  c #da4a2c",
"5  c #de5234",
"6  c #da563c",
"7  c #df771c",
"8  c #ce623c",
"9  c #de7e28",
"0  c #e6421c",
"q  c #ec4628",
"w  c #ee4a2c",
"e  c #ee5634",
"r  c #f24e34",
"t  c #e67618",
"y  c #ee7a14",
"u  c #ea7a19",
"i  c #cc5e44",
"p  c #da5e4c",
"a  c #c6664c",
"s  c #c07e44",
"d  c #de6e54",
"f  c #ee6a4c",
"g  c #e2725c",
"h  c #f6664c",
"j  c #be863c",
"k  c #9e925c",
"l  c #828361",
"z  c #828a64",
"x  c #868e6c",
"c  c #8c8c63",
"v  c #8e8e6e",
"b  c #878674",
"n  c #85857d",
"m  c #8a8a7c",
"M  c #8e9264",
"N  c #829a74",
"B  c #8c967c",
"V  c #8e9a7c",
"C  c #968264",
"Z  c #928a6c",
"A  c #9a8e6c",
"S  c #968a7c",
"D  c #939466",
"F  c #929a64",
"G  c #949676",
"H  c #929278",
"J  c #949a78",
"K  c #9c9c78",
"L  c #9ea26c",
"P  c #ae8a4c",
"I  c #a8865c",
"U  c #b68458",
"Y  c #be8254",
"T  c #ba8a54",
"R  c #be9254",
"E  c #b08e6c",
"W  c #b68a7c",
"Q  c #ba967c",
"!  c #a4a47c",
"~  c #a2aa7c",
"^  c #abad7e",
"/  c #b4b47c",
"(  c #bcb67c",
")  c #ce823c",
"_  c #da8634",
"`  c #eb8b34",
"'  c #f08220",
"]  c #c48244",
"[  c #ce9654",
"{  c #d28644",
"}  c #de8e48",
"|  c #de9551",
" . c #d09c64",
".. c #ceae7c",
"X. c #d6aa6c",
"o. c #e68e40",
"O. c #ee9e54",
"+. c #f2984c",
"@. c #f28a74",
"#. c #f28e7c",
"$. c #e6a25c",
"%. c #eaaa6c",
"&. c #f2ae74",
"*. c #f2b57f",
"=. c #808a88",
"-. c #888d89",
";. c #8e8e90",
":. c #8e9684",
">. c #8d9289",
",. c #8e9498",
"<. c #889a9c",
"1. c #988e88",
"2. c #949488",
"3. c #959a86",
"4. c #969e8c",
"5. c #9b968c",
"6. c #9a9b8c",
"7. c #949494",
"8. c #949a98",
"9. c #9b9b9c",
"0. c #9da584",
"q. c #9ca293",
"w. c #96a2a0",
"e. c #9ea4a1",
"r. c #a89e8c",
"t. c #b09684",
"y. c #b69e8c",
"u. c #a3a28c",
"i. c #a4a69c",
"p. c #adae9e",
"a. c #aab68c",
"s. c #bbbc8b",
"d. c #b2b29c",
"f. c #bab29c",
"g. c #a2a2a4",
"h. c #aaaaa3",
"j. c #a2b2a4",
"k. c #aeb2a4",
"l. c #b9b6a7",
"z. c #b6b6b8",
"x. c #b2beb4",
"c. c #bdbeb0",
"v. c #bcc288",
"b. c #bcc49c",
"n. c #ca9e8c",
"m. c #c2a68c",
"M. c #ceaa94",
"N. c #c2b284",
"B. c #daaea4",
"V. c #d6bebc",
"C. c #f29281",
"Z. c #f29d8f",
"A. c #f4a698",
"S. c #f6aa94",
"D. c #fea694",
"F. c #f2be8c",
"G. c #f6be94",
"H. c #eeb6ac",
"J. c #eabeac",
"K. c #f8aea0",
"L. c #f2baac",
"P. c #fab6ac",
"I. c #fabaac",
"U. c #c5c28f",
"Y. c #c6c690",
"T. c #cece9c",
"R. c #d0d29c",
"E. c #c5c6b0",
"W. c #c2c2b8",
"Q. c #c6ccb4",
"!. c #ccccb3",
"~. c #d5c2a4",
"^. c #dec6a4",
"/. c #d2d6a0",
"(. c #dadaa8",
"). c #d3d4bc",
"_. c #e0c28c",
"`. c #f7c294",
"'. c #f7ca9c",
"]. c #fbc6bc",
"[. c #fad2a4",
"{. c #f6dabc",
"}. c #fbdbbc",
"|. c #e2e2b4",
" X c #eae6bc",
".X c #eaebbf",
"XX c #fae2bc",
"oX c #c1c2c4",
"OX c #c6c6cc",
"+X c #cbcbcc",
"@X c #cad6c4",
"#X c #d2cacc",
"$X c #dedec5",
"%X c #d4d4d1",
"&X c #dadbd9",
"*X c #f6cec4",
"=X c #f6d6d0",
"-X c #fededc",
";X c #e7e6c9",
":X c #e8eace",
">X c #e2e2df",
",X c #eaeadf",
"<X c #f6eed4",
"1X c #feecd0",
"2X c #f2f2c4",
"3X c #f6f6d8",
"4X c #faf2d9",
"5X c #fcfcdd",
"6X c #eeeee9",
"7X c #fae6e4",
"8X c #f2f2ee",
"9X c #fef4eb",
"0X c #fefaed",
"qX c #f6f6f1",
"wX c #fefef5",
"eX c #f9faf9",
"rX c None",
/* pixels */
"rXrXrXrXrXrXrX                                    rXrXrXrXrXrXrX",
"rXrXrXrXrXrXrX  >X&X>X&X&X&X&X&X&X&X&X&X%X&X&XW.  rXrXrXrXrXrXrX",
"rXrXrXrXrXrX  W.5X3X|.$X6X|.|.>X|.|.6X(.|.).W.6.h.. rXrXrXrXrXrX",
"rXrXrXrXrXrX  6X3X@Xj.i.q.g.g.e.e.i.i.g.p.u.4.>.6.  rXrXrXrXrXrX",
"rXrXrXrXrX  oX}.S.D.w W 8.2.r.J.g * 8.7.S B.Z.$ 7.h.  rXrXrXrXrX",
"rXrXrXrXrX  6X].-X9Xf 6 <.-.J.9XP.; -.=.n.8X9X< = 8.  rXrXrXrXrX",
"rXrXrXrX  oXwXZ.A.A., 6 <.n @.].e , ;.=.% ].@.> * V h.  rXrXrXrX",
"rXrXrXrX  :X5X*X0 : > H.x.q.& > , - 6.2.C ; < i 1.>.6.  rXrXrXrX",
"rXrXrXrX  5XeXeX#XV.=X8Xc.p.e.r.r.6.4.J V + + z B >.8.  rXrXrXrX",
"rXrXrX  oX5XqX6X+X,XeX8X,X>Xh.9.6.y.L.d I x + M.K.i 2.h.  rXrXrX",
"rXrXrX  ,X4X8X%X+XeX8XwXwXqXc.7.5.=X9XC.4 N Q 9X9Xr % 4.  rXrXrX",
"rXrX  W.5X,X%Xz.%X8X8X8X8X8X+X7.@ C.K.q 3 N % P.#.< % ,.h.  rXrX",
"rXrX  6X3X>XOXz.>X>X8X>X&XeX,Xp.H $ > 3 # V Z 1 > 2 :.:.2.  rXrX",
"rX  W.5X8X>XOX+X%X&X%XV.oX6XoXq.4.V l + z v D x + l >.>.7.p.  rX",
"rX  wX5X!.i.7.h.~.'.| 1.g.l.u.K K K D + + x H D + m.I.p 2.g.  rX",
"  n 2X;Xp.-.-.y.3X0X+.E -.q.u.u.! K J l + c D H t.7X9Xh a w.O   ",
"  X :X).l.-.n I F.F.y Y =.5.q.r.K ! s.K D D K / - Z.#.> a q.O   ",
"rX  h.Q.b.6.=.b s y 9 Z n 2.6.! K s..XY.^ s.T.|.v.8 > 5 1.g.  rX",
"rX  o ).E.h.n m m 4.3.-.b b 5.6.^  X<X( R.5X5X2Xs.v.(.9.w.O   rX",
"rXrX  V.!.f.~.[.{ 2.6.H n m D G v.1X}.| _.5X5X|./ R.!.-.,.  rXrX",
"rXrX  p.).^.wX0Xu T 6.2.v b b c ! 1X5X%.` 5X5XU.Y.;Xg.-.O   rXrX",
"rXrXrX  :XX.G.%.y U :.3.2.H c D k &.F.7 ` 5X|./ R.T.n g.  rXrXrX",
"rXrXrX  W.!.} t ) m v 5.5.K D K L  .u ` {.2XU.s. XE.-.O   rXrXrX",
"rXrXrXrX  ).E.q.b m b J K K ! ^ ! a.b.:XwX X( (.;X7.9.  rXrXrXrX",
"rXrXrXrX  d.Q.d.~.}.} A D K N.{.%.R ~ /.3XXX'.} l.-.7.  rXrXrXrX",
"rXrXrXrX  b ).~.<X9X+.s + D {.0X'.t M F _.9X3Xy E 7.o   rXrXrXrX",
"rXrXrXrXrX  )...*.&.y j x c $.`.' 9 M D [ `.+.' E 9.  rXrXrXrXrX",
"rXrXrXrXrX  i.Q.[ t _ D D F P 7 7 P D D ~ ` ' & 7.9.  rXrXrXrXrX",
"rXrXrXrXrXrX  ).k.3.L ! ! ! 0.0.~ ~ ~ ! a.s.E.,.g.  rXrXrXrXrXrX",
"rXrXrXrXrXrX  2.5.>.7.2.2.2.2.8.2.7.2.8.8.,.;.7.O   rXrXrXrXrXrX",
"rXrXrXrXrXrXrX  g.5.9.9.9.9.9.9.9.9.9.9.6.9.8.g.  rXrXrXrXrXrXrX",
"rXrXrXrXrXrXrX                                    rXrXrXrXrXrXrX"
};
