/* XPM */
static char *magick[] = {
/* columns rows colors chars-per-pixel */
"34 34 78 1",
"  c #000000",
". c #22221c",
"X c #2c2c2c",
"o c #333334",
"O c #36363c",
"+ c #3d3d3c",
"@ c #42423c",
"# c #434344",
"$ c #46464c",
"% c #4a4a44",
"& c #4c4c4c",
"* c #4e4e54",
"= c #52524c",
"- c #535354",
"; c #5a5a54",
": c #5b5b5c",
"> c #625e64",
", c #62625c",
"< c #646464",
"1 c #6a6664",
"2 c #6a6b64",
"3 c #6c6c6c",
"4 c #72726c",
"5 c #737374",
"6 c #767a74",
"7 c #7a7a74",
"8 c #7c7c7c",
"9 c #726e84",
"0 c #7e7e84",
"q c #02fe04",
"w c #7e827c",
"e c #7e8a7c",
"r c #e2464c",
"t c #82827c",
"y c #929a7c",
"u c #8eae4c",
"i c #96a674",
"p c #aae23c",
"a c #838484",
"s c #86868c",
"d c #8a868c",
"f c #8a8a84",
"g c #8b8a8c",
"h c #8e8e94",
"j c #928e94",
"k c #92928c",
"l c #949494",
"z c #94949c",
"x c #9a9a94",
"c c #9b9b9c",
"v c #9e9ea4",
"b c #be8e8c",
"n c #a29ea4",
"m c #a4a3a4",
"M c #aaaaa4",
"N c #acacac",
"B c #aeaeb4",
"V c #b2b2ac",
"C c #b3b2b4",
"Z c #b6b6bc",
"A c #bdbdbc",
"S c #c2c2c4",
"D c #cecacc",
"F c #d2ced4",
"G c #d6d2d4",
"H c #dadad4",
"J c #dadadc",
"K c #e2dedc",
"L c #e4e3e4",
"P c #eae6ec",
"I c #edecec",
"U c #f2eef4",
"Y c #f6f2ec",
"T c #f5f5f4",
"R c #faf6f4",
"E c #faf6fc",
"W c #fdfdfc",
"Q c None",
/* pixels */
"QQQQQQQQQQQQQQQQQQQQQQQQQQQQQQQQQQ",
"QQQQQQQQQQQQQQQQQQQQQ  QQQQQQQQQQQ",
"QQQQQQQQQQQQQQQQQQQQ NX  QQQQQQQQQ",
"QQQQQQQQQQQQQQQQQQQQ TWm5  QQQQQQQ",
"QQQQQQQQQQQQQQQQQQQQ WWWWJC  QQQQQ",
"QQQQQQQQQQQQQQQQQQQQ WlmLWWWg  QQQ",
"QQQQQQQQQQQQQQQQQQQ AWIJcjWWWYZ QQ",
"QQQQQQQQQQQQQQQQQQQ UWWWWWWWWRKN Q",
"QQQQQQQQQQQQQQQQQQQ WWWaCIWWWTL< Q",
"QQQQQQQQQQQQ     Q sWhmEH0zITRI QQ",
"QQQQQQQQQQ  mmkkg  ZTEJ0mWJacYG QQ",
"QQQQQQQQ  Mk4:-$%6oHTfmLJv8IJIh QQ",
"QQQQQQ  aB5<<:;-&OoLWWEWWWJMgJ1 QQ",
"QQQQ  5Vl5331::%X<,IWWgkIWEULF QQQ",
"QQQ xmcsa853<:o<Mm*DPERJtkGKLm QQQ",
"QQ lCgwt085$+&MNMN5->NKPLF5gGj QQQ",
"QQ Ak08f7<.:8vh:2zpy9O,NDSZmN8 QQQ",
"QQ Scgsg-osg83,lf32upi5O$dcvn QQQQ",
"QQ vNMm3o8f0:<xWNf5<2uphb3*5j QQQQ",
"QQQ  4<XCl3*4hclgWNj5>wbrb8.*#  QQ",
"QQ O oX:4S%3lfZWNcaWNk22bqeMNX%@ Q",
"Q f :O57wS<hMWNgkWMwlNN<60Ct;-&@ Q",
"QQ =*lfa88ASzaAWNc0WN4<5nm:*&&$+ Q",
"QQQ  5affa7wASascWNc6<fNw-&-&&%@ Q",
"QQQQQ  2t06545SAa0V<wkC1=-=*&%#+ Q",
"QQQQQQQ  36543<5ASa-<C&;;=-=&$#@ Q",
"QQQQQQQQQ  3433<:4S:=V=--;&&%%#+ Q",
"QQQQQQQQQQQ  -<2>:;-&c---&-&&#  QQ",
"QQQQQQQQQQQQQ  -<:--&z----&#  QQQQ",
"QQQQQQQQQQQQQQQ  *--&x==&@  QQQQQQ",
"QQQQQQQQQQQQQQQQQ  =-g&#  QQQQQQQQ",
"QQQQQQQQQQQQQQQQQQQ  s  QQQQQQQQQQ",
"QQQQQQQQQQQQQQQQQQQQQ QQQQQQQQQQQQ",
"QQQQQQQQQQQQQQQQQQQQQQQQQQQQQQQQQQ"
};
