/* XPM */
static char *magick[] = {
/* columns rows colors chars-per-pixel */
"32 32 106 2",
"   c #000000",
".  c #161413",
"X  c #3a3a39",
"o  c #08087d",
"O  c #400303",
"+  c #403334",
"@  c #691d1c",
"#  c #740a0b",
"$  c #790a0b",
"%  c #642323",
"&  c #7b2827",
"*  c #4c4c4a",
"=  c #585857",
"-  c #5c5c5b",
";  c #60605f",
":  c #6a675f",
">  c #796549",
",  c #7f6a4c",
"<  c #756754",
"1  c #6e6e69",
"2  c #727270",
"3  c #7e7e7c",
"4  c #020284",
"5  c #0202c4",
"6  c #0101fb",
"7  c #0b0bfb",
"8  c #0117f5",
"9  c #1212fb",
"0  c #1b1bf6",
"q  c #1a1afc",
"w  c #0222f4",
"e  c #3c3cce",
"r  c #2323fb",
"t  c #2b2bfc",
"y  c #3333fc",
"u  c #3a3afc",
"i  c #4343ce",
"p  c #4949ce",
"a  c #4242fc",
"s  c #4c4cfd",
"d  c #5252fd",
"f  c #5b5bfd",
"g  c #6165d0",
"h  c #7477d8",
"j  c #6464fc",
"k  c #6b6bfd",
"l  c #7171fd",
"z  c #7979fd",
"x  c #02c2c4",
"c  c #810103",
"v  c #820108",
"b  c #880204",
"n  c #8c0909",
"m  c #910809",
"M  c #9d0103",
"N  c #981312",
"B  c #ab1716",
"V  c #b81f22",
"C  c #bc2d30",
"Z  c #867051",
"A  c #8d7657",
"S  c #947c59",
"D  c #8d7f6a",
"F  c #b44a4c",
"G  c #bc4244",
"H  c #d51b1e",
"J  c #c01f22",
"K  c #cd1e20",
"L  c #d2282b",
"P  c #99805e",
"I  c #958b79",
"U  c #998d76",
"Y  c gray53",
"T  c #8b8b89",
"R  c #979799",
"E  c #9f9f9f",
"W  c #baa483",
"Q  c #a5a5a4",
"!  c #a6a5ab",
"~  c #ababa9",
"^  c #b2b2b8",
"/  c #b8b8b6",
"(  c #bcbcbb",
")  c #8181fe",
"_  c #8888fe",
"`  c #9191fe",
"'  c #9898fe",
"]  c #bbbbc0",
"[  c #a3a3fe",
"{  c #c3ad8e",
"}  c #c6b08e",
"|  c #ceb18f",
" . c #d1bb9b",
".. c #dbc4a3",
"X. c #e0cbae",
"o. c #e3ceb1",
"O. c #c3c3c4",
"+. c #c8c8ca",
"@. c #d0d0ce",
"#. c #d2d2d2",
"$. c #d8d8d6",
"%. c #e2e2e1",
"&. c #f0f0ee",
"*. c #f4f4f3",
"=. c #fdfdfb",
"-. c None",
/* pixels */
"-.-.-.-.-.-.-.-.-.-.-.-.-.          -.-.-.    -.-.-.-.-.-.-.-.-.",
"-.-.-.-.-.-.-.-.-.-.-.    | U ~ ~ Y   -.-.    -.-.-.-.-.-.-.-.-.",
"-.-.-.-.-.-.-.-.-.-.  ~ Q I D : 1 *   -.-.    -.-.-.-.-.-.-.-.-.",
"-.-.-.-.-.-.-.-.-.  - T 2 = = = X   -.-.-.    -.-.-.-.-.-.-.-.-.",
"-.-.-.-.-.-.-.-.-.  * 1 - X . .   -.-.-.-.    -.-.-.-.-.-.-.-.-.",
"-.-.-.-.-.-.-.-.-.-.      . < ,   -.-.-.-.    -.-.-.-.-.-.-.-.-.",
"-.-.-.-.-.-.-.-.-.-.-.-.-.  } S   -.-.-.-.    -.-.-.-.-.-.-.-.-.",
"-.-.-.-.-.-.-.-.-.-.-.-.-.   .S   -.-.-.-.    -.-.-.-.-.-.-.-.-.",
"-.-.-.-.-.-.-.-.-.-.-.-.-.  X.P   -.-.-.        -.-.-.-.-.-.-.-.",
"-.-.-.-.-.-.-.-.-.-.-.-.-.  o.P         v G F b   -.-.-.-.-.-.-.",
"-.-.-.-.-.-.-.-.-.-.-.-.    ..S   =.(   v L C b   -.-.-.-.-.-.-.",
"-.-.-.-.-.-.-.-.-.-.-.  [   ..A   =.=.=.+ H J   -.-.-.-.-.-.-.-.",
"-.-.-.-.-.-.-.-.-.-.  ' '    .Z   O.O.  % H J O   -.-.-.-.-.-.-.",
"-.-.-.-.-.-.-.-.-.  _ ` 4   { Z   =.=.  n H J #       -.-.-.-.-.",
"-.-.-.-.-.-.-.-.  z ) 4 =.  W >   / ]   M H J n   =.(     -.-.-.",
"-.-.-.-.-.-.-.  k l 4 =.=.=.    Q @.O.  m H J $   =.&.4 j     -.",
"-.-.-.-.-.-.  f j k l 4 4 =.=.=.#.%.#.  & K V @   @.4 p p x w   ",
"-.-.-.-.-.  s d 4 j j k k 4 4 =.=.=.%.$.  B N   +.4 p i x w 5   ",
"-.-.-.-.  u a 4 ( 4 4 j j j k 4 4 =.=.=.(     ! 4 e e x w 5   -.",
"-.-.-.  t y 4 ( ( ( ( 4 4 f f f f 4 4 =.=.*.&.4 t a x w 5   -.-.",
"-.-.  q r 4 ^ ^ 4 h ^ ^ ^ 4 4 d s s s 4 4 *.4 t r x w 5   -.-.-.",
"-.  7 9 4 ( ( 4 a a u ] ( ( ] 4 4 a a u y 4 t r x w 5   -.-.-.-.",
"  w x 4 ( ( 4 a y u / ( / / / 4 9 4 4 t t t q x w 5   -.-.-.-.-.",
"  5 w 4 *.~ ~ g u ! ~ ~ ~ ~ 4 9 r 0 9 4 r q x w 5   -.-.-.-.-.-.",
"-.    o ( &.*.E E E E E E 4 9 9 9 9 4 q q x w 5   -.-.-.-.-.-.-.",
"-.-.-.    I ] *.*.R R R 4 9 7 7 7 4 9 7 x w 5   -.-.-.-.-.-.-.-.",
"-.-.-.-.-.    3 ( *.*.4 9 6 6 6 4 7 7 x w 5   -.-.-.-.-.-.-.-.-.",
"-.-.-.-.-.-.-.    I ( 4 x 8 6 4 6 6 x w 5   -.-.-.-.-.-.-.-.-.-.",
"-.-.-.-.-.-.-.-.-.    4 w x x 6 6 x w 5   -.-.-.-.-.-.-.-.-.-.-.",
"-.-.-.-.-.-.-.-.-.-.-.    5 w 4 x w 5   -.-.-.-.-.-.-.-.-.-.-.-.",
"-.-.-.-.-.-.-.-.-.-.-.-.-.    4 w 5   -.-.-.-.-.-.-.-.-.-.-.-.-.",
"-.-.-.-.-.-.-.-.-.-.-.-.-.-.-.      -.-.-.-.-.-.-.-.-.-.-.-.-.-."
};
