/* XPM */
static char *magick[] = {
/* columns rows colors chars-per-pixel */
"32 32 40 1",
"  c black",
". c #350300",
"X c #252525",
"o c #2a2a2a",
"O c #353535",
"+ c #42150d",
"@ c #4a1515",
"# c #662112",
"$ c #4c4c4c",
"% c #5a5a5a",
"& c #6c6c6c",
"* c #747474",
"= c #7b7b7b",
"- c #2aa72a",
"; c #35bc35",
": c #00c000",
"> c #9f0000",
", c #c00000",
"< c #eb0000",
"1 c #f20000",
"2 c red",
"3 c #feb166",
"4 c #838383",
"5 c #8b8b8b",
"6 c #939393",
"7 c #9b9b9b",
"8 c #a3a3a3",
"9 c #ababab",
"0 c #b3b3b3",
"q c #bababa",
"w c #9fff9f",
"e c #fedaa4",
"r c #c3c3c3",
"t c #cbcbcb",
"y c #d3d3d3",
"u c #d8d8d8",
"i c #c0ffc0",
"p c #c8fdc8",
"a c #e2e2e2",
"s c None",
/* pixels */
"s                  sssssssssssss",
" aa909988776655444%  sssssssssss",
" 99au998777665544==*$  sssssssss",
" 9999aa8876655544==**&$    sssss",
" 989999auuuyyyyyyytytt5%-p; ssss",
" 8998888uu%%%%%%%%%%%.>,wiw ssss",
" 8888888uy%oooo :iiii#<1,@+. sss",
" 8878887yy%oooO :,2 33222222, ss",
" 7877877yy%ooOo :, 3eeeeeeeee3 s",
" 8877777yy%r8Xo :, %%%%%%%%%%%% ",
" 7777777yt%56r8 :, %uyttrrqq998 ",
" 7677667tt%  55r8, %uyy9rqq9998 ",
" 7676666ttttr  55r8%ytt=&$$&998 ",
" 6666666tt%%%%%  55%yttrqqq9988 ",
" 6666666rt%uyytr&  %ttrrq099888 ",
" 6566555rr%yyt9rqq9%%%%%       s",
" 6555555rr%yyt4&$$&998%0 sssssss",
" 5555555rr%ytrrq099988%9 sssssss",
" 5555454rq%ttrrqq99988%0 sssssss",
" 4545444qr%%%%%%%%%%%%%9 sssssss",
" 5444444qrqqqq0000999099 sssssss",
" 44444=4qq%%%%%%%%%&%%%9 sssssss",
" 44=444=qq%uyttrrq0998%9 sssssss",
" =4=====0q%yyy9rqq0998%8 sssssss",
" =====*=q0%yyt=&$$&988%8 sssssss",
" ===*==*00%ytrrqq09988%8 sssssss",
" =*=****00%ttrrq099888%8 sssssss",
"s  *****99%&%%%%%%%%%%%8 sssssss",
"sss  **&9999998998888787 sssssss",
"sssss  &9999989888888877 sssssss",
"sssssss                  sssssss",
"sssssssss                 ssssss"
};
