/* XPM */
static char *magick[] = {
/* columns rows colors chars-per-pixel */
"34 34 80 1",
"  c #000000",
". c #06060b",
"X c #10060e",
"o c #090b2b",
"O c #5d5d61",
"+ c #02028e",
"@ c #010091",
"# c #00009b",
"$ c #0303a7",
"% c #0202ac",
"& c #0303b5",
"* c #0303bd",
"= c #1211aa",
"- c #201f8e",
"; c #0404c3",
": c #0101cb",
"> c #0c0cc3",
", c #1010c7",
"< c #1b1bca",
"1 c #1e1ed3",
"2 c #2727cb",
"3 c #2e2fca",
"4 c #3434cd",
"5 c #3f3fd0",
"6 c #3d3de0",
"7 c #4848b3",
"8 c #5353b6",
"9 c #5a5abc",
"0 c #6b6bbf",
"q c #7373b5",
"w c #4f4fcb",
"e c #4646d2",
"r c #4d4dd3",
"t c #5f5fcf",
"y c #5555d4",
"u c #5353d8",
"i c #5b5bd6",
"p c #5c5cda",
"a c #5c5be4",
"s c #6d6dca",
"d c #6060d7",
"f c #6464d9",
"g c #6b6bdb",
"h c #7373cd",
"j c #7b7bc2",
"k c #7373dd",
"l c #7979de",
"z c #6f6fe8",
"x c #7272e0",
"c c #7b7be1",
"v c #7c7ceb",
"b c #7676f0",
"n c #9595b4",
"m c #8888c7",
"M c #8080d4",
"N c #9191da",
"B c #8282e2",
"V c #8a8ae4",
"C c #8e8eeb",
"Z c #8484f5",
"A c #9494e5",
"S c #9595e8",
"D c #9b9be7",
"F c #9c9ce8",
"G c #a5a5db",
"H c #b8b8d6",
"J c #a2a2ea",
"K c #aaaaed",
"L c #a4a4f2",
"P c #aaaaf3",
"I c #b0b0ee",
"U c #b5b5f2",
"Y c #b2b2f9",
"T c #bbbbf3",
"R c #c1c1f5",
"E c #c8c8f5",
"W c #cecefc",
"Q c #d0d0fa",
"! c #d9d9fa",
"~ c None",
/* pixels */
"~~~~~~~~~~~~~~~~~~~~~~~~~~~~~~~~~~",
"~~~~~~~~~~~~~~~~~~~~~~~~~~~~~~~~~~",
"~~~~~~~~~~~~~~~~~~~~~~~~~~~~~~~~~~",
"~~~~~~~~~~~~~~~~~~~~~~~~ ~~~~~~~~~",
"~~~~~~~~~~~~~~~~~~~~~~~ k ~~~~~~~~",
"~~~~~~~~~~~~~~~~~~~~~~ kR; ~~~~~~~",
"~~~~~~~~~~~~~~~~~~~~~~~ y ~~~~~~~~",
"~~~~~~~~~~~~~~~~~ ~~~~~ Z ~~~~~~~~",
"~~~~~~~~~~~~~~~~~~ ~   YIP   ~ ~~~",
"~~~~~~~~~~~~~~~~~~  lRKFJFKKl   ~~",
"~~~~~~~~~~~~~~~~~ c!WRVcdigVYl ~~~",
"~~~~~~~~~~~~~~~~ l!IAVgdyiikVYl ~~",
"~~~~~~~~~~~~~~~~ !UAVDddiigkDARG ~",
"~~~~~~~~~.  ~~~ lECccgdffdDBFAAN ~",
"~~~~~~~~ HTR O~ IVBDklkffkVcFdCm ~",
"~~~~~~~ nJkfx  cFVrFFFAggggVJ>6 ~~",
"~~~~~  qPfpyfz9vBB>eyVAkgcgAy:- ~~",
"~    hwbyyidgfvJJk>;;*IcBcJAi& ~~~",
"~~~~~  8appdgd9jg;;;;;gBBy5e41= ~~",
"~~~~~~~ 7idf8  lL*;;;>AV42;;;;% ~~",
"~~~~~~~~ 708 ~~ le;;;<u>;:>;;;;& ~",
"~~~~~~~~~   ~~~ sKi;;>;;;;;;;;&$ ~",
"~~~~~~~~~~~~~~~~ a<;;;;;;;;;;*%$ ~",
"~~~~~~~~~~~~~~~~ #;:;;;;;>;>*$# ~~",
"~~~~~~~~~~~~~~~~~ #$%;;;;;>&%+ ~~~",
"~~~~~~~~~~~~~~~~~~  #$&&&&%$$   ~~",
"~~~~~~~~~~~~~~~~~~X~ o $$@   ~ ~~~",
"~~~~~~~~~~~~~~~~~ ~~~~~ 3o~~~~~~~~",
"~~~~~~~~~~~~~~~~~~~~~~~ k ~~~~~~~~",
"~~~~~~~~~~~~~~~~~~~~~~ kR; ~~~~~~~",
"~~~~~~~~~~~~~~~~~~~~~~~ ; ~~~~~~~~",
"~~~~~~~~~~~~~~~~~~~~~~~~ ~~~~~~~~~",
"~~~~~~~~~~~~~~~~~~~~~~~~~~~~~~~~~~",
"~~~~~~~~~~~~~~~~~~~~~~~~~~~~~~~~~~"
};
