/* XPM */
static char *magick[] = {
/* columns rows colors chars-per-pixel */
"34 34 136 2",
"   c #000000",
".  c #06060a",
"X  c #0a0a0e",
"o  c #0e0e12",
"O  c #120202",
"+  c #1e0202",
"@  c #141416",
"#  c #16161a",
"$  c #1d1d1d",
"%  c #260a0a",
"&  c #2b0202",
"*  c #320202",
"=  c #3e0202",
"-  c #3e1216",
";  c #222222",
":  c #2d2d2d",
">  c #323232",
",  c #36363a",
"<  c #3e3e3e",
"1  c #420202",
"2  c #4a0202",
"3  c #5a0202",
"4  c #660202",
"5  c #6a0602",
"6  c #6a1a0a",
"7  c #740505",
"8  c #7e0202",
"9  c #721a0a",
"0  c #761616",
"q  c #7e1616",
"w  c #7e261a",
"e  c #7e2a1e",
"r  c #6e2a2a",
"t  c #434343",
"y  c #4e4246",
"u  c gray29",
"i  c #555555",
"p  c #5c5c5c",
"a  c #646466",
"s  c #6e6262",
"d  c #6c6c6c",
"f  c #6e6e72",
"g  c #767676",
"h  c gray49",
"j  c #820202",
"k  c #8a0202",
"l  c #8e1616",
"z  c #950202",
"x  c #9c0404",
"c  c #921414",
"v  c #961e1e",
"b  c #9e1616",
"n  c #8e3636",
"m  c #9a2a2a",
"M  c #a50202",
"N  c #a20e0e",
"B  c #ab0303",
"V  c #aa0a0a",
"C  c #a41414",
"Z  c #aa1616",
"A  c #b30404",
"S  c #bb0e0e",
"D  c #b31c1c",
"F  c #ba1212",
"G  c #b62e2e",
"H  c #b23232",
"J  c #be3232",
"K  c #9a5656",
"L  c #827272",
"P  c #c20e0e",
"I  c #c21212",
"U  c #c62222",
"Y  c #c62a2a",
"T  c #ca2c2c",
"R  c #c23e3e",
"E  c #ca3636",
"W  c #cc3c3c",
"Q  c #ca4444",
"!  c #ce4a4a",
"~  c #ce5656",
"^  c #cc5c5c",
"/  c #d34e4e",
"(  c #da4646",
")  c #d65252",
"_  c #d35b5b",
"`  c #da5656",
"'  c #da5d5d",
"]  c #c66a6a",
"[  c #d46464",
"{  c #d66e6e",
"}  c #da6262",
"|  c #da6c6c",
" . c #d67272",
".. c #db7474",
"X. c #dc7e7e",
"o. c #e27a7a",
"O. c #ed7c7c",
"+. c #967e82",
"@. c #838383",
"#. c gray55",
"$. c #929292",
"%. c #9a9a9a",
"&. c #a5a5a5",
"*. c #adacac",
"=. c #b3b3b3",
"-. c gray",
";. c #da8484",
":. c #de8b8b",
">. c #de9696",
",. c #de9a9a",
"<. c #caa2a2",
"1. c #dea2a2",
"2. c #deaaaa",
"3. c #e28e8e",
"4. c #ec8484",
"5. c #ea8e8e",
"6. c #e29696",
"7. c #ea9696",
"8. c #ea9e9e",
"9. c #eaa2a2",
"0. c #eeaaaa",
"q. c #e2b6b6",
"w. c #e6baba",
"e. c #c4c4c4",
"r. c #cacaca",
"t. c #decaca",
"y. c #d4d4d4",
"u. c #dadada",
"i. c #e6d2d2",
"p. c #e4e4e3",
"a. c #ebebeb",
"s. c #eef2ea",
"d. c #f6e2e2",
"f. c #f4f4f4",
"g. c #fdfdfd",
"h. c None",
/* pixels */
"h.h.h.h.h.h.i i   i i     h.h.h.h.h.h.h.h.u u   u u     h.h.h.h.h.h.",
"h.h.h.h.i i g.u.p g.u.$ p #     o . # p $ g.u.t g.u.u u     h.h.h.h.",
"h.h.h.i g.: : :   : : , #.p.a.a.:.3.X.c -   t   t t t g.u     h.h.h.",
"h.h.i g.:       @.@.r.g.g.g.f.f.| .. .| [ m r t       t g.      h.h.",
"h.i g.:       f y.g.g.f.f.p.p.p.I / / ) ) ' ~ c 1       t g.      h.",
"h.i :       d g.g.g.f.p.u.y.r.e.V A A S F ( ' _ D =       t       h.",
"i g.:     s q.g.g.p.u.r.-.*.$.#.j z V B A P / / J m t     t g.      ",
"i u.:   s w.5.' t.y.-.&.g g g g 6 7 7 z M B P T _ u.&.t   t u..     ",
"  u   @.<.8.O.Q H =.&.g $.            7 7 M B W d.p.u.g t   t       ",
"i g.: L 9.O._ J b n a                     7 G f.g.f.p.*.i t g.      ",
"i u.: u 7.| Q C l e           h.h.h.h.      &.f.g.g.f.r.d $ u.      ",
"  : y 0.4.^ Y l w         h.h.h.h.h.h.h.h.    &.f.g.g.u.%.;         ",
"  p L 8.O.` D q 7       h.h.h.h.h.h.h.h.h.h.  &.p.g.g.p.=.t         ",
"h.@ 2.5.[ E C q       h.h.h.h.h.h.h.h.h.h.h.h.  &.g.g.a.=.p o     h.",
"h.. ,.4.^ D l 0       h.h.h.h.h.h.h.h.h.h.h.h.  $.g.g.a.e.d       h.",
"h.X >.O.! Z l 9     h.h.h.h.h.h.h.h.h.h.h.h.h.h.g a.g.a.e.@.      h.",
"h.. p.g.a.-.%.a     h.h.h.h.h.h.h.h.h.h.h.h.h.h.K :.,.! B 8       h.",
"h.  a.g.g.r.%.g     h.h.h.h.h.h.h.h.h.h.h.h.h.h.K 3.1.Q M 7       h.",
"h.@ a.g.g.y.=.h     h.h.h.h.h.h.h.h.h.h.h.h.h.h.K 1.{ U x 5 #     h.",
"h.i #.g.g.f.y.%.h     h.h.h.h.h.h.h.h.h.h.h.h.K ;.1.[ S k 1 p     h.",
"h.$ < g.g.g.p.r.h     h.h.h.h.h.h.h.h.h.h.h.h.K 1.:.Q M j + :     h.",
"t g.> e.g.g.a.p.r.h     h.h.h.h.h.h.h.h.h.h.K 1.6.[ F z 3 O g.      ",
"t u.t g p.g.g.a.u.] v     h.h.h.h.h.h.h.h.$.8.X.X.W V j *   u.      ",
"  i     =.f.g.i.) ` ^ v v     h.h.h.h.$.$.g.g.3.Q F z 3     .       ",
"t g.t     u.a.W ) ' ..[ / v m v g #.$.e.f.g.f.i.J x 7 &     g..     ",
"t u.t       x A U W ' o.X.X.;.;.g.g.g.g.f.a.p.y.*.9 &     t u.      ",
"  t t       . x A A T ) ) ` | ..g.g.g.f.p.i.r.*.h :       u         ",
"  t g.<       = 4 x B A S E ' Q s.s.u.u.r.e.$.a >       t g.        ",
"h.  t g.t         2 4 8 k N N C r.r.-.*.@.d u .       u g..       h.",
"h.    t g.t t t   u % & 1 8 8 8 #.@.h u ; #     . t t g.          h.",
"h.h.    t t g.u.t g.u.> p @       . # p $ g.u.u g.u.            h.h.",
"h.h.h.      < t   t t                                         h.h.h.",
"h.h.h.h.                                                    h.h.h.h.",
"h.h.h.h.h.h.              h.h.h.h.h.h.h.h.              h.h.h.h.h.h."
};
