/* XPM */
static char *magick[] = {
/* columns rows colors chars-per-pixel */
"32 32 80 1",
"  c black",
". c #1f1d1c",
"X c #2a2624",
"o c #3e3a2c",
"O c #4e2204",
"+ c #4b321d",
"@ c #532403",
"# c #562806",
"$ c #5e2604",
"% c #6a2e04",
"& c #6e3e24",
"* c #5e564c",
"= c #585858",
"- c #8a3c03",
"; c #893d09",
": c #854f3b",
"> c #895136",
", c #945125",
"< c #b95503",
"1 c #be5a03",
"2 c #b05b1e",
"3 c #925640",
"4 c #9d5f45",
"5 c #92634e",
"6 c #827a64",
"7 c #a87867",
"8 c #c15c03",
"9 c #c56004",
"0 c #e76c02",
"q c #e96f02",
"w c #eb7103",
"e c #ed7d1c",
"r c #f67c02",
"t c #f97c03",
"y c #c27f5f",
"u c #fd8103",
"i c #f0821c",
"p c #fd8c1b",
"a c #fd901f",
"s c #ea8125",
"d c #f68d28",
"f c #f88e26",
"g c #fe9123",
"h c #fc9329",
"j c #cd885f",
"k c #d3925d",
"l c #cb8a6a",
"z c #e5a065",
"x c #eda364",
"c c #e9ab79",
"v c #f0a566",
"b c #f2a96a",
"n c #f3ad70",
"m c #f7b070",
"M c #fcb573",
"N c #c0c000",
"B c #808080",
"V c #8383ae",
"C c #8a8abc",
"Z c #adadad",
"A c #a9a9e1",
"S c #c29a88",
"D c #d7a88d",
"F c #debaa6",
"G c #e0b49c",
"H c #eeb897",
"J c #eab99e",
"K c #e4b6a6",
"L c #e3b8a3",
"P c #fcc58b",
"I c #f8c6a3",
"U c #fedeac",
"Y c #f8d0ba",
"T c #c0c0c0",
"R c #d6d6d4",
"E c #c0c0ff",
"W c #ffffc0",
"Q c #e1e1e1",
"! c white",
"~ c None",
/* pixels */
"~~~~~~~~~~~   ~~~~~~~~~~~~~~~~~~",
"~~~~~~~~~~      ~~~~~~~~~~~~~~~~",
"~~~~~~~~          ~~~~~~~~~~~~~~",
"~~~~~~~~ CEE  EEC ~~~~~~~~~~~~~~",
"~        !!!!!!!!        ~~~~~~~",
" WWWWWWW CEEEEEEC NWWWWWW ~~~~~~",
" W!!!!!!!        ZR!!!!!Z ~~~~~~",
" W!!!!!!!!TTTZTZRR!!!!!!T ~~~~~~",
" W!!!!!!!!! !!!!!!!!!!!!T ~   ~~",
" W!!!!!!!! ! !!!!!!!!!!!T  kmF ~",
" W!EEEEEE BZ! EEEEEEEEE!T+MUenD ",
" W!!!!!!!= BZ! !!!!!!!!!+MUd0<, ",
" W!!!!! !Z= TT! !!!!!!!%zUht1- ~",
" W!!!! ! ! !TTZ! !!!!!%bUpt8; ~~",
" W!EE BZ! !TB BT! EEE%MUft8- ~~~",
" W!!!= BZRZB = B =!!%bUhu8- ~~~~",
" W!!!T= BZZ =Z= =Z!%vUau9- ~~~~~",
" W!!!!B= BR! !BBB!%MUpr1-#~~~~~~",
" W!EEEEZ= BT! EEE%mUhr8-@ ~~~~~~",
" W!!!!!!T= B =!!%xUhr9-@B ~~~~~~",
" W!!!!!!!Z= =Z!%xPiw1-OZB ~~~~~~",
" W!!!!!!!!BBB!%cUew<-OZZZ ~~~~~~",
" W!EEEEEEEEEE%LIs0<-OVVQZ ~~~~~~",
" W!!!!!!!!!!!SYHl2-OZZQQZ ~~~~~~",
" W!!!!!!!!!!%KJy5:OZZQQ!T ~~~~~~",
" W!!!!!!!!!!7Gl3&$ZZQQ!!T ~~~~~~",
" W!EEEEEEEEE65>OVVAAAEE!T ~~~~~~",
" W!!!!!!!!!*.oZZQQQ!!!!!T ~~~~~~",
" W!!!!!!!!!XXTQQQ!!!!!!!T ~~~~~~",
" W!!!!!!!!!!!!!!!!!!!!!!T ~~~~~~",
" ZTTTTZTTTTZZRTTTTFTTTTTT ~~~~~~",
"~                        ~~~~~~~"
};
