/* XPM */
static char *magick[] = {
/* columns rows colors chars-per-pixel */
"32 32 12 1",
"  c black",
". c gray19",
"X c #585858",
"o c #0000c0",
"O c #008080",
"+ c #ffa858",
"@ c #808080",
"# c #ffdca8",
"$ c #c3c3c3",
"% c #ffffc0",
"& c white",
"* c None",
/* pixels */
"****************** X            ",
"****************** &&&&&&&&&&&& ",
"****************** &$$$$$ $$$$$ ",
"****************** &$$$$   $$$$ ",
"****************** &$$$$$$$$$$$ ",
"****************** XXXXXXXXXXXX ",
"****************** &&&&&&&&&&&& ",
"****************** &$$$..$$..$$ ",
"****************** &$$.&&..&&.$ ",
"****************** &$$.&&.&&&.$ ",
"****************** &$$.&&.&&.$$ ",
"****************** &$$.&&&&.$$$ ",
"****************** &$$.&&.&&.$$ ",
"***********  ***** &$$.&&.&&&.$ ",
"********** &# **** &$$.&&..&&.$ ",
"********* &#+ **** &$$$..$$..$$ ",
"******** ###+ **** &$ $$$$$$$$$ ",
"******* +##+ *****.&  $$$$$$$$$ ",
"*****  ###+ ******@&$ $$$$$$$$$ ",
"***  +###+           $$$$$$$$$$ ",
"   +###%#%########+## $@@$$$$$$ ",
" +##%#%#%#++++++++++# $@ooo$$$$ ",
" ##%#%#%##           $$.ooooo$$ ",
" #############+ **@&$OO.&&oo@@$ ",
" #######%#+++++ **.&$OOOO&&&@@$ ",
" ########+     *** &$.&OO@@&&.$ ",
" #+#####%####+ *** &$.&&&@@&&.$ ",
" +#+#+###+++++ *** &$.&&&&..&.$ ",
" ++#+#+#+     **** &$$..&&.$..$ ",
"   +++#%####+ **** &$$$$...$$$$ ",
"***   +++++  ***** &$$$$$$$$$$$ ",
"******     *******              "
};
