/* XPM */
static char *magick[] = {
/* columns rows colors chars-per-pixel */
"34 34 90 1",
"  c black",
". c #0b0b00",
"X c #00001e",
"o c #000020",
"O c #221b11",
"+ c #211f1e",
"@ c #323200",
"# c #3e3927",
"$ c #007f00",
"% c #462c00",
"& c #502100",
"* c #523c05",
"= c #6b2e03",
"- c #6f3101",
"; c #623218",
": c #683d19",
"> c #7a3703",
", c #444400",
"< c #474610",
"1 c #7c4534",
"2 c #636400",
"3 c #737600",
"4 c #505050",
"5 c #7f4f48",
"6 c gray50",
"7 c navy",
"8 c #000095",
"9 c #0000c0",
"0 c #7f7fe9",
"q c #008000",
"w c #00c000",
"e c green",
"r c #8f4004",
"t c #944205",
"y c #994704",
"u c #8d5136",
"i c #a15c3d",
"p c #a05d45",
"a c #a0715c",
"s c #ae7156",
"d c #b76e50",
"f c red",
"g c #ff1212",
"h c #e92929",
"j c #c85f07",
"k c #cc6e2c",
"l c #f36f07",
"z c #f37103",
"x c #f97300",
"c c #fb7e02",
"v c #808000",
"b c #a4a500",
"n c #888841",
"m c #a9856d",
"M c #a09c7a",
"N c #b58369",
"B c #fe8100",
"V c #f48833",
"C c #d88d4b",
"Z c #d69d7c",
"A c #db9c7a",
"S c #e08141",
"D c #ef9a53",
"F c #f7984f",
"G c #f7a55b",
"H c #ffa750",
"J c #f9a65b",
"K c #fea959",
"L c #feb162",
"P c #c0c000",
"I c yellow",
"U c #d3d350",
"Y c #c29a84",
"T c #ffba81",
"R c #dfc19d",
"E c #ffc286",
"W c #fdc78c",
"Q c #ffc88c",
"! c #f9c49f",
"~ c #fedca9",
"^ c #fbd5b3",
"/ c #e0e086",
"( c #c0c0ff",
") c #c0ffc0",
"_ c #f0dccd",
"` c #fad9c4",
"' c #ffe9ce",
"] c #ffe2d3",
"[ c #ffffc0",
"{ c None",
/* pixels */
"{{{{{{{{{{{{{{{{{{{{{{{{{{{{{{{{{{",
"{{{{{{{{{{{{{{{{{{{{{{{{{{{{   {{{",
"{{{{{{{{{{{{{{{{{{{{{{{{{{{ CRZ {{",
"{{{{{{{{{{{{{{{{{{{{{{{{{{ DQF'Z {",
"{{{{{{{{{{{{{{{{{{{{{{{{{ K~JzkN {",
"{{{{{{{{{{{{{{{{{{{{{{{{ T~Lccy& {",
"{{{{{{{{{{{{{{{{{{{{{{{ T~LBcy> {{",
"{           {{{{{{{{{{ T~LBcy> {{{",
"{ {{{{ hfff {{{{{{{{{ T~LBBy> {{{{",
"{ {{{{ ffgf {{{{{{{{ T~LBcy> {{{{{",
"{ {{{{ ffff {{{{{{{ T~LcBr> {{{{{{",
"{ {{{{ ffff {{{{{{ L~LBcy> {{{{{{{",
"{                 D~JcBy> {{{{{{{{",
"{ ~~~~ KKKK ccHE=CWGzBy> {{{{{{{{{",
"{ ~~~~ KKKK ccHEY`VzBt> {{{{{{{{{{",
"{ ~~~~ KKKK cHEd]TCjr> {{{{{{{{{{{",
"{ ~~~~ KKKK cHEY`Asu- {{{{{{{{{{{{",
"{           465_Ap1:%.{{{{{{{{{{{{",
"{ [[[[ IIII U/map;*23 {{{{{{{{{{{{",
"{ [[[[ IIII4/M+#O2333 {{{{{{{{{{{{",
"{ [[[[ IIII4/n<b@33vv {{{{{{{{{{{{",
"{ [[[[ IIII PPPP,yvvv {{{{{{{{{{{{",
"{               ..         {{{{{{{",
"{ )))) eeee wwww.qqqq qqqq {{{{{{{",
"{ )))) eeee wwww qqqq qqqq {{{{{{{",
"{ )))) eeee wwww qqqq qqqq {{{{{{{",
"{ )))) eeee wwww qqqq qqqq {{{{{{{",
"{                          {{{{{{{",
"{ (((( 0000 9999 8888 7777o{{{{{{{",
"{ (((( 0000 9999 8888 7777o{{{{{{{",
"{ (((( 0000 9999 8888 7777o{{{{{{{",
"{ (((( 0000 9999 8888 7777X{{{{{{{",
"{                          {{{{{{{",
"{{{{{{{{{{{{{{{{{{{{{{{{{{{{{{{{{{"
};
