/* XPM */
static char *magick[] = {
/* columns rows colors chars-per-pixel */
"32 32 28 1",
"  c #000000",
". c #0b0b0b",
"X c #141413",
"o c #1d1d1c",
"O c #232322",
"+ c #2c2c2a",
"@ c #303030",
"# c #3a3a39",
"$ c #40403f",
"% c #464644",
"& c #4c4c4a",
"* c #525250",
"= c #585856",
"- c #585858",
"; c #808080",
": c #a0a0a0",
"> c #bababc",
", c #c3c3c3",
"< c #dededc",
"1 c #e0e0de",
"2 c #e4e4e3",
"3 c #e8e8e6",
"4 c #ececeb",
"5 c #f0f0ef",
"6 c #f3f3f3",
"7 c #f8f8f7",
"8 c #fbfbfb",
"9 c None",
/* pixels */
"9999      ..XXoO+@###%&*-9999999",
"9999 888888888888888888&8-999999",
"9999 888888888888888888%88-99999",
"9999 888888888888868888#888-9999",
"9999 888@-<@-@:8,-+@-88>$%&*9999",
"9999 8888888888888866868>>>&9999",
"9999 8888888888888886866687%9999",
"9999 888 :-8-:8--: 6:; -666%9999",
"9999 8888868876867677666666#9999",
"9999 888:= =8 :8; -:8 -8846@9999",
"9999 8888868766766666666466+9999",
"9999 886 -;4:; -6- 6 4; 646+9999",
"9999 8686886666646664644556O9999",
"9999 8876666746664554546555o9999",
"9999 867:- ;- :4- ;:5 :-444X9999",
"9999 7676666646445544544444X9999",
"9999 867 -8- -4: ;4 4 =4444.9999",
"9999 6766886664454444444434 9999",
"9999 666@-;6-@:6<-+@=:44433 9999",
"9999 6666446444444443333333 9999",
"9999 6666644444444444333233 9999",
"9999 866 :-;4:;;-: 4>- =333 9999",
"9999 6666446444344484422223 9999",
"9999 664@-:5-@+4@-<-@-22222 9999",
"9999 6644464444333323222<22 9999",
"9999 666 -;5:; -3-  -;1:2<2 9999",
"9999 464466444333322212<<2< 9999",
"9999 66645544433322222<2<<< 9999",
"9999 66464444333332212<1<<< 9999",
"9999 66646444433322222<<<<< 9999",
"9999 6644444434333222<2<<<< 9999",
"9999                        9999"
};
