/* XPM */
static char *magick[] = {
/* columns rows colors chars-per-pixel */
"32 32 9 1",
"  c black",
". c gray19",
"X c navy",
"o c #0000c0",
"O c blue",
"+ c #800000",
"@ c #c00000",
"# c red",
"$ c None",
/* pixels */
"$$$$$$$$$$$$$$$$$$$$$$$$$$$$$$$$",
"$$$$$$$$$$$$$$$$$$$$$$$$$$$$$$$$",
"$$                            $$",
"$$ OOOOOOOO ######## ######## .$",
"$$ O  ooooX #  @@@@+ #@@@@@@+ ..",
"$$ O  ooooX #  @@@@+ #@@@@@@+ ..",
"$$ OooooooX #@@  @@+ #@@  @@+ ..",
"$$ OooooooX #@@  @@+ #@@  @@+ ..",
"$$ Ooooo  X #@@@@  + #@@@@@@+ ..",
"$$ Ooooo  X #@@@@  + #@@@@@@+ ..",
"$$ OXXXXXXX #+++++++ #+++++++ ..",
"$$                            ..",
"$$ OOOOOOOO ######## OOOOOOOO ..",
"$$ O  ooooX #  @@  + O  ooooX ..",
"$$ O  ooooX #  @@  + O  ooooX ..",
"$$ OooooooX #@@@@@@+ Ooo  ooX ..",
"$$ OooooooX #@@@@@@+ Ooo  ooX ..",
"$$ Ooooo  X #  @@  + Ooooo  X ..",
"$$ Ooooo  X #  @@  + Ooooo  X ..",
"$$ OXXXXXXX #+++++++ OXXXXXXX ..",
"$$                            ..",
"$$ ######## OOOOOOOO OOOOOOOO ..",
"$$ #@@@@@@+ O  ooooX OooooooX ..",
"$$ #@@@@@@+ O  ooooX OooooooX ..",
"$$ #@@  @@+ Ooo  ooX Ooo  ooX ..",
"$$ #@@  @@+ Ooo  ooX Ooo  ooX ..",
"$$ #@@@@@@+ Ooooo  X OooooooX ..",
"$$ #@@@@@@+ Ooooo  X OooooooX ..",
"$$ #+++++++ OXXXXXXX OXXXXXXX ..",
"$$                            ..",
"$$$.............................",
"$$$$............................"
};
