/* XPM */
static char *magick[] = {
/* columns rows colors chars-per-pixel */
"32 32 144 2",
"   c black",
".  c #000b00",
"X  c #0b0b04",
"o  c #001a00",
"O  c #141306",
"+  c #092b00",
"@  c #013300",
"#  c #003900",
"$  c #0b3c00",
"%  c #1c221c",
"&  c #293500",
"*  c #353511",
"=  c #2f302f",
"-  c #004300",
";  c #004b00",
":  c #005600",
">  c #0a5c00",
",  c #185800",
"<  c #006500",
"1  c #006b00",
"2  c #007300",
"3  c #007c00",
"4  c #0f7b05",
"5  c #235d00",
"6  c #3f5f00",
"7  c #2e432e",
"8  c #237e04",
"9  c #336e11",
"0  c #453608",
"q  c #454600",
"w  c #454011",
"e  c #4d4e1a",
"r  c #534200",
"t  c #584b00",
"y  c #525400",
"u  c #545800",
"i  c #476218",
"p  c #6d4b00",
"a  c #6e530a",
"s  c #685610",
"d  c #704e00",
"f  c #775600",
"g  c #7a5600",
"h  c #7b6e1c",
"j  c #6d6d24",
"k  c #747426",
"l  c #7f7f2a",
"z  c #4c4c4c",
"x  c #727272",
"c  c #008400",
"v  c #008d00",
"b  c #009300",
"n  c #009900",
"m  c #1a8800",
"M  c #129006",
"N  c #00a500",
"B  c #00a800",
"V  c #0bae00",
"C  c #00b200",
"Z  c #00ba00",
"A  c #15bd07",
"S  c #339400",
"D  c #3aa306",
"F  c #33bd33",
"G  c #00c300",
"H  c #00cc00",
"J  c #00d300",
"K  c #00db00",
"L  c #16c707",
"P  c #00e200",
"I  c #00eb00",
"U  c #0eef0e",
"Y  c #00f400",
"T  c #00fb00",
"R  c #0bfc0b",
"E  c #11fa11",
"W  c #18fc18",
"Q  c #34fc11",
"!  c #2bf72b",
"~  c #2bfc2b",
"^  c #34fc34",
"/  c #39fc39",
"(  c #699300",
")  c #64a000",
"_  c #6ba200",
"`  c #74bc14",
"'  c #479647",
"]  c #41fc41",
"[  c #5dfc5d",
"{  c #6cfc6c",
"}  c #845d00",
"|  c #8e5f00",
" . c #906400",
".. c #996700",
"X. c #9f7f00",
"o. c #807c27",
"O. c #ab7c0a",
"+. c #be7f00",
"@. c #83832b",
"#. c #94912f",
"$. c #9c9129",
"%. c #9a9a33",
"&. c #9eaf28",
"*. c #9ea335",
"=. c #a08d22",
"-. c #a0a035",
";. c #b5a028",
":. c #b7b767",
">. c #8fd827",
",. c #bfd129",
"<. c #b9e439",
"1. c #bdf134",
"2. c #c69511",
"3. c #d08b00",
"4. c #da9100",
"5. c #ceaa08",
"6. c #c5b318",
"7. c #dbb825",
"8. c #e69900",
"9. c #ea9c00",
"0. c #efb314",
"q. c #f2a100",
"w. c #fcaa02",
"e. c #fcb50d",
"r. c #f4b411",
"t. c #d5cc3e",
"y. c #fcc31b",
"u. c #fcce26",
"i. c #fce038",
"p. c #d1d146",
"a. c #dfe74a",
"s. c #ebeb4f",
"d. c #fcf74f",
"f. c #fcfc54",
"g. c #efef62",
"h. c #94cc94",
"j. c #8def8d",
"k. c #b9ccb9",
"l. c #affcaf",
"z. c #c8cfc8",
"x. c gray82",
"c. c #c0fcc0",
"v. c #ddfcdd",
"b. c None",
/* pixels */
"b.b.b.b.b.b.b.b.b.b.b.b.b.b.b.b.b.b.b.b.b.b.b.b.b.b.b.b.b.b.b.b.",
"b.b.b.b.b.b.b.b.b.b.b.b.b.b.b.b.b.b.b.b.b.b.b.b.b.b.b.b.b.b.b.b.",
"b.b.b.:.g.b.b.b.b.b.b.b.b.b.b.b.b.b.b.b.b.b.b.b.b.b.b.b.b.b.b.b.",
"b.b.-.e s.b.b.b.b.b.b.b.b.b.b.b.b.b.b.b.b.b.b.b.B B b.b.b.b.b.b.",
"b.b.= ( f.b.b.b.b.b.b.b.b.b.b.b.b.b.b.b.b.b.b.B b.b.B b.b.b.b.b.",
"b.j O p.f.b.b.b.b.b.b.b.b.b.b.b.b.b.b.b.b.b.b.b.b.B B b.b.b.b.b.",
"b.* h i.d.f.b.b.b.b.b.b.b.b.b.b.b.b.b.b.b.b.b.b.B b.b.b.b.b.b.b.",
"O.0 0.w.e.i.f.b.b.b.b.b.b.b.b.b.b.b.b.h.k.x.j.K T b.b.b.b.b.b.b.",
"| 3.w.b.  e.u.<.B G b.b.b.b.b.b.^ ~ F 7 = z z.Z T T T b.b.b.b.b.",
"9.b.b.b.e.2...D Z G J B b.b.b.T v.{ Y Z # x ' G T T T T T b.b.b.",
"b.b.b.b.e.t.O @ n G A L b.b.b.T / T T T K % # B Y T T T T T b.b.",
"b.b.b.b.b.u.=.X o 2 ` t.b.b.b.Z I I B c K : v v K T T T T T b.b.",
"b.b.b.b.b.b.r.;.* . m 5.7.1.Q 1 3 1 c 3 c I K K T T Z J T T T b.",
"b.b.b.b.b.b.b.b.7.$.&.) 6 6.>.T K < Z T T T T T T T c B J T T b.",
"b.b.b.b.b.b.b.b.b.e.e.b.B S 8 Y c Z T T T T T T T T Z < B K T T ",
"b.b.b.b.b.b.b.b.b.b.b.b.K B b T - T T T T T T T T T T B c B J T ",
"b.b.b.b.b.b.b.b.b.b.b.b.T T T T v T T T T T T T T T T T N 2 G K ",
"b.b.b.b.b.b.b.b.b.b.b.b.T T T T K H T T T T T T T T T T B c B K ",
"b.b.b.b.b.b.b.b.b.b.b.b.P T T T T T T T T T T T T T T B b B K T ",
"b.b.b.b.b.b.b.b.b.b.b.b.b.B J c b T T T T T T T T T I c B K T b.",
"b.b.b.b.b.b.b.b.b.b.b.b.b.t + %.*.9 4 T T T K I G Z B Z K G J b.",
"b.b.b.b.b.b.b.b.b.b.b.b.b.9.p k w @.i J I Y 3 N B G 3 > > p  .b.",
"b.b.b.b.b.b.b.b.b.b.b.b.b.& r k 4.a 0 y u y 6 1 J H _ 4.4.q.b.b.",
"b.b.b.b.b.b.b.b.b.b.b.b.b.b.; @...a s w.w.3...V v b ( 4.9.b.b.b.",
"b.b.b.b.b.b.b.b.b.b.b.b.b.b.b.a.o.#.e p } g g 5 : : $ , b.b.b.b.",
"b.b.b.b.b.b.b.b.b.b.b.b.b.b.b.b.b.b.M c c c c c c c b b.b.b.b.b.",
"b.b.b.b.b.b.b.b.b.b.b.b.b.b.b.b.b.b.B B B B B N B b.b.b.b.b.b.b.",
"b.b.b.b.b.b.b.b.b.b.b.b.W { / b.b.Y G b.b.b.b.b.N K b.b.T ] [ R ",
"b.b.b.b.b.b.b.b.b.b.b.b.! l.~ T n K G B b.b.b.G B H K B T ^ c.E ",
"b.b.b.b.b.b.b.b.b.b.b.b.J U T Y N Z Z B b.b.b.B B Z B G K T E I ",
"b.b.b.b.b.b.b.b.b.b.b.b.b.Z G G B B B b.b.b.b.b.B B B Z Z G Z b.",
"b.b.b.b.b.b.b.b.b.b.b.b.b.b.b.b.b.b.b.b.b.b.b.b.b.b.b.b.b.b.b.b."
};
