/* XPM */
static char *magick[] = {
/* columns rows colors chars-per-pixel */
"32 32 189 2",
"   c black",
".  c #150d03",
"X  c #1e1306",
"o  c #1e1408",
"O  c #211506",
"+  c #251805",
"@  c #291a05",
"#  c #301a0b",
"$  c #391702",
"%  c #3d1b03",
"&  c #2b2724",
"*  c gray19",
"=  c #411a02",
"-  c #402110",
";  c #492918",
":  c #47310f",
">  c #49310c",
",  c #4c3316",
"<  c #4f3718",
"1  c #502c13",
"2  c #52380e",
"3  c #5b3a0e",
"4  c #523514",
"5  c #563814",
"6  c #523818",
"7  c #5a3a13",
"8  c #632c04",
"9  c #692f09",
"0  c #633d11",
"q  c #763304",
"w  c #7b3604",
"e  c #7f3803",
"r  c #634213",
"t  c #6a4312",
"y  c #6c4418",
"u  c #6e4911",
"i  c #6f4819",
"p  c #74450e",
"a  c #70480f",
"s  c #7a4c0e",
"d  c #704517",
"f  c #714618",
"g  c #744c13",
"h  c #754b19",
"j  c #7a4d14",
"k  c #7a4e18",
"l  c #77511b",
"z  c #7f5116",
"x  c #7b5219",
"c  c #784026",
"v  c #5a5a59",
"b  c #5e5e64",
"n  c #7d705c",
"m  c #6c6b6d",
"M  c #767577",
"N  c #7a7a7c",
"B  c #833904",
"V  c #814f15",
"C  c #80540d",
"Z  c #835215",
"A  c #835518",
"S  c #845918",
"D  c #8a5414",
"F  c #8c5a16",
"G  c #964304",
"H  c #974509",
"J  c #9b4704",
"K  c #9e4903",
"L  c #915f17",
"P  c #976214",
"I  c #936218",
"U  c #9a6112",
"Y  c #9b6a16",
"T  c #a34b04",
"R  c #a0531c",
"E  c #b14300",
"W  c #ac4f21",
"Q  c #ae592f",
"!  c #a16510",
"~  c #a66c11",
"^  c #a77739",
"/  c #b9623c",
"(  c #8f6c43",
")  c #976e43",
"_  c #957348",
"`  c #9a7149",
"'  c #9c7750",
"]  c #a37b4c",
"[  c #a07f58",
"{  c #ba6d4b",
"}  c #ba7451",
"|  c #b17c69",
" . c #d96702",
".. c #db6902",
"X. c #e36e04",
"o. c #e67304",
"O. c #e7720d",
"+. c #eb7303",
"@. c #ee7904",
"#. c #f17502",
"$. c #9d825a",
"%. c #93836c",
"&. c #ac8141",
"*. c #a38051",
"=. c #a1825e",
"-. c #ac8c5e",
";. c #b08245",
":. c #b28649",
">. c #b28c50",
",. c #b28e5f",
"<. c #b59056",
"1. c #ba9154",
"2. c #b8955d",
"3. c #a18a6c",
"4. c #a68778",
"5. c #ac9270",
"6. c #b18f63",
"7. c #b99964",
"8. c #be9c69",
"9. c #b09875",
"0. c #b49d7d",
"q. c #bc9d72",
"w. c #ba9d78",
"e. c #bca17a",
"r. c #fd8105",
"t. c #fc840c",
"y. c #c2944b",
"u. c #c2866f",
"i. c #c78a70",
"p. c #cf8f70",
"a. c #d19161",
"s. c #fea654",
"d. c #808080",
"f. c #8e8e90",
"g. c #939394",
"h. c #9c9c9c",
"j. c #ba9c87",
"k. c #b4a185",
"l. c #bca283",
"z. c #bdab96",
"x. c #a0a0a3",
"c. c #aeaeb0",
"v. c #b2b2b3",
"b. c #c0a987",
"n. c #c3ae8d",
"m. c #cea89b",
"M. c #cab08c",
"N. c #c4b093",
"B. c #c7b49a",
"V. c #c9b79c",
"C. c #d6b88d",
"Z. c #d8be9c",
"A. c #c5aaa1",
"S. c #cab8a0",
"D. c #cebdab",
"F. c #d7b0a6",
"G. c #d3bda5",
"H. c #e5ac90",
"J. c #e7b396",
"K. c #eab293",
"L. c #feba84",
"P. c #d5c0a7",
"I. c #d4c2ae",
"U. c #d8c5ad",
"Y. c #dac8ab",
"T. c #d7c7b4",
"R. c #d4c6b8",
"E. c #d6c9b8",
"W. c #d8c7b2",
"Q. c #dac9b2",
"!. c #daccbc",
"~. c #fbceb6",
"^. c #f7d7a7",
"/. c #fedeac",
"(. c #f8d0bd",
"). c #c0c0c0",
"_. c #c9c9ca",
"`. c #cfcfd1",
"'. c #d3d3d5",
"]. c #dbdbdb",
"[. c #dfdfe0",
"{. c #e3d3c0",
"}. c #ffe6da",
"|. c #e3e3e5",
" X c #ededed",
".X c #f3f3f3",
"XX c #f8f8f6",
"oX c #fdfdfb",
"OX c None",
/* pixels */
"OXOXOXOXOXOXOXOXOX                        OXOXOXOXOXOXOXOXOXOXOX",
"OXOXOXOXOXOXOXOXOX  ).].].].[.[.].].x.d.  OXOXOXOXOXOXOXOXOXOXOX",
"OXOXOXOXOX7 5 6 6   ].).).D.).).).v.v.d.  , 6 4 5 OXOXOXOXOXOXOX",
"OXOXOXOX0 {.!.T.U.G.  ].).).).).v.v.x.  =.[ ' ` ) o OXOXOXOXOXOX",
"OXOXOX4 !.k j V k j A   ].v.v.x.x.x.  x h i i d i y o OXOXOXOXOX",
"OXOXOX5 R.d O O O o O O   ].x.x.x.  + + + + + @ ^ D + OXOXOXOXR ",
"OXOXOXr W.S + oXoXoXoXoXoX        oXoXoXoXoXoX7 ( i o OXOXOXR s.",
"OXOXOX4 D.d X oXoXoXoXoXoXoXoXXXoXoXoXoXoXoXoX7 _ k O OXOXR s.L.",
"OXOXOX0 G.j O oXoXN h.oXN v d.m h.|.N v oXoXoX0 ] V + OXR s.L.^.",
"OXOXOXp G.D + oXoXoXoXoXoXoXoXoXoXoXoXoXoXoXoXr ] Z + R s.L.^.r.",
"OXOXOXp Z.L @ oXoXb N N N v.oXN v d.b oXN oXoX5 $.l R s.L.^.r.o.",
"OXOXOXt V.A O oXoXoXoXoXoXoXoXXXoXoXoXoXoXoXXX7 -.R s.L.^.t.o.T ",
"OXOXOX5 z.y o oXoXb N b h.|.N m oXv m v N XXXXj R s.L.^.t.@.J w ",
"OXOXOXs C.! @ oXoXoXoXoXoXoXoXoXoXoXoXXXoXXXXXW s.L.^.r.@.J q   ",
"OXOXOXu M.A + oXoXoXoXoXoXoXoXoXoXoXoXXXXXXXL s.L.^.t.o.T w     ",
"OXOXOX7 l.k O oXoXoXoXoXoXoXoXoXXXoXXXXX.XR s.L.^.t.@.K B       ",
"OXOXOX5 k.l O oXoXN * oXoXN M oXXXXXXX.XR s.L.^.#.X.G q         ",
"OXOXOX0 0.h O oXoXN * oXN * v XXXXXXXXj.a.L.^.+. .T w           ",
"OXOXOXt w.Z o oXoXN * M * v XXXXXX.X.X| }./.O. .T B             ",
"OXOXOXr 9.l o oXoXN * * v .XXXXX.X.X4.}.~.K.p.H w 8             ",
"OXOXOXr 5.l O oXoXN * * N XX.X.X.X XF.(.K.i.{ c 9 % .           ",
"OXOXOX< 3.k O oXXXN * v * M .X.X.XA.A.J.u./ W 1 % : .         OX",
"OXOXOXt 6.F + XXXXM * .Xv * N .X XM J.} Q E - # n 3 X       OXOX",
"OXOXOXa 6.F + XXXXv v .X.Xv    X).&   E ; $ f.> %.u O     OXOXOX",
"OXOXOXs 1.P + XXXX.X.X.X X X X X`.    % g.g.x.2 k.Z +   OXOXOXOX",
"OXOXOXs 1.Y @ .X.X.X X.X.X X X X  m v.h.x.c.).0 V.S + OXOXOXOXOX",
"OXOXOXC y.~ @ .X.X X.X X X X X X|.'.c.c._.`.].g Y.I + OXOXOXOXOX",
"OXOXOXr :.P @ .X.X X X X X X X|.|.'.)._.].].[.u W.F + OXOXOXOXOX",
"OXOXOXr _ x + u r r t u u t r r r 7 4 4 7 5 5 5 E.i o OXOXOXOXOX",
"OXOXOXg &.I &.:.>.<.2.7.8.q.e.l.b.N.N.B.S.D.U.Q.{.I + OXOXOXOXOX",
"OXOXOXOX+ F F S S A S S F A x A V A A A A h l z S O OXOXOXOXOXOX",
"OXOXOXOXOX+ + + + o + o O + + + + O + O O O O O O OXOXOXOXOXOXOX"
};
