/* XPM */
static char *magick[] = {
/* columns rows colors chars-per-pixel */
"32 32 29 1",
"  c black",
". c #333333",
"X c #3d3d3d",
"o c #424242",
"O c #4a4a4a",
"+ c #565656",
"@ c #585858",
"# c #777777",
"$ c #7c7c7c",
"% c green",
"& c #13a498",
"* c #01fed4",
"= c yellow",
"- c #808080",
"; c #8b8b8b",
": c #949494",
"> c #9c9c9c",
", c #a4a4a4",
"< c #ababab",
"1 c #b3b3b3",
"2 c #bbbbbb",
"3 c #c0c0c0",
"4 c #cbcbcb",
"5 c #d3d3d3",
"6 c #dbdbdb",
"7 c #e4e4e4",
"8 c #e8e8e8",
"9 c white",
"0 c None",
/* pixels */
"00000000000000000000000000000000",
"00000000000000000000000000000000",
"00000000000   000000000000000000",
"0000000000 666   000000000000000",
"000000000 9966666   000000000000",
"000000000 +@99966666   000000000",
"00000000 @+++@+99965544   000000",
"0000000 @$38.+++@+99943332   000",
"000000 @-389999.@O+OO999221<<   ",
"00000 @$3899999999.OOooX999<<,> ",
"0000 @$3899999999 .@$ooo>>>999. ",
"000 @$3899999999 .@--$$6>>:::XX ",
"00 @$3899999999 .@$$$-73%23:;X. ",
"0 @$@@69999999 .+$--$62333=36X. ",
" 99333$@@6999 .@$---63&33336oXX ",
" 66699333$@@ .+$-$$73&**326OoX. ",
" 66666999332@@$$-$63&**336+OoXX ",
" 6:6666669993333-73&**236+OOoX. ",
" 6:::>65555499936333*336@+OOoX. ",
" 6>888::;54444399933336++@+OoXX ",
" 66666888;;;4333229996+@+@OOoX. ",
" 6:765545776-;-321111+@+@@+OoX 0",
" 6:>::554443666-$$11<@@@+@+Oo 00",
" 6:888;:;443333$65##<@@+@+OO 000",
" 66655877-;-322$1154<+@++@O 0000",
"   554444666-$$$11<<<+o@@+ 00000",
"000   444333655#1<<<,@o++ 000000",
"000000   322221$1<<<,+++ 0000000",
"000000000   2111<<<,,++ 00000000",
"000000000000   <<<,,,@ 000000000",
"000000000000000   ,,, 0000000000",
"000000000000000000   00000000000"
};
