/* XPM */
static char *magick[] = {
/* columns rows colors chars-per-pixel */
"32 32 55 1",
"  c #000000",
". c gray19",
"X c #004040",
"o c #036d6d",
"O c #077474",
"+ c #087777",
"@ c #0a7a7b",
"# c #565656",
"$ c #5a5a5a",
"% c #636363",
"& c #6b6b6b",
"* c #737373",
"= c #7d7d7d",
"- c green",
"; c #0e8281",
": c #108685",
"> c #128a89",
", c #15908e",
"< c #179391",
"1 c #189594",
"2 c #1a9896",
"3 c #1c9e9c",
"4 c #00bfbf",
"5 c #0fc4c4",
"6 c #13c4c5",
"7 c #1ec9c9",
"8 c #23cacb",
"9 c #32ced0",
"0 c #36d0d1",
"q c #39d1d2",
"w c #45d5d7",
"e c #49d6d8",
"r c #4dd8da",
"t c #57dbdd",
"y c #5bdcde",
"u c #5fdee0",
"i c #62dee1",
"p c #6de2e4",
"a c #72e3e6",
"s c #7ee8eb",
"d c red",
"f c yellow",
"g c #949494",
"h c #9b9b9b",
"j c #a3a3a3",
"k c #ababab",
"l c #b0b0b0",
"z c #bcbcbc",
"x c #80e8ec",
"c c #c2c2c2",
"v c #cbcbcb",
"b c #d3d3d3",
"n c #e9e9e9",
"m c white",
"M c None",
/* pixels */
"MMMMMMMMMMMMMMMM  MMMMMMMMMMMMMM",
"MMMMMMMMMMMMMM  kl  MMMMMMMMMMMM",
"MMMMMMMMMMMM  lkkkkj  MMMMMMMMMM",
"MMMMMMMMMM  kllkkkjkjj  MMMMMMMM",
"MMMMMMMM  kllllkkkjjjjjh  MMMMMM",
"MMMMMM  mvlllllkkkkjjjhhhh  MMMM",
"MMMMMM bbbmvllkkkjjjjhhhhggg  MM",
"MMMMMM b  bbmckkjkkjhjjhhhgggg  ",
"MMMMMM v d  bbmckjjjjjhhggggggg ",
"MMMMMM v f    bbmzjjhhjhhhggg&% ",
"MMMMMM c - f   bbbmzjhhhggg=*&% ",
"MMMMMM cc  -   vv bbmlhhh==*&&% ",
"MMMMMMM #cc  - vvmv vbm====*&%$ ",
"MMMMMM nn.#cc  cv v v v===**&%$ ",
"MMMMMM bbnn.#zzcc c cmcg==*&&%$ ",
"MMMMMM b  bnn.#zc cmc c===*&%$# ",
"MMMMMM v    bnn.#zz z c==*&&%. M",
"MMMMMM v f d  bnn.#zz z==*&..$# ",
"MMMMMM v - f   bbnn.#zz==..%$&% ",
"MMMMMM cc  -   vvbbnn.#..&&*&&% ",
"MMMMMM  ccc  - v gbbbnn&&*=*&&$ ",
"MMMMMMMM  ccc  vvv gvbb==g**&%$ ",
"MMMM   MMM  czcc gvv gb===*&&%$ ",
"MM  xai  MMM  cccc gvvv=g*&&%$# ",
"  xxxaurq  MMM  zccc gv=***&%$  ",
" 3xxxpyrq86  MMM  zcccc==&&%  MM",
" 321spye98644  MMM  ccc=**  MMMM",
"  1>>;tw9854XX MMMMM  z=  MMMMMM",
"MM  >;@+97XXXX MMMMMMM  MMMMMMMM",
"MMMM  @OoXXX  MMMMMMMMMMMMMMMMMM",
"MMMMMM  oX  MMMMMMMMMMMMMMMMMMMM",
"MMMMMMMM  MMMMMMMMMMMMMMMMMMMMMM"
};
