/* XPM */
static char *magick[] = {
/* columns rows colors chars-per-pixel */
"32 32 8 1",
"  c black",
". c #cf7d03",
"X c #d48904",
"o c #dd9e07",
"O c #e9bc09",
"+ c #eddb15",
"@ c white",
"# c None",
/* pixels */
"################################",
"########################  ######",
"######################    ######",
"###################       ######",
"################        @ ######",
"##############        @@  ######",
"###########        @@@    ######",
"##########      @@@     # ######",
"#             @@              ##",
"#   @ @@@@@ @@    @@@@@@@ @@@###",
"#   @ @@@@@@   @@@@@@@@@@ @@@###",
"#                             ##",
"#   @ @@@@@@ @@@@@@@@@@@@ @@@###",
"#   @ @@@@@@ @@@@@@@@@@@@ @@@###",
"#                             ##",
"#   @ @@@@@@@ @@@@@@@ Oo  @@@###",
"#   @ @@@@@@@ @@@@@@ O+Oo @@@###",
"#                    oOoo     ##",
"#   @ @@@@ Oo  @@@@@ .oX. @@@###",
"#   @ @@@ O+Oo @@@@@@    @@@@###",
"#         oOoo                ##",
"#   @ @@@ .oX. @@@@@@@@@@@@@@###",
"#   @ @@@@    @@@@@@@@@@@@@@@###",
"#                             ##",
"################################",
"################## ####### #####",
"####  ## #   #   ###    ########",
"##### # ###  #  ## ## ## # #####",
"#####  #### # # ## ## ## # #####",
"##### # ### # # ## ## ## # #####",
"####  #  #  ###  # #    ## #####",
"################################"
};
