/* XPM */
static char *magick[] = {
/* columns rows colors chars-per-pixel */
"32 32 21 1",
"  c black",
". c #585858",
"X c #666666",
"o c #6b6b6b",
"O c #737373",
"+ c #7a7a7a",
"@ c blue",
"# c #00c0c0",
"$ c red",
"% c #ffa858",
"& c #808080",
"* c #a4a4a4",
"= c #ababab",
"- c #b2b2b2",
"; c #bdbdbd",
": c #aeaee4",
"> c #c0c0c0",
", c #cacaca",
"< c #c0c0ff",
"1 c white",
"2 c None",
/* pixels */
"2222222222222222222222   2222222",
"22222222222222222222   : 2222222",
"222222222222222222  %% < 2222222",
"2222222222222222  %%$$ < 2222222",
"222222222222222 %%$$$$ < 2222222",
"2222222222222222  $$$$ < 2222222",
"222222222222222222  $$ < 2222222",
"22222222222222222222   < 2222222",
"2222222222222222222222 < 2222222",
"2222222222222222222222 < 2222222",
"2222222222222222222222 < 2222222",
"22222222222222   22222 < 2222222",
"222222222222  &>@  222 < 2222222",
"2222222222  &>>@>@&  2 < 2222222",
"22222222  &>>@>;@@>>&  <   22222",
"222222  &1&&>>@@>>>  & < >&  222",
"2222  +>;>11&&>>>  &>> < >**+  2",
"22  &>>>>#@>11+& &>>;> < **>>>& ",
"  &>>>>#@>>@>>11 11>>>   >>>>11 ",
" ,11>#@>>@@>>>&& >>11>>>>>;11XX ",
" ,,,11>@@>>;&&11&&>>>11>>11XXXX ",
" ,,,,>11>>&&11>>>>@&>>>11oooXXX ",
" ,,>,>>;&&11>;>>@>;@+&>.ooXooXX ",
"  &,>>>;&111>>@>>@@>>>O.oOOoooX ",
"22  &>;;&1--11>@@>>;11O.Oooooo  ",
"2222  +;&1---=11>>11OOO.OOOo  22",
"222222  &1----*=11+++OO.Oo  2222",
"22222222  +-*==*+++O+OO.  222222",
"2222222222  &==*+++++O  22222222",
"222222222222  &*++++  2222222222",
"22222222222222  &+  222222222222",
"2222222222222222  22222222222222"
};
