/* XPM */
static char *magick[] = {
/* columns rows colors chars-per-pixel */
"32 32 150 2",
"   c #000000",
".  c #0a0a0c",
"X  c #151514",
"o  c #1a1a1c",
"O  c #3e3a0c",
"+  c #222224",
"@  c #323224",
"#  c #363634",
"$  c #3e3e3c",
"%  c #4a4a04",
"&  c #524e04",
"*  c #565208",
"=  c #665e04",
"-  c #625e1c",
";  c #666208",
":  c #4a4a4c",
">  c #525254",
",  c #5e5e5d",
"<  c #7e7e7c",
"1  c #827b12",
"2  c #ca0c0c",
"3  c #ca160c",
"4  c #ce1611",
"5  c #ce1e14",
"6  c #d21a14",
"7  c #d6261c",
"8  c #d63a24",
"9  c #da362c",
"0  c #d64e2c",
"q  c #de4a2c",
"w  c #e25234",
"e  c #ee663c",
"r  c #e65a44",
"t  c #e26a4c",
"y  c #ea6e44",
"u  c #e6764c",
"i  c #ea7e44",
"p  c #8a8414",
"a  c #8e8a1c",
"s  c #938c1a",
"d  c #9c931a",
"f  c #969220",
"g  c #9e9624",
"h  c #9e9a24",
"j  c #96923c",
"k  c #a29c1c",
"l  c #aba31c",
"z  c #b2aa04",
"x  c #b5ad1e",
"c  c #baae1c",
"v  c #aaa22c",
"b  c #a6a234",
"n  c #aeaa34",
"m  c #bab224",
"M  c #beb634",
"N  c #8a8a64",
"B  c #beb64c",
"V  c #c6be1c",
"C  c #c2ba24",
"Z  c #c6be30",
"A  c #c2ba3e",
"S  c #e68e54",
"D  c #ea825c",
"F  c #e6924c",
"G  c #f19654",
"H  c #ea9e6c",
"J  c #f29e70",
"K  c #eaaa5c",
"L  c #e6b27c",
"P  c #cac224",
"I  c #c6c23c",
"U  c #d2ca30",
"Y  c #dad22c",
"T  c #d6d23c",
"R  c #ded63c",
"E  c #cac244",
"W  c #cec64c",
"Q  c #ceca44",
"!  c #c6c254",
"~  c #d2ce4c",
"^  c #d6ce54",
"/  c #d6d24c",
"(  c #dad644",
")  c #d6d254",
"_  c #dbd654",
"`  c #e2db51",
"'  c #e6de5c",
"]  c #f6c26c",
"[  c #f6de7c",
"{  c #eae248",
"}  c #eee652",
"|  c #eeea6c",
" . c #f6e274",
".. c #f2ee77",
"X. c #f2ea7c",
"o. c #f6f268",
"O. c #f6f37c",
"+. c #faf677",
"@. c #828284",
"#. c #8d8d8d",
"$. c #9a9a9c",
"%. c #b4b4b4",
"&. c gray74",
"*. c #c2bf90",
"=. c #eebe8c",
"-. c #fabe8c",
";. c #c2c297",
":. c #e2de8c",
">. c #f6ca94",
",. c #fade8c",
"<. c #fadaa4",
"1. c #e6e28c",
"2. c #e6e29c",
"3. c #f2ee84",
"4. c #f6ee8c",
"5. c #fee684",
"6. c #f2ee9c",
"7. c #fae290",
"8. c #fae69c",
"9. c #faea9c",
"0. c #faf584",
"q. c #fdf58a",
"w. c #fdfc85",
"e. c #f6f294",
"r. c #fef694",
"t. c #fef69c",
"y. c #fefa9a",
"u. c #eeeab4",
"i. c #fee4aa",
"p. c #feeaa4",
"a. c #faeeb0",
"s. c #f6f6a4",
"d. c #fefaa6",
"f. c #fef6b4",
"g. c #fbf4ba",
"h. c #fefbb4",
"j. c #fefabd",
"k. c #cececa",
"l. c #d3d3d3",
"z. c #faeec4",
"x. c #f2f2c4",
"c. c #fafac4",
"v. c #fefcca",
"b. c #f6f6d4",
"n. c #fefed4",
"m. c #fafadc",
"M. c #eeeeec",
"N. c #fefeef",
"B. c #f2f2f4",
"V. c None",
/* pixels */
"V.V.V.V.V.V.V.V.V.V.V.V.V.V.V.V.V.V.V.V.V.V.V.V.V.V.V.V.V.V.  l.",
"V.V.V.V.V.V.V.V.V.V.V.V.V.V.V.V.V.V.V.V.V.V.V.V.V.V.V.V.V.  l.M.",
"V.V.V.V.V.V.V.V.V.V.V.V.V.V.V.V.V.V.V.V.V.V.V.V.V.V.V.V.  l.M.M.",
"V.V.V.V.V.V.V.V.V.V.V.V.V.V.V.V.V.V.V.V.V.V.V.V.V.V.V.  l.B.M.k.",
"V.V.V.V.V.V.V.V.V.V.V.V.V.V.V.V.V.V.V.V.V.V.V.V.V.V.  l.B.M.k.%.",
"V.V.V.V.V.V.V.V.V.V.V.V.V.V.V.V.V.V.V.V.V.V.V.V.V.. l.B.M.k.%.< ",
"V.V.V.V.V.V.V.V.V.V.V.V.V.V.V.V.V.V.V.V.V.V.V.V.  l.B.M.k.%.<   ",
"V.V.V.V.V.V.V.V.V.V.V.V.V.V.V.V.V.V.V.V.V.V.V.  l.M.M.k.%.@.  V.",
"V.V.V.V.V.V.V.V.V.V.V.V.V.V.V.V.V.V.V.V.V.V.  %.B.M.l.%.<   V.V.",
"V.V.V.V.V.V.V.V.V.V.V.V.V.V.V.V.V.V.V.V.V.o , $ M.k.%.@.  V.V.V.",
"V.V.V.V.V.V.V.V.V.V.V.V.V.V.V.V.V.V.V.V.X , #., : $.@.  V.V.V.V.",
"V.V.V.V.V.V.V.V.V.V.V.V.V.V.V.V.  V.V.  # #.&., X     V.V.V.V.V.",
"V.V.V.V.V.V.V.V.V.V.V.V.V.V.    A     . o $., o .   V.V.V.V.V.V.",
"V.V.V.V.V.V.V.V.V.V.V.V.    ) w.w.3.y.> $.X .     V.V.V.V.V.V.V.",
"V.V.V.V.V.V.V.V.V.V.    } w.w.w.y.y.> $.> @   O     V.V.V.V.V.V.",
"V.V.V.V.V.V.V.V.    ~ w.0.S w 5.w.y.$ + o   c.c.N -         V.V.",
"V.V.V.V.V.V.    ' w.w.w.K 9 e r.y.+   . j.j.*.*.*.*.*.N.N.4.  V.",
"V.V.V.V..   _ 0.w.w.w.[ 0 q ,.r.y.    j.;.*.*.*.*.N.N.N.4.  V.V.",
"V.V.    / w.w.G i G t.S 4 y d.d.d.j.j.j.j.j.j.m.n.m.x.4.  V.V.V.",
"V.  ( w.w.w.] w 0 5 4 3 2 4 6 6 8 t J -.i.g.n.v.v.4.d g x .   V.",
"  j r.w.w.w.w.w. .w w 3 9 D H L =.>.<.i.z.g.b.4.d k x C P T T   ",
"  z z ) | w.y.y.d.y.9.u 7 H s.h.h.c.c.c.g.4.d l c V P T T A h   ",
"  w.{ z z Z w.y.d.d.d.7.w r p.c.h.j.f.4.d l C P U Y T E f a ^   ",
"  z z w.{ z z _ 6.d.h.h.a.w 8.h.s.4.d m P Y R o.} W b p ~ 1 ;   ",
"V.    z z w.{ z z :.u.N.f.j.f.4.d x P R { q.o._ n f ~ k %   . V.",
"V.V.V.  . z z 0.{ z z :.2.1.x x ` ` q.q.q._ v s ~ 1 =     V.V.V.",
"V.V.V.V.V.    z z w.{ z z e.O.O.0.+.w.' B d ) a *   . V.V.V.V.V.",
"V.V.V.V.V.V.V.    z z w.{ z z ..0.X.! b ~ s *     V.V.V.V.V.V.V.",
"V.V.V.V.V.V.V.V.V.    z z w.{ z A h ~ p ;     V.V.V.V.V.V.V.V.V.",
"V.V.V.V.V.V.V.V.V.V.V.    z z w.M l &     V.V.V.V.V.V.V.V.V.V.V.",
"V.V.V.V.V.V.V.V.V.V.V.V.V.    z 1     V.V.V.V.V.V.V.V.V.V.V.V.V.",
"V.V.V.V.V.V.V.V.V.V.V.V.V.V.V..   V.V.V.V.V.V.V.V.V.V.V.V.V.V.V."
};
