/* XPM */
static char *magick[] = {
/* columns rows colors chars-per-pixel */
"34 34 58 1",
"  c black",
". c #272727",
"X c #2d2d2d",
"o c gray21",
"O c #3b3b3b",
"+ c #740000",
"@ c #7b0202",
"# c #444444",
"$ c #4c4c4c",
"% c #525252",
"& c #585857",
"* c #5a5a5a",
"= c #636363",
"- c #6c6c6c",
"; c #737373",
": c #7d7d7d",
"> c #830404",
", c #8a0606",
"< c #8e0808",
"1 c #930909",
"2 c #ad6666",
"3 c #e73737",
"4 c #ea4242",
"5 c #ec4b4b",
"6 c #ef5353",
"7 c #f25c5c",
"8 c #f46565",
"9 c #f76f6f",
"0 c #fa7a7a",
"q c #818181",
"w c #8b8b8b",
"e c #8e8e90",
"r c #939393",
"t c #99999a",
"y c #9e9ea1",
"u c #af8383",
"i c #a2a2a3",
"p c #a2a2a8",
"a c #adadad",
"s c #b3b3b3",
"d c #bebebe",
"f c #bcc1c1",
"g c #c0c0c0",
"h c #c2caca",
"j c #cbcbcb",
"k c #cdd3d3",
"l c #cadada",
"z c #d5d5d5",
"x c #dcdcdc",
"c c #ddeeee",
"v c #e0dada",
"b c #e4e4e4",
"n c #ebebeb",
"m c #eff8f8",
"M c #f4f4f4",
"N c #f5f9f9",
"B c #fcfcfc",
"V c None",
/* pixels */
"VVVVVVVVVVVVVVVVVVVVVVVVVVVVVVVVVV",
"VVVVVVVVVVVVVVVVVVVVVVVVVVVVVVVVVV",
"VVVVVVVVVVVVVVVVVVVVVVVVVVVVVVVVVV",
"VVVVVVVV    VVVVVVVVVVVVVVVVVVVVVV",
"VVVVVV  gggg   VVVVVVVVVVVVVVVVVVV",
"VVVVV Mzjggggdd  VVVVVVVVVVVVVVVVV",
"VVVV Mnxzzjhgdddg  VVVVVVVVVVVVVVV",
"VVV BBMMbbzkjh012gg  VVVVVVVVVVVVV",
"VV BMBBBMnnbzl98812gg  VVVVVVVVVVV",
"VV bnnMBBBMnnc87651gggg  VVVVVVVVV",
"V jzzbnnMBBBNm76541gggggd  VVVVVVV",
"V hjjzzvnnMBBBNj731zjhdghgg  VVVVV",
"V gggjjzzxnnMBBBN3,xzkzda$O## VVVV",
"V jggggjjzzvnnMxn3,vbbh==;%$%& VVV",
"V jggggggjjzzxnjx3,jvM=erytw*%* VV",
"V gggggggggjjzzjd3>dbj=yyppts-= VV",
"V gggdgdgggggjjzd3>gm-ppype-wca$ V",
"V hgggggdggdgggjh3>af=pppp==rBz$ V",
"V gggdgggggdggggg3@aa=ppppqenzO% V",
"V dggggddggggdggg3@i=pp:pfmmBsX& V",
"V tgggdgggdggggdg3@i=:ypwqnBn.#& V",
"VV  tggggdggggggg3+i=ywqdxBBsX#* V",
"VVVV  tgggdgggggg3+i$qtyiMBz$o$* V",
"VVVVVV  tdggggdgg3+i%yr2nBBsOo%* V",
"VVVVVVVV  tggggdg3ug%tdssBn$$*;* V",
"VVVVVVVVVV  tdgggaig$#:nBBs$=:q VV",
"VVVVVVVVVVVV  tggggd#%*=gz;=:  VVV",
"VVVVVVVVVVVVVV  tdgg#%--qq:  VVVVV",
"VVVVVVVVVVVVVVVV  tg#-:wq  VVVVVVV",
"VVVVVVVVVVVVVVVVVV  #*:  VVVVVVVVV",
"VVVVVVVVVVVVVVVVVVVV   VVVVVVVVVVV",
"VVVVVVVVVVVVVVVVVVVVVVVVVVVVVVVVVV",
"VVVVVVVVVVVVVVVVVVVVVVVVVVVVVVVVVV",
"VVVVVVVVVVVVVVVVVVVVVVVVVVVVVVVVVV"
};
