/* XPM */
static char *magick[] = {
/* columns rows colors chars-per-pixel */
"32 32 118 2",
"   c #010103",
".  c #0e0e06",
"X  c #121206",
"o  c #161608",
"O  c #1a160a",
"+  c #1b1b0b",
"@  c #1e1a10",
"#  c #1e1e1a",
"$  c #221e06",
"%  c #221e11",
"&  c #26220a",
"*  c #2c260c",
"=  c #222216",
"-  c #2a261a",
";  c #332b0c",
":  c #322e12",
">  c #3a340d",
",  c #3e3a0e",
"<  c #2b2a21",
"1  c #42370e",
"2  c #463b0e",
"3  c #4a3e0f",
"4  c #494216",
"5  c #4e4a1a",
"6  c #544511",
"7  c #564910",
"8  c #5b4b12",
"9  c #5e5011",
"0  c #564e2a",
"q  c #5a5434",
"w  c #625213",
"e  c #665e13",
"r  c #6a5713",
"t  c #6a5d13",
"y  c #715e13",
"u  c #625626",
"i  c #605a3e",
"p  c #696116",
"a  c #6d6419",
"s  c #746213",
"d  c #70661b",
"f  c #73691d",
"g  c #7a6613",
"h  c #7e6a13",
"j  c #766c20",
"k  c #786e21",
"l  c #7c7225",
"z  c #524e42",
"x  c #7e7242",
"c  c #8a7e14",
"v  c #807527",
"b  c #817628",
"n  c #85792b",
"m  c #897d2e",
"M  c #8b7f30",
"N  c #867a42",
"B  c #8a7e56",
"V  c #8e8132",
"C  c #928535",
"Z  c #968738",
"A  c #968838",
"S  c #9b8c3b",
"D  c #9f903f",
"F  c #a0903f",
"G  c #868266",
"H  c #a39342",
"J  c #a69a46",
"K  c #a89745",
"L  c #a99846",
"P  c #ad9c49",
"I  c #aa9a5e",
"U  c #b19f4c",
"Y  c #b3a14d",
"T  c #b6a450",
"R  c #b9a652",
"E  c #bcaa55",
"W  c #beb47e",
"Q  c #c0ad57",
"!  c #c1ae58",
"~  c #c5b05a",
"^  c #ceb963",
"/  c #cfbc68",
"(  c #d1be6c",
")  c #ccc27c",
"_  c #d4c273",
"`  c #d7c579",
"'  c #d8c67c",
"]  c #dac97f",
"[  c #aeaa86",
"{  c #dccb83",
"}  c #decd89",
"|  c #e0cf8c",
" . c #e1d18e",
".. c #e3d393",
"X. c #e6d699",
"o. c #e7d89b",
"O. c #e8d99e",
"+. c #eadba3",
"@. c #eddea8",
"#. c #eee2a7",
"$. c #eee0ab",
"%. c #f0e2ae",
"&. c #f2e4b3",
"*. c #f5e9bb",
"=. c #f8ebbf",
"-. c #fef6bd",
";. c #f2eace",
":. c #f9edc3",
">. c #fef6c4",
",. c #fef7cb",
"<. c #fef8ce",
"1. c #fef8d4",
"2. c #fef9db",
"3. c #fefae3",
"4. c #fefbea",
"5. c #fefcf2",
"6. c #fefdfa",
"7. c None",
/* pixels */
"7.7.7.7.7.7.7.7.7.7.7.7.7.    7.7.7.7.7.7.7.7.7.7.7.7.7.7.7.7.7.",
"7.7.7.7.7.7.7.7.7.7.7.    2.2.    7.7.7.7.7.7.7.7.7.7.7.7.7.7.7.",
"7.7.7.7.7.7.7.7.7.    3.2.2.2.1.1.    7.7.7.7.7.7.7.7.7.7.7.7.7.",
"7.7.7.7.7.7.7.    4.3.3.  2.2.1.<.<.>.    7.7.7.7.7.7.7.7.7.7.7.",
"7.7.7.7.7.    5.t t 4.  2.  2.  <.<.t t >.    7.7.7.7.7.7.7.7.7.",
"7.7.7.    6.5.5.5.4.t t   2.  1.  t <.>.>.-.-.    7.7.7.7.7.7.7.",
"7.    6.6.6.6.5.5.4.4.3.t   t   <.<.<.>.>.-.-.-.>.    7.7.7.7.7.",
"  6.6.6.6.6.6.5.4.4.4.3.t t t t <.<.<.>.>.-.-.-.-.-.# 7.7.7.7.7.",
"  :.:.6.6.6.6.5.5.4.t t 3.2.2.1.t t <.>.>.-.-.-.H S = 7.7.7.7.7.",
"  :.:.:.:.6.5.5.t t 4.4.3.2.2.1.1.<.t t >.-.P H S S % 7.7.7.7.7.",
"  :.c :.=.=.h t 5.4.4.3.3.2.2.1.1.<.,.>.s P K F S C % 7.7.7.7.7.",
"  :.*.c c *.h &.=.4.4.3.3.2.2.1.1.<.E T p K H S S C % 7.7.7.7.7.",
"  *.c *.*.&.g %.$.$.#.3.3.2.2.1.~ Q R Y r K D S C M % 7.7.7.7.7.",
"  &.&.c c %.g %.$.$.@.+.$.2.~ ~ Q R Y P w H S Z M M @ 7.7.7.7.7.",
"  &.&.%.%.%.s @.+.+.+.O.O.~ ~ ~ Q Y Y L w D A C M n % 7.7.7.7.7.",
"  %.%.$.$.@.s +.+.O.o.o.X.~ ~ E R Y P K 8 S Z M M b % 7.7.7.7.7.",
"  $.%.@.@.+.y O.O.X.X.X.X.~ ! E Y P K F 8 A V m b * . 7.7.7.7.7.",
"  w w @.O.O.y X.X.X..... .! E R Y P K F 7 C V * ; k + 7.7.7.7.7.",
"  +.O.w w O.r X.X. . . .| ! R Y P K F S 6 * ; b l f + 7.7.7.7.7.",
"  O.O.O.X.8 r .. . .} } } E Y U L F D * * m b l f f O 7.7.7.7.7.",
"  o.X.X.....r w w } } } { T U P K * * C 6 b l l j a O   7.7.7.7.",
"  ..X. . .| w } } w 9 { { T P * * S C V 2 v l f a e O   .   7.7.",
"  .. . .| | 9 } { { ] w 8 * * H D A C V 1 l k f a e O           ",
"   .} } { } 9 { ' ' ' ` ` P K D A C V n > k f d e e #       7.7.",
"  } } } { { 8 ' ' ` ` ' ( L H S A V m n > f a t e e o   7.7.7.7.",
"  q { { ' ' 8 ' ` ` ( ( ( H D Z C m n l ; f a e     7.7.7.7.7.7.",
"7.7.  q ' ' 7 _ ` ( ( / ( D S C V n b l ; a     7.7.7.7.7.7.7.7.",
"7.7.7.7.% < 6 ( ( ( / / / S Z C m n l f     7.7.7.7.7.7.7.7.7.7.",
"7.7.7.7.7.7.  < ( / / ^ ^ S C m n l     7.7.7.7.7.7.7.7.7.7.7.7.",
"7.7.7.7.7.7.7.7.  u / ^ ^ C V m     7.7.7.7.7.7.7.7.7.7.7.7.7.7.",
"7.7.7.7.7.7.7.7.7.7.  q ^ V     7.7.7.7.7.7.7.7.7.7.7.7.7.7.7.7.",
"7.7.7.7.7.7.7.7.7.7.7.7.    7.7.7.7.7.7.7.7.7.7.7.7.7.7.7.7.7.7."
};
