/* XPM */
static char *magick[] = {
/* columns rows colors chars-per-pixel */
"34 34 241 2",
"   c #000000",
".  c #1e1e14",
"X  c #12142c",
"o  c #1b2b21",
"O  c #25241c",
"+  c #2a2e24",
"@  c #3e362c",
"#  c #353535",
"$  c #3d3a37",
"%  c #02025c",
"&  c #171a59",
"*  c #383e58",
"=  c #222e74",
"-  c #1e562c",
";  c #364224",
":  c #266e04",
">  c #2a7c1c",
",  c #045c60",
"<  c #225e54",
"1  c #307658",
"2  c #423020",
"3  c #473e2f",
"4  c #6e0604",
"5  c #6a3e2c",
"6  c #7e0a54",
"7  c #5a5214",
"8  c #454237",
"9  c #76563c",
"0  c #70640c",
"q  c #7d6909",
"w  c #4c4c4e",
"e  c #5c4e50",
"r  c #5e5844",
"t  c #565554",
"y  c #5c5b5d",
"u  c #464864",
"i  c #5c5c7c",
"p  c #4e6a5c",
"a  c #427a64",
"s  c #5d6369",
"d  c #557d71",
"f  c #6a5e44",
"g  c #656469",
"h  c #696b71",
"j  c #747474",
"k  c #767a7c",
"l  c #7a7a7c",
"z  c #0a0ab4",
"x  c #1618b0",
"c  c #2424dc",
"v  c #0c7e80",
"b  c #324e8c",
"n  c #325a8c",
"m  c #2a6294",
"M  c #4e4e94",
"N  c #566684",
"B  c #566a8c",
"V  c #6a7284",
"C  c #6262ac",
"Z  c #6e6ef4",
"A  c #06820c",
"S  c #1e9634",
"D  c #32861c",
"F  c #26962c",
"G  c #16a24c",
"H  c #1eaa7c",
"J  c #369e44",
"K  c #42be3c",
"L  c #428a64",
"P  c #56966c",
"I  c #4ba551",
"U  c #5aa858",
"Y  c #6e8e54",
"T  c #64ae64",
"R  c #6ebe74",
"E  c #72b66c",
"W  c #72b274",
"Q  c #4cd84c",
"!  c #66d664",
"~  c #068284",
"^  c #0a9a9c",
"/  c #12929c",
"(  c #3a8e9c",
")  c #36a6ac",
"_  c #0ec2c4",
"`  c #528284",
"'  c #569e9c",
"]  c #4e96a4",
"[  c #46b6b4",
"{  c #56babc",
"}  c #6a8e84",
"|  c #7c9498",
" . c #7eca84",
".. c #7ee6b4",
"X. c #46d2d4",
"o. c #4ad6d4",
"O. c #6ec8d0",
"+. c #62dadc",
"@. c #7ac6c4",
"#. c #72dadc",
"$. c #b40210",
"%. c #8e1654",
"&. c #865e3c",
"*. c #8c740f",
"=. c #957d09",
"-. c #9e7e0c",
";. c #be4204",
":. c #b0442c",
">. c #be462c",
",. c #b6522c",
"<. c #ae6e14",
"1. c #9a6e4c",
"2. c #827e7f",
"3. c #ce0604",
"4. c #ca2214",
"5. c #ea0404",
"6. c #ec120c",
"7. c #fd0504",
"8. c #f80e0c",
"9. c #fe1a0c",
"0. c #f21e14",
"q. c #ea260c",
"w. c #fe2628",
"e. c #f22e34",
"r. c #fe3234",
"t. c #fa3e3c",
"y. c #c64e14",
"u. c #ce723c",
"i. c #de7224",
"p. c #ea761c",
"a. c #ea6624",
"s. c #d65254",
"d. c #c2785c",
"f. c #c66a64",
"g. c #fd5d59",
"h. c #e26a64",
"j. c #fa7274",
"k. c #fe767c",
"l. c #fe7e84",
"z. c #ac860c",
"x. c #b68e0c",
"c. c #8a837c",
"v. c #be8a5c",
"b. c #a28a6c",
"n. c #ee8224",
"m. c #ec8c3c",
"M. c #f1993c",
"N. c #df9b5f",
"B. c #c88474",
"V. c #ca9e74",
"C. c #d6a64c",
"Z. c #d4bc60",
"A. c #e6a674",
"S. c #febe64",
"D. c #dede4c",
"F. c #eec448",
"G. c #f7ca57",
"H. c #f8c65c",
"J. c #efc466",
"K. c #eccc79",
"L. c #face6c",
"P. c #fdf161",
"I. c #828384",
"U. c #89898e",
"Y. c #8c8f9a",
"T. c #969294",
"R. c #94969c",
"E. c gray61",
"W. c #929ea4",
"Q. c #86b6bc",
"!. c #98a6a0",
"~. c #be82bc",
"^. c #a7a5a1",
"/. c #a2a2a9",
"(. c #ababa7",
"). c #b3b5b4",
"_. c #bcbcb9",
"`. c #8a8acc",
"'. c #9898e4",
"]. c #a8a2f0",
"[. c #b2b2f4",
"{. c #babafc",
"}. c #86ce84",
"|. c #8ec294",
" X c #96d098",
".X c #8adab4",
"XX c #aed2ac",
"oX c #aecacc",
"OX c #bceee8",
"+X c #c28e8c",
"@X c #da9a8c",
"#X c #ce8aac",
"$X c #cabe9c",
"%X c #daa694",
"&X c #c6b2b4",
"*X c #daaeb4",
"=X c #fc8c90",
"-X c #fa9294",
";X c #fc9c9c",
":X c #faa6a4",
">X c #feaeac",
",X c #f6bcc4",
"<X c #fec69c",
"1X c #fada84",
"2X c #fedeac",
"3X c #fefe8c",
"4X c #fef29c",
"5X c #f4e6b0",
"6X c #c2c2c8",
"7X c #c9c5c4",
"8X c #c2dad4",
"9X c #d3d3d4",
"0X c #d9dadc",
"qX c #cecefc",
"wX c #d5d4ec",
"eX c #d9dbf1",
"rX c #dfddf8",
"tX c #c6e6d0",
"yX c #d6e6d4",
"uX c #cef4ec",
"iX c #daeaec",
"pX c #def8f0",
"aX c #eed9d4",
"sX c #f6cacc",
"dX c #f4d6d4",
"fX c #fad2d4",
"gX c #e6def4",
"hX c #f6eec0",
"jX c #fefec4",
"kX c #fef8d2",
"lX c #e2e2e0",
"zX c #e8e8e9",
"xX c #e1e4f8",
"cX c #e9eef7",
"vX c #e9e9fa",
"bX c #eef0f6",
"nX c #f7e7e9",
"mX c #f6f6f7",
"MX c #f3f1fa",
"NX c #fcfcfb",
"BX c None",
/* pixels */
"BXBXBXBXBXBXBXBXBXBXBXBXBXBXBXBXBXBXBXBXBXBXBXBXBXBXBXBXBXBXBXBXBXBX",
"BXBXBXBXBXBXBXBXBXBXBXBXBXBXBXBXBXBXBXBXBX    BXBXBXBXBXBXBX    BXBX",
"BXBXBXBXBXBXBXBXBXBXBXBXBXBXBXBXBXBXBX    (.  BXBXBXBXBX    4.3.  BX",
"BXBXBXBXBXBXBXBXBXBXBXBXBXBXBXBXBX    ^.mXMX(.  BXBXBX  fX=Xt.4   BX",
"BXBXBXBXBXBXBXBXBXBXBXBXBXBXBX    (.lXNXNXNX0X  BXBX  sXg.8.$.  BXBX",
"BXBXBXBXBXBXBXBXBXBXBXBXBX    ^.MXNXNXNXNXNXNX^.w   s.w.e.f.5   BXBX",
"BXBXBXBXBXBXBXBXBXBXBX    (.zXmXNXNXNXNXNXNXNX0X  v.+XB.&XU.  BXBXBX",
"BXBXBXBXBXBXBXBXBX    ^.zXbXMXmXNXNXNXNXNXNXNX(.$ I.2.R.2.  BXBXBXBX",
"BXBXBXBXBXBXBX    E.xXmXfXbXvXMXNXNXkXkXkXNX9Xf NX# V     BXBXBXBXBX",
"BXBXBXBXBX    W.0XxXdXj.g.,X=X:XnXkX4XP.P.5Xf 9XeXI.  BXBXBXBXBXBXBX",
"BXBXBX    E.bXbXcXdX:X>X;Xg.8.7.a.5XkXP.Z.f jXt U.  w BXBXBXBXBXBXBX",
"BX    E.9XMXvXvX,X-XnXfXl.w.7.5.q.5X3XD.f jXZ.0 $ j I.  BXBXBXBXBXBX",
"BX  /.vXeXvXbXvX*Xh.-Xk.r.8.5.$.#XK.C.r jXK.0 @ I.9X9X  BXBXBXBXBXBX",
"BXBX  eXeXvXMXcXW Y u.9.7.0.%.~.{.`.e jXJ.*.+ j 7XNXNX^.  BXBXBXBXBX",
"BXBX  Y.xXvXNXtX|.tXD <.6.6 C qXxXi kXK.q O y (.mXNXNX0X  BXBXBXBXBX",
"BXBXBX  6XcXMXU yXpXJ > : - M '.B jXK.*.X & ).NXNXNXNXNX(.  BXBXBXBX",
"BXBXBX  Y.cXmXE T  XU A : H = w jXF.=.. % x ].NXNXNXNXMX0X  BXBXBXBX",
"BXBXBXBX  gXmXNXOXJ F G O.) p jXH.q X % x c '.NXNXNXmXvXrXR.  BXBXBX",
"BXBXBXBX  (.cXmXNXT S .X8Xd jXF.=.O & z c Z eXNXNXNXNXxXwXqXw BXBXBX",
"BXBXBXBXBX  eXbXNXcXuX{ s jXF.*.o g E.[.].eXaXzXpX XL gXQ.V N   BXBX",
"BXBXBXBXBX  ^.bXNXmX6Xj jXF.*.o , (.zX7X<X2X;.1...! Q | uXO.u u   BX",
"BXBXBXBXBXBX  zXNX0Xc.jXJ.=.o , v #.0X3 A.5Xa.,.!  XI B iX] n &   BX",
"BXBXBXBXBXBX  (.9Xy jXH.=.o , ~ _ pX0X2 L.M.y.>. .Q 1 d oX( n *   BX",
"BXBXBXBXBXBXBX$ 7 jXL.-.; < v ^ X.NX0X@ M.M.:.@X! I 1 U.@./ b h X BX",
"BXBXBXBXBXBXBX$ kXK.*.O j !.o.+.pXNX0X2 m.p.:.aX XK a W.[ m i h   BX",
"BXBXBXBXBXBX  jX1Xz.3 y 6XbXNXNXNXNX0X# V.n.d.NXXXI d !.' n h y   BX",
"BXBXBXBXBX  jXJ.z.; t ^.mXNXNXNXNXNX0X# ^.N.d.mX0XP | ^.N h s t   BX",
"BXBXBXBX  jXF.q   $ R.mXNXNXNXNXNXNX9X# ^.N.d.MX9X} ).(.U.j h y   BX",
"BXBXBX  jXG.=.  BX  (.MXNXNXNXNXNXlX_.# $XN.%XMX9X_.7X(.^.} j g   BX",
"BXBX  jXH.z.  BXBXBX  0XNXNXNXzX6X  w . b.m.nXiX9X6X_.).(.Y.U.g   BX",
"BX  b.K.x.  BXBXBXBX  (.NXmX_.    BXBX  w f T.(.&X(.T.l h r e $   BX",
"BX  &.*.  BXBXBXBXBXBX  ).    BXBXBXBX  w g /.).).(.W.U.j t 3 w   BX",
"BXBX    BXBXBXBXBXBXBXBX  BXBXBXBXBXBXBX                        BXBX",
"BXBXBXBXBXBXBXBXBXBXBXBXBXBXBXBXBXBXBXBXBXBXBXBXBXBXBXBXBXBXBXBXBXBX"
};
