/* XPM */
static char *magick[] = {
/* columns rows colors chars-per-pixel */
"32 32 201 2",
"   c #000000",
".  c #0c0b0c",
"X  c #120e0c",
"o  c #141413",
"O  c #1a1614",
"+  c #1a1b1c",
"@  c #1e2220",
"#  c #241e20",
"$  c #2a1a34",
"%  c #2a360c",
"&  c #2e3e04",
"*  c #322a1c",
"=  c #222224",
"-  c #2c2c2c",
";  c #343435",
":  c #3a3a3c",
">  c #2a3244",
",  c #265624",
"<  c #3e4244",
"1  c #3e465c",
"2  c #367e7c",
"3  c #4a0e2c",
"4  c #422a0c",
"5  c #5e2214",
"6  c #4e362c",
"7  c #4e3e2c",
"8  c #6a1e1c",
"9  c #6e3a0c",
"0  c #763614",
"q  c #7a2634",
"w  c #5e5234",
"e  c #526a3c",
"r  c #7a5a2c",
"t  c #6e6224",
"y  c #6a6a34",
"u  c #4e4e4c",
"i  c #4d5352",
"p  c #5a4a44",
"a  c #524e54",
"s  c #525254",
"d  c #5a5a5c",
"f  c #4a5a7c",
"g  c #4e6e6c",
"h  c #5e6664",
"j  c #5e6a7c",
"k  c #6e5a48",
"l  c #76724a",
"z  c #666e6c",
"x  c #686a60",
"c  c #6a6a6c",
"v  c #6e7264",
"b  c #766e6c",
"n  c #767664",
"m  c #727a6c",
"M  c #72727c",
"N  c #7e7674",
"B  c #3e228c",
"V  c #6a6e8c",
"C  c #6666ac",
"Z  c #7272d4",
"A  c #668204",
"S  c #7a8224",
"D  c #7e8654",
"F  c #7a965c",
"G  c #528e8c",
"H  c #6e8284",
"J  c #7e9e9c",
"K  c #76ae84",
"L  c #66aab4",
"P  c #7682c4",
"I  c #822e24",
"U  c #8e323c",
"Y  c #b63a0c",
"T  c #8a4624",
"R  c #866e24",
"E  c #9e662c",
"W  c #ae5a04",
"Q  c #a66a2c",
"!  c #a27a3c",
"~  c #ba7a3c",
"^  c #965e4c",
"/  c #964a6c",
"(  c #ae5244",
")  c #be5e54",
"_  c #a66e6c",
"`  c #ba6e7c",
"'  c #c6022c",
"]  c #f62a34",
"[  c #fa3634",
"{  c #fe0244",
"}  c #fe167c",
"|  c #d67264",
" . c #d67e7c",
".. c #f64a4c",
"X. c #ee6ac4",
"o. c #9a8e14",
"O. c #869634",
"+. c #9a9a24",
"@. c #aeaa0c",
"#. c #8e8654",
"$. c #828264",
"%. c #828e64",
"&. c #8eb67c",
"*. c #ba864c",
"=. c #be8a50",
"-. c #aa9a64",
";. c #b2ae54",
":. c #beaa5c",
">. c #aeb26c",
",. c #ca9244",
"<. c #ce9e44",
"1. c #d49e5c",
"2. c #cc9c62",
"3. c #c6a264",
"4. c #eeb64c",
"5. c #e6b654",
"6. c #e6b264",
"7. c #eaba64",
"8. c #eaba74",
"9. c #f2ba64",
"0. c #f2be6c",
"q. c #eec674",
"w. c #f2c474",
"e. c #868684",
"r. c #86969c",
"t. c #8e9690",
"y. c #928e8c",
"u. c #9a868c",
"i. c #929294",
"p. c #8aaeac",
"a. c #8abebc",
"s. c #9ea2a4",
"d. c #9ebabc",
"f. c #aa9284",
"g. c #aeae8c",
"h. c #a6a29c",
"j. c #a6b6b4",
"k. c #b6a6ac",
"l. c #b3b3b5",
"z. c #bbbbbc",
"x. c #8ab2cc",
"c. c #b6b6e4",
"v. c #92e284",
"b. c #aece8c",
"n. c #8aced4",
"m. c #96dadc",
"M. c #bed2dc",
"N. c #c68684",
"B. c #c29a8c",
"V. c #c2aeb4",
"C. c #cabebc",
"Z. c #fe8e8c",
"A. c #e2aaa4",
"S. c #e2b2ac",
"D. c #eab6b4",
"F. c #feaaac",
"G. c #fdb5b4",
"H. c #d2d69c",
"J. c #cec6b4",
"K. c #ded6bc",
"L. c #c2e68c",
"P. c #eac280",
"I. c #ead294",
"U. c #eada93",
"Y. c #f8ce88",
"T. c #fcd284",
"R. c #fed689",
"E. c #feda8c",
"W. c #fede92",
"Q. c #e6ceac",
"!. c #fec2bc",
"~. c #fee294",
"^. c #feea98",
"/. c #faf28c",
"(. c #fee5a4",
"). c #feeca3",
"_. c #feeaac",
"`. c #feeeb3",
"'. c #faeebc",
"]. c #fef2a1",
"[. c #fefcab",
"{. c #fef6bc",
"}. c #c4c4c4",
"|. c #cccccd",
" X c #c6cedc",
".X c #d4d4d4",
"XX c #d2dad4",
"oX c #d6dadc",
"OX c #dad6d4",
"+X c #dcdbdc",
"@X c #ead6d4",
"#X c #f6dad8",
"$X c #fad6d4",
"%X c #e2e2e4",
"&X c #e8eaf0",
"*X c #eafefc",
"=X c #faf6e4",
"-X c #f5f4f3",
";X c #f2fefc",
":X c #fefefc",
">X c None",
/* pixels */
">X>X>X>X>X>X>X>X>X>X>X>X>X>X>X>X>X>X>X>X>X>X>X>X>X>X>X>X>X>X>X>X",
">X>X>X>X>X>X>X>X>X>X>X>X>X>X>X>X>X>X>X>X>X>X>X>X>X>X>X>X>X>X>X>X",
">X>X>X>X>X>X>X>X>X>X>X>X>X      >X>X>X>X>X>X>X      >X>X>X>X>X>X",
">X>X>X>X>X>X>X>X>X>X>X      .       >X>X>X    ~.~.~.    >X>X>X>X",
">X>X>X>X>X>X>X>X>X>X  .     .         >X  ].W.T.T.E.).^.  >X>X>X",
">X>X>X>X>X>X>X>X>X>X              .     [.W.T.W.~.~.W.(.~.  >X>X",
">X>X>X>X>X>X>X>X>X>X  @ o         o ; l {.E.W.^.E.E.E.W.~.  >X>X",
">X>X>X>X      >X>X>X  - - ; ; : : ; = l {.~.~.~.E.~._.{.!   >X>X",
">X>X    ~.~.~.    >X  + > # O + o X # l [.(.`.`.(.'.I.=.E   >X>X",
">X  ^.].~.W.~.^.U.    = i + + O . X # l [.).(.w.9.2.=.2.Q   >X>X",
"  U.^.E.R.W.~.~.~.^.  = u o o O   X # l [.].(.4.0.<.1.4.  >X>X>X",
"  U.~.E.~.W.E.E.R.'.a @ i o O O . o + - -./.{.!.F.$Xr   >X>X>X>X",
"  U.).W.~.W.W.~.].~.7 + u o O O   . o z s.:XG.] Z.#X  >X>X>X>X>X",
"  U.)._.~.(.W.'.P.=.6 @ a o . . = m .X:XX.N.$.x.t.OX:X  >X>X>X>X",
". U.].`.E.Y.q.2.*.1.k o - + c t.:X:X:Xd.J G [ } V.k.;X:X  >X>X>X",
"  U.].'.Y.0.8.3.2.~ k < y.}.:X:X:Xa.p 8 j.z.G.T 1 5 L.:X:X  >X>X",
"  U.].`.T.w.6.,.*.3.&X:X:X;X+XD.& W L , 0 K a +Xj.> S b.:X:X  >X",
"  :.[.`.T.7.P.Q.-X:X:X:Xp.g.#.A c z F O.i.n + l.; j ^ i i.-X:X  ",
">X  3.K.U.5.=X:X:XoXv / P C.= % V I _ % U H.J.;.}.&.B ( H :X@X  ",
">X>X      4 %X:X:XM +.%.e e.x >.$ ` * #.2 R S w h N S.;X-X.X X. ",
">X>X>X>X>X  oX|.:X:XZ @.t z.h.-Xu.3 o.q Y 9 g |.-X:X-X}.z.-X-X  ",
">X>X>X>X>X  -X.X|.:X-Xf h b f.f.c.C ) y v.*X-X:X+X}.z.-X-X|..X. ",
">X>X>X>X>X  .X&X+X|.:X:Xi | { ' m.r.%X}.:X:X}.}.-X-X-Xz.oX+Xl.  ",
">X>X>X>X>X>X  |.-XOX|.:Xl.d M.n...G.:X:X}.l.-X-X.Xl.|.|.l.i.    ",
">X>X>X>X>X>X>X  |.-X.X XG.A. .G.:X:XM.}.-X-X}.|.}.l.y.      >X>X",
">X>X>X>X>X>X>X>X  .X-XXXC.$X@Xz.l.OX=X-Xl.+Xl.y.      >X>X>X>X>X",
">X>X>X>X>X>X>X>X>X  z.-XOX|.z.=X-X.Xz.l.i.      >X>X>X>X>X>X>X>X",
">X>X>X>X>X>X>X>X>X>X  +X-X-X.XM.l.i..     >X>X>X>X>X>X>X>X>X>X>X",
">X>X>X>X>X>X>X>X>X>X>X  .Xl.y.      >X>X>X>X>X>X>X>X>X>X>X>X>X>X",
">X>X>X>X>X>X>X>X>X>X>X>X      >X>X>X>X>X>X>X>X>X>X>X>X>X>X>X>X>X",
">X>X>X>X>X>X>X>X>X>X>X>X>X>X>X>X>X>X>X>X>X>X>X>X>X>X>X>X>X>X>X>X",
">X>X>X>X>X>X>X>X>X>X>X>X>X>X>X>X>X>X>X>X>X>X>X>X>X>X>X>X>X>X>X>X"
};
