/* XPM */
static char *magick[] = {
/* columns rows colors chars-per-pixel */
"34 34 214 2",
"   c #000000",
".  c #121614",
"X  c #1c1e20",
"o  c #1c2224",
"O  c #242624",
"+  c #2a2a2c",
"@  c #353634",
"#  c #38423c",
"$  c #2a5654",
"%  c #3e4a44",
"&  c #32666c",
"*  c #3a6674",
"=  c #3e7274",
"-  c #483e3c",
";  c #5e2a2c",
":  c #6a3239",
">  c #7a3a3c",
",  c #4a622c",
"<  c #46663c",
"1  c #424644",
"2  c #425c4c",
"3  c #4c524c",
"4  c #514e4b",
"5  c #5e4644",
"6  c #52524c",
"7  c #565652",
"8  c #525a54",
"9  c #566e5c",
"0  c #5c6a5c",
"q  c #527a44",
"w  c #5a764c",
"e  c #567e54",
"r  c #4a727c",
"t  c #624a44",
"y  c #724444",
"u  c #7a4a48",
"i  c #62765c",
"p  c #6e725c",
"a  c #6a7e5c",
"s  c #666564",
"d  c #6b6a64",
"f  c #627264",
"g  c #726e6c",
"h  c #72726c",
"j  c #757670",
"k  c #797a74",
"l  c #7e7e7c",
"z  c #365ecc",
"x  c #3e66cc",
"c  c #464a94",
"v  c #465eac",
"b  c #467e84",
"n  c #4e769c",
"m  c #4a6eb4",
"M  c #566eac",
"N  c #527adc",
"B  c #4266fc",
"V  c #5a7ef4",
"C  c #5e8e44",
"Z  c #5e9674",
"A  c #668e74",
"S  c #669a64",
"D  c #72826c",
"F  c #728e64",
"G  c #76827c",
"H  c #7d827e",
"J  c #7a927c",
"K  c #76a664",
"L  c #5a8e94",
"P  c #6e8e9c",
"I  c #729a80",
"U  c #6296a4",
"Y  c #6a92ac",
"T  c #769aa4",
"R  c #7ea294",
"E  c #72a6a4",
"W  c #5a86cc",
"Q  c #7a8ecc",
"!  c #7692cc",
"~  c #6286fc",
"^  c #6a86fc",
"/  c #6e96ec",
"(  c #708ef8",
")  c #7a96ec",
"_  c #7e9ee4",
"`  c #7eaacc",
"'  c #76a2fc",
"]  c #82221c",
"[  c #be1a1c",
"{  c #aa2224",
"}  c #86764c",
"|  c #826e6c",
" . c #c22a2c",
".. c #e22a2c",
"X. c #ea2624",
"o. c #de5a5c",
"O. c #fa6664",
"+. c #8a924c",
"@. c #8a9e5c",
"#. c #968a44",
"$. c #868a74",
"%. c #829260",
"&. c #82aa7c",
"*. c #aeb66c",
"=. c #8aca4c",
"-. c #96ce74",
";. c #c6b25c",
":. c #d2be5c",
">. c #c6be6c",
",. c #d6de74",
"<. c #e6d67c",
"1. c #848483",
"2. c #868a87",
"3. c #8b8c8c",
"4. c #8e9694",
"5. c #939393",
"6. c #9c9c9c",
"7. c #9a96a4",
"8. c #92a2ac",
"9. c #96aaa4",
"0. c #9eaea4",
"q. c #96b2a4",
"w. c #a69a94",
"e. c #b6928c",
"r. c #a6ae94",
"t. c #b2be94",
"y. c #a3a6a4",
"u. c #a2aaac",
"i. c #aaa2a4",
"p. c #aeaeac",
"a. c #b3b4b5",
"s. c #b6beb4",
"d. c #bdbcbc",
"f. c #869ecc",
"g. c #8a92ec",
"h. c #82aedc",
"j. c #8aa6d4",
"k. c #94a6c0",
"l. c #9ebacc",
"z. c #86a6f4",
"x. c #86aaf4",
"c. c #8eb2f4",
"v. c #96aaf4",
"b. c #9eaaf4",
"n. c #9cbae4",
"m. c #96bafc",
"M. c #9ab6f4",
"N. c #9cbaf4",
"B. c #a2bafc",
"V. c #aabef4",
"C. c #9ec694",
"Z. c #aed29c",
"A. c #a6c2bc",
"S. c #b6dea4",
"D. c #bed2bc",
"F. c #bedeb4",
"G. c #a6c6c4",
"H. c #accec4",
"J. c #acc2d0",
"K. c #bedacc",
"L. c #bed6dc",
"P. c #a6caec",
"I. c #aecae4",
"U. c #acc2fc",
"Y. c #aecef4",
"T. c #b2c6fc",
"R. c #bcccfc",
"E. c #bbd2fc",
"W. c #ce9694",
"Q. c #c2c2bc",
"!. c #c2d2b4",
"~. c #c2e6b4",
"^. c #def2a4",
"/. c #eae294",
"(. c #f2e28c",
"). c #faf29c",
"_. c #f8fb99",
"`. c #e2f2b4",
"'. c #f6e6a4",
"]. c #fefaa4",
"[. c #f6fab4",
"{. c #fafeb4",
"}. c #c6c6c6",
"|. c #cac6cc",
" X c #cccccc",
".X c #cadec4",
"XX c #c2ded4",
"oX c #d2d2d0",
"OX c #d2d6dc",
"+X c #dbdcdc",
"@X c #c2cefc",
"#X c #c6deec",
"$X c #cedaec",
"%X c #c2d6f8",
"&X c #c6dbfc",
"*X c #c8d6fc",
"=X c #d3defc",
"-X c #daead4",
";X c #daeedc",
":X c #cee4e4",
">X c #dae2f4",
",X c #dae6fc",
"<X c #deeefc",
"1X c #e2e2e4",
"2X c #e2eee4",
"3X c #eaebec",
"4X c #e4eaf0",
"5X c #eaf6fc",
"6X c #ecfaf8",
"7X c #f2f2f4",
"8X c #f6f6f8",
"9X c #f2fbfc",
"0X c #fcfefc",
"qX c None",
/* pixels */
"qXqXqXqXqXqXqXqXqXqXqXqXqXqXqXqXqXqXqXqXqXqXqXqXqXqXqXqXqXqXqXqXqXqX",
"qXqXqXqXqXqXqXqXqXqXqXqXqX            qXqXqXqXqXqXqXqXqXqXqXqXqXqXqX",
"qXqXqXqXqXqXqXqXqXqXqX    n.j.f.Q Y !     qXqXqXqXqXqXqXqXqXqXqXqXqX",
"qXqXqXqXqXqXqXqXqX    k.l.m.T.N.I.D.G.Y *     qXqXqXqXqXqXqXqXqXqXqX",
"qXqXqXqXqXqXqXqX  k.p.OX$X%XR.*XL.9.G.n b & $   qXqXqXqXqXqXqXqXqXqX",
"qXqXqXqXqXqXqX  I !.5X9X5X,X;XI.#XG.K.R T J.L =   qXqXqXqXqXqXqXqXqX",
"qXqXqXqXqXqXqX  A.2X0X0X0X9X6X:XXXS.F.Z.&.I Z q   qXqXqXqXqXqXqXqXqX",
"qXqXqXqXqXqX  / b.=X5X0X7X+XR.:X~.!..X-.S b P f 3   qXqXqXqXqXqXqXqX",
"qXqXqXqXqXqX  z.V.>X4X<X=X=X#X~.A._ H.C.&.A J 2.k   qXqXqXqXqXqXqXqX",
"qXqXqXqXqX  N ^ R.E.=X&X&XR.XX.XI.c.h.N W P t.r.0 s   qXqXqXqXqXqXqX",
"qXqXqXqXqX  v ! v.M.R.E.*XR.E.-X`.{.2X-X!.q.@.$.d 6   qXqXqXqXqXqXqX",
"qXqXqXqXqX  m ! g.z.m.M.@XU.:X`.[.).'.(.;.+.F $.p d   qXqXqXqXqXqXqX",
"qXqXqXqXqX  8.0.) V ' ' E.Y.[._._.<.<./.:.@.9 p C 7   qXqXqXqXqXqXqX",
"qXqXqXqXqX  r q.J.( V V N.M._.]._.>.+.} #.*.J G $ 7   qXqXqXqXqXqXqX",
"qXqXqXqXqX  < * R H.z.^ T.P.^.,.F 4 l 5.s 4 2 2 s -   qXqXqXqXqXqXqX",
"qXqXqXqXqXqX  w K =.E ~ U.` D 4 w.1XoXoX1X|.k 7     qXqXqXqXqXqXqXqX",
"qXqXqXqXqXqX  D , C z B M 4 i.|. XQ.Q.Q.d. XoX X4   qXqXqXqXqXqXqXqX",
"qXqXqXqXqXqXqX  a i c 4 |. XQ.Q.}.Q.Q.Q.Q.Q.Q.d. X3X    qXqXqXqXqXqX",
"qXqXqXqXqXqXqX  % 4 p.|.Q.Q.Q.Q.Q.Q.Q.Q.Q.Q.Q.Q.d.d. X+X    qXqXqXqX",
"qXqXqXqXqXqX  # }. XQ.Q.Q.Q.Q.Q.Q.Q.Q.Q.Q.Q.Q.Q.Q.Q.}.+X Xy.  qXqXqX",
"qXqXqXqX    a.|. XQ.Q.Q.Q.Q.Q.Q.Q.Q.Q.Q.Q.Q.}.d.Q.1X+Xd.5.5.  qXqXqX",
"qXqXqX+ $.+X3X+XQ.Q.Q.Q.Q.Q.Q.Q.Q.Q.Q.Q.Q.d.d.oX4Xd.7.2.5.6.  qXqXqX",
"qXqXqX. O - r.3X1X XQ.Q.Q.Q.Q.Q.Q.d.d.d.Q. X+X|.3.5.5.5.6.9.  qXqXqX",
"qXqXqXO t n @ h |.8X+Xa.d.Q.Q.Q.d.d.a. X1XQ.r.3.5.3.3.5.i.  qXqXqXqX",
"qXqXqXX | O.; # @ 3.+X1X Xd.a.a.d.d.-Xd.5.| 1.2.2.3.5.    qXqXqXqXqX",
"qXqXqX+ - { y W.: 1 @ 7.8X1XQ.|.+X+Xy.2.n 1.I 2.1.    qXqXqXqXqXqXqX",
"qXqXqXqXo : y X.; e.u % s a.1X1Xp.1.| k | | k k   qXqXqXqXqXqXqXqXqX",
"qXqXqXqXqX    : 7 o.[ g t @ 4 d g j j j k $.    qXqXqXqXqXqXqXqXqXqX",
"qXqXqXqXqXqXqX    : t e...> @ I g g j k d   qXqXqXqXqXqXqXqXqXqXqXqX",
"qXqXqXqXqXqXqXqXqX    >  .u @ l j g s     qXqXqXqXqXqXqXqXqXqXqXqXqX",
"qXqXqXqXqXqXqXqXqXqXqX  : 7 + k j g   qXqXqXqXqXqXqXqXqXqXqXqXqXqXqX",
"qXqXqXqXqXqXqXqXqXqXqXqX.   O d     qXqXqXqXqXqXqXqXqXqXqXqXqXqXqXqX",
"qXqXqXqXqXqXqXqXqXqXqXqXqXqX    qXqXqXqXqXqXqXqXqXqXqXqXqXqXqXqXqXqX",
"qXqXqXqXqXqXqXqXqXqXqXqXqXqXqXqXqXqXqXqXqXqXqXqXqXqXqXqXqXqXqXqXqXqX"
};
