/* XPM */
static char *magick[] = {
/* columns rows colors chars-per-pixel */
"32 32 166 2",
"   c black",
".  c #004103",
"X  c #004a0d",
"o  c #005313",
"O  c #005218",
"+  c #00591a",
"@  c #005b21",
"#  c #00592a",
"$  c #005c31",
"%  c #006626",
"&  c #007724",
"*  c #007d28",
"=  c #004c4c",
"-  c #005353",
";  c #005a5a",
":  c #006f54",
">  c #006363",
",  c #006b6b",
"<  c #007b60",
"1  c #007272",
"2  c #007a7a",
"3  c #424202",
"4  c #474708",
"5  c #494901",
"6  c #4a4a09",
"7  c #585858",
"8  c blue",
"9  c #00872a",
"0  c #008c21",
"q  c #00882c",
"w  c #008730",
"e  c #009221",
"r  c #00912e",
"t  c #009e27",
"y  c #009234",
"u  c #009f39",
"i  c #00a117",
"p  c #00bf08",
"a  c #00bc11",
"s  c #00ac32",
"d  c #00bc24",
"f  c #008676",
"g  c #008579",
"h  c #00917f",
"j  c #00a851",
"k  c #00b644",
"l  c #339966",
"z  c #00cf00",
"x  c #00cb0b",
"c  c #00d100",
"v  c #00d609",
"b  c #00db00",
"n  c #00d91e",
"m  c #00ca22",
"M  c #00cc2e",
"N  c #00e600",
"B  c #00eb00",
"V  c #00f300",
"C  c #00fc00",
"Z  c #3fc677",
"A  c #008383",
"S  c #008b8b",
"D  c #00928b",
"F  c #009393",
"G  c #009a9a",
"H  c #00a79e",
"J  c #00a3a3",
"K  c #00abab",
"L  c #0ba9a9",
"P  c #01b3b3",
"I  c #358484",
"U  c #21a8a8",
"Y  c #3eaaaa",
"T  c #3abebe",
"R  c #0099cc",
"E  c #00e58f",
"W  c #02c4c4",
"Q  c #00c9c6",
"!  c #00cccc",
"~  c #00d3d3",
"^  c #01dbdb",
"/  c #0ad8d8",
"(  c #17c5c5",
")  c #13cbcb",
"_  c #00e2e2",
"`  c #00eaea",
"'  c #0aeded",
"]  c #00f3f3",
"[  c #00fafa",
"{  c #16e7e7",
"}  c #2ad2d2",
"|  c #2cd9d9",
" . c #34d7d7",
".. c #26eeee",
"X. c #2ce5e5",
"o. c #21f6f6",
"O. c #35f3f3",
"+. c #4ac1c1",
"@. c #5dd9d9",
"#. c #70e2e2",
"$. c #76ecec",
"%. c #71f6f6",
"&. c #79f0f0",
"*. c red",
"=. c #9f029f",
"-. c #901190",
";. c #902290",
":. c #a904a9",
">. c #a143a1",
",. c #bc50bc",
"<. c #ba75ba",
"1. c #bc7bbc",
"2. c #db3edb",
"3. c #d557d5",
"4. c #a2a265",
"5. c #a4a46c",
"6. c #a8a87b",
"7. c #80c317",
"8. c #80d115",
"9. c #80e20e",
"0. c #80ed0e",
"q. c #80ea11",
"w. c #80f526",
"e. c #dada00",
"r. c yellow",
"t. c #e1e15a",
"y. c #ecec6b",
"u. c #baba8b",
"i. c #a0a0a0",
"p. c #a4bdbd",
"a. c #8dd5d5",
"s. c #90dddd",
"d. c #9bdada",
"f. c #86e9e9",
"g. c #88e1e1",
"h. c #8beeee",
"j. c #8df9f9",
"k. c #9de6e6",
"l. c #96f4f4",
"z. c #98f2f2",
"x. c #b0f2f2",
"c. c #bef2f2",
"v. c #cf81cf",
"b. c #dab1da",
"n. c #e69ee6",
"m. c #f3a9f3",
"M. c #f2bbf2",
"N. c #c0c080",
"B. c #e6e68a",
"V. c #efef9d",
"C. c #ebeba5",
"Z. c #f0f0b3",
"A. c #f4f4ba",
"S. c #f9f9ba",
"D. c #cbf4f4",
"F. c #c9fafa",
"G. c #daf2f2",
"H. c #d9fcfc",
"J. c #f6f6c3",
"K. c #f5f5ce",
"L. c #f7f7d5",
"P. c #e4fafa",
"I. c #edfdfd",
"U. c #f4fdfd",
"Y. c #fefefe",
"T. c None",
/* pixels */
"T.T.T.T.T.T.T.T.T.T.T.T.T.T.T.T.T.T.T.T.T.T.T.T.T.T.T.T.T.T.T.T.",
"T.T.T.T.T.T.T.T.T.T.T.    T.T.T.T.T.T.T.T.T.T.T.T.T.T.T.T.T.T.T.",
"T.T.T.T.T.T.T.T.T.T.  M.m.    T.T.T.T.T.T.T.T.T.T.T.T.T.T.T.T.T.",
"T.T.T.T.T.T.T.T.T.T.  n.2.3.v.    T.T.T.T.T.T.T.T.T.T.T.T.T.T.T.",
"T.T.T.T.T.T.T.T.T.  b.,.:.=.-.>.<.    T.T.T.      T.T.T.T.T.T.T.",
"T.T.T.T.T.T.                                d.Y           T.T.T.",
"T.T.T.T.T.  L.J.S.S.S.S.A.A.A.A.      *.s.} L G ;   J.u.4   T.T.",
"T.T.T.T.T.  K.V.y.y.y.y.y.      P.D.g.*.P K J G ,   A.6.4   Y.Y.",
"T.T.T.T.T.  Z.t.e.e.      P.c.f. .) W *.P P   J 2   B.5.4   Y.Y.",
"T.T.T.T.T.  C.      I.F.&.X.^ ~ ! Q W *.H P K J F ;   4.6     T.",
"T.T.T.T.T.    Y.H.j.O.' ` _ ^ ~ ~ Q *.r.*.D K K J >   4.4   1.  ",
"T.T.T.    U.F.%.o.] ] ] ` ` ^ Q ~ *.r.Y.r.*.K   J 1   N.6   ;.  ",
"T.T.  Y.I.l...] [ [ ] ] ` *.*.*.*.r.Y.Y.Y.r.*.*.*.*.;   6     T.",
"T.T.  Y.z.{ ` ] ] ] R R R Z B j s *.r.Y.r.*.# K J G >   5     T.",
"T.T.  Y.$._ ` ` ] R Y.Y.k Y.Y.M   r.*.r.*.v # K   G 1   5   T.T.",
"T.T.T.  h.^ _ ` ` R r.8.a . r.  Y.  z *.q r.0 < G G A ;     T.T.",
"T.T.T.  x.^ _ ^ R R R r.c %   Y.i.  r.*.l r.x . G G S ;     T.T.",
"T.T.T.  D./ ^ R Y.Y.o r.C   Y.i.  @ r.*.l 0.N # D   S >     T.T.",
"T.T.T.T.  | ~ R E r.d X   8 i.  B @ q.*.l 9 r.e $ F F 2 -   T.T.",
"T.T.T.T.  #.~ ~ R r.B   8     8.V y w r.i O r.x . S S A ;   T.T.",
"T.T.T.T.  c.} ! R w.  8     t + r.m + r.b O 9.V # :   A >   T.T.",
"T.T.T.T.T.  @.W R   8     r.p . r.B @ 9.C q & r.    S A , -   T.",
"T.T.T.T.T.  k.(   8     X r.c + 8.C u * r.      F S A 2 1 =   T.",
"T.T.T.T.T.  G.  8     C q 7.C e X r.      G g S S A 1 > - =   T.",
"T.T.T.T.T.T.  8     R r.n . r.      J f G F S 2 , ; -       T.T.",
"T.T.T.T.T.  8     K R r.      J J J G F S 2 > ;       3 3   T.T.",
"T.T.T.T.  Y.    +.K     J J J J G F 2 , >                 T.T.T.",
"T.T.T.  Y.i.    d.J J G G G S 2 , ;       T.T.T.T.T.T.T.T.T.T.T.",
"T.T.  Y.i.  T.  G.U G S , ; ;       T.T.T.T.T.T.T.T.T.T.T.T.T.T.",
"T.  7 i.  T.T.  p.I > -       T.T.T.T.T.T.T.T.T.T.T.T.T.T.T.T.T.",
"T.  7   T.T.T.T.        T.T.T.T.T.T.T.T.T.T.T.T.T.T.T.T.T.T.T.T.",
"T.T.  T.T.T.T.T.T.T.T.T.T.T.T.T.T.T.T.T.T.T.T.T.T.T.T.T.T.T.T.T."
};
