/* XPM */
static char *magick[] = {
/* columns rows colors chars-per-pixel */
"32 32 212 2",
"   c #010102",
".  c #060614",
"X  c #02021c",
"o  c #150204",
"O  c #1e0204",
"+  c #1a0e0c",
"@  c #020229",
"#  c #020239",
"$  c #220404",
"%  c #2e0204",
"&  c #261214",
"*  c #2e1a14",
"=  c #340404",
"-  c #3a0204",
";  c #3e0a0c",
":  c #302e28",
">  c #3e2b24",
",  c #3a3634",
"<  c #3c3a37",
"1  c #02024c",
"2  c #020659",
"3  c #0e0e58",
"4  c #121254",
"5  c #020465",
"6  c #020a6f",
"7  c #490204",
"8  c #560204",
"9  c #5a0604",
"0  c #4e322c",
"q  c #423e38",
"w  c #522624",
"e  c #5e2a24",
"r  c #620604",
"t  c #730604",
"y  c #7a0204",
"u  c #7b0a04",
"i  c #6e221c",
"p  c #43423f",
"a  c #4e4234",
"s  c #464644",
"d  c #4e4e44",
"f  c #4c4a48",
"g  c #54524e",
"h  c #5c5b4c",
"j  c #5e5e74",
"k  c #625244",
"l  c #6a5a4c",
"z  c #625e54",
"x  c #6e5e54",
"c  c #72524c",
"v  c #7a5a4c",
"b  c #656355",
"n  c #6b6254",
"m  c #6a665d",
"M  c #6b6b5c",
"N  c #72665c",
"B  c #7c6a5c",
"V  c #6e6a6c",
"C  c #6e6e74",
"Z  c #726e64",
"A  c #737364",
"S  c #7a7667",
"D  c #7c7b6c",
"F  c #020a8f",
"G  c #0a0e8f",
"H  c #020a9d",
"J  c #1e1e84",
"K  c #0206ac",
"L  c #020ea4",
"P  c #020ab3",
"I  c #2a2a84",
"U  c #0204c5",
"Y  c #0206dc",
"T  c #020ad4",
"R  c #0a0edc",
"E  c #1216cc",
"W  c #0202ef",
"Q  c #161af4",
"!  c #181ef4",
"~  c #2e32dc",
"^  c #2e2eec",
"/  c #222af4",
"(  c #3236e4",
")  c #363af4",
"_  c #3b42cf",
"`  c #6a6ebc",
"'  c #7676bc",
"]  c #464ed4",
"[  c #626efc",
"{  c #7682fc",
"}  c #860604",
"|  c #830a04",
" . c #861e1c",
".. c #960604",
"X. c #920a0c",
"o. c #9c0b0a",
"O. c #a50604",
"+. c #aa0204",
"@. c #a90b0c",
"#. c #ae1a14",
"$. c #be0604",
"%. c #b90c0c",
"&. c #a6322c",
"*. c #96463c",
"=. c #9e4a44",
"-. c #925a4c",
";. c #827e6c",
":. c #8e7e6c",
">. c #927e6c",
",. c #9a7264",
"<. c #cc0604",
"1. c #cd0a0c",
"2. c #d50d0c",
"3. c #dd0404",
"4. c #de0e0c",
"5. c #c22e24",
"6. c #d22624",
"7. c #de2e2c",
"8. c #da362c",
"9. c #de3e34",
"0. c #e50204",
"q. c #e20e0c",
"w. c #ed0604",
"e. c #f20304",
"r. c #fa0404",
"t. c #fd1a19",
"y. c #e6261c",
"u. c #f22a2c",
"i. c #fe3234",
"p. c #de463c",
"a. c #e2423c",
"s. c #da4a44",
"d. c #d6564c",
"f. c #d66654",
"g. c #c67e6c",
"h. c #de7664",
"j. c #f24a44",
"k. c #fc5c5c",
"l. c #fa6a6c",
"z. c #848272",
"x. c #8a867c",
"c. c #8d8a78",
"v. c #968674",
"b. c #90867c",
"n. c #968a74",
"m. c #928e7c",
"M. c #96927d",
"N. c #ca927c",
"B. c #969684",
"V. c #9b9584",
"C. c #9e9a84",
"Z. c #9692a4",
"A. c #a19e87",
"S. c #a6a28c",
"D. c #aaa69c",
"F. c #aeaa94",
"G. c #b0ae94",
"H. c #b6b298",
"J. c #bab69c",
"K. c #beba9c",
"L. c #b6aea4",
"P. c #b6b6b4",
"I. c #babab9",
"U. c #969aec",
"Y. c #a6aefc",
"T. c #a6b2fc",
"R. c #b2bafc",
"E. c #bac2fc",
"W. c #de9a84",
"Q. c #dea29c",
"!. c #c6aaa4",
"~. c #c2bea1",
"^. c #cabab4",
"/. c #dcbabc",
"(. c #fe9694",
"). c #fb9b9c",
"_. c #e6babc",
"`. c #eab6b4",
"'. c #eebabc",
"]. c #c6c2a4",
"[. c #c8c6ac",
"{. c #cecaab",
"}. c #cacab4",
"|. c #c6d6bc",
" X c #ced4bc",
".X c #d6c2bc",
"XX c #d2ceb7",
"oX c #decab4",
"OX c #d5d2b5",
"+X c #d2d6bc",
"@X c #d2dabc",
"#X c #dad6b7",
"$X c #dedabc",
"%X c #e2debc",
"&X c #e6e2b4",
"*X c #dec6c4",
"=X c #dadbc2",
"-X c #fec6c4",
";X c #fed2d1",
":X c #e5e2c5",
">X c #ece5c4",
",X c #eeeacb",
"<X c #e9ead4",
"1X c #eaeedc",
"2X c #f2ebcc",
"3X c #f6f6d4",
"4X c #faf4d4",
"5X c #e3eafc",
"6X c #eef6fc",
"7X c #f2fafc",
"8X c #fef5f4",
"9X c None",
/* pixels */
"9X9X9X9X9X9X9X9X9X9X9X9X9X9X9X9X9X9X9X9X9X9X9X9X9X9X9X9X9X9X9X9X",
"9X                                                              ",
"9X  4X4X4X4X4X4X4X4XJ.z.2X2X2XQ.h.g.!.2X2XD 2X,X2XQ.h.g.!.2X2X  ",
"9X  4X4X4X4X4X4X2X2XJ.M &XoXs.l.i.0.+.-.:XD &XoXs.l.i.0.+.-.:X  ",
"9X  4X4X4X4X4X4X2X2XK.m &Xd.).8X;Xe.1.t x.z.:Xd.).4X;Xe.1.t z.  ",
"9X  4X4X4X4X2X,X2X>XJ.M '.w.).8X-X3.%.t 0 D '.0.).8X-X3.%.t 0   ",
"9X  4X4X4X2X2X2X,X,XH.M `.0.t.k.u.1.@.r * M `.0.t.k.u.<.@.r *   ",
"9X  4X2X2X2X2X>X>X>XJ.M /.<.q.4.1.o.} - > D /.$.q.4.1.@.| = >   ",
"9X  4X,X>X>X>X>X:X>XJ.M %X*.O.%.o.u 7 o n ;.%X*.+.%.o.t 7 o x   ",
"9X  4X>X,X>X>X>X>X:XJ.b >X[.e 9 8 % o > OXD :X[.e 8 8 = o > XX  ",
"9X  J.J.J.J.J.J.J.J.J.m %X=X+Xn < q B #X:XS %X=X+Xn < < B #X%X  ",
"9X  D b z b M b z b m g x.h m A Z M Z b b f A b b m m b m m h   ",
"9X  3X3X3X`.h._.2X3X4XA >X>X>X`.h.'.&X2X>XA }.[.[.P.' P.[.}.[.  ",
"9X  =X{.f.8.6.&.,. X#Xh <X|.N.9.7.&.=.A.%XA %XD.^ ) Q U G C K.  ",
"9X  .Xa.).).t.2.| v #Xb 1XN.j.-Xl.e.1.i G.D XX~ { 6XT.U K 3 x.  ",
"9X  W.l.8X8Xk.2.o.; V.V oXy.-X8X8Xw.1.y k D I.W E.6X5XU H 5 f   ",
"9X  p.i.;X;Xy.1...= N M '.w.l.8X(.3.%.t > M P.W / U._ K F 1 <   ",
"9X  8.r.r.w.1.o.t $ l M _.3.r.e.0.%.o.7 * M P.U T U U F 5 @ s   ",
"9X  N.<.4.%.@.| 7 o v.Z *X#.2.2.%.o.t % a S ~.J H H F 2 # . M   ",
"9X  ^. ...X.t 7 o > XXb <X,.} o.} r % + v.D OXD 3 2 # X   s F.  ",
"9X  =XJ.c = O & h }.OXb <X+Xv.w % O : v.$XA [.K.S.b s g x.J.G.  ",
"9X  D b b b b b z b b g z.h b A M m Z m b d A b z m M b M m h   ",
"9X  OXOXOXP.' P.OXOXOXA [.{.[.P.' P.[.{.{.A K.J.J.K.J.J.J.J.J.  ",
"9X  #XL.~ ) Q U G j {.M &XD.^ ( ! U G C K.M J.A.A.A.S.C.C.V.C.  ",
"9X  [._ [ 6XR.R K 2 z.A XX~ { 7XT.U K 3 c.A J.A.C.C.C.C.V.V.V.  ",
"9X  ' W Y.7X5XE L 5 p M I.W E.6X5XU L 5 f A P.C.A.C.C.V.V.B.V.  ",
"9X  ` W ! U.] K F 2 : b P.W ^ U._ U F 2 < M J.C.C.B.B.V.M.M.m.  ",
"9X  Z.U T Y P F 6 @ < b I.U Y U P F 6 X p Z J.V.C.B.C.B.M.M.M.  ",
"9X  K.I K F F 5 #   V M [.J H H F 1 # . A A K.B.V.M.M.M.m.m.m.  ",
"9X  [.B.4 1 # @   < J.b OXD 3 1 # X   s F.m J.V.M.M.M.M.m.c.n.  ",
"9X  K.~.G.m s d m.~.~.S }.J.S.M f g b.J.H.S J.C.V.M.V.m.M.B.c.  ",
"9X                                                              "
};
