/* XPM */
static char *magick[] = {
/* columns rows colors chars-per-pixel */
"32 32 42 1",
"  c black",
". c #54450a",
"X c #62500c",
"o c #675614",
"O c #7a6619",
"+ c #7a681f",
"@ c #8d7823",
"# c #8d7929",
"$ c #a08829",
"% c #a08a31",
"& c #b39b3b",
"* c #c49d00",
"= c #c6a934",
"- c #c6aa39",
"; c #d9ba3b",
": c #c6ac42",
"> c #c6ad49",
", c #d9bd46",
"< c #d9bd4e",
"1 c #d9bf54",
"2 c #ffd20c",
"3 c #ffd312",
"4 c #ffd41b",
"5 c #ffd625",
"6 c #ffd72b",
"7 c #ffd834",
"8 c #ffda3e",
"9 c #ecce4e",
"0 c #eccf59",
"q c #ffdb44",
"w c #ffdc4a",
"e c #ffde53",
"r c #ffe05d",
"t c #ffe163",
"y c #ffe26c",
"u c #ffe476",
"i c #ffe57c",
"p c #ffe682",
"a c #ffe788",
"s c #ffe88f",
"d c #ffe995",
"f c None",
/* pixels */
"ffffffffffffffffffffffffffffffff",
"ffffffffffffffffffffffffffffffff",
"ffffffffffffffffffffffffffffffff",
"                                ",
" dXddXddXddXddXddXddXddXddXddX* ",
" s.ss.ss.ss.ss.ss.ss.ss.ss.ss.* ",
" a.aa.aa.aa.aa.aa.sa.sa.aa.aa.* ",
" p.pp.pp.ai.ai.ii.ia.ii.ia.ia.* ",
" iiiiiii.iiiiiiii.iiiiiiii.iii* ",
" uuuuuuu.uuuuuuuu.uuuuuuui.uuu* ",
" uyuyuyu.yyyyuyyy.uyuyyyyu.yuy* ",
" tyt1#.y1+o1tyyytytyyt>##%1+o1* ",
" tyt0>.t%&1%ttytttttyt&11$%&<%* ",
" eette.e@:e@etetrrrrete>.<@:e@* ",
" eeeee.e@-e@eeeeeeeeee,9,@@-e@* ",
" eeeee.e-OO-eeeeeeeeew$$O$-O+-* ",
" wwwww=ww;=wwwwwwwwwwww;=ww;=w* ",
" qqqqqqqqqqqqqqqqqqqqqqqqqqqqq* ",
" 8q8888888qq88888q88qq888q8q88* ",
" 7..777..7777.7777777777777777* ",
" 777.7.77.76..7777776777677777* ",
" 6..66.66.666.6666666666666666* ",
" 555.55...555.5555555555555555* ",
" 444.4454.454.4445444544544454* ",
" 4..444..4444.4444444444444444* ",
" 33333323323323323232323323322* ",
" 22222222222222222222222222222* ",
" ****************************** ",
"                                ",
"ffffffffffffffffffffffffffffffff",
"ffffffffffffffffffffffffffffffff",
"ffffffffffffffffffffffffffffffff"
};
