/* XPM */
static char *magick[] = {
/* columns rows colors chars-per-pixel */
"36 36 175 2",
"   c black",
".  c #032230",
"X  c #04273f",
"o  c #320514",
"O  c #311d04",
"+  c #070f46",
"@  c #091658",
"#  c #062a4f",
"$  c #152044",
"%  c #182a5d",
"&  c #062f6d",
"*  c #082173",
"=  c #1a2e61",
"-  c #2c2f4d",
";  c #283741",
":  c #374a5e",
">  c #410515",
",  c #481609",
"<  c #461b16",
"1  c #530614",
"2  c #5b160a",
"3  c #402b05",
"4  c #5f201a",
"5  c #513d06",
"6  c #432930",
"7  c #423929",
"8  c #4f362e",
"9  c #70060e",
"0  c #761409",
"q  c #64201b",
"w  c #60393f",
"e  c #404708",
"r  c #454516",
"t  c #555a09",
"y  c #5e5d19",
"u  c #494e2d",
"i  c #5f5538",
"p  c #6f5d06",
"a  c #63601a",
"s  c #737409",
"d  c #555959",
"f  c #585751",
"g  c #585858",
"h  c #4c5475",
"j  c #77534d",
"k  c #74764d",
"l  c #092e98",
"z  c #1a3585",
"x  c #213e80",
"c  c #253f92",
"v  c #1f4ba4",
"b  c #21448c",
"n  c #224593",
"m  c #2246a3",
"M  c #234aac",
"N  c #224bb1",
"B  c #2952ae",
"V  c #2655b5",
"C  c #2c58b1",
"Z  c #3d5ea2",
"A  c #1855e1",
"S  c #1453f4",
"D  c #1b5ef6",
"F  c #2255c9",
"G  c #2854c3",
"H  c #285ecb",
"J  c #2056de",
"K  c #265ad1",
"L  c #275eda",
"P  c #3553d4",
"I  c #2452fb",
"U  c #2855fb",
"Y  c #2161f2",
"T  c #366fef",
"R  c #5968b0",
"E  c #66799f",
"W  c #4c7dd7",
"Q  c #4861fb",
"!  c #578dfc",
"~  c #7a9cf3",
"^  c #7fa8fc",
"/  c #9c1209",
"(  c #88231b",
")  c #822322",
"_  c #8f2322",
"`  c #952423",
"'  c #943026",
"]  c #a62521",
"[  c #af2a24",
"{  c #a43e3f",
"}  c #b32723",
"|  c #b12a29",
" . c #b82827",
".. c #b3302d",
"X. c #817a22",
"o. c #b26b5b",
"O. c #a16968",
"+. c #c62c28",
"@. c #cb2823",
"#. c #cd2b29",
"$. c #d52926",
"%. c #d32d28",
"&. c #dc2d28",
"*. c #e41c18",
"=. c #f31913",
"-. c #f92117",
";. c #f8241d",
":. c #e02922",
">. c #f42822",
",. c #fd3c26",
"<. c #f13c37",
"1. c #d64a37",
"2. c #fd4029",
"3. c #d94e4f",
"4. c #fe5858",
"5. c #fd684a",
"6. c #f57e7b",
"7. c #87851a",
"8. c #9a9509",
"9. c #8e8521",
"0. c #948b23",
"q. c #939226",
"w. c #a59c21",
"e. c #a3993e",
"r. c #ada524",
"t. c #b1a62b",
"y. c #b4aa25",
"u. c #a09b67",
"i. c #aab15a",
"p. c #c5bc28",
"a. c #cdbf28",
"s. c #cbc122",
"d. c #cfd536",
"f. c #d3c526",
"g. c #d1c728",
"h. c #dfd422",
"j. c #dbd028",
"k. c #e3d318",
"l. c #e0d921",
"z. c #f2e513",
"x. c #f7ea1c",
"c. c #f8eb17",
"v. c #f3e622",
"b. c #f0e537",
"n. c #f9fc25",
"m. c #f9fc29",
"M. c #d8c94d",
"N. c #edfc49",
"B. c #fdef58",
"V. c #f4ed7b",
"C. c #90a8f5",
"Z. c #99b0fa",
"A. c #a3befc",
"S. c #bbcffc",
"D. c #fe8081",
"F. c #f79991",
"G. c #fca19a",
"H. c #fea6a4",
"J. c #fec0bd",
"K. c #fdf080",
"L. c #f6f591",
"P. c #fbfa9a",
"I. c #fdf6a4",
"U. c #fdf9bc",
"Y. c #c1d0fc",
"T. c #d7e0fc",
"R. c #fec8c3",
"E. c #fedbd8",
"W. c #fdfcc2",
"Q. c #fdfdd8",
"!. c #eef1fc",
"~. c #feefef",
"^. c #fdfcee",
"/. c #fef3f1",
"(. c #fcfdf0",
/* pixels */
"                                                                        ",
"  g g g g g g g g g g g g g g h g g g g g f g g g g g g g g g g g g g   ",
"  g g g g g g g g g g g g g g k g g g g g d d d g g d d g g g g g g g   ",
"  g g g g g g g g g g g g g g g g g g E ~ ! T W Z g g O.6.4.<.3.{ g g   ",
"  g g g g g g g g g g g g g g g g g R C.S.A.Y K V n o.F.R.H.;.$. .' g   ",
"  g g g g g g g g g g g g g g g g g Q S.!.!.U K m l 5.J./.~.>.%.] / g   ",
"  g g g g g g g g g g g g g g g g g U C.T.Z.A G n * ,.D.E.G.:.+.` 0 g   ",
"  g g g g g g g g g g g g g g g g g U D S A F B x @ ,.-.=.*.@.[ ) 2 g   ",
"  g g g g g g g g g g g g g g g g g P J L H M b % + 1.:.&.#.[ _ 4 , g   ",
"  g g g d d d d g g g g g g g g g g h C N n z % $ - j | } ] ( q < 8 g   ",
"  g g g g g g g g g g g g g g g g g d : & # # . ; g g w 9 1 > o 6 g g   ",
"  g g O.6.4.<.3.{ g g g g g g g g g g u.V.B.b.M.e.g g O.6.4.<.3.{ g g   ",
"  g o.F.R.H.;.$...' g g g g g g g g i.L.W.I.x.f.y.0.o.F.R.H.;.$. .' g   ",
"  g 5.R././.>.%.[ / g g g g g g g g N.U.(.(.v.g.w.8.5.R./.~.>.%.] / g   ",
"  g 2.D.E.G.:.+.` 0 g g g g g g g g m.K.Q.P.l.p.0.s ,.D.E.G.:.+.` 0 g   ",
"  g 2.>.=.*.@.| ) 2 g g g g g g g g m.c.z.k.s.t.X.t ,.-.=.*.@.| ) 2 g   ",
"  g 1.:.&.#.[ _ q , g g g g g g g g d.l.j.a.r.9.y e 1.:.&.#.[ ` 4 , g   ",
"  g j | } ] ( q < 8 g g g g g g g g k t.y.w.7.a r u j | [ ] ( q < 8 g   ",
"  g g w 9 1 > o 6 d g g g g g g g g g i p 5 3 O 7 g g w 9 1 o o 6 g g   ",
"  g d O.6.4.<.3.{ g g E ~ ! T W Z g g O.6.4.<.3.{ g g O.6.4.<.3.{ g g   ",
"  g o.F.R.H.;.%. .' R C.Y.A.I K V c o.F.R.H.;.$. .' o.F.R.H.;.$.} ' g   ",
"  g 5.J././.;.%.] / Q S.!.!.Y K m l 5.R./.~.>.%.] / 5.J./.~.>.$.[ / g   ",
"  g ,.D.E.G.:.+.` 0 I ^ T.Z.J G n * ,.D.E.F.:.+.` 0 ,.D.E.G.:.+.` 0 g   ",
"  g ,.-.=.*.@.| ) 2 U S S A F B x @ ,.-.=.*.#.| ) 2 ,.-.=.*.@.| ) 2 g   ",
"  g 1.:.&.#.[ _ q , P J L H B n = + 1.:.&.#.[ _ 4 , 1.:.&.#.[ ` q , d   ",
"  g j | } ] ( q < 8 h C N v & % $ - j | } ] ( q < 8 j ..[ ] ( q < 8 d   ",
"  g d w 9 1 > o 6 g g : & # # . ; g g w 9 1 > o 6 g g w 9 1 o o 6 g g   ",
"  g g E ~ ! T W Z g g E ~ ! T W Z g g u.V.B.b.M.e.g g u.V.B.b.M.e.d g   ",
"  g R C.Y.A.D K V n R C.S.A.D K V c i.L.W.I.x.g.y.q.i.L.W.I.x.f.y.0.g   ",
"  g Q S.!.!.Y K M l Q Y.!.!.U K m l N.U.(.(.v.g.w.8.N.U.(.(.v.g.w.8.g   ",
"  g I ^ T.Z.J G m & I ^ T.Z.J G n * n.K.Q.P.l.p.0.s n.V.Q.P.l.p.0.s g   ",
"  g U S S A F B = @ U S S A F B x @ m.c.z.k.s.y.X.t n.c.z.k.a.t.X.t g   ",
"  g P J L H M b % + P J L H M b % + d.h.j.a.r.9.y e d.h.j.a.r.9.y e g   ",
"  g h C N v z = $ - h C N v z = $ - k t.y.w.7.a r u k t.y.w.7.a r u g   ",
"  g g : & # X . ; g g : & # X . ; g g i p 5 3 O 7 g g i p 5 3 O 7 g g   ",
"                                                                        "
};
