/* XPM */
static char *magick[] = {
/* columns rows colors chars-per-pixel */
"32 32 79 1",
"  c #000000",
". c #262604",
"X c #2e2e2c",
"o c #004040",
"O c #015e5e",
"+ c #494949",
"@ c #585858",
"# c #5e7644",
"$ c #008000",
"% c green",
"& c #008080",
"* c #00c0c0",
"= c #728284",
"- c #927274",
"; c red",
": c #ffa858",
"> c #8a8a8b",
", c #9a9a9c",
"< c #9aa68c",
"1 c #a28aac",
"2 c #b2b2b4",
"3 c #bab6b4",
"4 c #9ebed4",
"5 c #a2a2cc",
"6 c #9ed2ac",
"7 c #bec6bc",
"8 c #becebc",
"9 c #bedcbc",
"0 c #bee6bc",
"q c #bec6c4",
"w c #b6ced4",
"e c #bed6d4",
"r c #bed2fc",
"t c #baeec4",
"y c #befac4",
"u c #befed4",
"i c #bee6e4",
"p c #bee6fc",
"a c #beeefc",
"s c #befaec",
"d c #bef6fc",
"f c #cebebc",
"g c #d6bebc",
"h c #e6bebc",
"j c #eab6bc",
"k c #cabec4",
"l c #cbbecc",
"z c #dabadc",
"x c #d6beec",
"c c #debee4",
"v c #eebecc",
"b c #eabed4",
"n c #f2bec4",
"m c #e6bee4",
"M c #c0c0c0",
"N c #cacac4",
"B c #cbcbcc",
"V c #ceced4",
"C c #d2d2cc",
"Z c #d3d3d4",
"A c #d6d6dc",
"S c gainsboro",
"D c #c2c2fc",
"F c #cac2f4",
"G c #cadefc",
"H c #dedefc",
"J c #ceeef4",
"K c #ceeefc",
"L c #c0ffff",
"P c #dae2fc",
"I c #ead2fc",
"U c #f2c2f4",
"Y c #e6e6e4",
"T c #eaeae4",
"R c #ececec",
"E c #fefaec",
"W c #f4f4f4",
"Q c white",
"! c None",
/* pixels */
"!                              !",
" QMM3NqqM3MMN3kq4fMkMMM3MMkq4f> ",
" M@@@@@@@@@@@@@@@@@@@@@@@@@@@@+ ",
" 3@                    @@q3N@@+ ",
" M@ oOOOoOOOo;;;oOOOooM@f@@@ @+ ",
" 3@ ooooooooooooooooooM@4@@@ @+ ",
" M@ oOOOo:::o:::oOOOooM@ @@@ @+ ",
" M@ ooooooooooooooooooM@@   @@+ ",
" N@ o%%%o%%%o%%%o%%%ooM@@g4f@@+ ",
" 3@ ooooooooooooooooooq@f@@@ @+ ",
" k@ o%%%o%%%o%%%o%%%ooM@q@@@ @+ ",
" q@ ooooooooooooooooooM@ @@@ @+ ",
" 4@ kM73qk4gMMMffq4fM3M@@   @@+ ",
" f@@@@@@@@@@@@@@@@@@@@@@@@@@@@+ ",
" >+++++    ++++++++++++++++++++ ",
"       UkqN .                   ",
" M4k IUmNBBZA qfMf3MgMMMMf4fMM> ",
" f@ sKIml3BASY @@@@@@@@@@@@@@@+ ",
" M yusPUlkZATWR MMMMq4N373qkM@+ ",
"  9ttuJclMNTWWRS @@@@@@@@@@@ @+ ",
"  780t61+ >ARYSSX@@@@@@@@@@@ @+ ",
" NMM3<#>A2 >SZZZA @@@@@@@@@@ @+ ",
" NVNN,+2  A BBBVV @@@@@@@@@@ @+ ",
" ZVVA3 Z  2@BMNMN            @+ ",
" AASSB> 3A>=ieqqM @@@@@@@@@@@@+ ",
"  SYRWZ> +-Gaaie @@7M @M3 @%%@+ ",
"  YWWRSVMgbFrpdd @@M  @q  @%$@+ ",
" q ERSSVqfnmDr4 @@@@@@@@@@@@@@+ ",
" >+ SSCNNkjvx5 ++++++++++++@+++ ",
"!    ZZBNghjn                  !",
"!!! &  BB4f  !!!!!!!!! &*d*O !!!",
"!!!        !!!!!!!!!!!       !!!"
};
