/* XPM */
static char *magick[] = {
/* columns rows colors chars-per-pixel */
"34 34 68 1",
"  c #000000",
". c #0b0b0c",
"X c #070717",
"o c #111113",
"O c #070727",
"+ c #07072a",
"@ c #0a0a2c",
"# c #07073a",
"$ c #11113a",
"% c #3f0000",
"& c #20201f",
"* c #2c2c2c",
"= c #31312f",
"- c #373737",
"; c #064779",
": c #06487c",
"> c #434343",
", c #4a4a4b",
"< c #525253",
"1 c gray35",
"2 c #5e5e60",
"3 c #626263",
"4 c #6d6d6d",
"5 c #6f6f71",
"6 c #757574",
"7 c #797977",
"8 c #797979",
"9 c #064c83",
"0 c #07518a",
"q c #009000",
"w c #38fb30",
"e c #0c8df1",
"r c #7cc1f7",
"t c #996f55",
"y c #c49874",
"u c #cfce3e",
"i c #d4d235",
"p c #d4d33a",
"a c #d6d351",
"s c #dbd853",
"d c #e1de5a",
"f c #808080",
"g c #8d8e8d",
"h c #879187",
"j c #8a918a",
"k c #949494",
"l c #9b9b9b",
"z c #a3a3a3",
"x c #ababab",
"c c #b1b1af",
"v c #b4b4b4",
"b c #bbbbbb",
"n c #e1ba8e",
"m c #f6f294",
"M c #fefaa5",
"N c #c3c3c3",
"B c #c9c9c7",
"V c #cbcbcb",
"C c #cfcfd0",
"Z c #d3d3d3",
"A c #dadad9",
"S c #e2e1df",
"D c #f0f0d3",
"F c #e3e3e3",
"G c #eeeeee",
"H c #fdfdec",
"J c #fefefc",
"K c None",
/* pixels */
"KKKKKKKKKKKKKKKKKKKKKKKKKKKKKKKKKK",
"KK                              KK",
"K JJJJJJJJJJJJJJJJJJJJJJJJJJJJJb K",
"K JG%%%%%%%%            %%%%%%B6 K",
"K J1yyyyyyy HHHHHHHHHHHH yyyyy16 K",
"K Jfyyyyyy HMMMMMMMM    m yyyy86 K",
"K JF%%%%% HMMMMM   MMMM Md %%%b6 K",
"K JFFtttt HM  6MM6 MM  MMd ttvb6 K",
"K JFFyyyy HMM MM 6MM MMMMd yybv6 K",
"K JFFnnnn DM6  M   M    Ma nnvv6 K",
"K JF   X   HMMMMMMMMMMMMs     c6 K",
"K JFA,00e00 uppipppiiiii  ::Jcx6 K",
"K JAA,00r000#$@. ..O++#O::::Jxx6 K",
"K JFZ,erJre0099    999r:9::;Jxz6 K",
"K JAZ,00r00000 iMMi erJre:;:Jzz7 K",
"K JAZ,00e00090 iMMi 99r::e::Jzz6 K",
"K JAZ,000000       9e:e::r:;Jzl6 K",
"K JAZ,00009 iMi 9999r99erJreJll6 K",
"K JAC,00009 iMp 99erJre::r;;Jll6 K",
"K JAC,000000   999:9r::::e;;Jlk6 K",
"K JAZ,0009099999999:e:;:::;;Jkk6 K",
"K JZC,JJJJJJJJJJJJJJJJJJJJJJJgg6 K",
"K JAZZVVBBNbbbvvxxxzzzlllkkgggg6 K",
"K JZZZVVNNNNbbvvcxxzzzllkkjqqgg6 K",
"K JAZCVVBBNbbvvvxxxxzzllkkhqwjg6 K",
"K b76666676666666666666666666666 K",
"KK                              KK",
"KKKKKKKKK o*,3flcAVz8<*.KKKKKKKKKK",
"KKKKKKKKK &->,<13542<>=.KKKKKKKKKK",
"KKKKKK                     KKKKKKK",
"KKKKK gAAAAAAAAAAAAAAAAAAAB KKKKKK",
"KKKKK ,68777777877887777775 KKKKKK",
"KKKKKK                     KKKKKKK",
"KKKKKKKKKKKKKKKKKKKKKKKKKKKKKKKKKK"
};
