/* XPM */
static char *magick[] = {
/* columns rows colors chars-per-pixel */
"34 34 49 1",
"  c black",
". c #005500",
"X c #008700",
"o c #008b00",
"O c #009400",
"+ c #009b00",
"@ c #00a500",
"# c #268d19",
"$ c #42962c",
"% c #76ae4c",
"& c #a14900",
"* c #c00000",
"= c #c2261c",
"- c #c23e2f",
"; c #c44638",
": c #c37154",
"> c #d66a54",
", c #800080",
"< c #962687",
"1 c #924c8c",
"2 c #a7448c",
"3 c #c1a67f",
"4 c #c0c000",
"5 c yellow",
"6 c #c0c57e",
"7 c #ecd377",
"8 c #96968c",
"9 c #ab9f8d",
"0 c #bead93",
"q c #beb29c",
"w c #b9afa7",
"e c #d2969c",
"r c #c4ba90",
"t c #dca880",
"y c #dfa59e",
"u c #d7b98d",
"i c #d6be9b",
"p c #c8c6b0",
"a c #cec3ba",
"s c #e1c294",
"d c #e4d296",
"f c #ffdca8",
"g c #f9e7ae",
"h c #f6e2b0",
"j c #ddd1c7",
"k c #f2d2c4",
"l c #ffffc0",
"z c #fff1e5",
"x c white",
/* pixels */
"                                  ",
" @@@@@@@@@@@@@@@@@@@@+@++++++++OO ",
" @@@@@@@@@@ullll3@ullll3+@++++OOO ",
" @@@@@@@@@&lf=*5s&l#f6#s+++OOO+OO ",
" @@@@@@@@@&lf:*fs&l.fd.s++O+O+OOO ",
" @@@@@@@@@&l*-**s&lf6.fs+++OOOOOO ",
" @@@@@@@@@&lf:*fs&lf6#fs+OO+OOOOO ",
" @@@@@@@@@&lff*fs&l.d6.sO++OOOOoO ",
" @@@@@@@@@&lf*;>s&l#f6#s+OOOOOOoo ",
" @@@@@@@@@&l*tf*s&l.fd.s+OOOOOOoO ",
" @@@@@@@@@&rssss3&3ssss3OOOOOOOoo ",
" @@@@@@@@+&&&&&&+&&&&&&OOOOOooOoo ",
" @@@dglll3@ullll3+axxxxwOullll3oo ",
" @@&l00ifs&l#f6#s&xz,zzj&l4f74soo ",
" @@&lfffys&l.fd.s&xy1yzj&l*74*soo ",
" @@&l1,2,s&lf6.fs&,k8k,j&l4f74soo ",
" @@&lff,fs&lf6#fs&yzqzyj&lffffsoX ",
" @@&lf,e,s&l.d6.s&xprpzj&l4f74soo ",
" @@&l<ff2s&l#f6#s&6#%#6j&l*74*sXX ",
" @@&lff,ys&l.fd.s&x6$6zj&l4f74sXX ",
" @@&3ssss3&3ssss3&wjjjjw&3ssss3XX ",
" @@&&&&&&+&&&&&&O&&&&&&o&&&&&&XXX ",
" @@@@+@++++ullll3Oullll3oullll3XX ",
" @@@@++@++&l4f74s&l90ifs&lf=*5sXX ",
" @+@++++++&l*74*s&lfffys&lf:*fsXX ",
" @@+@+@+++&l4f74s&l2,2,s&l*-**sXX ",
" +@@++++++&lffffs&lff,fs&lh:*gsXX ",
" @+++++++O&l4f74s&lf,e,s&lff*fsXX ",
" @@++++++O&l*74*s&l<ff2s&lf*;>sXX ",
" ++++++++O&l4f74s&lff,ys&l*tf*sXX ",
" ++++++O+O&3ssss3&3ssss3&3ssss3XX ",
" +++++O+OO&&&&&&o&&&&&&X&&&&&&XXX ",
" +++++OOOOOOOOooooooXXXXXXXXXXXXX ",
"                                  "
};
