/* XPM */
static char *magick[] = {
/* columns rows colors chars-per-pixel */
"32 32 239 2",
"   c #000000",
".  c #021e04",
"X  c #1e0a34",
"o  c #0a3e04",
"O  c #123604",
"+  c #1e3e0c",
"@  c #270211",
"#  c #261a04",
"$  c #320e34",
"%  c #2e2a24",
"&  c #020e64",
"*  c #061274",
"=  c #0a1674",
"-  c #0e1e73",
";  c #1e167c",
":  c #1e1e74",
">  c #162254",
",  c #1e2c78",
"<  c #2a1a5c",
"1  c #221a7c",
"2  c #222a5c",
"3  c #283a64",
"4  c #2a460c",
"5  c #265e14",
"6  c #3a420c",
"7  c #3c560c",
"8  c #3a6618",
"9  c #2a4e6c",
"0  c #420204",
"q  c #460e0c",
"w  c #561214",
"e  c #4a3604",
"r  c #5a3a1c",
"t  c #463e2c",
"y  c #660e04",
"u  c #7e0204",
"i  c #7e0c18",
"p  c #7a1e1c",
"a  c #6a0a24",
"s  c #6a2204",
"d  c #7a2a2c",
"f  c #421244",
"g  c #5e510f",
"h  c #4d4627",
"j  c #4e6e3c",
"k  c #6a5c24",
"l  c #7e6e1c",
"z  c #764e5c",
"x  c #060c88",
"c  c #091794",
"v  c #0c1e94",
"b  c #121a9c",
"n  c #12248c",
"m  c #162a9c",
"M  c #183484",
"N  c #1834a0",
"B  c #262a9c",
"V  c #2a368c",
"C  c #323e94",
"Z  c #26468c",
"A  c #34568c",
"S  c #3a529c",
"D  c #2c51c0",
"F  c #2e59ca",
"G  c #2a52d4",
"H  c #3e5ec4",
"J  c #2a62e4",
"K  c #3474e4",
"L  c #4e5ecc",
"P  c #426adc",
"I  c #526adc",
"U  c #427afc",
"Y  c #369214",
"T  c #528624",
"R  c #5e8e2c",
"E  c #4abe24",
"W  c #5aba34",
"Q  c #62b634",
"!  c #6aba3c",
"~  c #7ab654",
"^  c #42da24",
"/  c #5ede2c",
"(  c #6ece2c",
")  c #6cc238",
"_  c #76d834",
"`  c #66ea2c",
"'  c #76c244",
"]  c #66868c",
"[  c #568adc",
"{  c #4883fc",
"}  c #5086f8",
"|  c #518cfc",
" . c #5293fc",
".. c #5b99f9",
"X. c #5aa6dc",
"o. c #5aaafc",
"O. c #6a86c4",
"+. c #62a6fc",
"@. c #64acf4",
"#. c #68a2f4",
"$. c #6eb5f9",
"%. c #7aa2e4",
"&. c #73bcfc",
"*. c #7eb6fc",
"=. c #78c2fc",
"-. c #79caf9",
";. c #820a04",
":. c #8a0204",
">. c #84141c",
",. c #8a1e14",
"<. c #921314",
"1. c #820a2c",
"2. c #862224",
"3. c #962a2c",
"4. c #ac1e1c",
"5. c #b61418",
"6. c #a02220",
"7. c #a92524",
"8. c #a63a3c",
"9. c #b22224",
"0. c #be2624",
"q. c #82560c",
"w. c #847e1c",
"e. c #867624",
"r. c #da0e04",
"t. c #c4222c",
"y. c #ca2020",
"u. c #ca262c",
"i. c #ca3a3c",
"p. c #d62020",
"a. c #de2a2c",
"s. c #ea120c",
"d. c #ea1a0c",
"f. c #e62a2c",
"g. c #ea3234",
"h. c #fe2420",
"j. c #f82c28",
"k. c #f23234",
"l. c #f23a3a",
"z. c #ca3244",
"x. c #d6364c",
"c. c #c6721c",
"v. c #ce6264",
"b. c #e04644",
"n. c #ee5e5c",
"m. c #fe4d4c",
"M. c #fe5a5d",
"N. c #ea6264",
"B. c #ee7e7c",
"V. c #fd6461",
"C. c #fb6c6b",
"Z. c #fe7574",
"A. c #fe7e7c",
"S. c #9a921c",
"D. c #8e8624",
"F. c #8e8e3c",
"G. c #928e24",
"H. c #98903c",
"J. c #a49828",
"K. c #a89e20",
"L. c #b6b234",
"P. c #8a8a44",
"I. c #968244",
"U. c #8e827c",
"Y. c #96ba4c",
"T. c #ae9c48",
"R. c #aca444",
"E. c #baba54",
"W. c #bab274",
"Q. c #86ee34",
"!. c #8ce238",
"~. c #80f430",
"^. c #82c644",
"/. c #82ce4c",
"(. c #8aca50",
"). c #94d25c",
"_. c #94da58",
"`. c #9eea4c",
"'. c #9ee254",
"]. c #92fe40",
"[. c #9dfb45",
"{. c #a6f848",
"}. c #aafe4c",
"|. c #affe54",
" X c #bae65c",
".X c #b2f654",
"XX c #bafb59",
"oX c #c68634",
"OX c #c2b65c",
"+X c #c5c557",
"@X c #d0d05c",
"#X c #ced27c",
"$X c #dad274",
"%X c #c6f26c",
"&X c #c6fc64",
"*X c #d8fe74",
"=X c #eeee74",
"-X c #e8fe7c",
";X c #fafa64",
":X c #f6f67c",
">X c #f2fe7f",
",X c #8ab2f4",
"<X c #86c2fc",
"1X c #80ccf4",
"2X c #86d6fc",
"3X c #8ed8f4",
"4X c #88eafc",
"5X c #98edfc",
"6X c #9ef2fc",
"7X c #9afafc",
"8X c #a6deec",
"9X c #aad9e9",
"0X c #aad6fc",
"qX c #a6eefc",
"wX c #a6f3fc",
"eX c #a6fcfc",
"rX c #bcfefc",
"tX c #f48284",
"yX c #f68e8c",
"uX c #fe8684",
"iX c #fe9494",
"pX c #fa9e9c",
"aX c #fba6a1",
"sX c #eae68c",
"dX c #fefe84",
"fX c #f2f29c",
"gX c #fbfe9b",
"hX c #fefea7",
"jX c #f6f2bc",
"kX c #dadad4",
"lX c #cae2ec",
"zX c #c8fefc",
"xX c #d6fefc",
"cX c #eae6d4",
"vX c #fcfcc4",
"bX c #e2fefc",
"nX c #f0f0ec",
"mX c #fefeed",
"MX c None",
/* pixels */
"MXMXMXMXMXMXMXMXMXMXMX    MXMXMXMXMXMXMXMXMXMXMXMXMXMXMXMXMXMXMX",
"MXMXMXMXMXMXMXMXMXMX  _.~   MXMXMXMXMXMXMXMXMXMXMXMXMXMXMXMXMXMX",
"MXMXMXMXMXMXMXMXMX  /.~.` (   MXMXMXMXMXMXMXMXMXMXMXMXMXMXMXMXMX",
"MXMXMXMXMXMXMXMX  ).[.Q.Q.Q._   MXMXMXMXMXMXMX  MXMXMXMXMXMXMXMX",
"MXMXMXMXMXMXMX  ~ . !.[.[.[.. j   MXMXMXMXMX  4.  MXMXMXMXMXMXMX",
"MXMXMXMXMXMX  (.}.8 + XX}.. 5 !.(   MXMXMX  0.k.y.  MXMXMXMXMXMX",
"MXMXMXMXMX  _.XX}..XT . R 8 .XQ.]._   MX  u.l.a.f.p.  MXMXMXMXMX",
"MXMXMXMX  ' -XXXXX&X|.. O  X&X{.].[.^   3.m.g.g.a.j.;.  MXMXMXMX",
"MXMXMX  ! . W -X*X`.. 4.y.. ! &X|.` 4 6.5.6.l.g.l.9.0   MXMXMXMX",
"MXMX  ).dXY.. (.%X. 0.M.M.7.# ' / 6 t.m.j.;.,.l.7.0   MXMXMXMXMX",
"MX  (.-X-X;X'.Y . z.C.V.M.M.y.7 7 x.M.m.h.s.;.w 0   MXMXMXMXMXMX",
"  [.gX-X-X-X^.. h q yXZ.C.C.a.y q n.V.m.m.h.r.$   MXMXMXMXMXMXMX",
"  o }.hX*XW . E.:Xl q pXuXi.>.b.g.q 8.M.V.p.f J D   MXMXMXMXMXMX",
"MX  O ^ W . #XhXhX=Xk q v.>.N.B.M.l.q 2.y.< K  .| G   MXMXMXMXMX",
"MXMX  o . @XvXhXfXgXdXs :.tXyXC.M.M.b.0 X o.@.| } | G   MXMXMXMX",
"MXMXMX  T.h nXvXjXgXH.w.c.q aXA.C.Z.y.;.a - -.{ |  .m C   MXMXMX",
"MXMX  @XvXF.% kXvXD.e.vXhXoXq B.tXt.,.M.V.1.= #.| m Z  .F   MXMX",
"MX  +XmXvXvXP.h T.L.jXhXgXfXk p 3.4.V.Z.C.d.1.3 > A  .| { F   MX",
"  +XmXmXmXmXfXw.g vXmXvXhXhXsXr i B.iXZ.C.V.b.@ 9 -.} | { { F   ",
"  G.vXmXmXvXG.OX:Xh cXmXvXvXI.A L q pXA.A.M.<.: 3 - $.+. .U b   ",
"  g J.vXvXD.+XvXvXE.h nXvXT.S -.4XP q aXC.5.; &.-.D - &...v &   ",
"MX  g G.T.$XmXmXvXvXW.t U.I qXqX2X4XK z d M -.2X&.$.F N c &   MX",
"MXMX  g l vXmXmXmXvXhXe 1 0XbXrX6X6XX.@ @ H 5X-.=.&.| = &   MXMX",
"MXMXMX  g S.vXmXmXjXk g   B lXxXzX3X> ] 8X- #.5X2X..x *   MXMXMX",
"MXMXMXMX  g K.vXvXI.g     & V 9X0X- O.eX5X[ - *.&.v &   MXMXMXMX",
"MXMXMXMXMX  g J.J.g   MXMX  & n D ,X5X7X5X5X@.n - &   MXMXMXMXMX",
"MXMXMXMXMXMX  g g   MXMXMXMX  * 2 9XbXrXeXwX@.b &   MXMXMXMXMXMX",
"MXMXMXMXMXMXMX    MXMXMXMXMXMX  & , 9XxXzX=.b &   MXMXMXMXMXMXMX",
"MXMXMXMXMXMXMXMXMXMXMXMXMXMXMXMX  & - %.<Xx &   MXMXMXMXMXMXMXMX",
"MXMXMXMXMXMXMXMXMXMXMXMXMXMXMXMXMX  & * c &   MXMXMXMXMXMXMXMXMX",
"MXMXMXMXMXMXMXMXMXMXMXMXMXMXMXMXMXMX  & 2   MXMXMXMXMXMXMXMXMXMX",
"MXMXMXMXMXMXMXMXMXMXMXMXMXMXMXMXMXMXMX    MXMXMXMXMXMXMXMXMXMXMX"
};
