/* XPM */
static char *magick[] = {
/* columns rows colors chars-per-pixel */
"32 32 113 2",
"   c #000001",
".  c #0a0a04",
"X  c #16160c",
"o  c #161614",
"O  c #26261c",
"+  c #2a2a14",
"@  c #363614",
"#  c #3e3e14",
"$  c #3a3a24",
"%  c #464214",
"&  c #46421c",
"*  c #4a4a1c",
"=  c #464424",
"-  c #464634",
";  c #4e4e3c",
":  c #545424",
">  c #5a5624",
",  c #5e5e24",
"<  c #5e5a2c",
"1  c #625e24",
"2  c #626224",
"3  c #66662c",
"4  c #6e6b34",
"5  c #7e7a24",
"6  c #727234",
"7  c #827e3c",
"8  c #8a862c",
"9  c #8a863c",
"0  c #8e8a3c",
"q  c #928e34",
"w  c #9a922c",
"e  c #969234",
"r  c #9a963c",
"t  c #a6a23c",
"y  c #aaa334",
"u  c #aaa63c",
"i  c #aeaa34",
"p  c #b2aa2c",
"a  c #b2ae34",
"s  c #b2ae3c",
"d  c #b6b234",
"f  c #bab63c",
"g  c #8e8a5c",
"h  c #aca64c",
"j  c #aeaa54",
"k  c #b3ac4c",
"l  c #b2ab54",
"z  c #b6b24c",
"x  c #bab244",
"c  c #bcb44c",
"v  c #b6b254",
"b  c #bab554",
"n  c #beba54",
"m  c #c3bc4c",
"M  c #c3bc54",
"N  c #d2ca34",
"B  c #cbc44c",
"V  c #ceca4c",
"C  c #c6c254",
"Z  c #cbc454",
"A  c #ceca54",
"S  c #d3cc4c",
"D  c #d3cc54",
"F  c #d6d24c",
"G  c #dad24c",
"H  c #d6d254",
"J  c #dcd554",
"K  c #deda5c",
"L  c #e2da4c",
"P  c #e2d654",
"I  c #e2d65c",
"U  c #e3dc54",
"Y  c #e4dc5c",
"T  c #e6e254",
"R  c #e6e25c",
"E  c #ebe454",
"W  c #ebe45c",
"Q  c #eeea54",
"!  c #f3eb54",
"~  c #f3ec5c",
"^  c #faf25c",
"/  c #e6e264",
"(  c #ebe664",
")  c #ece66c",
"_  c #eeea64",
"`  c #eeea6c",
"'  c #f2ea64",
"]  c #f6ee6c",
"[  c #f2ea74",
"{  c #f4ec7c",
"}  c #faf264",
"|  c #faf274",
" . c #faf67c",
".. c #9e9e8c",
"X. c #aaaa8c",
"o. c #faf284",
"O. c #faf28c",
"+. c #fefa8c",
"@. c #fef694",
"#. c #fefa94",
"$. c #fefa9c",
"%. c #fefaa4",
"&. c #fefcac",
"*. c #fefbb4",
"=. c #fefebc",
"-. c #fefec4",
";. c #fefecc",
":. c #fefed4",
">. c #fefedc",
",. c #fefee4",
"<. c #fcfcec",
"1. c #fefef4",
"2. c None",
/* pixels */
"2.2.2.2.2.2.2.2.2.2.2.2.2.              2.2.2.2.2.2.2.2.2.2.2.2.",
"2.2.2.2.2.2.2.2.2.2.X     W Q W ( R ( K     o 2.2.2.2.2.2.2.2.2.",
"2.2.2.2.2.2.2.2.    E ! } W Q ! E T E J J J H     2.2.2.2.2.2.2.",
"2.2.2.2.2.2.2.  E ~ ! ~ W ! W W E T T Y I J D Z S . 2.2.2.2.2.2.",
"2.2.2.2.2.2.  W ~ } |  .| ] ( W T T U U J J F D V J   2.2.2.2.2.",
"2.2.2.2.2.  ^ !  .#.&.&.$.o.[ ( T U U U J G J F Z V m   2.2.2.2.",
"2.2.2.2.  _ ^  .*.;.>.;.&.O.[ ( T U J J U J G S D B B z   2.2.2.",
"2.2.2.  E ^  .*.,.1.<...g U ` W U T E 7 0 G D G S D C m b . 2.2.",
"2.2.2.  ~ } $.>.1.<.X.; - 8 Y R U J 0 & = q D A B V B m m   2.2.",
"2.2.  E ~  .-.,.1.1.6 = $ : R Y U U , $ $ : G S D Z Z M m z   2.",
"2.2.  ! ^ +.-.:.>.;.6 $ O = R E J J , @ O = H S S S B M m v   2.",
"2.2.  ~ ~ #.*.=.-.-.4 O   @ J U I J < O o # S V Z Z M m b v   2.",
"2.  E ! ~ o.%.%.@.O.3     & J J J J >     = D V V B C m m z k   ",
"2.  W E ~ [ { { { ) ( % & J U J J J S @ $ G S V Z Z m M b l l   ",
"2.  ~ Q W ( ) ) / Y U J J J J G J D S G S S Z S m Z m m b z k   ",
"2.  E E E W R W Y R Y K J J G J G G D D D Z S Z Z B M m b l l   ",
"2.  R E E W E Y S L L J J J G J D G S S B A B m c C n c b k j   ",
"2.  E T T U U L 8 N P J G G J S S D D A D B A m 5 f m b k k j   ",
"2.. U T U U U L 1 M J J F F H D S S S B Z B Z n > s c n k l k   ",
"2.  U T J U U J   a G S J D S V A A A Z S Z m w   p b k l k k   ",
"2.2.  J U P J G p   s S F D D S S S B A B m y   s n b k l l   2.",
"2.2.  H J G J G B   2 a A S S A Z Z Z m m y 1   c b k j k h   2.",
"2.2.  G D S J S S y   1 V D S V V B Z B z <   u c v k j l h   2.",
"2.2.2.  V D S D S D d     d c C m n x k     e c b k k j h   2.2.",
"2.2.2.  V A V A S A B f 9               q p z k l l k h t   2.2.",
"2.2.2.2.  m Z B Z B B B m t 7 4 4 4 8 r m b z l k j j h . 2.2.2.",
"2.2.2.2.2.  D m Z B B m m m m m M M m v k l k k j k j   2.2.2.2.",
"2.2.2.2.2.2.  M c n m M m M c m b b b k k k l k j j   2.2.2.2.2.",
"2.2.2.2.2.2.2.  c l v b b b v c l k l l l k l h t . 2.2.2.2.2.2.",
"2.2.2.2.2.2.2.2.    k l k z l l l l k j j l j     2.2.2.2.2.2.2.",
"2.2.2.2.2.2.2.2.2.2.      k l l k l k t +     2.2.2.2.2.2.2.2.2.",
"2.2.2.2.2.2.2.2.2.2.2.2.2.              2.2.2.2.2.2.2.2.2.2.2.2."
};
