/* XPM */
static char *magick[] = {
/* columns rows colors chars-per-pixel */
"34 34 147 2",
"   c #000000",
".  c #120b0c",
"X  c #12120c",
"o  c #1a1614",
"O  c #022e04",
"+  c #023204",
"@  c #12220c",
"#  c #1a2614",
"$  c #222224",
"%  c #263e2c",
"&  c #323234",
"*  c #363a34",
"=  c #3e3e44",
"-  c #024204",
";  c #034e04",
":  c #026404",
">  c #026b04",
",  c #027404",
"<  c #027b04",
"1  c #0a7e04",
"2  c #166e14",
"3  c #1e7a1c",
"4  c #025654",
"5  c #660204",
"6  c #6a763c",
"7  c #4e4e4c",
"8  c #565654",
"9  c #5a5c54",
"0  c #5a5a5c",
"q  c #467a44",
"w  c #4e7654",
"e  c #5a6a4c",
"r  c #52625c",
"t  c #5e7664",
"y  c #764644",
"u  c #666664",
"i  c #6e6e6c",
"p  c #028204",
"a  c #028c04",
"s  c #029e04",
"d  c #12860c",
"f  c #168a14",
"g  c #1e8a14",
"h  c #04a204",
"j  c #06a20c",
"k  c #02aa04",
"l  c #0aa50c",
"z  c #0caa0c",
"x  c #06b204",
"c  c #0eba0c",
"v  c #12ad0c",
"b  c #1eae04",
"n  c #15ae14",
"m  c #1ab20c",
"M  c #15b214",
"N  c #1bb514",
"B  c #1dba14",
"V  c #1ebb1c",
"C  c #258e1c",
"Z  c #2e862c",
"A  c #369a34",
"S  c #22be14",
"D  c #23bd1c",
"F  c #2ab61c",
"G  c #2aba1c",
"H  c #2aba2c",
"J  c #1ade04",
"K  c #24c21c",
"L  c #3ade24",
"P  c #22ee1c",
"I  c #32ee24",
"U  c #66b22c",
"Y  c #56a244",
"T  c #46c224",
"R  c #42ce2c",
"E  c #46c234",
"W  c #56c224",
"Q  c #56ca34",
"!  c #5ec534",
"~  c #5aca34",
"^  c #66c62c",
"/  c #66ca34",
"(  c #6ec234",
")  c #72ca3c",
"_  c #7cc434",
"`  c #7ec63c",
"'  c #7ee63c",
"]  c #6efe5c",
"[  c #028284",
"{  c #02868c",
"}  c #028e8c",
"|  c #029294",
" . c #02969c",
".. c #029a9c",
"X. c #02a2a4",
"o. c #02a6ac",
"O. c #02aaac",
"+. c #02b5b4",
"@. c #72dec4",
"#. c #a21614",
"$. c #8a4e4c",
"%. c #8e5644",
"&. c #a24244",
"*. c #ca0604",
"=. c #de1214",
"-. c #ce261c",
";. c #ee0604",
":. c #fe0204",
">. c #fe0e04",
",. c #fe3634",
"<. c #fe7e7c",
"1. c #92b234",
"2. c #8ea244",
"3. c #a2ae5c",
"4. c #9ace3c",
"5. c #9ed63c",
"6. c #92e23c",
"7. c #9aee3c",
"8. c #96f664",
"9. c #828284",
"0. c gray61",
"q. c #aeaeac",
"w. c #bebabc",
"e. c #86ca94",
"r. c #8afe94",
"t. c #9afe94",
"y. c #a2debc",
"u. c #b2f694",
"i. c #82e2cc",
"p. c #96e2cc",
"a. c #9afecc",
"s. c #9efef4",
"d. c #b6f2ec",
"f. c #f2babc",
"g. c #feb6b4",
"h. c #febebc",
"j. c #c6c6c4",
"k. c #ceced4",
"l. c #d2d2d4",
"z. c #dededc",
"x. c #c2fefc",
"c. c #d2fefc",
"v. c #e2e2e4",
"b. c #eeeeec",
"n. c #e2fefc",
"m. c #fdfdfc",
"M. c None",
/* pixels */
"M.M.M.M.M.M.M.M.M.M.M.M.M.M.M.M.M.M.M.M.M.M.M.M.M.M.M.M.M.M.M.M.M.M.",
"M.M.M.M.M.M.M.M.M.M.M.M.M.M.M.M.M.M.    M.M.M.M.M.M.M.M.M.M.M.M.M.M.",
"M.M.M.M.M.M.M.M.M.M.M.M.M.M.M.M.M.M.  +.  . M.M.M.M.M.M.M.M.M.M.M.M.",
"M.M.M.M.M.M.M.M.M.M.M.M.M.M.M.M.M.M.  +.+.O.    M.M.M.M.M.M.M.M.M.M.",
"M.M.M.M.M.M.M.M.M.M.M.M.M.M.M.M.M.M.  +.+.+.X.|     M.M.M.M.M.M.M.M.",
"M.M.M.M.M.M.M.M.M.M.M.M.M.M.M.M.M.M.    +.o. .| | 4     M.M.M.M.M.M.",
"M.M.M.M.M.M.M.    @ M.M.M.M.M.M.M.M.  v.     .| [ 4 m.m.    M.M.M.M.",
"M.M.M.M.M.    B B B     M.M.M.M.M.M.$ k.b.m.    [ 4 m.q.m.j.    M.M.",
"M.M.M.    S V B B N M M     M.M.      & k.k.m.m.    m.q.7 m.m.m.  M.",
"M.M.  S D D B K M B M M v v     0 0.l.m.u & z.m.m.m.7 7 7 m.q.7   M.",
"M.M.  I P D N S B M M M v v z c     8 w.0.u 7 b.m.m.m.m.i 7 q.7   M.",
"M.M.  I R P P S N m M n v z z l j l     8 9.u 7 m.m.m.m.m.m.i 7   M.",
"M.M.  T Y U ( P P M M z v z z z l h s s       * z.m.m.m.m.m.m.m.. M.",
"M.M.  T @.e.3.1.) P P M v z z z h h h y y *.5 . 0 m.m.m.m.m.m.m.  M.",
"M.M.  ! i.s.d.y.2.( G P P z z z j 8 y =.;.:.;.*.#.% l.m.m.m.m.m.  M.",
"M.M.  4.p.x.m.c.t.4.D M v P P t y :.:.:.>.>.-.y q k % l.m.m.m.m.  M.",
"M.M.  ] 8.c.m.c.t.4.W M v H v %.f.<.:.:.>.&.6 D M a < % m.m.m.m.  M.",
"M.M.  ! _ 7.u.a.r./ E M n v l $.=.,.g.h.&.c b , < < p   m.m.m.m.  M.",
"M.M.  ! ^ 4.5.6.] ~ G M v v z A w :.:.e J p < < < < <   j.m.m.m.  M.",
"M.M.  K ! E ! / T G F n n v z z l 9 9 r s 1 < < < < <   . X j.m.  M.",
"M.M.  G G K D D G F v v n 3 o 2 z x h Z h < < , , 1 ,   M.M.      M.",
"M.M.  K G V N N N M M n v l # . ; a z z s < , , , , <   M.M.M.M.M.M.",
"M.M.  K V V F C C n M v v v z ; + O - h s < , < , , >   M.M.M.M.M.M.",
"M.M.  D D N C N N g g M n z z z l l z l s < , , , , >   M.M.M.M.M.M.",
"M.M.M.    D C N N M n f C z v l l h h h j , < , > > > . M.M.M.M.M.M.",
"M.M.M.M.M.    N N N M v z d d l j h j s s , > > > > >   M.M.M.M.M.M.",
"M.M.M.M.M.M.M.    n n v v z l p p h h s s , , > : > :   M.M.M.M.M.M.",
"M.M.M.M.M.M.M.M.M.    v z z v l l p p s h > > : : : :   M.M.M.M.M.M.",
"M.M.M.M.M.M.M.M.M.M.M.    n z l l h p s s > > : : : :   M.M.M.M.M.M.",
"M.M.M.M.M.M.M.M.M.M.M.M.M.    l h j p s s , : : :     M.M.M.M.M.M.M.",
"M.M.M.M.M.M.M.M.M.M.M.M.M.M.M.    l p s j : :     M.M.M.M.M.M.M.M.M.",
"M.M.M.M.M.M.M.M.M.M.M.M.M.M.M.M.M.    s ;     M.M.M.M.M.M.M.M.M.M.M.",
"M.M.M.M.M.M.M.M.M.M.M.M.M.M.M.M.M.M.M.    M.M.M.M.M.M.M.M.M.M.M.M.M.",
"M.M.M.M.M.M.M.M.M.M.M.M.M.M.M.M.M.M.M.M.M.M.M.M.M.M.M.M.M.M.M.M.M.M."
};
