/* XPM */
static char *magick[] = {
/* columns rows colors chars-per-pixel */
"34 34 94 2",
"   c black",
".  c #000a0a",
"X  c #021e1c",
"o  c #131212",
"O  c #05201e",
"+  c #022423",
"@  c #032927",
"#  c #042d2b",
"$  c #092624",
"%  c #06302d",
"&  c #0f312f",
"*  c #132f2d",
"=  c #1c2237",
"-  c #1f3e3c",
";  c #242424",
":  c #292424",
">  c #2f2f2f",
",  c #343434",
"<  c #014544",
"1  c #024d4c",
"2  c #08534e",
"3  c #0b615a",
"4  c #0e7269",
"5  c #1c7574",
"6  c #441616",
"7  c #4f4b4b",
"8  c #635f5f",
"9  c #6d6b6b",
"0  c #068381",
"q  c #008a8a",
"w  c #0c9e96",
"e  c #139286",
"r  c #169494",
"t  c #139a90",
"y  c #19a69a",
"u  c #18a99d",
"i  c #0bacac",
"p  c #0cb6b3",
"a  c #0fbbb6",
"s  c #0cbcbc",
"d  c #13aba6",
"f  c #13aeaa",
"g  c #11b5ae",
"h  c #17b2b0",
"j  c #14bbb7",
"k  c #1cb4b4",
"l  c #249c9c",
"z  c #0dc3bf",
"x  c #05c2c3",
"c  c #03cbcc",
"v  c #0fc7c7",
"b  c #0bc9c9",
"n  c #07d0cf",
"m  c #0bd0cf",
"M  c #0bd1d2",
"N  c #0fdddc",
"B  c #12c8c5",
"V  c #11cecd",
"C  c #18cccb",
"Z  c #12cfd0",
"A  c #15d0ce",
"S  c #1ed4cf",
"D  c #14d3d2",
"F  c #11dada",
"G  c #18d7d5",
"H  c #18d8d6",
"J  c #1bdbda",
"K  c #1ce0de",
"L  c #1ce3e1",
"P  c #1de8e5",
"I  c #1aeaea",
"U  c #21dad6",
"Y  c #20dedc",
"T  c #2bdcda",
"R  c #30dcda",
"E  c #23e0de",
"W  c #24e4e1",
"Q  c #25e9e8",
"!  c #4badad",
"~  c #50afaf",
"^  c #57b3b3",
"/  c #70bebe",
"(  c #ea2626",
")  c #ee4b4b",
"_  c #f17171",
"`  c #858383",
"'  c gray55",
"]  c #989796",
"[  c #95cfcf",
"{  c #cdcdcd",
"}  c gray85",
"|  c gray92",
" . c white",
".. c None",
/* pixels */
"....................................................................",
"..............      ..        ......................................",
"............  [ ~ r   [ ^ l 0   ....................................",
"............  / l q   / ! l q   ....................................",
"..........  ] 9 7 o ; 9 8 : ;  .  ..................................",
"..........   .; ,  .`  .> ,  .|   ..................................",
"..........  |  . .} 5 |  . .| { 5     ..............................",
"........  z 5 | } 5 E 5 | } { 5 D c w   ............................",
"......  j D Y 5 5 Y D M 5 5 5 I J D b w   ..........................",
"....  j M V J Q J G b x b b D J 1 J D h   ..........................",
"..  w M A < T A < C x x m b i 1 h Y H f   ..........................",
"..  j N V ' T A ' v c b j < + . k J b w   ..................    ....",
"....    J Q L F b c b @ 1 w w 1 j G v   ..................  t 4   ..",
"........            @ w w j G J J b j   ................  3 t t   ..",
"......  ) ) 6 ......  w j G Y D Z j   ..................  t 3   ....",
"....  _ )   ........  j v J J A V w   ................  s t   ......",
"....  ) (   ........  j G J H M j   ................  p I   ........",
"....        ......  w G Y Y Y b w   ..............  z E f   ........",
"....  ..  ........  j G Y Y G j   ..............  f E i   ..........",
"................  w b E Y J b w   ..............  j J   ............",
"................  j G Y E H j   ..............  j E g   ............",
"..............# w b Y E J b w   ..............  J E j   ............",
"..............  j Y E Y H j   ................  z W L w   ..........",
"............  w H E E E b w   ..................  b E G w   ........",
"..........  w J E E E K j   ....................  j U E j   ........",
"........  w j Y E E E v w   ......................  t J M w   ......",
"........  j b Y E T y t                             t W H j   ......",
"......  w B W E E E E t e t j j j j j j j j j j j t S t H j   ......",
"......  w j b E E W U W u E E E W Y W E Y E Y Y E E E D A w   ......",
"........  w j H H H H H H H H G H H H H H H H J G A b j w   ........",
"..........    w j j j j j j j j j j j j j j j j j w 2     ..........",
"..............X X X X X $ - * % + * & = X X X X X     ..............",
"....................................................................",
"...................................................................."
};
