/* XPM */
static char *magick[] = {
/* columns rows colors chars-per-pixel */
"32 32 152 2",
"   c #000000",
".  c #2a0604",
"X  c #4a0e0c",
"o  c #5a0204",
"O  c #5a0a04",
"+  c #5a0e0c",
"@  c #5e120c",
"#  c #66120c",
"$  c #621e1c",
"%  c #6a1614",
"&  c #6e1a14",
"*  c #761e14",
"=  c #6a261c",
"-  c #74261c",
";  c #7a261c",
":  c #662624",
">  c #6e2624",
",  c #6d2b24",
"<  c #6e2d2c",
"1  c #6e322c",
"2  c #6d3334",
"3  c #6e3e3c",
"4  c #762c24",
"5  c #722e2c",
"6  c #73332c",
"7  c #7a362c",
"8  c #723334",
"9  c #723a34",
"0  c #763e3c",
"q  c #7a3e3c",
"w  c #76423c",
"e  c #5e5654",
"r  c #5e5a54",
"t  c #5e6364",
"y  c #6a4a44",
"u  c #625a54",
"i  c #625e5c",
"p  c #764644",
"a  c #764e4c",
"s  c #8e221c",
"d  c #822a24",
"f  c #862e2c",
"g  c #8a2e24",
"h  c #82362c",
"j  c #8e322c",
"k  c #823634",
"l  c #823a34",
"z  c #8a3634",
"x  c #8b3a34",
"c  c #8e3e3c",
"v  c #922e24",
"b  c #92322c",
"n  c #9e362c",
"m  c #923a34",
"M  c #ba1e1c",
"N  c #a2362c",
"B  c #aa3a2c",
"V  c #a63e34",
"C  c #ad3e34",
"Z  c #b22e24",
"A  c #b2342c",
"S  c #b43a2c",
"D  c #bb342c",
"F  c #be3a2c",
"G  c #b23e34",
"H  c #86423c",
"J  c #8a443c",
"K  c #93433c",
"L  c #9a423c",
"P  c #a4463c",
"I  c #aa4234",
"U  c #aa443c",
"Y  c #b24234",
"T  c #be4634",
"R  c #824644",
"E  c #864a44",
"W  c #864e4c",
"Q  c #8a4a44",
"!  c #8e524c",
"~  c #934644",
"^  c #944a44",
"/  c #964e4c",
"(  c #9c4b44",
")  c #9e4e4c",
"_  c #92564c",
"`  c #965654",
"'  c #9a5654",
"]  c #9a5a54",
"[  c #a24c44",
"{  c #a24e4c",
"}  c #ae4a44",
"|  c #a6524c",
" . c #a65654",
".. c #a25a54",
"X. c #a6665c",
"o. c #ba625c",
"O. c #a2726c",
"+. c #ce1e14",
"@. c #d22214",
"#. c #da2e1c",
"$. c #c43224",
"%. c #c4352c",
"&. c #cb3224",
"*. c #c23e34",
"=. c #ca3e34",
"-. c #d23324",
";. c #de3324",
":. c #f61a14",
">. c #ea2e1c",
",. c #fa2a14",
"<. c #f2321c",
"1. c #e23224",
"2. c #ec3224",
"3. c #f63e2c",
"4. c #fc3424",
"5. c #fe422c",
"6. c #fe4a34",
"7. c #fe4e3c",
"8. c #c66a5c",
"9. c #fe6a64",
"0. c #e28a7c",
"q. c #a68a8c",
"w. c #b29e9c",
"e. c #bebabc",
"r. c #c2928c",
"t. c #d6aa9c",
"y. c #ea9a94",
"u. c #f69e94",
"i. c #fe9e94",
"p. c #e6aa9c",
"a. c #eaaeac",
"s. c #e6bebc",
"d. c #f4aca4",
"f. c #fdb3ac",
"g. c #feb6b4",
"h. c #febbb4",
"j. c #febebc",
"k. c #fec3bc",
"l. c #cec2c4",
"z. c #e2dedc",
"x. c #eedadc",
"c. c #fecbc4",
"v. c #fececc",
"b. c #fed2cc",
"n. c #fedad4",
"m. c #eae2dc",
"M. c #fee2dc",
"N. c #fee6e4",
"B. c #feeae4",
"V. c #fef2f4",
"C. c #fefefc",
"Z. c None",
/* pixels */
"Z.Z.Z.Z.Z.Z.Z.Z.Z.Z.Z.Z.Z.Z.Z.Z.  Z.Z.Z.Z.Z.Z.Z.Z.Z.Z.Z.Z.Z.Z.Z.",
"Z.Z.Z.Z.Z.Z.Z.Z.Z.Z.Z.Z.Z.Z.Z.  8.  Z.Z.Z.Z.Z.Z.Z.Z.Z.Z.Z.Z.Z.Z.",
"Z.Z.Z.Z.Z.Z.Z.Z.Z.Z.Z.Z.Z.Z.  d.l.m   Z.Z.Z.Z.Z.Z.Z.Z.Z.Z.Z.Z.Z.",
"Z.Z.Z.Z.Z.Z.Z.Z.Z.Z.Z.Z.Z.  o.n.u X.4   Z.Z.Z.Z.Z.Z.Z.Z.Z.Z.Z.Z.",
"Z.Z.Z.Z.Z.Z.Z.Z.Z.Z.Z.Z.Z.  c.e.k X.P   Z.Z.Z.Z.Z.Z.Z.Z.Z.Z.Z.Z.",
"Z.Z.Z.Z.Z.Z.Z.Z.Z.Z.Z.Z.  p.b.e | { O.;   Z.Z.Z.Z.Z.Z.Z.Z.Z.Z.Z.",
"Z.Z.Z.Z.Z.Z.Z.Z.Z.Z.Z.  0.f.m.p  .[ ' ( 4   Z.Z.Z.Z.Z.Z.Z.Z.Z.Z.",
"Z.Z.Z.Z.Z.Z.Z.Z.Z.Z.Z.  h.c.w.l { ( ( ] m   Z.Z.Z.Z.Z.Z.Z.Z.Z.Z.",
"Z.Z.Z.Z.Z.Z.Z.Z.Z.Z.  d.h.B.q.J [ [ ( ` c >   Z.Z.Z.Z.Z.Z.Z.Z.Z.",
"Z.Z.Z.Z.Z.Z.Z.Z.Z.  r.j.k.x.s U U [ ( / ..j ;   Z.Z.Z.Z.Z.Z.Z.Z.",
"Z.Z.Z.Z.Z.Z.Z.Z.Z.  f.h.n.z.$ U P U [ ( ' m d   Z.Z.Z.Z.Z.Z.Z.Z.",
"Z.Z.Z.Z.Z.Z.Z.Z.  c.k.k.C.} Z I I I P P ^ _ f ;   Z.Z.Z.Z.Z.Z.Z.",
"Z.Z.Z.Z.Z.Z.Z.  8.c.h.k.C.2 T S C I I I K ' x j 4   Z.Z.Z.Z.Z.Z.",
"Z.Z.Z.Z.Z.Z.Z.  k.k.j.V.p.M *.F G C C C P ! ~ g v   Z.Z.Z.Z.Z.Z.",
"Z.Z.Z.Z.Z.Z.  y.k.h.k.C.O.*.%.%.D S C C I Q ] f g d   Z.Z.Z.Z.Z.",
"Z.Z.Z.Z.Z.  t.k.k.h.N.n.=.&.-.&.F D S C C ^ _ L d f ;   Z.Z.Z.Z.",
"Z.Z.Z.Z.Z.  f.f.h.v.B.s.+.2.-.-.$.D S A B P E ` j z v   Z.Z.Z.Z.",
"Z.Z.Z.Z.  u.g.k.v.c.N.a.+.2.;.-.&.$.D A A V J J ^ h x g   Z.Z.Z.",
"Z.Z.Z.  8.k.j.k.k.k.B.2.,.2.;.;.&.$.$.A A B c z / z z c 0   Z.Z.",
"Z.Z.Z.  N.N.c.h.h.k.n.:.4.4.2.;.-.%.$.D A B n z / K h ^ :   Z.Z.",
"Z.Z.Z.Z.  p M.M.h.v.i.,.4.4.<.1.&.-.%.F A A n k x ' ( 4   Z.Z.Z.",
"Z.Z.Z.Z.Z.  o ~ n.B.9.7.6.5.3.2.1.#.-.&.&.D $.L x ~ <   Z.Z.Z.Z.",
"Z.Z.Z.Z.Z.Z.  O X r t t t t r r r y a W Q H R h h *   Z.Z.Z.Z.Z.",
"Z.Z.Z.Z.Z.Z.Z.  # # - - > 2 2 8 8 2 1 2 < , = & +   Z.Z.Z.Z.Z.Z.",
"Z.Z.Z.Z.Z.Z.Z.Z.  & 5 4 5 5 9 8 6 8 8 2 , 5 ; @   Z.Z.Z.Z.Z.Z.Z.",
"Z.Z.Z.Z.Z.Z.Z.Z.Z.  5 8 4 , 2 2 2 8 8 , , 6 #   Z.Z.Z.Z.Z.Z.Z.Z.",
"Z.Z.Z.Z.Z.Z.Z.Z.Z.Z.  < 6 < 6 8 8 2 6 6 q $   Z.Z.Z.Z.Z.Z.Z.Z.Z.",
"Z.Z.Z.Z.Z.Z.Z.Z.Z.Z.Z.  9 < < 2 8 8 < 0 >   Z.Z.Z.Z.Z.Z.Z.Z.Z.Z.",
"Z.Z.Z.Z.Z.Z.Z.Z.Z.Z.Z.Z.  9 7 8 8 2 q :   Z.Z.Z.Z.Z.Z.Z.Z.Z.Z.Z.",
"Z.Z.Z.Z.Z.Z.Z.Z.Z.Z.Z.Z.Z.. 7 7 8 R ,   Z.Z.Z.Z.Z.Z.Z.Z.Z.Z.Z.Z.",
"Z.Z.Z.Z.Z.Z.Z.Z.Z.Z.Z.Z.Z.Z.    p     Z.Z.Z.Z.Z.Z.Z.Z.Z.Z.Z.Z.Z.",
"Z.Z.Z.Z.Z.Z.Z.Z.Z.Z.Z.Z.Z.Z.Z.Z.  Z.Z.Z.Z.Z.Z.Z.Z.Z.Z.Z.Z.Z.Z.Z."
};
