/* XPM */
static char *magick[] = {
/* columns rows colors chars-per-pixel */
"32 32 63 1",
"  c #000000",
". c #001010",
"X c #002b2b",
"o c #003d3d",
"O c #004141",
"+ c #005151",
"@ c #007d7d",
"# c #585858",
"$ c #646464",
"% c #008181",
"& c #008b8b",
"* c #009393",
"= c #009b9b",
"- c #00a4a4",
"; c #00acac",
": c #00b5b5",
"> c #00bdbd",
", c #00c5c5",
"< c #00cdcd",
"1 c #00d4d4",
"2 c #00dcdc",
"3 c #00e5e5",
"4 c #00ecec",
"5 c #00f5f5",
"6 c #804400",
"7 c #8c5000",
"8 c #994400",
"9 c #c05800",
"0 c DarkOrange1",
"q c #bc8000",
"w c #c08400",
"e c #d09c14",
"r c DarkOrange",
"t c #ff9300",
"y c #ff9900",
"u c #ffa300",
"i c #ffad00",
"p c #ffb400",
"a c #ffbc00",
"s c #e0bc38",
"d c #ffa858",
"f c #ffc300",
"g c #ffc900",
"h c #ffd200",
"j c #ffd900",
"k c #ecd858",
"l c #f0dc5c",
"z c #808080",
"x c #a0a0a0",
"c c #acacac",
"v c #b3b3b3",
"b c #bbbbbb",
"n c #ffdca8",
"m c #c1c1c1",
"M c #cbcbcb",
"N c #d2d2d2",
"B c #dbdbdb",
"V c #ffffc0",
"C c #e2e2e2",
"Z c #eaeaea",
"A c #f0f1f1",
"S c white",
"D c None",
/* pixels */
"DDDDDDDDDDDDDDDDD  DDDDDDDDDDDDD",
"DDDDDDDDDDDDDDD  &@ DDDDDDDDDDDD",
"DDDDDDDDDDDDD  =&&% DDDDDDDDDDDD",
"DDDDDDDDDDD  -- *&&% DDDDDDDDDDD",
"DDDDDDDDD  >:-- *&   DDDDDDDDDDD",
"DDDDDDD  <, ::-=  ccc DDDDDDDDDD",
"DDDDD  21<, ::   vvvv DDDDDDDDDD",
"DDD  53 2<,>  cvv bbbm DDDDDDDDD",
"D  5543 1<   vvbb mm   DDDDDDDDD",
" 3454332  xcc vbmm  MMM DDDDDDDD",
"D 3333   xccv bm   MMNN DDDDDDDD",
"D 23  2<< cvbb  MNN BNBN DDDDDDD",
"DD  11<<, ccv  MMNN BB   DDDDDDD",
"DD <<<,,     #b NBBC  CCB DDDDDD",
"DDD ,, #SSSSSm  bN   ZZCC DDDDDD",
"DDD , SSffappukV   ZA AZZC DDDDD",
"DDDD #Sn99888uytt vCz zAZC DDDDD",
"DDDD Sh9     8888   %  z  DDDDDD",
"DD   Vg8          %@2@%  DDDDDDD",
"D SVSggdVVVVVV  %%,135SSz  DDDDD",
"D Vjhgfapiuy9 x%:,<3SSz zSz  DDD",
" 888df8888888  SxxSSz zSzz zS  D",
"D   Va8       %@OAx zS$z zSz zz ",
"D SVSadVVVVV $  @@OAxx.zSz zz.o ",
"D Vfappuuyt9 DDD  @@OxSz zz oO D",
" 888dp88888 DDD V   @@XzzXoO  DD",
"D   liu8   DD  V0 DD  @+oO  DDDD",
"DDDD yuy8    lV00 DDDD    DDDDDD",
"DDDD swtr9qes0008 DDDDDDDDDDDDDD",
"DDDDD 6000tr0088 DDDDDDDDDDDDDDD",
"DDDDDD  788888  DDDDDDDDDDDDDDDD",
"DDDDDDDD      DDDDDDDDDDDDDDDDDD"
};
