/* XPM */
static char *magick[] = {
/* columns rows colors chars-per-pixel */
"32 32 79 1",
"  c #000001",
". c #363634",
"X c #3e3e3c",
"o c #2a762c",
"O c #622a2c",
"+ c #6e3234",
"@ c #7e262c",
"# c #424644",
"$ c #524e4c",
"% c #535353",
"& c #5b5b5c",
"* c #5a725c",
"= c #665a5c",
"- c #725a5c",
"; c #7a5a5c",
": c #666663",
"> c #66666c",
", c #666e64",
"< c #6a6a64",
"1 c #6c6c6b",
"2 c #6e726b",
"3 c #7a6e6c",
"4 c #747474",
"5 c #767973",
"6 c #7c7c7c",
"7 c #1a9e1c",
"8 c #0abe14",
"9 c #2a9a2c",
"0 c #2e9a34",
"q c #2aba2c",
"w c #0ac60c",
"e c #0ede14",
"r c #12e21c",
"t c #12ea14",
"y c #1af61c",
"u c #1efa24",
"i c #26d624",
"p c #26f62c",
"a c #668264",
"s c #6e8e6c",
"d c #7e817b",
"f c #820e14",
"g c #8a1e1c",
"h c #961e2c",
"j c #9e1624",
"k c #862224",
"l c #96222c",
"z c #a61e2c",
"x c #9e3e44",
"c c #838384",
"v c #878789",
"b c #868984",
"n c #8b8b8b",
"m c #8e908c",
"M c #968e8c",
"N c #929293",
"B c #969894",
"V c #9c9c9c",
"C c #9ea09c",
"Z c #ae9294",
"A c #a4a4a4",
"S c #a6a8a4",
"D c #ababab",
"F c #b4b4b4",
"G c #b6b6bc",
"H c #bababc",
"J c #bfbfc0",
"K c #c2c2c3",
"L c #c6c6c9",
"P c #cbcbcb",
"I c #d3d3d4",
"U c #dbdbdb",
"Y c #e4e4e3",
"T c #ececeb",
"R c #f0f0ee",
"E c #f5f5f3",
"W c #f8f8f7",
"Q c #fdfdfb",
"! c None",
/* pixels */
"!!!!!!!!!!!!!!!!   !!!!!!!!!!!!!",
"!!!!!!!!!!!!!!  NFU  !!!!!!!!!!!",
"!!!!!!!!!!!   DQ   HU  !!!!!!!!!",
"!!!!!!!!!!! QK  cHQ  FU  !!!!!!!",
"!!!!!!!!!!! QQQQ  vJQ  FU  !!!!!",
"!!!!!!!!!  XHQQQQL  cJQ  FU  !!!",
"!!!!!!!  c4  FFQQQQ .nIIQ  UT !!",
"!!!!!  ABv61<  GQQQ G%DIIRQ DQ !",
"!!!  KHDVmc4EE FQQQ YK%DUYW GE !",
"!  KKJKFAVEEPF HQQQ EYK1DUT FY !",
"! EKKKKHEEJFFF FQQQ      DT FR !",
"! YEEKEEPHFFFA FQQQWHLHH DY DY !",
"! YTYEUUP4vFUU FWQQQQQQQ AY DY !",
"! YYYRII&cNnXV AEEQQQQQQ JY FY !",
"! UUUTII$-@fOV ATTEEQQQQ DU DU !",
"! UIUTPPXjzz+A AUYTREQQQ VU VU !",
"! PPPYPPxhlh+A VUUYTEEEQ VI VI !",
"! PKLUJLZggk;F NIIUUYTTE NU NI !",
"! JJJIHFHM=3AV nPPIUUYYE NP NP !",
"! FFFIFFFSVADN vKLPIUUUY nP nP !",
"! FDDPDFD:nFYI vHJKLPIIU nK nJ !",
"! SSSKVD&cNnX4 vGHHKPPIU cJ cJ !",
"! CCCKVD$aqwo6 vHHHHJKPP cJ 6J !",
"! BCBHNAXypu01 vHGGHHHKL 6F 6G !",
"! mmmHmBitre91 vHGGHGHHJ 4D 4A !",
"! bbbGnmsw87*1   HHGHHGH 1D >D !",
"! dddHNnn4,,4& !!  JHGHG >D  V !",
"! d55FN66cc4#  !!!!  HHH  V !  !",
"! 222Dn561%  !!!!!!!!  H !  !!!!",
"!  22Dc5X  !!!!!!!!!!!!  !!!!!!!",
"!!!  D>  !!!!!!!!!!!!!!!!!!!!!!!",
"!!!!!  !!!!!!!!!!!!!!!!!!!!!!!!!"
};
