/* XPM */
static char *magick[] = {
/* columns rows colors chars-per-pixel */
"32 32 162 2",
"   c #000001",
".  c #0a0a0c",
"X  c #2e3234",
"o  c #5a5e5c",
"O  c #6a6664",
"+  c #666e74",
"@  c #6f726c",
"#  c #6a7274",
"$  c #6a7a7f",
"%  c #747674",
"&  c #7a767c",
"*  c #7a7e74",
"=  c #7e7c7c",
"-  c #363a94",
";  c #3a4a9c",
":  c #464eac",
">  c #5a62ac",
",  c #6e7284",
"<  c #7e7e94",
"1  c #666eb4",
"2  c #6676ac",
"3  c #6e72b4",
"4  c #7e9a9c",
"5  c #6682a4",
"6  c #827e7c",
"7  c #d05e64",
"8  c #ce626c",
"9  c #ca6e74",
"0  c #ca7279",
"q  c #da6a6c",
"w  c #d26e74",
"e  c #d27274",
"r  c #d2767c",
"t  c #ae7e9c",
"y  c #ce7a84",
"u  c #d07e84",
"i  c #828483",
"p  c #8b8c8a",
"a  c #8e928c",
"s  c #82969c",
"d  c #928e8c",
"f  c #969294",
"g  c #969a94",
"h  c #9a9696",
"j  c #9c9c9b",
"k  c #8692ac",
"l  c #8e9aa4",
"z  c #859ebc",
"x  c #9ea29c",
"c  c #8ea2ac",
"v  c #92aebc",
"b  c #9aaeb4",
"n  c #a69e9c",
"m  c #a29ea0",
"M  c #a2a2a3",
"N  c #a8a6a4",
"B  c #aaaba9",
"V  c #a2aeb4",
"C  c #aeb2ac",
"Z  c #aab2b0",
"A  c #aebabc",
"S  c #b1acac",
"D  c #b2b2ae",
"F  c #b6b4b2",
"G  c #bab6bb",
"H  c #bdbcbb",
"J  c #8e96c4",
"K  c #96aac4",
"L  c #96b6c4",
"P  c #96bacc",
"I  c #9abecc",
"U  c #a6bac4",
"Y  c #a4becc",
"T  c #aabad4",
"R  c #bec6bc",
"E  c #9ec2d4",
"W  c #a6c6cc",
"Q  c #b2c2c4",
"!  c #bcc2c2",
"~  c #b2c2d4",
"^  c #b2ced4",
"/  c #bacad4",
"(  c #bedadc",
")  c #bed2e4",
"_  c #d68284",
"`  c #d2848c",
"'  c #da868c",
"]  c #d88a8c",
"[  c #d98e91",
"{  c #db969b",
"}  c #ce96a4",
"|  c #c2bebe",
" . c #d2a6ac",
".. c #daaeac",
"X. c #dab2b4",
"o. c #e2a2a4",
"O. c #e2a6ac",
"+. c #e2acac",
"@. c #e6aab0",
"#. c #eeb2b4",
"$. c #edbabc",
"%. c #eebec4",
"&. c #f2bec4",
"*. c #c5c4c3",
"=. c #c6cacc",
"-. c #cdcccc",
";. c #c2d2d4",
":. c #ccd3d3",
">. c #d6cecc",
",. c #deced4",
"<. c #d3d4d4",
"1. c #d6dad4",
"2. c #d2dadc",
"3. c #dcdcdb",
"4. c #cadee4",
"5. c #d1dee4",
"6. c #d6deec",
"7. c #dadee0",
"8. c #c6e2e4",
"9. c #cee2e4",
"0. c #cae2ec",
"q. c #cae6f4",
"w. c #ccecf4",
"e. c #d6e6e4",
"r. c #d2eaec",
"t. c #dde5e4",
"y. c #d3ecf2",
"u. c #d6f2f4",
"i. c #dcf4f5",
"p. c #d8f2fc",
"a. c #defafc",
"s. c #ecc2c4",
"d. c #eecacc",
"f. c #e3dedc",
"g. c #eed2d4",
"h. c #f1d6dc",
"j. c #f6dadc",
"k. c #eedee4",
"l. c #f4dee4",
"z. c #e6e2dc",
"x. c #e4e4e1",
"c. c #e6e6ec",
"v. c #e0eeec",
"b. c #eae2e1",
"n. c #eee4ea",
"m. c #ebecec",
"M. c #e8eef0",
"N. c #e3f5f5",
"B. c #e4fafb",
"V. c #e9f3f5",
"C. c #eafaf7",
"Z. c #ebfbfa",
"A. c #f6e2e4",
"S. c #f6e6e8",
"D. c #f5ebec",
"F. c #faeeec",
"G. c #f2f6f8",
"H. c #f4fbfb",
"J. c #fbf4f3",
"K. c #fefaf4",
"L. c #fafafc",
"P. c None",
/* pixels */
"P.P.P.P.P.P.P.P.P.P.P.P.P.            P.P.P.P.P.P.P.P.P.P.P.P.P.",
"P.P.P.P.P.P.P.P.P.P.      *.! H =.-.:.      P.P.P.P.P.P.P.P.P.P.",
"P.P.P.P.P.P.P.P.    *.H j = @ @ % i a S -.=.    P.P.P.P.P.P.P.P.",
"P.P.P.P.P.      *.F p * a N F M G B g p i N -.*.      P.P.P.P.P.",
"P.P.P.P.  3.t.*.a p < 1.V.H.Z.: u.B.N.e.R , j D 1.3.1.  P.P.P.P.",
"P.P.P.  L.z.i p M k > G.L.S.g.t ..X.,.V.v.> k N N x.j -.  P.P.P.",
"P.P.P.  =.p @ *.m.H.k J.D.l.d.+.[ y e e } J V.9.B n i *.  P.P.P.",
"P.P.P.  D i G V.H.L.J.K.J.F.g.+.[ ` u 0 9 w  .V.4.n N H   P.P.P.",
"P.P.  F j H =.C.J.K.K.J.J.l.%.o.[ ` y 0 9 7 ^   ( U | H *.  P.P.",
"P.P.  H x :.3 D.J.K.K.D.j.s.+.{ ] _ r 9 8 ^   # K v A -.>.  P.P.",
"P.  G x <.H.L.G.K.J.F.j.s.+.o.] ] _ r 8 ^   $ 1 ~ 8.) <.<.=.  P.",
"P.  -.M G.H.J.K.K.S.j.d.$.@.o.{ ' r q ^   , N.i.i.i.w.:.3.<.  P.",
"P.  F >.G.K.K.K.J.S.h.%.$.#.O.{ _ q ^   s N.N.N.u.a.i.4.3.-.  P.",
"  7.N 2.k V.J.J.F.l.h.d.d.$.@.{ e ^   $ N.B.i.N.C.) J z <.-.7.  ",
"  7.B b.- 3 m.m.S.k.h.h.g.d.%.#.^   $ i.C.i.i.u.B.3 ; 5 z.3.>.  ",
". -.S V.J m.n.m.c.b.b.n.f.f.x.# c # N.H.N.i.i.N.i.p.J v z.3.=.  ",
"  -.F v.B.M.z.b.x.m.m.m.G.H.2.l :.# C.N.N.i.i.u.u.i.i.P m.3.-.  ",
"  7.D x.Z.N.m.M.M.V.B.Z.C.N.e.# # B.V.i.i.i.i.v.i.i.p.P m.1.>.  ",
". 3.D <.4.6.6.B.N.V.k.e.x.Z.N.H.Z.Z.v.t.N.i.i.i.0.) 0.P f.! 7.  ",
"P.  R *.! 3 J B.C.Z X X   y.B X <.Z.o X + r.i.i.T 2 4 -.3.H   P.",
"P.  -.M 4.4.V.N.i.x.*.X ! 2.X V X e.X u.X *.i.u.B.y.L -.<.*.  P.",
"P.  G M <.C.B.i.i.i.y.X y.! X i.X R X i.X =.i.p.u.w.Y b.| G   P.",
"P.P.  -.M u.i.B.y.B.r.X r.5.X ! X 2.X X b N.r.i.w.E <.-.G   P.P.",
"P.P.  U n | v.z 3 4.r.X y.N.a X ;.B.X 9.i.y.3 z Y 2.<.Z G   P.P.",
"P.P.P.  -.j | 3 v y.y.Q p.p.C.V.Z.i.Q y.i.p.( 3 x.-.Z B   P.P.P.",
"P.P.P.  | = p -.W N.i.i.i.u.i.p.i.p.u.p.u.q.L c.| j % H   P.P.P.",
"P.P.P.  *.f.O f G R L L w.p.p.u.p.i.w.L L L x.H p x.p *.. P.P.P.",
"P.P.P.P.  F B n p G *.n.L I L I P I E c./ >.S i d M B   P.P.P.P.",
"P.P.P.P.P.      G h & S G -.f.z.f.<.*.S j 6 d G       P.P.P.P.P.",
"P.P.P.P.P.P.P.P.    G f i i h m f 6 @ & f F   . P.P.P.P.P.P.P.P.",
"P.P.P.P.P.P.P.P.P.P.      G M h h S G       P.P.P.P.P.P.P.P.P.P.",
"P.P.P.P.P.P.P.P.P.P.P.P.P.    .       P.P.P.P.P.P.P.P.P.P.P.P.P."
};
