/* XPM */
static char *magick[] = {
/* columns rows colors chars-per-pixel */
"34 34 169 2",
"   c #000000",
".  c #225a0c",
"X  c #266214",
"o  c #2a6614",
"O  c #2a6a1c",
"+  c #26740c",
"@  c #227d04",
"#  c #2e761c",
"$  c #2e7e14",
"%  c #367a24",
"&  c #4e4a04",
"*  c #534f1a",
"=  c #565404",
"-  c #5e5a04",
";  c #5a561a",
":  c #5d5a1a",
">  c #625e04",
",  c #615d1a",
"<  c #666404",
"1  c #6a6604",
"2  c #6e6b04",
"3  c #65611a",
"4  c #6c681a",
"5  c #726e04",
"6  c #706c1a",
"7  c #757404",
"8  c #7a7604",
"9  c #7c7a04",
"0  c #73731a",
"q  c #7b771a",
"w  c #7e7b1a",
"e  c #02b634",
"r  c #228204",
"t  c #268e04",
"y  c #2b820c",
"u  c #2a8e0c",
"i  c #2a920c",
"p  c #2a9c04",
"a  c #368a1c",
"s  c #3a8a1c",
"d  c #3a9624",
"f  c #3e9e24",
"g  c #2ea604",
"h  c #2ea20c",
"j  c #2eaa04",
"k  c #2eae0c",
"l  c #32a604",
"z  c #36a614",
"x  c #36b20c",
"c  c #32ba04",
"v  c #36bb0c",
"b  c #3abc0c",
"n  c #36b614",
"m  c #36be14",
"M  c #3abe14",
"N  c #2ede1c",
"B  c #3ac20c",
"V  c #3ace0c",
"C  c #3ec614",
"Z  c #3ed214",
"A  c #3ee20c",
"S  c #3eee0c",
"D  c #3ef20c",
"F  c #46ae14",
"G  c #46b61c",
"H  c #42be1c",
"J  c #6a9a2c",
"K  c #76922c",
"L  c #6ea22c",
"P  c #42ca14",
"I  c #42d614",
"U  c #46d61c",
"Y  c #46da14",
"T  c #4ad21c",
"R  c #4ac624",
"E  c #4bc634",
"W  c #4ed224",
"Q  c #4ada24",
"!  c #52d62c",
"~  c #56de3c",
"^  c #43e20c",
"/  c #42eb0c",
"(  c #4aea0c",
")  c #42e214",
"_  c #4ae21c",
"`  c #44f20c",
"'  c #4ef214",
"]  c #52f21c",
"[  c #4af224",
"{  c #56e624",
"}  c #56ee24",
"|  c #76ca2c",
" . c #62e63c",
".. c #72f23c",
"X. c #56ce44",
"o. c #62c254",
"O. c #6eee4c",
"+. c #827e04",
"@. c #838204",
"#. c #8a8604",
"$. c #8e8b04",
"%. c #85821a",
"&. c #89851a",
"*. c #8d891a",
"=. c #939204",
"-. c #9a9604",
";. c #9c9a04",
":. c #98981a",
">. c #a4a304",
",. c #aaa604",
"<. c #abab04",
"1. c #aeae14",
"2. c #b4b40c",
"3. c #bebe24",
"4. c #a6a254",
"5. c #b6b67c",
"6. c #a2d24c",
"7. c #c6be34",
"8. c #c6c62c",
"9. c #cac23c",
"0. c #ceca34",
"q. c #cec644",
"w. c #ceca4c",
"e. c #d2cc4c",
"r. c #d6d24c",
"t. c #dad45c",
"y. c #deda54",
"u. c #deda5c",
"i. c #deda64",
"p. c #dae264",
"a. c #e2de6c",
"s. c #e3e274",
"d. c #eee674",
"f. c #faee6c",
"g. c #fef26c",
"h. c #fef274",
"j. c #fef37c",
"k. c #b6b684",
"l. c #b2b2b4",
"z. c #babab4",
"x. c #d2e694",
"c. c #eae684",
"v. c #eef28c",
"b. c #fef284",
"n. c #fef58c",
"m. c #fcf494",
"M. c #fcf49c",
"N. c #fef6a4",
"B. c #fcf4ac",
"V. c #fefaac",
"C. c #fbf6b4",
"Z. c #fef6bc",
"A. c #fefab4",
"S. c #fefabc",
"D. c #cee2c4",
"F. c #faf6c4",
"G. c #faf6cc",
"H. c #fefac4",
"J. c #fefacc",
"K. c #fefad4",
"L. c #fefadc",
"P. c #f6f6e4",
"I. c #f6f6ec",
"U. c #fefae4",
"Y. c #fefeec",
"T. c #f6f6f4",
"R. c #fefbf4",
"E. c #fefefc",
"W. c None",
/* pixels */
"W.W.W.W.W.W.W.W.W.W.W.W.W.W.W.W.W.W.W.W.W.W.W.W.W.W.W.W.W.W.W.W.W.W.",
"W.W.W.W.W.W.W.W.W.W.W.W.W.W.W.W.W.W.W.W.W.W.W.W.W.W.W.W.W.W.W.W.W.W.",
"W.W.W.W.W.W.W.W.W.P W Q B W.W.W.W.W.W.W.S ^ ( W.W.W.W.W.W.W.W.W.W.W.",
"W.W.W.W.W.W.W.W.C $ # X R } W.W.W.W.` A b z a E W.W.W.W.W.W.W.W.W.W.",
"W.W.W.W.W.W.W.W.g . . W.O ! ] W.W.] S % W.W.O + r W.W.W.W.W.W.W.W.W.",
"W.W.W.W.W.W.W.W.G + W.W.W.s H W.W.{ % W.W.W.O + y W.W.W.W.W.W.W.W.W.",
"W.W.W.W.W.W.W.W.N y O W.W.  H a Z   W.W.W.o o + W.W.W.W.W.W.W.W.W.W.",
"W.W.W.W.W.W.W.W.W.U O     P [ E [ A.    O X X W.W.W.W.W.W.W.W.W.W.W.",
"W.W.W.W.W.W.W.W.W.  y k T [ U E B N.B.o O   W.W.W.W.W.W.W.W.W.W.W.W.",
"W.W.W.W.W.W.W.    [ [ ] ' ~ E u h h c b k ,.    W.W.W.W.W.W.W.W.W.W.",
"W.W.W.W.W.    ' ' ' ' d @ O.E u p F | p.s.r.0.<.    W.W.W.W.W.W.W.W.",
"W.W.W.    ' ] ' z E.o.y X + D D y % J s.d.i.w.3.<.<.    W.W.W.W.W.W.",
"W.W.W.  l._ y E.E. .Z n @ g l { S V p $ L i.u.8.1.7 9   W.W.W.W.W.W.",
"W.W.W.  E.f z.z.p v x l l x.M.D S S c p t @ K 7 7 -.:.  W.W.W.W.W.W.",
"W.W.W.  T.E.E.E.^ v l D.G.C.n.v.D / A 6.u p @ >.>.-.*.  W.W.W.W.W.W.",
"W.W.W.  T.E.R.E.) x h k.Z.S.N.n...` ` 2 k p r =.=.$.&.  W.W.W.W.W.W.",
"W.W.W.  T.E.R.R.) b l H.k.k.N.m.X./ ` ,.j p r $.$.#.%.  W.W.W.W.W.W.",
"W.W.W.  T.R.R.R.^ b l J.Z.C.5.4.@.N Y ,.j p r #.#.+.+.  W.W.W.W.W.W.",
"W.W.W.  T.Y.R.R.^ v l A.V.C.V.s.2.e e >.j p r @.9 9 q   W.W.W.W.W.W.",
"W.W.W.  I.U.L.L.A m j C.V.V.S.c.3.<.,.;.j p r 9 9 7 0   W.W.W.W.W.W.",
"W.W.W.  P.K.J.G.^ v l C.V.V.V.i.2.<.>.;.j p r 7 7 5 0   W.W.W.W.W.W.",
"W.W.W.  P.J.F.G.^ v g A.C.B.N.i.<.,.;.=.j p @ 5 5 4 4   W.W.W.W.W.W.",
"W.W.W.  G.J.J.F.^ b l N.N.B.M.t.>.;.=.$.j p r 2 2 < 3   W.W.W.W.W.W.",
"W.W.W.  F.H.Z.Z.^ b l N.M.V.m.t.;.-.=.#.j p r < 1 > ,     W.W.W.W.W.",
"W.W.W.  J.S.A.C.^ v l M.m.M.b.e.-.$.$.@.j p r > > - ,         W.W.W.",
"W.W.W.  S.V.C.B.^ M l M.m.n.m.e.=.$.@.9 j p @ - = = :         W.W.W.",
"W.W.W.  B.V.N.B.^ n l m.n.b.n.q.$.#.@.8 j p @ = = & *     W.W.W.W.W.",
"W.W.W.W.    B.B.^ B l b.b.j.j.w.#.9 8 7 j p r * &     W.W.W.W.W.W.W.",
"W.W.W.W.W.W.    ) C g n.b.j.h.9.@.9 7 2 k p @     W.W.W.W.W.W.W.W.W.",
"W.W.W.W.W.W.W.W.    g j.h.h.f.9.8 7 5 < z     W.W.W.W.W.W.W.W.W.W.W.",
"W.W.W.W.W.W.W.W.W.W.    f.g.g.9.7 5 1     W.W.W.W.W.W.W.W.W.W.W.W.W.",
"W.W.W.W.W.W.W.W.W.W.W.W.    g.9.1     W.W.W.W.W.W.W.W.W.W.W.W.W.W.W.",
"W.W.W.W.W.W.W.W.W.W.W.W.W.W.      W.W.W.W.W.W.W.W.W.W.W.W.W.W.W.W.W.",
"W.W.W.W.W.W.W.W.W.W.W.W.W.W.W.W.W.W.W.W.W.W.W.W.W.W.W.W.W.W.W.W.W.W."
};
