/* XPM */
static char *magick[] = {
/* columns rows colors chars-per-pixel */
"32 32 9 1",
"  c black",
". c gray19",
"X c #585858",
"o c navy",
"O c #0000c0",
"+ c blue",
"@ c #800000",
"# c #c00000",
"$ c red",
/* pixels */
"                                ",
"                                ",
"  ...... ++++++++++++++++ ....XX",
"  ...... +OOOOOOOOOOOOOOo ....XX",
"  ...... +Oooooooooooo+Oo ....XX",
"  ...... +Oo          +Oo ....XX",
"         +Oo ........ +Oo ....XX",
"  ++++++++Oo ........ +Oo ....XX",
"  +OOOOOOOOo ........ +Oo ....XX",
"  +Ooooooooo ........ +Oo ....XX",
"  +Oo             ... +Oo ....XX",
"  +Oo $$$$$$$$$$$ ... +Oo ....XX",
"  +Oo $#########@ ... +Oo ....XX",
"  +Oo $#@@@@@@$#@ ... +Oo ....XX",
"  +Oo $#@     $#@ ... +Oo ....XX",
"  +Oo $#@ ... $#@ ... +Oo ....XX",
"  +Oo $#@ ... $#@ ... +Oo ....XX",
"  +Oo $#@ ... $#@ ...     ....XX",
"  +Oo     ... $#@             XX",
"  +Oo ....... $#$$$$$$$$$$$$@ XX",
"  +Oo ....... $#############@ XX",
"  +Oo ....... @@@@@@@@@@@@$#@ XX",
"  +Oo .......             $#@ XX",
"      ................... $#@ XX",
"  ....................... $#@ XX",
"  .............           $#@ XX",
"  ............. $$$$$$$$$$$#@ XX",
"  ............. ############@ XX",
"  ............. @@@@@@@@@@@@@ XX",
"  .............               XX",
"XXXXXXXXXXXXXXXXXXXXXXXXXXXXXXXX",
"XXXXXXXXXXXXXXXXXXXXXXXXXXXXXXXX"
};
