/* XPM */
static char *magick[] = {
/* columns rows colors chars-per-pixel */
"32 29 31 1",
"  c black",
". c #000033",
"X c #003333",
"o c gray20",
"O c #006633",
"+ c #336633",
"@ c #0033ff",
"# c #3333ff",
"$ c #6666ff",
"% c #009933",
"& c #339933",
"* c #669933",
"= c #6699cc",
"- c #6699ff",
"; c #9900cc",
": c #9900ff",
"> c #9933cc",
", c #9933ff",
"< c #9966cc",
"1 c #9966ff",
"2 c #cc00cc",
"3 c #cc66cc",
"4 c #cc66ff",
"5 c #9999cc",
"6 c #9999ff",
"7 c #cc99ff",
"8 c #ff99ff",
"9 c #ccccff",
"0 c #ffccff",
"q c white",
"w c None",
/* pixels */
"wwwwwwwwwwwwwwwwwww14114wwwwwwww",
"wwwwwwwwwwwwwwwwww6qqqq66wwwwwww",
"wwwwwww464141wwww4q909941wwwwwww",
"wwwwww1qq09976ww1q0917966wwwwwww",
"wwwww4q99171416w7q14117$1764wwww",
"wwwww1q01719176176667167qqqq7www",
"wwwww7q949617116016161qq979916ww",
"wwwww1q94661-761-1@6@q9q4771716w",
"wwwwww499116#@101#@#946$614616#w",
"wwwwwww671#@#@>#@##11@6166666$#w",
"www71717616#>,q, 6@6##@15$11@#>w",
"w1790997616,q7,, #@#@##@#6@##1ww",
"7q971711##>q6>,X#11611@,#@#>,www",
"1q9096@6@#.,,. #@#=1666#,>,wwwww",
"1q71711#@#-;X7#@#@#1611#>wwwwwww",
"1711@##777#67#@##6$6171@,***wwww",
"#66##q71##@710@1@166166#>++%**ww",
">#@#976@1#17961#6#$791#,*%%+++;w",
"w>6q97@6@#q9166$11776@>+o*;%%+:;",
"w1q0614@1#q096<67191#;:+*+%o++%;",
"w7q946616@q68909901@;,w;+o+%%++:",
"w1q963161#@064116@#,%;;w:O++;:;w",
"ww#70616@>,#@####>,w%&,ww;::;www",
"ww,@##@#,ww>,>,>,wwww%*>wwwwwwww",
"www,>,>,wwwwwwwwwwwwww%2wwwwwwww",
"wwwwwwwwwwwwwwwwwwwwww%*2wwwwwww",
"wwwwwwwwwwwwwwwwwwwwwww%:wwwwwww",
"wwwwwwwwwwwwwwwwwwwwwww%*2wwwwww",
"wwwwwwwwwwwwwwwwwwwwwwww>:wwwwww"
};
