/* XPM */
static char *magick[] = {
/* columns rows colors chars-per-pixel */
"32 32 136 2",
"   c #010103",
".  c #04040c",
"X  c #060a0c",
"o  c #0b0404",
"O  c #0a060c",
"+  c #0a0a04",
"@  c #0c0c0c",
"#  c #120e0c",
"$  c #1a0c04",
"%  c #16160c",
"&  c #121214",
"*  c #1e1a14",
"=  c #1b1b1c",
"-  c #24160c",
";  c #241c14",
":  c #2e2a1c",
">  c #262624",
",  c #2a2a24",
"<  c #322e2c",
"1  c #3e2e24",
"2  c #36362c",
"3  c #3a3224",
"4  c #3a362c",
"5  c #3c3c3c",
"6  c #461e04",
"7  c #4a260c",
"8  c #4e2e14",
"9  c #562e14",
"0  c #423a2c",
"q  c #4a3e34",
"w  c #662e04",
"e  c #6d3204",
"r  c #6a3a14",
"t  c #763604",
"y  c #763a0c",
"u  c #7e3604",
"i  c #4a422c",
"p  c #4e463c",
"a  c #52463c",
"s  c #564e34",
"d  c #564e3c",
"f  c #5e4e3c",
"g  c #62462c",
"h  c #424244",
"j  c #4a4a44",
"k  c #4b4b4c",
"l  c #625a44",
"z  c #6a5644",
"x  c #6e5a44",
"c  c #6e6244",
"v  c #76624c",
"b  c #7a6a54",
"n  c #7e7254",
"m  c #626264",
"M  c #6a6a6c",
"N  c #767674",
"B  c #7a7e84",
"V  c #5ad64c",
"C  c #8e3614",
"Z  c #82460c",
"A  c #924204",
"S  c #92460c",
"D  c #ab4e04",
"F  c #ac5404",
"G  c #b65604",
"H  c #bc5604",
"J  c #ba5a04",
"K  c #be5e0c",
"L  c #b65624",
"P  c #ae662c",
"I  c #866e44",
"U  c #826a54",
"Y  c #8e7c5c",
"T  c #867664",
"R  c #9a7e64",
"E  c #a26e44",
"W  c #c45a04",
"Q  c #d25e04",
"!  c #c2722c",
"~  c #ce7e3c",
"^  c #9e825c",
"/  c #968664",
"(  c #9e8a64",
")  c #9a8a6c",
"_  c #968a7c",
"`  c #ba8e5c",
"'  c #a68a6c",
"]  c #aa8e6c",
"[  c #a68e74",
"{  c #b29a74",
"}  c #bea67c",
"|  c #d69654",
" . c #d2ae7c",
".. c #e6a254",
"X. c #e6b674",
"o. c #828284",
"O. c #8e8e8c",
"+. c #a6a6a4",
"@. c #aaaaa4",
"#. c #adadac",
"$. c #b2b2ac",
"%. c #b4b4b4",
"&. c #babab4",
"*. c #bdbdbc",
"=. c #c2aa84",
"-. c #d6b284",
";. c #debe8c",
":. c #d2ba94",
">. c #dec294",
",. c #c2c2bc",
"<. c #e4c294",
"1. c #e2c69c",
"2. c #eac394",
"3. c #eccc9c",
"4. c #f2c684",
"5. c #f6ce9c",
"6. c #f4d29c",
"7. c #f4d2a4",
"8. c #f6d6ac",
"9. c #fad6a4",
"0. c #fedaa4",
"q. c #fadaac",
"w. c #fae2ac",
"e. c #c4c4c4",
"r. c #cacac4",
"t. c #cccccc",
"y. c #d2d2cc",
"u. c #d4d4d4",
"i. c #dadad4",
"p. c #dddddc",
"a. c #e2e2dc",
"s. c #e5e5e4",
"d. c #eaeae4",
"f. c #ededec",
"g. c #fefefc",
"h. c None",
/* pixels */
"h.                                                            h.",
"  g.g.g.g.g.g.g.g.g.g.g.g.g.g.g.g.g.g.g.g.g.g.g.g.g.g.g.g.g.#.  ",
"  g.f.f.f.f.d.s.s.a.p.p.p.i.u.u.y.t.t.t.r.e.e.,.*.*.*.&.%.%.N   ",
"  g.f.f.f.d.s.s.s.p.p.i.i.u.u.y.t.t.r.r.e.e.,.*.,.&.&.%.%.$.N   ",
"  g.f.f.o.o.o.o.o.o.o.o.o.o.o.o.o.o.o.o.o.o.o.o.o.o.o.s.%.#.N   ",
"  g.f.s.o.                                            g.$.#.N   ",
"  g.f.s.o.  V                             .           g.#.#.N   ",
"  g.s.s.o.    V           .     .                     g.#.@.N . ",
"  g.s.s.o.  V     V V           o o 6 w e t t w 6 o   g.#.@.N   ",
"  g.s.s.o.              .   $ u H H H H G W W W H t   g.@.+.N   ",
"  g.a.p.o..                 A Q W H G F F F H H D S r e.M +.N   ",
"  g.s.a.o.            .     e Q W W G F F G D Z 8 - ; - 5 M j . ",
"  g.p.p.B                   o e P | ~ D F y 7 o     @ @   O =   ",
"  g.p.p.o.                      ` 6.;.E 9 $       = * < &       ",
"  g.p.i.o..         .           7.7.X.^ @ .     + X   + = +     ",
"  g.i.u.o.                .     s s 5.6.* @   + .       & & .   ",
"  g.i.u.o.  .               . I 5.7.3.5.g < n ) a &       +   . ",
"  g.u.u.o.        .         n 7.7.7.7.7...q  .w.;.4   ; : %     ",
"  g.u.y.o.                  , T U 4.8.9.4.i s s 5.2 < Y 5.Y @   ",
"  g.y.u.o.                    C L ! 7.2.x -.3.8.7.s b 5.d 5.*   ",
"  g.t.t.o.      .             2.3.5.6.x  .7.3.5.8.3.q.( =.7.*   ",
"  g.y.y.#.g.g.g.g.g.g.g.g.g.g.k 7.7.' b x x Y 8.5.9.9.7.7.l .   ",
"  g.t.r.r.e.e.,.*.*.&.%.%.%.$.#.k k B [ } c 5.7.v 3.7.5.7./ o   ",
"  g.t.t.r.e.e.*.*.&.*.&.%.%.$.#.#.+.+._ 9.  0 0 >.q.5.7.9.5.f   ",
"  #.N N N N N N N N N N N N N N N N N 5.9.[ s 3.3. .d ;.7. .z   ",
"h.                                p :.0.<.] 1 @ . 3 2.q.2.R   h.",
"h.h.h.h.h.h.h.h.  , 5 k m O.e.g.g.k j j k * O h.@ { q.5.(   h.h.",
"h.h.h.h.h.h.h.h.  , 5 k m O.e.f.g.f.*.O.m 5     >.7..     h.h.h.",
"h.h.h.h.h.      5 h h h h h h q 5 5 h h h h h       h.h.h.h.h.h.",
"h.h.h.h.  i.p.p.p.p.p.p.p.p.p.a.p.p.p.p.p.p.p.p.p.u.  h.h.h.h.h.",
"h.h.h.h.  o.o.o.o.o.o.o.o.o.o.o.o.o.o.o.o.o.o.o.o.o.  h.h.h.h.h.",
"h.h.h.h.            .     .   +                       h.h.h.h.h."
};
