/* XPM */
static char *magick[] = {
/* columns rows colors chars-per-pixel */
"32 32 116 2",
"   c #000000",
".  c #080606",
"X  c #0b0b0b",
"o  c #121212",
"O  c #1a1313",
"+  c #1c1c1c",
"@  c #242424",
"#  c #2c2524",
"$  c #2a2929",
"%  c #323232",
"&  c #3d3d3d",
"*  c #424242",
"=  c #4b4b4b",
"-  c #535353",
";  c #5a5a5a",
":  c #635958",
">  c #626263",
",  c #6d6d6d",
"<  c #7a7063",
"1  c #727274",
"2  c #7b7b7b",
"3  c #73718d",
"4  c #04b3b9",
"5  c #07e7e9",
"6  c #0afffe",
"7  c #847a6a",
"8  c #95846d",
"9  c #958670",
"0  c #938a7a",
"q  c #998972",
"w  c #9f917d",
"e  c #a39176",
"r  c #a79479",
"t  c #aa987d",
"y  c #848484",
"u  c #8d8680",
"i  c #8c8c8c",
"p  c #999082",
"a  c #939393",
"s  c #9b9b9b",
"d  c #a29789",
"f  c #a1998c",
"g  c #ae9c83",
"h  c #ab9d89",
"j  c #b39e81",
"k  c #a8a195",
"l  c #aea69b",
"z  c #afa89c",
"x  c #b6a68d",
"c  c #b0a597",
"v  c #baab98",
"b  c #a3a3a3",
"n  c gray67",
"m  c #b2aba1",
"M  c #b7b1a8",
"N  c #beb3a3",
"B  c #bbb5ac",
"V  c #b5b5b5",
"C  c #beb8b0",
"Z  c #bcbcbc",
"A  c #c2ac8d",
"S  c #ccb494",
"D  c #c9b79e",
"F  c #d1b999",
"G  c #ccbeaa",
"H  c #c2bdb5",
"J  c #dac09e",
"K  c #c6c1b9",
"L  c #c9c5bd",
"P  c #d5c0a2",
"I  c #d7c7ae",
"U  c #dec4a1",
"Y  c #dfcaad",
"T  c #d5cabb",
"R  c #e0c6a3",
"E  c #e2c8a4",
"W  c #e4cdac",
"Q  c #e6d2b6",
"!  c #e8d3b5",
"~  c #e9d6bb",
"^  c #ebd9bf",
"/  c #c3c3c3",
"(  c #cbc7c0",
")  c #cdc9c2",
"_  c #cccccc",
"`  c #d0ccc5",
"'  c #d1cec9",
"]  c #d5d2cd",
"[  c #d8d4cf",
"{  c #d2d2d2",
"}  c #d9d6d1",
"|  c #dcd9d4",
" . c #dbdbdb",
".. c #ecdcc4",
"X. c #eedfc9",
"o. c #e0ddd9",
"O. c #e3e1dd",
"+. c #eae0d2",
"@. c #eee7dd",
"#. c #f0e2ce",
"$. c #f1e5d3",
"%. c #f3e9dc",
"&. c #e4e3e2",
"*. c #e8e6e4",
"=. c #ebe9e6",
"-. c #ecebea",
";. c #f4ede4",
":. c #f0efed",
">. c #f7f0e6",
",. c #f7f2ec",
"<. c #f8f3ec",
"1. c #f4f3f2",
"2. c #faf6f0",
"3. c #fbf8f5",
"4. c #fefefe",
"5. c None",
/* pixels */
"5.5.- ; - - * * & $ @ @ O o X .               5.5.5.5.5.5.5.5.5.",
"5.; 4.; Z 4.4.4.4.4.4.4.4.4.4.4.4.4.4.4.3.2.  5.5.5.5.5.5.5.5.5.",
"- 4.4.; Z 4.4.4.4.4.4.4.4.4.4.4.4.4.4.3.3.<.  5.5.5.5.5.5.5.5.5.",
"; - ; - Z 4.2 s 4.2 ; 2 ; s &.2 ; 4.; ; <.<.        5.5.5.5.5.5.",
"; Z Z Z Z 4.4.4.4.4.4.4.4.4.4.4.4.4.3.2.<.>.  b -.  5.5.5.5.5.5.",
"- 4.4.4.4.4.4.4.4.4.4.{ i 1 1 , y V <.<.>.;.  b -.  5.5.5.5.5.5.",
"* 4.4.; 2 &.2 V 4./ > $ $ $ $ &   & > b %.%.  b 1.  5.5.5.5.5.5.",
"* 4.4.4.4.4.4.4.n $ $ V -.4.-.{ 4._ o o 1 +.  b -.  5.5.5.5.5.5.",
"& 4.4.; 4.2 4.n $ b -.4.1.4.4.4.4.4.3.b @ 2 $ s -.  5.5.5.5.5.5.",
"% 4.4.4.4.4./ $ b 3. .4.n  .n { O.-.1.} n o & a  .  5.5.5.5.5.5.",
"$ 4.4.4.4.4.& , -.4.4.4.3.1.1.2.-.O.=.} 1., o 2 _   5.5.5.5.5.5.",
"@ 4.4.; &._ $ / -. .{ V / u C -.f z O.=.1.Z + ; V   5.5.5.5.5.5.",
"+ 4.4.4.4.; @ 4.{  .-.1.4.3.*.O.[ L H | O.=.+ % b   5.5.5.5.5.5.",
"O 4.4.; 4.$ 1 4.4.4.4.4.4.1.-.| } ` ( [ } :.; + s   5.5.5.5.5.5.",
"o 4.4.4.4.$ 1 4.4.4.4.4.1.-.| | ) ) L ) ) O.; + a   5.5.5.5.5.5.",
"X 4.4.; { $ 1 { V _ O.1.1.} o.K ( B m d k [ ; o a   5.5.5.5.5.5.",
". 4.4.4.4.$ ; 3.*.) C 0 L d K z < p z B ] } = @ p   5.5.5.5.5.5.",
"  4.4.4.4.V $  .} -.*.| | | [ [ ( ( ( ( L L @ = a   5.5.5.5.5.5.",
"  4.4.2 V 4.$ 2 -.O.*.M C p B B 7 m z p K - . : i   5.5.5.5.5.5.",
"  4.4.4.4.3.b o s :.| | | ) ) L ) H ( } 3 . o > a   5.5.5.5.5.5.",
"  4.4.4.3.3.,.2 $ n *.O.O._ B B ` ` B 2 o $ 6   a   5.5.5.5.5.5.",
"  4.;.;.;.;.<.@.1 X   Z *.} ] o.( s * . # 5 /   a $ 5.5.5.5.5.5.",
"  4.4.;.;.;.;.%.3 1 * o   = * - + X +   4 & : /   % 5.5.5.5.5.5.",
"  4.3.;.;.;.;.%.;.T N l > o + # - q q 8     & - /   5.5.5.5.5.5.",
"  3.3.;.;.;.%.%.>.;.;.G v h w 0 q q q e r e   & - /   5.5.5.5.5.",
"  3.<.;.;.;.%.$.+.;.;.;.I D x g t t t A S A -   * - /   5.5.5.5.",
"  <.;.;.;.%.$.$.;.;.;.~ ! Y P F F S F J J J - 1   * - /   5.5.5.",
"  <.<.;.;.%.$.#.X...^ ~ ! W W E U U R E E E $ y n   & - /   5.5.",
"                                              y Z =   & - /   5.",
"5.5.5.  b s s s s s s a a a a a a i i i i i i a Z & 5.  & - /   ",
"5.5.5.  &.&.&.&. .5. . .{ { { { ' _ _ / / / / / _   5.5.  & &   ",
"5.5.5.                                              5.5.5.    5."
};
