/* XPM */
static char *magick[] = {
/* columns rows colors chars-per-pixel */
"32 32 31 1",
"  c #000000",
". c #090909",
"X c gray8",
"o c #1c1c1c",
"O c #323232",
"+ c gray30",
"@ c #585858",
"# c #7a7979",
"$ c #008586",
"% c #008b8c",
"& c #009193",
"* c #009598",
"= c #00999c",
"- c #009ea1",
"; c #00a2a5",
": c #00a6aa",
"> c #00aaae",
", c #00aeb3",
"< c #838383",
"1 c #898989",
"2 c gray65",
"3 c #acacab",
"4 c #b3b3b3",
"5 c gray74",
"6 c #c3c3c3",
"7 c #dcdada",
"8 c #e1e1e1",
"9 c #ececec",
"0 c #f1f1f1",
"q c #fefefe",
"w c None",
/* pixels */
"wwwwwwwwwwwwwwwwwwwwwwwwwwwwwwww",
"wwwwwwwwwwwwwwwwwwwwwwwwwwwwwwww",
"                          wwwwww",
" qqq+$%%&*==-;::,qqq+qqq+ wwwwww",
" q55+$%%&*==-;::,q55+q55+ wwwwww",
" q55+$%%&*==-;::,q55+q55+ wwwwww",
" ++++++++++++++++++++++++ wwwwww",
" <33qqqqqqqqqqqqqqqqqqqq6 wwwwww",
" <33qqqqqqqqqqqqq0qqqqqq6 ww   w",
" <77qqqqqqqqqqqqqqqqqqqq6 w    w",
" <77qqqqqqqqqqqqqqqqqqqq6 w    w",
" <77qqqqqqqqqqqq00qqqqqq6 w   ww",
" <77qqqqqqqqqqq024976###@  X www",
" <77qqqqqqqqqqq#########@  owwww",
" <77qqqqqqqqqqq4#<21<###@    www",
" <77qqqqqqqqqqqqqqqq03##@     ww",
" <77qqqqqqqqqqqqqqqqq0##@  .  .w",
" <77qqqqqqqqqqqqqqqqqq1#@ .w    ",
" <77qqqqqqqqqqqqqqqqq7##@.www . ",
" <33qqqqqqqqqqqqqqqq4###@  w .ow",
" <33qqqqqqqqqqqqqq93####@     ww",
" <6666666666666665#@@@@@@ . wwww",
"                  . X        www",
"wwwwwwwwwwwwwwwww   Owwww    www",
"wwwwwwwwwwwwwwww   .wwwwww. owww",
"wwwwwwwwwwwwwwwww  wwwwww  .wwww",
"wwwwwwwwwwwwwwww . wwwww  .wwwww",
"wwwwwwwwwwwwwww  .wwwwww   wwwww",
"wwwwwwwwwwwwwww  wwwwwwww   wwww",
"wwwwwwwwwwwwwwwwwwwwwwwwww  wwww",
"wwwwwwwwwwwwwwwwwwwwwwwwwwwwwwww",
"wwwwwwwwwwwwwwwwwwwwwwwwwwwwwwww"
};
