/* XPM */
static char *magick[] = {
/* columns rows colors chars-per-pixel */
"32 32 257 2",
"   c #000000",
".  c #080604",
"X  c #140807",
"o  c #1c1a0e",
"O  c #17171f",
"+  c #191710",
"@  c #00003f",
"#  c #302118",
"$  c #000544",
"%  c #000859",
"&  c #00035d",
"*  c #00086a",
"=  c #00047c",
"-  c #00107d",
";  c #5a0d09",
":  c #5d040e",
">  c #590610",
",  c #571007",
"<  c #541800",
"1  c #5b1205",
"2  c #433927",
"3  c #60090c",
"4  c #68040e",
"5  c #6a0510",
"6  c #6f0814",
"7  c #651109",
"8  c #6e100c",
"9  c #7f0c08",
"0  c #760613",
"q  c #4d4528",
"w  c #4c493c",
"e  c #514c3c",
"r  c #55503e",
"t  c #70420e",
"y  c #704a19",
"u  c #734925",
"i  c #7b693f",
"p  c #494741",
"a  c #504e48",
"s  c #524e43",
"d  c #565347",
"f  c #645f4a",
"g  c #605e58",
"h  c #6b6650",
"j  c #7e7345",
"k  c #7e744b",
"l  c #787157",
"z  c #6a6964",
"x  c #74726c",
"c  c #7a7975",
"v  c navy",
"b  c #00028c",
"n  c #000b83",
"m  c #000493",
"M  c #00009c",
"N  c #000a96",
"B  c #001695",
"V  c #17178f",
"C  c #000ea7",
"Z  c #0009bd",
"A  c #0017a6",
"S  c #002e85",
"D  c #002190",
"F  c #003fbe",
"G  c #2b35a2",
"H  c #0100c6",
"J  c #0002df",
"K  c #0006d4",
"L  c #0010d6",
"P  c #0000e6",
"I  c #0001e8",
"U  c #0000fe",
"Y  c #122ac9",
"T  c #002aff",
"R  c #004f93",
"E  c #005b8e",
"W  c #2b40ae",
"Q  c #2b49be",
"!  c #004ec4",
"~  c #0058c9",
"^  c #0058db",
"/  c #0055ff",
"(  c #006de7",
")  c #0068e8",
"_  c #0077e8",
"`  c #0075ff",
"'  c #007fff",
"]  c #2b4fcb",
"[  c #4747ff",
"{  c #5f6dd5",
"}  c #737dd5",
"|  c #0087fa",
" . c #0091ff",
".. c #009cff",
"X. c #00abff",
"o. c #00a1fc",
"O. c #00b8ff",
"+. c #00c8ff",
"@. c #00d3ff",
"#. c #00e3ff",
"$. c cyan",
"%. c #5db0f6",
"&. c #7385de",
"*. c #788be5",
"=. c #7392ed",
"-. c #86060c",
";. c #810a16",
":. c #8a0915",
">. c #9e040c",
",. c #97050d",
"<. c #920714",
"1. c #970a19",
"2. c #9d1318",
"3. c #982d23",
"4. c #ad050c",
"5. c #ad0c1f",
"6. c #a20b18",
"7. c #b50207",
"8. c #b70a16",
"9. c #ba141a",
"0. c #a41d24",
"q. c #b20d20",
"w. c #bb0e22",
"e. c #bf1828",
"r. c #b01b20",
"t. c #ac2225",
"y. c #84553d",
"u. c #964b39",
"i. c #a04036",
"p. c #857845",
"a. c #8c7e46",
"s. c #837644",
"d. c #917759",
"f. c #827d61",
"g. c #a96e56",
"h. c #c90b19",
"j. c #d10104",
"k. c #d6090b",
"l. c #c40f24",
"z. c #ca0f25",
"x. c #cf1026",
"c. c #cc1a26",
"v. c #dc1028",
"b. c #d31027",
"n. c #c72228",
"m. c #df312c",
"M. c #e6112a",
"N. c #ec1932",
"B. c #eb2239",
"V. c #ec2b40",
"C. c #ef3a50",
"Z. c #cc6600",
"A. c #cc6902",
"S. c #d27a13",
"D. c #cb7a77",
"F. c #d47e62",
"G. c #dc7375",
"H. c #e14d5d",
"J. c #f04d60",
"K. c #f05567",
"L. c #eb5665",
"P. c #f27359",
"I. c #f16777",
"U. c #ed7684",
"Y. c #f27984",
"T. c #8f8147",
"R. c #9c8c4b",
"E. c #958648",
"W. c #888266",
"Q. c #888578",
"!. c #908a73",
"~. c #9a947a",
"^. c #969077",
"/. c #a0904f",
"(. c #ad9b52",
"). c #a79651",
"_. c #a19a7c",
"`. c #b9a556",
"'. c #bea878",
"]. c #d58720",
"[. c #d5912d",
"{. c #c1ac59",
"}. c #ccb65d",
"|. c #dab14f",
" X c #d2bb5f",
".X c #cdb760",
"XX c #d2bc60",
"oX c #ea8365",
"OX c #ed9571",
"+X c #f28869",
"@X c #e0b651",
"#X c #e1a667",
"$X c #dac262",
"%X c #edc55b",
"&X c #edd36b",
"*X c #f1d66d",
"=X c #e3ca67",
"-X c #908d81",
";X c #989486",
":X c #9e9b90",
">X c #a29c85",
",X c #a8a28c",
"<X c #a7a49a",
"1X c #b7ae89",
"2X c #bfb693",
"3X c #b9b6a8",
"4X c DarkGray",
"5X c #b2b4f7",
"6X c #a6b4f9",
"7X c #a1c7ff",
"8X c #d28590",
"9X c #c5ba8e",
"0X c #cabe90",
"qX c #c0bdb2",
"wX c #e28a8e",
"eX c #eab283",
"rX c #ccc49c",
"tX c #dcd09c",
"yX c #c3c0ba",
"uX c #e9c08d",
"iX c #f5c191",
"pX c #ecc6a0",
"aX c #e1d8b2",
"sX c #e6ddb6",
"dX c #ffdcad",
"fX c #efe3b5",
"gX c #fee3aa",
"hX c #f8e9ad",
"jX c #f8e8a6",
"kX c #fdebb2",
"lX c #f9edbd",
"zX c #f4f1b4",
"xX c #cccbc6",
"cX c #dcd8ca",
"vX c #d9d9d8",
"bX c #c0c0ff",
"nX c #e4deca",
"mX c #eae2c5",
"MX c #e9e5d5",
"NX c #f0e8c7",
"BX c #f7ebc6",
"VX c #ffffc0",
"CX c #fbf1cd",
"ZX c #faf3d3",
"AX c #fbf5db",
"SX c gray93",
"DX c #f8ece0",
"FX c #f3efe0",
"GX c #fcf7e1",
"HX c #fcf8e5",
"JX c #fcf9eb",
"KX c #faf5e9",
"LX c #f5f5f5",
"PX c #fdfbf4",
"IX c #fefefe",
"UX c #fcf6f0",
"YX c None",
/* pixels */
"YXYXYXYXYXYXYXYXYXYXYXYXYXYXYXYXYX    YXYXYXYXYXYXYXYXYXYXYXYXYX",
"YXYXYXYXYXYXYXYXYXYXYXYXYXYXYX    IXpX  YXYXYXYXYXYXYXYXYXYXYXYX",
"YXYXYXYXYXYXYXYXYXYXYXYXYX    IXIXIXDX  YXYXYXYXYXYXYXYXYXYXYXYX",
"YXYXYXYXYXYXYXYXYXYXYX    IXIXIXIXIXIXeX  YXYXYXYXYXYXYXYXYXYXYX",
"YXYXYXYXYXYXYXYXYX    IXIXIXIXIXIXIXIXKX  YXYXYXYXYXYXYXYXYXYXYX",
"YXYXYXYXYXYXYX    IXIXIXIXIXIXIXPXPXPXJX#X  YXYXYXYXYXYXYXYXYXYX",
"YXYXYXYXYX    IXIXIXIXIXvXPXPXPXPXPXJXJXAX. YXYXYXYXYXYXYXYXYXYX",
"YXYXYX    IXIXIXIXIXxXQ.g cXUXJXJXJXJXHXKXeX  YXYXYXYXYXYXYXYXYX",
"YX    IXIXIXPXPXxXc z 3XKX<XMXHXHXHXGXAXAXNX  YXYX          YXYX",
"  IXIXPXPXPXyXx z 3XSX:Xd Q.MXGXAXAXAXAXZXZX  X   7.4.6.1.w.  YX",
"YX  PXJXKXz x qXMX:Xa -XcXAXAXAXAXZX3XZXs . k.j.4.0 : 3 4   YXYX",
"YX  IXJXHXMXMX;Xp ;XmXAXAXAXZXCX,Xd f.s m.j.,.6 ;.1.6.w.l.  YXYX",
"YXYX  IXGXGXg ;XMXZXZXZXZXNX>Xs ~.2 2 k.7.5 0 :.5 5 5 4   YXYXYX",
"YXYX  IXAXAXZXZXZXZXZXsX~.s !.aXd F.j.-.3 0 :.6.5.l.b.e.  YXYXYX",
"YXYXYX  IXZXZXCXCXsX^.w ^.aXrXs oX7.4 ; 7 ; 0 ;.-.-.0.  YXYXYXYX",
"YXYXYX  IXCXCXaX!.w ~.sX2Xf.2 +X2.: 1 8 1.q.z.v.M.N.  YXYXYXYXYX",
"YXYXYXYX  IXBX2X>XfX1Xh f.r P.<.; < 8 0 :.,.>.4.2.u   YXYXYXYXYX",
"YXYXYXYX  IXlXlX1Xf l 0Xe OX<.1 1 :.5.z.b.N.V.H.d.i y   YXYXYXYX",
"YXYXYXYXYX  IXkX0X0XtX# iX9 < 7 0 <.>.8.8.8.r.k s.k t   YXYXYXYX",
"YXYXYXYXYX  IXhXjXW.+ #X-.1 0 5.z.M.B.C.J.D.k   $         YXYXYX",
"YXYXYXYXYXYX  IXjXo gX3.< :.<.8.h.9.9.r.y.j   $.@.X.' / T   YXYX",
"YXYXYXYXYXYX  IX. gXi.< 6.x.N.C.K.I.wXd.j j p.@ E R L J   YXYXYX",
"YXYXYXYXYXYXYX  dX< 1 w.h.c.n.n.t.u.2 k p.O O U ) ~ C m b     YX",
"YXYXYXYXYXYX  zX< 1.M.C.I.Y.Y.D.+ q p.a.  IX7X5X*.{ K I U J U   ",
"YXYXYXYXYX  kX< w.C.I.U.G.g.o 2 p.T.R.(.  #.@.%.6XbXY Z N M I   ",
"YXYXYXYX  kX< V.L.8X. o 2 a.E.E./.(.`. X  +.O.o._ =.] A N b P   ",
"YXYXYX  lX<         4X/./.(.`.`.}.$X|.[.  X...| ( =.] A N b P   ",
"YXYX  '.<   YXYXYX  vX.X X$X$X=X|.].A.     .| ( ^ *.Q B n = M   ",
"YX  U H   YXYXYXYXYX  LX&X*X*XS.A.    YX  ` ~ ! F &.W - * & =   ",
"  U     YXYXYXYXYXYX  IX%X].Z.    YXYXYXYX    S D } G % $     YX",
"    YXYXYXYXYXYXYXYXYX  Z.    YXYXYXYXYXYXYXYX    [ V     YXYXYX",
"YXYXYXYXYXYXYXYXYXYXYX    YXYXYXYXYXYXYXYXYXYXYXYX    YXYXYXYXYX"
};
