/* XPM */
static char *magick[] = {
/* columns rows colors chars-per-pixel */
"32 32 144 2",
"   c #000000",
".  c #010a01",
"X  c #080701",
"o  c #0c0c02",
"O  c #090b09",
"+  c #021102",
"@  c #031d03",
"#  c #081b08",
"$  c #100f0b",
"%  c #111001",
"&  c #12110b",
"*  c #151615",
"=  c #151a15",
"-  c #042504",
";  c #032b03",
":  c #0e230e",
">  c #023402",
",  c #023d02",
"<  c #113411",
"1  c #024602",
"2  c #035403",
"3  c #0a560a",
"4  c #026202",
"5  c #026b02",
"6  c #037203",
"7  c #027b02",
"8  c #126c12",
"9  c #1b631b",
"0  c #205420",
"q  c #2a6f2a",
"w  c #316431",
"e  c #5a5a03",
"r  c #505212",
"t  c #596606",
"y  c #038603",
"u  c #048904",
"i  c #039503",
"p  c #039d03",
"a  c #188718",
"s  c #169e16",
"d  c #02ab02",
"f  c #0fa80f",
"g  c #04b104",
"h  c #04bd04",
"j  c #229522",
"k  c #3b803b",
"l  c #3d8c3d",
"z  c #3a9f3a",
"x  c #2ab42a",
"c  c #04c504",
"v  c #03d403",
"b  c #03de03",
"n  c #03e503",
"m  c #04eb04",
"M  c #04f504",
"N  c #04fd04",
"B  c #0cf50c",
"V  c #0bfc0b",
"C  c #14fe14",
"Z  c #19fe19",
"A  c #25c025",
"S  c #2fec2f",
"D  c #2bfe2b",
"F  c #30f730",
"G  c #36fe36",
"H  c #3efd3e",
"J  c #798003",
"K  c #449a44",
"L  c #559655",
"P  c #42a742",
"I  c #5ea65e",
"U  c #5db25d",
"Y  c #6aaa6a",
"T  c #6db76d",
"R  c #7dae7d",
"E  c #7cb27c",
"W  c #45c645",
"Q  c #57cd57",
"!  c #54d654",
"~  c #43fd43",
"^  c #4cfe4c",
"/  c #53e953",
"(  c #5fea5f",
")  c #51fd51",
"_  c #58fe58",
"`  c #7ad67a",
"'  c #79dc79",
"]  c #61fe61",
"[  c #7bfe7b",
"{  c #828403",
"}  c #a5a506",
"|  c #b1b203",
" . c #b4b50a",
".. c #959542",
"X. c #acae41",
"o. c #edef04",
"O. c #fcfe04",
"+. c #fcfe0c",
"@. c #fcfe14",
"#. c #f8fa1b",
"$. c #fcfe3d",
"%. c #83a983",
"&. c #8cbc8c",
"*. c #87ca87",
"=. c #85dd85",
"-. c #8fd88f",
";. c #9acb9a",
":. c #9ed99e",
">. c #83e083",
",. c #85fe85",
"<. c #89f589",
"1. c #8afe8a",
"2. c #9cea9c",
"3. c #90f390",
"4. c #94fe94",
"5. c #9ef49e",
"6. c #9efe9e",
"7. c #a3d0a3",
"8. c #aaeaaa",
"9. c #a4f7a4",
"0. c #a3fca3",
"q. c #adf3ad",
"w. c #adfcad",
"e. c #b3efb3",
"r. c #bde9bd",
"t. c #b2f8b2",
"y. c #bdf0bd",
"u. c #bbfebb",
"i. c #fcfe8c",
"p. c #fcfeac",
"a. c #fcfeb4",
"s. c #fcfeba",
"d. c #c4f3c4",
"f. c #c3fdc3",
"g. c #ccfdcc",
"h. c #d5f6d5",
"j. c #d3fcd3",
"k. c #dcfedc",
"l. c #fcfec0",
"z. c #e3fde3",
"x. c #edfded",
"c. c #f3fef3",
"v. c #f8fef8",
"b. c None",
/* pixels */
"b.b.b.b.b.b.b.b.b.b.b.b.b.b.b.b.b.b.b.b.b.b.b.b.b.b.b.b.b.b.b.b.",
"b.b.b.b.b.b.b.b.b.b.b.b.b.b.b.b.      b.b.b.b.b.b.b.b.b.b.b.b.b.",
"b.b.b.b.b.b.b.b.b.b.b.b.b.b.  X         b.b.b.b.b.b.b.b.b.b.b.b.",
"b.b.b.b.b.b.b.b.b.b.b.b.b.  O   Y s       b.b.b.          b.b.b.",
"b.b.b.b.b.b.b.b.b.b.b.b.      f.6.C d         - .   .       b.b.",
"b.b.b.b.b.b.b.b.            *.x.[ V g             P         b.b.",
"b.b.b.b.b.;       #     -   z.c.~ N N         d.4.D v       b.b.",
"b.b.b.b.-   U 8.2.    X   T v.z.D N N       g.u.) C v       b.b.",
"b.b.b.b.    k.c.u.~   >   E v.j.D N b     e.w.~ V v         b.b.",
"b.b.b.b.X   z.x.] V M i     x.z.~ N d     r.^ B 5           b.b.",
"b.b.b.      ` t.~ N N n     w.c.,.V . . r.,.B d           b.b.b.",
"b.b.          0 f N N M 5   l 9.,.B   q 9.H 5           b.b.b.b.",
"b.b.b.X       . . @ d n m   *       . 8 a ; O O       b.b.b.b.b.",
"b.b.b.    f.q.z     . 1 2 ;     e e o       +           b.b.b.b.",
"b.b.      z.j.) N 7 ; - + X ..i.$.@.} o Q t.4.D v           b.b.",
"b.b.b.    :.c.6.C N M g . $ p.l.@.+. .o =.z.u.G N v         b.b.",
"b.b.b.b.      %.x h h p ; O s.a.+.O.| O ' z.g.) N N v       b.b.",
"b.b.b.b.                    i.l.@.O.| % / g.f.] V N N v   . b.b.",
"b.b.            3 2 2 2 >   r X.@.O.{ % . 9 x V N N N n ,   b.b.",
"b.b.      y.k.[ C V M v 4     o t t o       ;               b.b.",
"b.b.=   =.x.u.~ N N h 5       j X . W t.w                   b.b.",
"b.b.:   <.x.4.Z N c       7.j.~   - <.c.] V d           b.b.b.b.",
"b.b.    ! f.6.S i     < ;.j._ B   X ( k.] V N M           b.b.b.",
"b.b.X                 L h.,.C M     q k.,.C N N n 5 .     b.b.b.",
"b.b.b.b.              d.0.Z N p       -.k.[ C N N y       b.b.b.",
"b.b.b.b.b.          I j.~ N n           f.j.^ V M 7     b.b.b.b.",
"b.b.b.b.b.b.b.b.    R 0.N M 5       b.      5.F i       b.b.b.b.",
"b.b.b.b.b.b.b.b.X   &.4.m u       b.b.b.  X             b.b.b.b.",
"b.b.b.b.b.b.b.b.b.    K         b.b.b.b.b.b.b.b.b.b.b.b.b.b.b.b.",
"b.b.b.b.b.b.b.b.b.b.            b.b.b.b.b.b.b.b.b.b.b.b.b.b.b.b.",
"b.b.b.b.b.b.b.b.b.b.b.b.b.b.b.b.b.b.b.b.b.b.b.b.b.b.b.b.b.b.b.b.",
"b.b.b.b.b.b.b.b.b.b.b.b.b.b.b.b.b.b.b.b.b.b.b.b.b.b.b.b.b.b.b.b."
};
