/* XPM */
static char *magick[] = {
/* columns rows colors chars-per-pixel */
"32 32 257 2",
"   c #0d2b2b",
".  c #0e2838",
"X  c #072c3c",
"o  c #003030",
"O  c #00303a",
"+  c #152525",
"@  c #123232",
"#  c #282828",
"$  c #272c2c",
"%  c #293434",
"&  c #343434",
"*  c #383838",
"=  c #003045",
"-  c #003050",
";  c #0a3159",
":  c #1f3449",
">  c #113751",
",  c #1d3b52",
"<  c #003060",
"1  c #0a3a60",
"2  c #2b3640",
"3  c #2c304c",
"4  c #203a55",
"5  c #3a255e",
"6  c #3e2a69",
"7  c #383075",
"8  c #1a403a",
"9  c #0a4040",
"0  c #074f5f",
"q  c #0a4751",
"w  c #124a5a",
"e  c #18505a",
"r  c #155252",
"t  c #004662",
"y  c #015262",
"u  c #005075",
"i  c #104060",
"p  c #105262",
"a  c #1a5d6d",
"s  c #126272",
"d  c #2a4a4a",
"f  c #215141",
"g  c #275456",
"h  c #33534e",
"j  c #334b52",
"k  c #20456c",
"l  c #205060",
"z  c #205d62",
"x  c #375c67",
"c  c #206262",
"v  c #226272",
"b  c #2c6272",
"n  c #306060",
"m  c #386363",
"M  c #326272",
"N  c #306078",
"B  c #461e56",
"V  c #571f57",
"C  c #5b235b",
"Z  c #552075",
"A  c #67166b",
"S  c #662e56",
"D  c #6a315f",
"F  c #762176",
"G  c #753c6f",
"H  c #5a5a35",
"J  c #475947",
"K  c #505040",
"L  c gray28",
"P  c #5e6448",
"I  c #416767",
"U  c #4f6f6c",
"Y  c #426d72",
"T  c #497172",
"R  c #506565",
"E  c #53736e",
"W  c #527272",
"Q  c #587870",
"!  c #715567",
"~  c #637043",
"^  c #6e7b78",
"/  c #657575",
"(  c #717e67",
")  c #7f7f61",
"_  c #203085",
"`  c #1c588a",
"'  c #007595",
"]  c #0072a8",
"[  c #255585",
"{  c #207595",
"}  c #306085",
"|  c #306091",
" . c #306098",
".. c #3078ad",
"X. c #0060c8",
"o. c #0072c8",
"O. c #483583",
"+. c #7a1588",
"@. c #711a8c",
"#. c #6a35ad",
"$. c #5a478a",
"%. c #476d92",
"&. c #4a779c",
"*. c #587888",
"=. c #6e5088",
"-. c #7540ba",
";. c #6870ce",
":. c #5a865a",
">. c #6e8d6e",
",. c #658075",
"<. c #77877c",
"1. c #788578",
"2. c #7f9877",
"3. c #008bbd",
"4. c #309898",
"5. c #3a8bbd",
"6. c #358aaa",
"7. c #0085c8",
"8. c #0091c8",
"9. c #0098c8",
"0. c #1098c8",
"q. c #3098c8",
"w. c #20b8e8",
"e. c #35b8e8",
"r. c #30c8c8",
"t. c #30c8f8",
"y. c #3ac8e8",
"u. c #43849d",
"i. c #509898",
"p. c #408bba",
"a. c #508ba8",
"s. c #558bb8",
"d. c #609899",
"f. c #75839f",
"g. c #719a95",
"h. c #789696",
"j. c #6080a5",
"k. c #6098a8",
"l. c #6995b6",
"z. c #7098a9",
"x. c #709ba0",
"c. c #6ca2a2",
"v. c #7caab3",
"b. c #4098c8",
"n. c #5798c8",
"m. c #40a1cc",
"M. c #50b8c8",
"N. c #50b8dd",
"B. c #50b8e8",
"V. c #6098c8",
"C. c #62a9cb",
"Z. c #60b8c8",
"A. c #40c8e8",
"S. c #40c8f8",
"D. c #50c8e8",
"F. c #60c8c8",
"G. c #60c8d8",
"H. c #60c8e9",
"J. c #60c8f8",
"K. c #71c8ef",
"L. c #73c8f8",
"P. c #75c8f5",
"I. c #9b0e9b",
"U. c #8d15a3",
"Y. c #853085",
"T. c #9c35a1",
"R. c #aa10ba",
"E. c #b911bb",
"W. c #b50bb5",
"Q. c #a320a3",
"!. c #913bc8",
"~. c #af15ca",
"^. c #a32ad1",
"/. c #ba20d6",
"(. c #ba20dc",
"). c #8d518d",
"_. c #a343e6",
"`. c #ca20ba",
"'. c #cd07cd",
"]. c #c60ad1",
"[. c #c60adb",
"{. c #c016c0",
"}. c #d40ed4",
"|. c #cd23c2",
" X c #e205e8",
".X c magenta",
"XX c #8a8d84",
"oX c #848680",
"OX c #889383",
"+X c #919187",
"@X c #969688",
"#X c #9e9e8b",
"$X c #9a9a85",
"%X c #9e9e98",
"&X c #929290",
"*X c #90a280",
"=X c #9ca797",
"-X c #87a9a9",
";X c #88b0ab",
":X c #85b8ba",
">X c #8bb6b6",
",X c #9eaeae",
"<X c #97b4b9",
"1X c #a3a38e",
"2X c #a1a291",
"3X c #a7a79c",
"4X c #a8a890",
"5X c #acac9a",
"6X c #a5ab95",
"7X c #a2b292",
"8X c #a8afaf",
"9X c #adada5",
"0X c #a2b3b3",
"qX c #aebab0",
"wX c #b0b0a0",
"eX c #b7b7ac",
"rX c #b1b1b0",
"tX c #babab2",
"yX c #bdbdb9",
"uX c #b0bcbc",
"iX c #8eadc2",
"pX c #9bb4c9",
"aX c #a8b9c6",
"sX c #98c898",
"dX c #96c197",
"fX c #b7c1b7",
"gX c #98c8c8",
"hX c #8ac8e7",
"jX c #87c8f5",
"kX c #9dc8e2",
"lX c #98c8f8",
"zX c #b3c6d6",
"xX c #a0c8f0",
"cX c #a8d2f8",
"vX c #b8dde8",
"bX c #b7e0f7",
"nX c #c3c3bd",
"mX c #c3c3c3",
"MX c #cdcdcd",
"NX c #c4ccc4",
"BX c #d0d0ce",
"VX c #d9d9d9",
"CX c LightGray",
"ZX c #cfe4f0",
"AX c #c8e8f8",
"SX c #c5e8f5",
"DX c #c8f8f8",
"FX c #c8f2f8",
"GX c #dae8f5",
"HX c #d8f8f8",
"JX c #e2e2e2",
"KX c #eaeaea",
"LX c #e8f3f8",
"PX c #e8f8f8",
"IX c #f1f1f1",
"UX c #f8f8f8",
"YX c None",
/* pixels */
"YXYXYXYX XR.t y y p s v v s N M b s z l ].YXYXYXYXYXYXYXYXYXYXYX",
"YXYXYXYXR.o o.9.0.q.S.J.J.J.lXcXjXJ.Z.V.Z YXYXYXYXYXYXYXYXYXYXYX",
"YXYXYXYXZ Z 6 w e h h d d f f @ Z Z C.cX>XW T T v s y y ].YXYXYX",
"YXYXYXYXYX^.;.z.h.g.1X#X@X1.>.:.).}.T AXHXUXPXDXP.t.9.9.Z YXYXYX",
"YXYXYXYX!.b.pXBXeX-Xg.1X#X%X+X1X@X) T.B zXUXPXFXK.y.9.9.Z YXYXYX",
"YXYXYX_.l.zXJXIXIXJX-X;Xh.3X5XtX2X4X$XG Q UXLXAXH.F.9.9.Z YXYXYX",
"YXYX!.s.JXIXUXIXIXKXKXIXJXtXVXVXrX#X#XoXQ.Z o @     3 Z YXYXYXYX",
"YXYXp.iXIXUXIXIXIXIXKXIXIXnXNXKXyX5X#XoX! '.@ * # # Y.YXYXYXYXYX",
"YX-.b.<XnXJXKXIXIXUXIXIXIXVX&XBXMX2X*XoX>.D % B * * F YXYXYXYXYX",
"YX-.n.:XfXzXBXCXKXKXKXKXKXVX#XtXJXfXP P ~ `.8 * # # Y.YXYXYXYXYX",
"(...V.V.V.V.c.sXsXsXeXtXtXtX4XwX=X^ d * H S & * * * F YXYXYXYXYX",
"(. .V.V.V.V.x.=X7X4X4X4X4X4XeXrX<.n , & H `.@ * # # Y.YXYXYXYXYX",
"(. .5.n.V.k.h.3X4X5X4X4X#X4X1XOXn i 4 * L S % 2 * * F YXYXYXYXYX",
"(. . .a.k.i.d.0XnXnX4X4X#X4XE m n i * * * {.@ * # # Y.YXYXYXYXYX",
"/.|  . . . .&.yXmXeX4X4X4XQ n n g % & * * V % * * * F YXYXYXYXYX",
"~.[  . . . .&.MXmXeX4X4X#XU n n , * * * * E.@ * # # Y.YXYXYXYXYX",
"YX#. . . . .%.8XmXwX4XXX/ R R L * * * * & V % * * * F YXYXYXYXYX",
"YX[. . . . . .aXVXwX4X2.n j ^ l * * * * & W.@ * # # Y.YXYXYXYXYX",
"YXYXO.N } } N ,.tX5XXXI l J , , 2 * * & A A % * * * F YXYXYXYXYX",
"YXYXE.g n n n N *.Q x 1 < ; < < < 2 * # YXYX@ * # # Y.YXYXYXYXYX",
"YXYXYXI.= g k _ l ; < < < < < < < < $ +.W W E Y a e 0 w A YXYXYX",
"YXYXYXYXU.X ; < < < < < < ; < < - . +.o UXUXLXAXB.q.9.9.Z YXYXYX",
"YXYXYXYXR.B   = - - - - - - - O + + &.jXbXGXZXvXN.q.8.7.Z YXYXYX",
"YXYXYXYXo o o o o o o o o o o o o o J.J.L.lXkXgXM.q.7.X.Z YXYXYX",
"YXYXYXYX7 u 3.9.0.q.y.D.D.J.xXxXhXD.m.{ Z Z 9 c q o Z Z YXYXYXYX",
"YXYXYXYXR.o ] 9.0.q.r.r.G.J.xXxXhXF.{ o YXYXc F.{ o YXYXYXYXYXYX",
"YXYXYXYXYXYXZ Z Z Z Z Z Z Z 5 o Z Z U.YX XR.n f r r ].YXYXYX].YX",
"YXYXYXYXYXYXYXYXYXYXYXYXYXYXR.o YXYXYXYXR.o :Xd.i.4.Z YXYXYXZ YX",
"YXYXYXYXYXYXYXYXYXYXYXYXYXYXv L.5 R.R.R.W UXSXxXe.9.' o @.o ,Xo ",
"YXYXYXYXYXYXYXYXYXYXYXYXYXYXM lXo o o o W UXGXxXw.9.' o o o 0Xo ",
"YXYXYXYXYXYXYXYXYXYXYXYXYXYX$.l.U.YXYXYX=.,Xv.l.6.{ ` Z ].Z f.Z ",
"YXYXYXYXYXYXYXYXYXYXYXYXYXYXR.o YXYXYXYXR.o o o o o Z YXYXYXZ YX"
};
