/* XPM */
static char *magick[] = {
/* columns rows colors chars-per-pixel */
"32 32 25 1",
"  c black",
". c gray19",
"X c #004000",
"o c #004040",
"O c #400000",
"+ c #404000",
"@ c #585858",
"# c #800000",
"$ c #c00000",
"% c red",
"& c #c05800",
"* c #c000c0",
"= c #808000",
"- c #ff8000",
"; c #ffa858",
": c #c0c000",
"> c yellow",
", c #808080",
"< c #a0a0a4",
"1 c #ffdca8",
"2 c #c0c0c0",
"3 c #ffc0c0",
"4 c #ffc0ff",
"5 c white",
"6 c None",
/* pixels */
"66666     66666666666  666666666",
"666  5<<@@.66666666  @ 666666666",
"   5552<*%+        5<, 666666666",
" @<55523%%#,,<2255522,@ 66666666",
" ,25552*%%&.%%*3415522, 66666666",
" ,<2553%%%%@%%%%*4555<, <6666666",
" ,,2553%%%%$&%%%%%45522@ 6666666",
" @,2553%%%%%.%%%%%;4522@ 6666666",
" @,2553%%%%%O%%%%%%%55<, 6666666",
" .,2553;%%%@@  @%%%%552<@   6666",
" X,<5542@@@@@   @%%%52<@@o+  666",
" .,255 Oo.@@+   o@  ,,@+.    666",
"  @<25  .@@@@   O++@@@@@o     66",
"  ,,25  X+@@@+  o .o@@@.+     66",
"  @<25   o@@$$## +X.+@@@@     66",
"  @,25   #$$%$$##..o@@@@+   O 66",
"  o,25  O$%%%%$##O+O@@@@@#$### 6",
"  +<2< O#$$%%%$$##O#$#&#$$$### 6",
"   ,@< ##$$%%%%$##.#$%%%%%$$## 6",
"   .66 ##$$%%%$--#O#$$%%%%$$## 6",
"  6666 ###$%->>>:-+#$%%%%%$$#$ 6",
"  6666  #$&:>>>>>-&@&&%%%%-&&& 6",
"  6666  #-->>>>>->-.:----->--- 6",
"666666  ---->>>>>--O,>>>>>>--- 6",
"666666  --->>::,O@&&+->>>>>--- 6",
"666666  ---:&  =-;+.,>>>>>>>-& 6",
"666666  ---  26 >&o@->->>>>-= 66",
"666666  -= 26666   --::      666",
"666666  , 666666<<<    666666666",
"666666   66666666666666666666666",
"666666  666666666666666666666666",
"666666  666666666666666666666666"
};
