/* XPM */
static char *magick[] = {
/* columns rows colors chars-per-pixel */
"32 32 16 1",
"  c black",
". c gray19",
"X c #004040",
"o c #585858",
"O c navy",
"+ c #008080",
"@ c #00c0c0",
"# c #ff8000",
"$ c #ffa858",
"% c #808080",
"& c #a0a0a0",
"* c #ffdca8",
"= c #c0ffff",
"- c #ffffc0",
"; c white",
": c None",
/* pixels */
"::::::::::::::::::::  ::::::::::",
"::::::::::::::::::  + ::::::::::",
"::::::::::::::::  oX%o :::::::::",
"::::::::::::::  +o+O%+ :::::::::",
"::::::::::::  +Xo%Oo+oo ::::::::",
"::::::::::  +oXXO&XXX%+ ::::::::",
"::::::::  oX%%XXo@X    + :::::::",
"::::::  oXX+%+Oo%oX #**  :::::::",
"::::  +%+OX%+Oo@OXX #$$ o    :::",
"::  +  oXX+%XXX%XXO% #$ + *** ::",
"  X  == XoOoXXO+oXX+ #$$% *$# ::",
" X +=@= oXX+    %     $$ *$$# ::",
":  +@@@= XX *;; % ;-- $$$$$# :::",
": X +@@= oX *-- % ;-- $$$$$# :::",
"::  +@@@= X% *-- ;--  $$$$#  :::",
":: X +@@= +% *-- ;-- #$$$$#  :::",
":::  +@@@=  + *----  #$$$$# + ::",
"::: + +@@@@@@ *---; #$$$ $#   ::",
"::::  +@@@@++  *--  #$# %$$# + :",
":::: o +@++  X *-;  ### o $# X :",
":::::  ++  X%+ *-; o    + $$# o ",
"::::: +  oXXoo *-; +oXX%% ###   ",
":::::: Xo+oOo+ *-- o+X+o+X    ::",
":::::: oo+ +%X *** oXO%+Oo  ::::",
"::::::: +OXo+O     +Oo+o  ::::::",
"::::::: oX+o+XXo+Xo%+o  ::::::::",
":::::::: XOooOXooXOo  ::::::::::",
":::::::: oXo+oX+%+  ::::::::::::",
"::::::::: XXo@.o  ::::::::::::::",
"::::::::: oOoo  ::::::::::::::::",
":::::::::: +  ::::::::::::::::::",
"::::::::::  ::::::::::::::::::::"
};
