/* XPM */
static char *magick[] = {
/* columns rows colors chars-per-pixel */
"32 32 19 1",
"  c black",
". c gray19",
"X c #004000",
"o c #400000",
"O c #585858",
"+ c navy",
"@ c blue",
"# c #008000",
"$ c #800000",
"% c #c05800",
"& c #800080",
"* c magenta",
"= c #ff8000",
"- c #ffa858",
"; c #808080",
": c #a0a0a0",
"> c #c3c3c3",
", c white",
"< c None",
/* pixels */
"<<<<<<<<<<<<< <<<<<<<<<<<<<<<<<<",
"<<<<<<<<<<<< & <<<<<<<<; <<<<<<<",
"<<<<  ;<<<<; ** <<<>;    <<<<<<<",
"<<<< O.  ;> &**$ ;   +@+ <<<<<<<",
"<<<<O ;;O   ****$ +@@@+  <<<<<<<",
"<<<<; O;;; &****& @@@@ % <<<<<<<",
"<<<<:  ;;; ******$ @@+ - <<<<<<<",
"<<<<< + ; &******* +@ -- <<<<<<<",
"<<<<<;++  *********  --- <<<<<<<",
"<<<<<: + **********o --- ;<<<<<<",
"<<<<<;                      ;<<<",
"<<<;  $ O ++++ ------ o***$$   ;",
"<;  $** ;O +++ -----=  ******** ",
"  $*** O;; o++ ----- @+ ****** <",
" ****O ;;;; ++ ----%+@@+ **** <<",
"< *** ;;;;;O + ---% @@@@ o**  <<",
"<< ; O;;;;;; + --= @@@@@+ o ;; <",
"<<<  ;;;;;;;Oo -- @@@@+    ;;;; ",
"<<  ;;;;;;;;;  - @@@+ X## ;;;O <",
"< ##     OO;;O  @@+  #    ;;  <<",
"<;  ####O           OOO;; . ;<<<",
"<<<;     ++@@@@ O;;;;;;;;  <<<<<",
"<<<<<; @@@@@@@ = ;;;;;;;O <<<<<<",
"<<<<<< +@@@@@ --  ;;;;;;  ;<<<<<",
"<<<<<< +@@@@ --- + ;;;;; $O<<<<<",
"<<<<<<O @@@ ---= ++ ;;;O * <<<<<",
"<<<<<<; @@ --=    ++ ;; $* <<<<<",
"<<<<<<< @ -=  ;< =  & ; ** <<<<<",
"<<<<<<< O-  ;<<<< =   O O  <<<<<",
"<<<<<<<   ;<<<<<<< <<; <<<<<<<<<",
"<<<<<<<;<<<<<<<<<<<<<<<<<<<<<<<<",
"<<<<<<<<<<<<<<<<<<<<<<<<<<<<<<<<"
};
