/* XPM */
static char *magick[] = {
/* columns rows colors chars-per-pixel */
"32 32 22 1",
"  c #000000",
". c #0b0b0b",
"X c #131313",
"o c #1b1b1b",
"O c #232323",
"+ c #2d2d2d",
"@ c gray19",
"# c #585858",
"$ c #808080",
"% c #8c8c8c",
"& c #949494",
"* c gray61",
"= c #a0a0a3",
"- c #ababab",
"; c #b1b1b1",
": c #bcbcbc",
"> c #c0c0c1",
", c #d2d2d2",
"< c #dadada",
"1 c #e1e1e1",
"2 c white",
"3 c None",
/* pixels */
"33333333333333333333333333333333",
"33333333333333333333333333333333",
"3333333333333333@@33333333333333",
"333333333333333+=<#+>@+333333333",
"33333333333333+$<2+>@+# 33333333",
"33333333333333@<2+>+@# $#3333333",
"333333333333@@#++:++# #++$333333",
"33333333333+=<#+:+++@=++>+@33333",
"3333333333+$<2@;O+++++=>++++3333",
"3333333333@<2@;OOOO+O+++@++: 333",
"33333333@@#@@-ooOOOOO+++++>  333",
"3333333@=<#@-oooOoOOOOO++:    33",
"333333@$12+=oooooooOOOOO;   2 33",
"333333@<2+*XXXoXoooooOO;   22#33",
"3333++#++*.XXXXXXooooo-   2221#3",
"333+=<2+*....XXXXXoXo-     ,1##3",
"33+$<2+& . ...XXXXXX=   2 3+##33",
"33+12+% . .......XX=   22#3=+$33",
"33#++%    .. .....*   222,#3+333",
"33+3  %        ..&     ,,##3@333",
"33@3   %        &   2 3+##=33333",
"3333    %      &   22#3=+$333333",
"33333    %    %   <<;%#3@3333333",
"33333     %  %     ;%##3@3333333",
"333333     %%   2 3@##=333333333",
"3333333    +#  2<#3=+$3333333333",
"33333333    # 2<;%#3+33333333333",
"333333333   #  ;%##3+33333333333",
"3333333333 # +3 ##=3333333333333",
"333333333333333= $33333333333333",
"3333333333333333 333333333333333",
"3333333333333333 333333333333333"
};
