/* XPM */
static char *magick[] = {
/* columns rows colors chars-per-pixel */
"32 32 41 1",
"  c #000000",
". c #090909",
"X c #131313",
"o c #1e1e1e",
"O c #282828",
"+ c #363737",
"@ c #3d3d3d",
"# c #464646",
"$ c #474848",
"% c #4a4a4a",
"& c #535353",
"* c #5a5a5a",
"= c #636363",
"- c #6b6b6b",
"; c #727272",
": c #7b7b7b",
"> c #838383",
", c #8c8c8c",
"< c #959595",
"1 c #979798",
"2 c #989897",
"3 c #9c9c9c",
"4 c #a09fa0",
"5 c #a2a2a2",
"6 c #a8a8a7",
"7 c #ababab",
"8 c #b3b3b3",
"9 c #bababa",
"0 c #bfbfc0",
"q c #c0c0bf",
"w c #c5c5c5",
"e c #c7c8c8",
"r c #cbcbcb",
"t c #d2d2d2",
"y c #dadada",
"u c #e4e4e4",
"i c #eaeaeb",
"p c #f3f3f3",
"a c #f9f7f9",
"s c #fefefe",
"d c None",
/* pixels */
"ddd      ddddddddddddddddddddddd",
"dd 333335    ddddddddddddddddddd",
"d 3****==5677  ddddddddddddddddd",
" 3&***==--;::-; dddddddddddddddd",
" 3**===--;::>,<: ddddddddddddddd",
" 3**==--;::>,<3, ddddddddddddddd",
" 3*==--;::>,<3793 dddddddddddddd",
" 3==--;::>,<378wt7 ddddddddddddd",
" 5=--;::>,<379wttyi  ddddddddddd",
" 5--;::>,<378wttyytyt           ",
" 5-;::>,1379wtyyyte97ew9887777& ",
" 6;::>,<378wttyyte975<,>::;;-=% ",
" 7::>,<379wryyyte974<,>::;--==$ ",
" 7:>,<478wtyyyte974<,>::;;-==*$ ",
" 8899wrtyuiiiuytreq98877655333* ",
" --::,<3677763<,>;;-==**&&&%$$# ",
"                                ",
" 3* ue  iw  i3uw  u3  yu  uw 3* ",
" 3& ie  uw  u3iw  i3  yu  iw 3& ",
" 3* ie..ie..i5ue..i5..yi..ie 3* ",
" 3* ieXXieXXi3ieXXi4XXyiXXir 3* ",
" 5* it@oir@oi5it@oi6@oyi@oir 5= ",
" 5= it;Oit;Op7it;Oi6;Oyi;Oit 5= ",
" 7- pt<+pt1+i7iy2+p7<+yp<+pt 6- ",
" 7; py9$py9%p8py9$p89$yp9$py 7; ",
" 8: pu,<pu,,p8pu<,p8<,up,<pu 8: ",
" 8: piu9au8pu9pu8au8pu9pu9pu 8: ",
" 8: aii9aiqai9ai9ap9ai9aiqai 8> ",
" 8: saaesaesaesaesaesaesaesa 8: ",
" 8: sssrssrssrssrssrssrssrss 8: ",
" 88 sssrssrssrssrssrssrssrss 88 ",
"                                "
};
