/* XPM */
static char *magick[] = {
/* columns rows colors chars-per-pixel */
"34 34 50 1",
"  c black",
". c gray21",
"X c #424242",
"o c gray29",
"O c #535353",
"+ c gray36",
"@ c #656565",
"# c #6c6c6c",
"$ c #737373",
"% c #7b7b7b",
"& c #5c5adf",
"* c #716fe2",
"= c #1eb41e",
"- c #53bf53",
"; c #60c460",
": c #fd6e6e",
"> c gray55",
", c #919191",
"< c #9b9b9b",
"1 c #a3a3a3",
"2 c gray67",
"3 c #b3b3b3",
"4 c #bbbbbb",
"5 c #83d583",
"6 c #9dde9d",
"7 c #a1dfa1",
"8 c #d6bebe",
"9 c #fe8585",
"0 c #fea2a2",
"q c #c3c3c3",
"w c #cccccc",
"e c #d3d3d3",
"r c #dadada",
"t c #d1d1ea",
"y c #d4d3f6",
"u c #dff4df",
"i c #eac7c7",
"p c #fbd2d2",
"a c #e3e3e3",
"s c #e4e3ed",
"d c #ebebeb",
"f c #ececf4",
"g c #eaf6ea",
"h c #fae4e4",
"j c #f2f2f2",
"k c #f2f2fb",
"l c #f6fbf6",
"z c #faf1f4",
"x c #fcfcfc",
"c c None",
/* pixels */
"cccccccccccccccccccccccccccccccccc",
"cccccccccccccccccccccccccccccccccc",
"cccccccccccccccccccccccccccccccccc",
"ccc     cccccccccccccccccccccccccc",
"cc  cccccccccccccccccccccccccccccc",
"c  ccccccccccccccccccccccccccccccc",
"c  ccccccccccccccccccccccccccccccc",
"cc  ccccccccc     cccccccccccccccc",
"ccc  cccccc  4xxx1  cccccccccccccc",
"cccc   ccc 4e@@dxxx8  cccccccccccc",
"cccccc   Xrddzd@@xr@@2  cccccccccc",
"cccccccc $xxxlxxx@@daw41 ccccccccc",
"ccccccc 4a@@xxxx@lhpdaar4 cccccccc",
"cccccc 3dlxx@@j@dx9:xjdar4 ccccccc",
"cccccc 4adjxxx@jlg8ipxftae4 cccccc",
"cccccc %wadjd@dx7-,80z&*ssr4 ccccc",
"cccccc $3rrd$axx6=;gx&yxldae4 cccc",
"cccccc o#2rw$jlxx5uk&yxxxjarq4 ccc",
"ccccccc O$4,radlxky&yxxxxzfre4 ccc",
"ccccccc X+$,weadlk&yxxxxxxjarw4 cc",
"cccccccc o@$<qetflxxxxxxxxxdrw4 cc",
"ccccccccc +$,1weajjzxxxxxxxdaeq, c",
"cccccccccc #><2wradjlxxxxxxjdew1 c",
"ccccccccccc %,13qraadjlxxxxldre% c",
"cccccccccccc %,238wradjzlxxljaeO c",
"ccccccccccccc  <37qwrafdjzxlz2$. c",
"ccccccccccccccc  4qerajjjfjw,+o cc",
"ccccccccccccccccc  qadldeq2,%O ccc",
"ccccccccccccccccccc  rxjrq2> ccccc",
"ccccccccccccccccccccc       cccccc",
"cccccccccccccccccccccccccccccccccc",
"cccccccccccccccccccccccccccccccccc",
"cccccccccccccccccccccccccccccccccc",
"cccccccccccccccccccccccccccccccccc"
};
