/* XPM */
static char *magick[] = {
/* columns rows colors chars-per-pixel */
"32 32 75 1",
"  c #000000",
". c #0a0202",
"X c #0b0a0a",
"o c #130402",
"O c #160806",
"+ c #130b0a",
"@ c #1a0603",
"# c #1b0906",
"$ c #1b0c0b",
"% c #131313",
"& c #1a1a1a",
"* c #200704",
"= c #240805",
"- c #220d0b",
"; c #2b0a05",
": c #2c0c08",
"> c #2c100d",
", c #241f1f",
"< c #2f1f1d",
"1 c #340c07",
"2 c #360d08",
"3 c #3c0e08",
"4 c #3e130e",
"5 c #3e1510",
"6 c #2c201e",
"7 c #232323",
"8 c #2f2726",
"9 c #2b2b2b",
"0 c #392d2c",
"q c #34302f",
"w c #333333",
"e c #3a3a3a",
"r c #410f09",
"t c #45110a",
"y c #4b120b",
"u c #56140c",
"i c #5c150c",
"p c #62170e",
"a c #65180e",
"s c #6a190f",
"d c #601a12",
"f c #6c1910",
"g c #751b11",
"h c #7b1d11",
"j c gray27",
"k c #4b4b4b",
"l c gray33",
"z c #5a5a5a",
"x c #646464",
"c c #6b6b6b",
"v c gray45",
"b c #7c7c7c",
"n c #821e12",
"m c #862013",
"M c #8b2013",
"N c #942315",
"B c #962c1e",
"V c #9b2416",
"C c #a02617",
"Z c #a42718",
"A c #a72818",
"S c #ab2818",
"D c #b32a19",
"F c #bc2c1a",
"G c #c32e1c",
"H c #cc301d",
"J c #d3321e",
"K c #d9331f",
"L c #dc3420",
"P c #e13520",
"I c #858585",
"U c #8c8c8c",
"Y c #989898",
"T c #a1a1a1",
"R c None",
/* pixels */
"RRRRRRRRRRRRRRRRRRRRRRRRRRRRRRRR",
"RRRRRRRRRR%w  j7RRRRRRRRRRRRRRRR",
"RRRRRRRR&w7+  %ql7X X9RRRRRRRRRR",
"RRRRRRRewX.3hg3#X&Xo$kjRRRRRRRRR",
"RRRRRR79 ;AKJHKS1yhnp$7RRRRRRRRR",
"RRRRR&7 ;AKC3yGHAM4@@.XRRRRRRRRR",
"RRRR7% .DPA==AJn1@gu  %XRRRRRRRR",
"RRR99  ;DPnr3KDnNyB0+@%qRRRRRRRR",
"RRX&   .MLLFaGs;ANVt<dt+jw9RRRRR",
"R   X  .JPPPHn ;DLAuugFh#%ejRRRR",
"  &w7X 3PPLHhy34FhAANGPPGh1+77RR",
"  %9  .iPPHNHHHGLFySPPPPPPFhO9RR",
"RXXX  umPPVMPPPPGFd@ZLPPPPPL3XxR",
"RXX&X CGPPhhPPPPDMi =MLPPPPF.XkR",
"  wX  NPPPh1LPPPF3.   fGPPPHi:9R",
"RRX7& sLPPg.VPPPJ3 .  8tFPPPD3XR",
"R wl  ;GPPs3iFPPPZ@p1 &%,tgNV-&R",
"R l&XX.hPPViGSGKPLNhSp.X97w6#$lR",
"RRw9jX OHPPVDJiZPPPJFCGmt-&&wevR",
"RRjl7X  DPPKHKn;gCsy=@pDGVX %zRR",
"RR7lw% #KPPPPPKg.  X9w&X1;&zITRR",
"RR&le8 tKKPPPPKZo &zIUbxeebYbeRR",
"RRRRze oiGPPPPDto,bTvRvcTTc7RRRR",
"RRRR%%.3AKPPKFFA#lbeRRRReeRRRRRR",
"RRRR%7@aFLPPPNim%bRRRRRRRRRRRRRR",
"RRRRRz%;HPPPLH3o7URRRRRRRRRRRRRR",
"RRRRRRx72VKPHNN@e9RRRRRRRRRRRRRR",
"RRRRRRlI7#sSJm;.leRRRRRRRRRRRRRR",
"RRRRRRRkUz7%;3  lRRRRRRRRRRRRRRR",
"RRRRRRRRwbIze77&qRRRRRRRRRRRRRRR",
"RRRRRRRRRRvvxxxckRRRRRRRRRRRRRRR",
"RRRRRRRRRRRRRRRRRRRRRRRRRRRRRRRR"
};
