/* XPM */
static char *magick[] = {
/* columns rows colors chars-per-pixel */
"34 34 137 2",
"   c #000000",
".  c #0b0b0b",
"X  c #141414",
"o  c #1b1b1b",
"O  c #222222",
"+  c #2b2b2b",
"@  c #323232",
"#  c #3b3b3b",
"$  c #454929",
"%  c #4c4d29",
"&  c #54522b",
"*  c #5a562c",
"=  c #5f5a2e",
"-  c #625c2e",
";  c #69602f",
":  c #6c6230",
">  c #716530",
",  c #746832",
"<  c #7b6c33",
"1  c #434343",
"2  c #4a4a4a",
"3  c #5d5d5d",
"4  c gray50",
"5  c #806f34",
"6  c #837135",
"7  c #8a7635",
"8  c #897638",
"9  c #8d7836",
"0  c #927b37",
"q  c #947d39",
"w  c #9b823a",
"e  c #a0873c",
"r  c #a28a3e",
"t  c #a38b40",
"y  c #a79041",
"u  c #ab9344",
"i  c #af9946",
"p  c #b09646",
"a  c #b39d49",
"s  c #b99f4b",
"d  c #b5a04a",
"f  c #baa34c",
"g  c #bda651",
"h  c #bfaa53",
"j  c #c0a64f",
"k  c #c3ab52",
"l  c #c8af54",
"z  c #c7b057",
"x  c #c6b259",
"c  c #c9b156",
"v  c #cbb45a",
"b  c #ceb95c",
"n  c #d1bb5e",
"m  c #d2bd61",
"M  c #d5c263",
"N  c #d6c368",
"B  c #d8c665",
"V  c #d9c668",
"C  c #d9c866",
"Z  c #dbcb6a",
"A  c #ded06d",
"S  c #e0d36f",
"D  c #e2d372",
"F  c #e6d975",
"G  c #e8dc77",
"H  c #eade79",
"J  c #ede27d",
"K  c #f0e57f",
"L  c #808080",
"P  c #8a9c8a",
"I  c #919191",
"U  c #9b9b9b",
"Y  c #9ca99c",
"T  c #94b094",
"R  c #a28d8d",
"E  c #a98181",
"W  c #ab9b9b",
"Q  c #a4a4a4",
"!  c #ababab",
"~  c #aeb0ae",
"^  c #b0a1a1",
"/  c #b4b3b3",
"(  c #bababa",
")  c #9ac79a",
"_  c #a4c199",
"`  c #adc6ad",
"'  c #aed7ae",
"]  c #aedfae",
"[  c #bfd6bf",
"{  c #bedbbe",
"}  c #b3e1ad",
"|  c #bee3be",
" . c #bee9be",
".. c #bdf2bd",
"X. c #bbfcbb",
"o. c #c39a9a",
"O. c #c1a499",
"+. c #d2a5a5",
"@. c #d3afaf",
"#. c #dcb8ad",
"$. c #d7bebe",
"%. c #dcbebe",
"&. c #e5afad",
"*. c #e3bebe",
"=. c #ebbebe",
"-. c #f2bcbc",
";. c #fcbcbb",
":. c #cec6ad",
">. c #c1d3ad",
",. c #dedfbc",
"<. c #c2fbba",
"1. c #cbf1bc",
"2. c #d6e6bc",
"3. c #d4e8bd",
"4. c #dbe1bc",
"5. c #edcdbc",
"6. c #e5d5bc",
"7. c #e2dabd",
"8. c #e9d0bc",
"9. c #f5c4bb",
"0. c #f1c9bc",
"q. c #f8c4bb",
"w. c #f1e680",
"e. c #f3ea82",
"r. c #c3c4c3",
"t. c #c0ccc0",
"y. c #cbc0c0",
"u. c #cbcbcb",
"i. c #c0d2c0",
"p. c #d3c0c0",
"a. c #d3d3d3",
"s. c #dbdbdb",
"d. c #e3e3e3",
"f. c #ebebeb",
"g. c #f3f3f3",
"h. c #fdfdfd",
"j. c None",
/* pixels */
"j.j.j.j.j.j.j.j.j.j.j.j.j.j.j.j.j.j.j.j.j.j.j.j.j.j.j.j.j.j.j.j.j.j.",
"j.j.j.j.j.j.j.j.j.j.j.@ @ @ @ @ @ @ @ j.j.j.j.j.j.j.j.j.j.j.j.j.j.j.",
"j.j.j.j.j.j.j.j.1 2 2 U ( / / ~ / ^ R @ @ + j.j.j.j.j.j.j.j.j.j.j.j.",
"j.j.j.j.j.j.j.2 Q u.r.a.a.u.u.r.$.p.%.@.+.E @ j.j.j.j.j.j.j.j.j.j.j.",
"j.j.j.j.j.3 2 a.u.s.s.a.a.u.u.r.r.$.*.=.;.&.#.+ 2 j.j.j.j.j.j.j.j.j.",
"j.j.j.j.3 4 s.f.d.d.s.a.a.u.u.r.$.$.*.=.;.9.5.:.4 2 j.j.j.j.j.j.j.j.",
"j.j.j.3 4 d.h.g.f.d.s.s.a.u.r.r.r.$.*.-.;.0.6.,.>.4 2 j.j.j.j.j.j.j.",
"j.j.j.2 s.h.h.g.f.f.s.s.a.a.u.r.$.$.*.;.q.5.,.3.1.}   j.j.j.j.j.j.j.",
"j.j.2 a.f.g.h.h.g.g.d.s.s.a.u.r.y.*.-.;.5.,.3.1.<.X.]   j.j.j.j.j.j.",
"j.2 U u.d.f.g.g.h.g.f.d.s.a.u.r.:.*.;.9.6.2.1.<.X...' T   j.1 # j.j.",
"j.2 ( s.d.d.f.f.g.h.g.f.s.! Q U ^ =.;.8.4.1.<.X... .| ` 1 1 # h.j.j.",
"j.2 r.s.s.d.s.f.f.g.h.r./ #   . 1 o.O.4.1.X... .| { 1 1 # h.+ + j.j.",
"@ I s.s.s.s.s.s.d.f.r.U o #   .     L _ X...| { 1 1 # h.@ + + Z j.j.",
"@ r.a.a.a.a.s.s.s.s./ o ~ 4 h.h.4     )  .{ 1 1 1 h.@ @ + r a z j.j.",
"@ ( a.a.a.a.a.a.s.! # # 4 s.j.j.s.4   1 1 1 1 h.@ @ + ; O O w t j.j.",
"@ ( a.a.a.a.a.a.a.!     h.j.j.j.j.h.1 1 1 h.# @ + 8 - % * X < 9 j.j.",
"@ ( a.u.u.u.u.u.u.Q . . h.j.j.j.1 1 1 h.# @ @ m c f r 5 & X . ; j.j.",
"@ / u.u.u.u.u.u.u.U #   4 s.1 1 1 h.# # @ M Z Z C n l a w <   & j.j.",
"@ / r.r.u.r.r.r.r.t.Y   1 1 1 h.1 # @ f d g v M Z Z C b k p # @ j.j.",
"@ I r.r.r.r.r.t.i.{ 1 1 1 h.1 # @ F + + l g d k b N A Z M b j @ j.j.",
"j.+ ~ r.>.t.i.{ 1 1 1 h.1 1 # H w.e.w.o V b k f a k b V S C M O j.j.",
"j.@ Y i.[ { 1 1 1 h.1 1 # d x m F K w.o X D V b k f f l n Z A Z j.j.",
"j.@ P ` 1 1 1 h.1 1 # < 9 w u f v V F w.. e.H S N v k f f l o X j.j.",
"j.j.1 1 1 h.1 1 1 & % - > 5 9 e u g b Z   1 e.w.G Z M c o o X h.j.j.",
"1 1 1 h.1 2 # l @ @ < % & = , 6 q r i k b # H K e.K O o X h.. . j.j.",
"1 h.1 1 1 Z Z C b + i w > $ & ; , 6 q t a @ + F O o X h.. .     j.j.",
"1 1 1 d k b N Z C O o j u 0 : $ * - < 9 q y O o o h.. . .       j.j.",
"1 Z b k f d l n Z S X m v f t 8 - % * : O O o h.X . .           j.j.",
"e.J D C b k f d l m . . Z m l f r 6 + O o h.X . .             j.j.j.",
"K e.e.G A N v j f g v 1 Z Z C n + O o h.X X .             j.j.j.j.j.",
"Z G K e.K G S m c j f # @ M + + O h.X X .             j.j.j.j.j.j.j.",
"h m S J K e.K F Z n l f + + O h.X X X             j.j.j.j.j.j.j.j.j.",
"j.j.j.j.j.j.j.j.j.j.j.j.j.j.j.j.j.j.j.j.j.j.j.j.j.j.j.j.j.j.j.j.j.j.",
"j.j.j.j.j.j.j.j.j.j.j.j.j.j.j.j.j.j.j.j.j.j.j.j.j.j.j.j.j.j.j.j.j.j."
};
