/* XPM */
static char *magick[] = {
/* columns rows colors chars-per-pixel */
"32 32 18 1",
"  c black",
". c #330000",
"X c #333300",
"o c gray20",
"O c #663300",
"+ c #666600",
"@ c gray40",
"# c blue",
"$ c #996600",
"% c #999900",
"& c #cc9900",
"* c #cccc00",
"= c #ffcc00",
"- c yellow",
"; c gray60",
": c gray80",
"> c white",
", c None",
/* pixels */
",,,,,,,,,,*&&&&,,,,,,,,,,,,,,,,,",
",,,,,,,&%%O   X$&,,,,,=&&,,,,,,,",
",,,,,%XXX. +%%+XX+&,&+X..X$,,,,,",
",,,,&.o;:;oX*--*+X.OX @;;o &,,,,",
",,,,+ ;>>>;oX*---*+X @>>>:o+,,,,",
",,,,Xo:>>>>; +*----+o:>>>>oX,,,,",
",,,,Xo>>>>>>@ +----+o:>>>>oX,,,,",
",,,,Xo>>>>>>:@ %---+o:>>>>oX*,,,",
",,,,Xo>>>>>>>:oX*--+o:>>>>o +=,,",
",,,,Xo>>>>>>>>:XX*-+o:>>>>o  +,,",
",,,*Xo>>>>>>>>>; +-+o:>>>>oX+ $,",
",,,&.o>>>>>>>>>>@ %+o:>>>>oX*X+,",
",,,+ o>>>>>>>>>>>@XXo:>>>>oX*X+,",
",,&X o>>>>>:>>>>>:o o:>>>>oX*X+,",
",,$  o>>>>:@:>>>>>:oo:>>>>oX+.%,",
",=XXXo>>>>:oo:>>>>>;o:>>>>oXXX,,",
",%.%Xo>>>>:o @>>>>>>;:>>>>o  $,,",
",OX*Xo>>>>:o  @>>>>>>>>>>>o X&,,",
"*XX*Xo>>>>:oXXX;>>>>>>>>>>o +,,,",
"*XX*Xo>>>>:o+*Xo:>>>>>>>>>o %,,,",
",OX%Xo>>>>:o+-% o>>>>>>>>>oX*,,,",
",%XXXo>>>>:o+--+ ;>>>>>>>>oX,,,,",
",,&X o>>>>:o+---+X;>>>>>>>oX,,,,",
",,,&Xo>>>>:o+---*Xo:>>>>>>oX,,,,",
",,,,Xo>>>>:o+----*Xo:>>>>>oX,,,,",
",,,,Oo:>>>:o+-----%X@>>>>>oX,,,,",
",,,,$ ;>>>; X%-----+ @>>>:oO,,,,",
",,,,,O o@o XX X%*---+ o@@o &,,,,",
",,,,,&$XXO$&*%O X+%%+  XXO%,,,,,",
",,,,,,,,=,,,,,,&+XXXX+&&&,,,,,,,",
",,,,,,,,,,,,,,,,,&&&&,,,,,,,,,,,",
",,,,,,,,,,,,,,,,,,,,,,,,,,,,,,,,"
};
