/* XPM */
static char *magick[] = {
/* columns rows colors chars-per-pixel */
"32 32 134 2",
"   c #000000",
".  c #000509",
"X  c #03090c",
"o  c #0b0b0c",
"O  c #010e13",
"+  c #041115",
"@  c #01151c",
"#  c #0c1014",
"$  c #131313",
"%  c #10141a",
"&  c #13191c",
"*  c #1b1b1b",
"=  c #021821",
"-  c #011e29",
";  c #081b22",
":  c #131d21",
">  c #1b1f21",
",  c #01212d",
"<  c #0d252f",
"1  c #022432",
"2  c #002a36",
"3  c #012a3c",
"4  c #0a2430",
"5  c #1b2125",
"6  c #1b2328",
"7  c #102f3d",
"8  c #232323",
"9  c #222729",
"0  c #2b2b2b",
"q  c #242c30",
"w  c #353535",
"e  c #31383d",
"r  c #3a3b3b",
"t  c #002e41",
"y  c #003144",
"u  c #063649",
"i  c #013c56",
"p  c #003e58",
"a  c #183845",
"s  c #2e3c42",
"d  c #04415b",
"f  c #014663",
"g  c #004e6c",
"h  c #0a4d66",
"j  c #094e69",
"k  c #015272",
"l  c #015678",
"z  c #02597b",
"x  c #0c5e7c",
"c  c #3c4c5a",
"v  c #444444",
"b  c #4b4b4b",
"n  c #4d5153",
"m  c #4f5659",
"M  c #535353",
"N  c #5c5c5c",
"B  c #445861",
"V  c #4d626e",
"C  c #4e6572",
"Z  c #636363",
"A  c #6a6a6a",
"S  c #6e7375",
"D  c #747474",
"F  c #7c7c7c",
"G  c #016486",
"H  c #01668f",
"J  c #026b8f",
"K  c #096589",
"L  c #026a93",
"P  c #02739d",
"I  c #0d7399",
"U  c #0074a1",
"Y  c #0078a6",
"T  c #007bab",
"R  c #0a78a4",
"E  c #0c7ca8",
"W  c #5b7283",
"Q  c #0182b5",
"!  c #0188be",
"~  c #0884b6",
"^  c #128bb7",
"/  c #018cc3",
"(  c #0092cc",
")  c #0496d1",
"_  c #0099d5",
"`  c #009cdb",
"'  c #00a1e2",
"]  c #01a5e8",
"[  c #01aaed",
"{  c #0ca9e8",
"}  c #01acf1",
"|  c #0aaff0",
" . c #01b3fa",
".. c #7f8080",
"X. c #6f94a4",
"o. c #7392a6",
"O. c #7397a8",
"+. c #7899ac",
"@. c #828282",
"#. c #80878a",
"$. c #8d8d8d",
"%. c #8d8f90",
"&. c #8c9193",
"*. c #9c9c9c",
"=. c #80a5b9",
"-. c #81a8bc",
";. c #9ea3a6",
":. c #a2a2a2",
">. c #a8a8a8",
",. c #b0b0b0",
"<. c #bdbdbd",
"1. c #85afc4",
"2. c #90bdd3",
"3. c #a2b7c0",
"4. c #97c6dc",
"5. c #9bc5e0",
"6. c #9ccbe3",
"7. c #9fd2ea",
"8. c #a5d6ef",
"9. c #a3d9f2",
"0. c #a8daf5",
"q. c #a7e3fe",
"w. c #aae1fd",
"e. c #c3c3c3",
"r. c #cdcdcd",
"t. c #d3d3d3",
"y. c #dbdbdb",
"u. c #e2e2e2",
"i. c #e5e7e8",
"p. c #e6e9eb",
"a. c #ececec",
"s. c #f3f3f3",
"d. c #fafafa",
"f. c None",
/* pixels */
"f.f.f.f.f.f.f.f.f.f.f.f.f.f.f.f.f.f.f.f.f.f.f.f.f.f.f.f.f.f.f.f.",
"f.f.f.f.f.f.f.f.f.f.f.f., g L P P Y Y P L G k d f.f.f.f.f.f.f.f.",
"f.f.f.f.f.f.f.f.f.f.= L l g f f i y 1 - , 1 2 t t @   f.f.f.f.f.",
"f.f.f.f.f.    f.f.f.@  . .} } ] ` ` ( / T U H l k g   f.f.f.f.f.",
"f.f.f.f.    f.f.  f.+ ^  .} [ ' ` _ ) / / T T T Y L   f.f.f.f.f.",
"f.f.f.f.  f.f.    f.X I  .} [ ` k =   O t P T Y P P   f.f.f.f.f.",
"f.f.f.    f.    f.f.  x  .} _ -     > q X . l Y P P + f.f.f.f.f.",
"f.f.f.    f.    f.f.f.j  .| y   % =.w.w.7.c . L U P & f.f.f.f.f.",
"f.f.f.    f.    f.f.f.x  .(     +.w.w.6.w.0.6 i P P : f.f.f.f.f.",
"f.f.f.    f.    f.f.f.j  .E   X 0.w.4.X 1.w.V 3 P P : f.f.f.f.f.",
"f.f.f.    f.    f.f.f.u ^ ~   . 8.0.9.c 5.q.B t U U : f.f.f.f.f.",
"f.f.f.    f.f.    f.f.u I { O   W w.q.w.w.5.# g P P ; f.f.f.f.f.",
"f.f.f.f.  f.f.f.  f.f.u I } K   . C 2.6.O.> - U P P , f.f.f.f.f.",
"f.f.f.f.    f.f.f.f.f.u x } { z X       . 7 R Y P P , f.f.f.f.f.",
"f.f.f.f.f.    f.f.f.f.f.x } ] ' / z d j I T T R T T + f.f.f.f.f.",
"f.f.f.f.f.f.f.f.f.f.f.f.h [ } ] ' ` ( ( / T T T T X u f.f.f.f.f.",
"f.f.f.f.f.f.f.f.f.f.f.f.u } ] ' ) k + X 1 w T T .   f.f.f.f.f.f.",
"f.f.f.f.f.f.f.f.f.f.f.f.u [ ] ' z & +.8.O.8 w o Z     f.f.f.f.f.",
"f.f.f.f.f.8 8 8 * * f.f.u ( ] ' o.6 s > ..$ r t.d.>.o   f.f.f.f.",
"f.f.f.0 Z :.y.8 <...r r < a & 8 & A w 0 0 *.s.d.d.d.t.0   f.f.f.",
"f.f.0 e.d.s.s.0 s.a.u.$.b * b M w b N 6 p.s.s.s.d.d.d.y.    f.f.",
"f.v 8 y.d.d.s.0 y.i.y.t.r.#.S r.t.y.i.m ;.a.s.s.s.d.s.b b :.    ",
"f.f.@.@.d.d.d.b r.i.y.t.r.n $.r.t.y.u.,.6 u.a.s.s.s.b 8 0 v o f.",
"f.f.r.v @.M w w D @.>.e.e.8 >.r.t.u.u.i.s ..a.a.y.v   t.*   f.f.",
"f.r.F * M F @.@.A r 8 r r o ,.r.t.y.u.i.&.$ y.<.* D v o f.f.f.f.",
"f.r.@.<.r.r.r.r.r.r.>.b v $ v v :.y.u.a.u.* v 8 b 8 $ f.f.f.f.f.",
"f.r.r.r.r.r.r.r.r.r.r.r.,.M o M X 8 N D Z $ w $ Z 0 :.r.f.f.f.f.",
"f.f.t.r.r.f.f.f.t.r.r.r.r.r.*.0 * 0 M 8 F $ Z o N e.r.r.r.f.f.f.",
"f.f.r.f.f.f.f.f.f.f.f.r.r.r.r.r.$.v o   r o 0 :.r.r.r.r.r.r.f.f.",
"f.f.f.f.f.f.f.f.f.f.f.f.f.r.r.r.r.r.e.*.$.>.r.r.r.r.r.r.r.f.f.f.",
"f.f.f.f.f.f.f.f.f.f.f.f.f.f.t.r.r.r.r.r.r.r.r.t.r.r.t.t.f.f.f.f.",
"f.f.f.f.f.f.f.f.f.f.f.f.f.f.f.f.f.f.r.r.r.r.r.r.r.f.f.f.f.f.f.f."
};
