/* XPM */
static char *magick[] = {
/* columns rows colors chars-per-pixel */
"32 32 54 1",
"  c black",
". c #9e6b73",
"X c #907c7f",
"o c #bb475a",
"O c #be707d",
"+ c #db203e",
"@ c #ef072d",
"# c #ec0b2f",
"$ c #ef0e33",
"% c #f01c3e",
"& c #cf2e48",
"* c #eb2343",
"= c #ec3755",
"- c #f1294a",
"; c #f23050",
": c #f33e5c",
"> c #f34561",
", c #f45a73",
"< c #f5637b",
"1 c #f6758a",
"2 c gray53",
"3 c #8a8384",
"4 c gray54",
"5 c gray57",
"6 c #9e9798",
"7 c #9a9a9a",
"8 c #b09095",
"9 c #a2a2a2",
"0 c #afafaf",
"q c #b8a4a7",
"w c #b3b3b3",
"e c #bcbcbc",
"r c #caa4aa",
"t c #d1b1b6",
"y c #f78396",
"u c #f891a2",
"i c #f99fad",
"p c #f9a5b3",
"a c #faacb9",
"s c #fab3bf",
"d c #c3c3c3",
"f c #cacaca",
"g c #d4d4d4",
"h c #dadada",
"j c #ecc5cb",
"k c #fbcad2",
"l c #fcd6dc",
"z c #fddde2",
"x c #e4e4e4",
"c c #ededed",
"v c #feeaed",
"b c gray96",
"n c #fdf9fa",
"m c None",
/* pixels */
"mmmmmmmmmmmmmmmmmmmmmmmmmmmmmmmm",
"mmmmmmmmmmmmmmmmmmmmmmmmmmmmmmmm",
"mmmmmmmmmmmmmmmmmmmmmmmmmmmmmmmm",
"mmmmmmmmmmmmmmmn1-@$-;%@%1vmmmmm",
"mmmmmmmmmmmmmmi$@@inmmmi@@@ymmmm",
"mmmmmmmmmmmmm,@@@ymmmmmmi@@@<mmm",
"mmmmmmmmmmmm1@@@$nmmmmmmm%@@@>mm",
"mmmmmmmmmmml@@@@;mmmmmmmm,@@@@sm",
"mmmmmmmmmmm:@@@@ymmmmmmmma@@@@%m",
"mmmmmmmmmml@@@@@kmmmmmmmmz@@@@@k",
"mmmmmmmmmm1@@@@@nmmmmmmmmm@@@@@:",
"mmmmmmmmmm;@@@@@mmmmmmmmmm@@@@@%",
"mmmmmmmmmm$@@@@@mmmmmmmmmm@@@@@@",
"mmmmmmmmmm@@@@@@mmmmmmmmmm;@@@@@",
"mmmmmmmmml@@@@@@mmmmmmmmmm;@@@@@",
"mmmmmmmccr@@@@@@cmmmmmmmmm;@@@@@",
"mmbe744dgj@@@@@@227dxmmmmm;@@@@@",
"mw2242cmmm@@@@@@w42225hmmm;@@@@@",
"d22242gmmm@@@@@@mh422225gm;@@@@@",
"2222227mmm;@@@@@mmn722222w$@@@@@",
"5222222gmm:@@@@@nmmn722224@@@@@-",
"d2222222cma@@@@@lmmmmw222X@@@@#y",
"m72222224nm$@@@@ummmmm722.@@@@@v",
"mnw2222244cy@@@@,mmmmmn72o@@@@,m",
"mmmg2422224c%#@@%mmmmmmb2+@@@$nm",
"mmmmc7222224t$@@@lmmmmmmq@@@@lmm",
"mmmmmmb0222448#@@%nmmmmn-@@$pmmm",
"mmmmmmmmnf95223&@@$illa%@@:vmmmm",
"mmmmmmmmmmmmbxd76O=-;*-;uvmmmmmm",
"mmmmmmmmmmmmmmmmmmmmmmmmmmmmmmmm",
"mmmmmmmmmmmmmmmmmmmmmmmmmmmmmmmm",
"mmmmmmmmmmmmmmmmmmmmmmmmmmmmmmmm"
};
