/* XPM */
static char *magick[] = {
/* columns rows colors chars-per-pixel */
"32 32 174 2",
"   c black",
".  c #270000",
"X  c #3a0000",
"o  c #2a002e",
"O  c #2b0030",
"+  c #31003d",
"@  c #450000",
"#  c #4b0000",
"$  c #540000",
"%  c #5a0500",
"&  c #650c00",
"*  c #680e00",
"=  c #6d1100",
"-  c #721600",
";  c #751a00",
":  c #7a1e00",
">  c #7d2100",
",  c #701aee",
"<  c #711bf3",
"1  c #751dfc",
"2  c #7620ff",
"3  c #7b24ff",
"4  c #832700",
"5  c #852a00",
"6  c #892d00",
"7  c #8d3301",
"8  c #8c330a",
"9  c #8e3815",
"0  c #943c00",
"q  c #983f00",
"w  c #974309",
"e  c #9b4600",
"r  c #9a450c",
"t  c #9e4900",
"y  c #974017",
"u  c #994422",
"i  c #9d4a27",
"p  c #a04c00",
"a  c #a04c15",
"s  c #a55300",
"d  c #a6560e",
"f  c #a85700",
"g  c #ab5c00",
"h  c #a45516",
"j  c #a04d22",
"k  c #a7582e",
"l  c #ae6100",
"z  c #b16500",
"x  c #b46a00",
"c  c #b26b0e",
"v  c #b77000",
"b  c #b6700e",
"n  c #ba7300",
"m  c #be7a00",
"M  c #bf7f1c",
"N  c #ad6125",
"B  c #b06622",
"V  c #ba7625",
"C  c #bf7f2e",
"Z  c #bc7730",
"A  c #bc7b3f",
"S  c #a55645",
"D  c #a35351",
"F  c #a85857",
"G  c #b06653",
"H  c #b67044",
"J  c #bc7b45",
"K  c #bc7b49",
"L  c #bc7b57",
"P  c #bf7f5b",
"I  c #ad6272",
"U  c #b26b76",
"Y  c #b5706a",
"T  c #c07d00",
"R  c #832eff",
"E  c #8c36ff",
"W  c #8e3bff",
"Q  c #b77283",
"!  c #b97693",
"~  c #bc7b9c",
"^  c #9443ff",
"/  c #9846ff",
"(  c #9b4aff",
")  c #9e51ff",
"_  c #a156ff",
"`  c #a75dff",
"'  c #a85eff",
"]  c #a861ff",
"[  c #ae69ff",
"{  c #b06cff",
"}  c #b575ff",
"|  c #ba7bff",
" . c #c38200",
".. c #c58800",
"X. c #c98d00",
"o. c #c88f15",
"O. c #cd9300",
"+. c #ce9615",
"@. c #d19c00",
"#. c #c28524",
"$. c #c68c3d",
"%. c #d4a200",
"&. c #d8a700",
"*. c #d9ab00",
"=. c #deb400",
"-. c #e2bc00",
";. c #c0805b",
":. c #c9915b",
">. c #d09e5e",
",. c #c0806a",
"<. c #ca9466",
"1. c #d2a057",
"2. c #e6c200",
"3. c #e8c600",
"4. c #ebcb00",
"5. c #eed200",
"6. c #f0d400",
"7. c #f4dc06",
"8. c #f6de0a",
"9. c #f7e10e",
"0. c #f9e514",
"q. c #fce91c",
"w. c #fded22",
"e. c #fff027",
"r. c #fff12a",
"t. c #fff533",
"y. c #fff93c",
"u. c #fffc43",
"i. c #fffc5e",
"p. c #fffc7e",
"a. c #be83ff",
"s. c #c58b9a",
"d. c #c185ad",
"f. c #c48bab",
"g. c #c084b2",
"h. c #c68cb2",
"j. c #c68cbb",
"k. c #ce9ba1",
"l. c #d7aa8f",
"z. c #d9b0bb",
"x. c #c68fd7",
"c. c #c68fdc",
"v. c #cd97c9",
"b. c #c992d7",
"n. c #c992dc",
"m. c #cb99dc",
"M. c #d09ed3",
"N. c #c087ff",
"B. c #c38cff",
"V. c #cf9ee1",
"C. c #ce9bee",
"Z. c #c592ff",
"A. c #c896ff",
"S. c #cb9cff",
"D. c #d3a3c0",
"F. c #cea0ff",
"G. c #d2a6ff",
"H. c #d3abff",
"J. c #d6b0ff",
"K. c #d9b4ff",
"L. c #ddbcff",
"P. c #fffc9c",
"I. c #e1c4ff",
"U. c #e4c9ff",
"Y. c #e8ceff",
"T. c #e8d2ff",
"R. c #eddaff",
"E. c #fffdc0",
"W. c #f3e4ff",
"Q. c #f6e8ff",
"!. c #fffde1",
"~. c #fbf3ff",
"^. c #fffcff",
"/. c None",
/* pixels */
"/./././././././././././././././././././././././././././././././.",
"/./././././././././././././././././././././././././././././././.",
"/./././././././././././././././././././././././././././././././.",
"/./././././././././././././././././././././././././././././././.",
"/./././././././././././././././././././././././././././././././.",
"k.T x c f./././././././././././././././././././././././././././.",
"t 7.p.6.z J Y./././././././././././././././././././././././././.",
"= @.5.u.P.*.z s././././././././././././././././././././././././.",
"7 > n =.9.!.9.n Z j././././././././././././././././././././././.",
"I $ 6 s ..-.w.E.-.g ;.Y./././././././././././.L.l.>.z./././././.",
"U * e q e z @.6.u.u.%.z f././././././././.L.z...-.-.X.#././././.",
"! > n x g p s  .-.q.^.7.x A x./././././.K.+.=.t.^.u.w.%.V T././.",
"g.6 O.O...T z 7 0 m 3.r.P.=.x ,././././.1.3.!.E.p.i.w.6.n L /./.",
"C.q q  .*.@.@.& * - q @.6.p.e.O.c h./.H.m w.u.p.i.y.r.6.*.q d./.",
"G.f * p 4.=.=.4 6 D 6 - z -.q.^.6.z P M...t.y.8.%.-.w.9.=.g N /.",
"J.#.: x 3.x 4.p r /./.i > 4 ..4.y.y.@.x 0.r.0.= > M =.9.-.m 7 I ",
"/./.b.$.@.0 7.x h /./././.y = t *.7.E.w.q.e.@.$ 8 Y.l 4.3.X.5 G ",
"/././.x.<.H @.T B /././././.S 4 ; n 2.0.9.0...- j /.C X.3.X.q r ",
"/./././././.o.g K /././././././.u = 6 *.8.6.X.6 a /.s.g 2.O.t 6 ",
"/././././././.V.J././././././././.F 8 4 3.4.@.p d /.b.t &.O.p ; ",
"/././././././././././././././././././.Y f 2.*. .s /./.f T O.s % ",
"/././././././././././././././././././.n.p &.=.=.t m./.s n O.p $ ",
"/./././././././././././././././././././.f  .*.5.O.:./.p z X.q @ ",
"/./././././././././././././././././././.H f @.6.w. .v.q l T 6 X ",
"/./././././././././././././././././././.~ 6  .*.!.u.m g v v > X ",
"/././././././././././././././././././././.h p T 3.^.*.g x x & @ ",
"/././././././././././././././././././././.Q : x x m x x l e @ & ",
"/./././././././././././././././././././././.k 5 g g g f g > . 8 ",
"/././././././././././././././././././././././.0 6 p t e 4 @ : /.",
"/././././././././././././././././././././././.S w = % * : 9 /./.",
"/./././././././././././././././././././././././././././././././.",
"/./././././././././././././././././././././././././././././././."
};
