/* XPM */
static char *magick[] = {
/* columns rows colors chars-per-pixel */
"32 32 41 1",
"  c black",
". c #272727",
"X c #303030",
"o c #215907",
"O c gray27",
"+ c gray33",
"@ c #585858",
"# c gray39",
"$ c #0019ff",
"% c #272dc6",
"& c #008000",
"* c #2b870b",
"= c #2b890d",
"- c #2d8d10",
"; c #2f9013",
": c #319315",
"> c #339718",
", c #349a1b",
"< c #37a01f",
"1 c #39a422",
"2 c #3ba926",
"3 c #3dad29",
"4 c #3fb02b",
"5 c #40b22d",
"6 c #42b630",
"7 c #44bb34",
"8 c #47c038",
"9 c #5bd648",
"0 c #d32828",
"q c red",
"w c #a8b76e",
"e c #808080",
"r c #a0a0a4",
"t c #aaaaaa",
"y c #c9db90",
"u c #e2e38f",
"i c #c0c0c0",
"p c gainsboro",
"a c #ffffc0",
"s c white",
"d c None",
/* pixels */
"dddddddddddddddddddddddddddddddd",
"dddddddddddddddddddddddddddddddd",
"dddddddddddddddddddddddddddddddd",
"@@@ddddddddddddddddddddddddddddd",
"Xpp dddddddddddddddddddddddddddd",
"dXr dddddddddddddddddddddddddddd",
"dXr                             ",
"dXr 999999999999999999999999999 ",
"dXr 9yyyyyyyyyyyyyyyy1,,>>yyyyo ",
"dXr 9y8888887765w322w1,,>:y-=yo ",
"dXr 9y8888887760q02%$%,,::w-=yo ",
"dXr 9y8ttttte655w221w,,>tttteyo ",
"dXr 9y8t###@ 653y211yyywt#O. wo ",
"dXr 9y8t##@O wyyyyyyy,,:e    yo ",
"dXr 9y7t#+OX 6432111,,::;-===yo ",
"dXr 9ywt+OX. wyyyyyyy>:;tttteyo ",
"dXr 9y8e     4321w1,yyywt#O. wo ",
"dXr 9y88w7w55322tte,>::-e    yo ",
"dXr 9yq876y54yywt@ wy:;-=***=yo ",
"dXr 9y7776y53y21e  >y:;==***=yo ",
"dXr 9yyy7yy53y11<w,>yyyyyyyyyyo ",
"dXr 9oowowooowooowooooooooooooo ",
"dXr   uauauauauaua&             ",
"dXr d uauauauauaua& dddddddddddd",
"dXr d            X  dddddddddddd",
"dXr dddddddddddddddddddddddddddd",
"ddXddddddddddddddddddddddddddddd",
"ddddiii@i@i@i@i@i@ii ddddddddddd",
"ddddrssisisisisisiss ddddddddddd",
"ddddesssssssssssssss ddddddddddd",
"dddd@sssssssssssssss ddddddddddd",
"dddd                 ddddddddddd"
};
