/* XPM */
static char *magick[] = {
/* columns rows colors chars-per-pixel */
"27 32 14 1",
"  c black",
". c gray19",
"X c #004040",
"o c #404000",
"O c #585858",
"+ c #808000",
"@ c #c0c000",
"# c yellow",
"$ c #808080",
"% c #a0a0a0",
"& c #c3c3c3",
"* c #ffffc0",
"= c white",
"- c None",
/* pixels */
"-----------     -----------",
"----------       ----------",
"---------      O  ---------",
"---------         ---------",
"---------  .  OO  $--------",
"--------- == O==   --------",
"---------  =XO =   --------",
"--------- O@#@O$   --------",
"--------- @####@   --------",
"--------- @@#@@@   --------",
"--------- $@@@$&O  $-------",
"--------- &$$$&=&   -------",
"-------- $=&&&===O  %------",
"-------  ========&   $-----",
"------$ O========&X   -----",
"------  &========&$    ----",
"-----$ O==========&.   ----",
"-----  &===========$   $---",
"----- O============$    ---",
"----  $====*=======%    ---",
"----  &============%    ---",
"----  &======*=====%    ---",
"----  O&==========&$    ---",
"--- #@@O%=========%$   @ --",
"-  @#@@.o&==*==*=&$@OO$@ --",
" @##@@@@  &======%$@@###@ -",
" @@@@@@@@X&=*====$$@@@@@@@ ",
" @@@@@@@@+&=====$ +@@@@@@+ ",
" +@@@@@@@+%%%%%O  +@@@@++ -",
"- ++@@@@+         +@@@+  --",
"--  +++++         ++++ ----",
"----      --------    -----"
};
