/* XPM */
static char *magick[] = {
/* columns rows colors chars-per-pixel */
"32 32 161 2",
"   c #000000",
".  c #01050a",
"X  c #03090b",
"o  c #030a11",
"O  c #061016",
"+  c #081214",
"@  c #09151a",
"#  c #051222",
"$  c #081626",
"%  c #08172b",
"&  c #0c1d25",
"*  c #0b1c28",
"=  c #091a30",
"-  c #0d212e",
";  c #0e2331",
":  c #112429",
">  c #12282f",
",  c #10273c",
"<  c #122c3b",
"1  c #163037",
"2  c #15303e",
"3  c #0c2544",
"4  c #0f2c52",
"5  c #112e4d",
"6  c #163244",
"7  c #17364a",
"8  c #183649",
"9  c #1a3a45",
"0  c #1a3b4c",
"q  c #123051",
"w  c #12345c",
"e  c #16395e",
"r  c #193b53",
"t  c #193d5a",
"y  c #143865",
"u  c #143b6c",
"i  c #183f64",
"p  c #1e404c",
"a  c #1d4253",
"s  c #1b415c",
"d  c #1b4466",
"f  c #18406c",
"g  c #1e4867",
"h  c #1f4a6d",
"j  c #164178",
"k  c #1b4570",
"l  c #19457b",
"z  c #1d4874",
"x  c #20434a",
"c  c #214651",
"v  c #244d54",
"b  c #265054",
"n  c #25505b",
"m  c #28545f",
"M  c #204e76",
"N  c #255369",
"B  c #235374",
"V  c #20507f",
"C  c #275b7f",
"Z  c #2a5e7d",
"A  c #2c637b",
"S  c #306572",
"D  c #326b7c",
"F  c #194781",
"G  c #1b4b81",
"H  c #1b4d8d",
"J  c #1f569a",
"K  c #22578d",
"L  c #265a84",
"P  c #22588e",
"I  c #295e80",
"U  c #225a95",
"Y  c #215a9a",
"T  c #225fab",
"R  c #2b6383",
"E  c #2a638a",
"W  c #2f6884",
"Q  c #2e698e",
"!  c #27629b",
"~  c #2b6794",
"^  c #2d6a91",
"/  c #2e6e99",
"(  c #326d86",
")  c #316c88",
"_  c #306d94",
"`  c #357284",
"'  c #37768e",
"]  c #39798b",
"[  c #32749d",
"{  c #377a9d",
"}  c #3b7d92",
"|  c #2563ac",
" . c #2c6ca4",
".. c #2666b2",
"X. c #2f71a6",
"o. c #3274a3",
"O. c #3175a9",
"+. c #357aa5",
"@. c #347aaa",
"#. c #387da4",
"$. c #3076b6",
"%. c #347cb6",
"&. c #337cbb",
"*. c #2f78c3",
"=. c #3e8395",
"-. c #3c819c",
";. c #3c83a2",
":. c #3880ac",
">. c #3f8aac",
",. c #3780b1",
"<. c #3984b2",
"1. c #3a86b9",
"2. c #3d8ab4",
"3. c #3d8bbb",
"4. c #3c8cc4",
"5. c #3f91c4",
"6. c #3e91c9",
"7. c #408799",
"8. c #41899b",
"9. c #408cac",
"0. c #408eb3",
"q. c #4395bb",
"w. c #4b9fb8",
"e. c #4ea4bb",
"r. c #50a7bc",
"t. c #4195cc",
"y. c #469cc8",
"u. c #489ec2",
"i. c #449bd2",
"p. c #4ba2c5",
"a. c #4fa9ca",
"s. c #49a4d7",
"d. c #4dabdb",
"f. c #52adc6",
"g. c #52aecb",
"h. c #55b3cb",
"j. c #5abccf",
"k. c #57b7d0",
"l. c #52b3db",
"z. c #5abcd2",
"x. c #59bede",
"c. c #51b3e0",
"v. c #56bae3",
"b. c #58bde6",
"n. c #5dc1d3",
"m. c #5bc2de",
"M. c #5cc6e5",
"N. c #5bc3ea",
"B. c #5fc9e4",
"V. c #5ec8ed",
"C. c #61cbdd",
"Z. c #61cdeb",
"A. c #61cef0",
"S. c #66d5e9",
"D. c #68d9e8",
"F. c #64d3f3",
"G. c #67d8f5",
"H. c #6bdef3",
"J. c #68dffb",
"K. c #6ce1f6",
"L. c None",
/* pixels */
"L.L.L.L.L.L.L.L.L.L.L.L.L.L.L.L.L.L.L.L.L.L.L.L.L.L.L.L.L.L.L.L.",
"L.L.L.L.L.L.L.L.L.L.L.L.L.L.L.L.L.L.L.L.L.L.L.L.L.L.L.L.L.L.L.L.",
"L.L.L.L.b b v v b b b b v b v x L.L.L.L.L.L.L.L.L.L.L.L.L.L.L.L.",
"L.L.L.L.D.n.C.K.K.D.j.j.j.C.K.j.n L.L.L.L.L.L.L.L.L.L.L.L.L.L.L.",
"L.L.L.L.S v 8.S.z.8.N c c ] h.z.r.m L.L.L.L.L.L.L.L.L.L.L.L.L.L.",
"L.L.L.L.L.. ` G.k.=.x . . : e.M.f.7.+ L.L.L.L.L.L.L.L.L.L.L.L.L.",
"L.L.L.L.L.L.D G.h.} 9 .     f.S.r.D @   L.L.L.L.L.L.L.L.L.L.L.L.",
"L.L.L.L.L.L.c Z.h.] 9   L.L.V.Z.w.D @   L.L.L.L.L.L.L.L.L.L.L.L.",
"L.L.L.L.L.L.c V.a.] 9   L.1 J.x.` N X   L.L.L.L.L.L.L.L.L.L.L.L.",
"L.L.L.L.L.L.c N.p.' 9 . v m.M.-.v >     L.L.L.L.L.L.L.L.L.L.L.L.",
"L.L.L.L.L.L.a b.p.;.;.9.v.a.A v &       L.L.L.L.L.L.L.L.L.L.L.L.",
"L.L.L.L.L.L.0 v.u.-.9.l.l.9.( <         L.L.L.L.L.L.L.L.L.L.L.L.",
"L.L.L.L.L.L.0 l.q.) W ;.q.q.9.A o   L.L.L.L.L.L.L.L.L.L.L.L.L.L.",
"L.L.L.L.L.L.0 d.q.W a N ;.q.0.) :   L.L.L.L.L.L.L.L.L.L.L.L.L.L.",
"L.L.L.L.L.L.0 d.3.R < . R y.2.{ Z & L.L.L.L.L.L.L.L.L.L.L.L.L.L.",
"L.L.L.L.L.L.8 s.2.R 2   a #.2.2.#.Z L.L.L.L.L.L.L.L.L.L.L.L.L.L.",
"L.L.L.L.L.L.7 i.,.R <   L.6 #.3.#.Z -   L.L.L.L.L.L.L.L.L.L.L.L.",
"L.L.L.L.L.L.7 i.:.I r O L.L.+.t.:.[ ^ R r L.; ^ Q Q r L.L.L.L.L.",
"L.L.L.L.6.4.4.@.E C o./ - L.< +.@.,.1.<.R * 6 6.t.+.B & L.L.L.L.",
"L.L.L.L.r M g s r r s r @   o M _ O.@.~ B * r 6./ s > X   L.L.L.",
"L.L.L.L.L.  X               L.L.s ~ O.O.L r @.%.t -       L.L.L.",
"L.L.L.L.L.L.                L.L.X g &.O.L X.&.h ; X     L.L.L.L.",
"L.L.L.L.L.L.L.L.L.L.L.L.L.L.L.L.L.,  . . .&.z ,       L.L.L.L.L.",
"L.L.L.L.L.L.L.L.L.L.L.L.L.L.L.L.L.L.t $. . .d *     L.L.L.L.L.L.",
"L.L.L.L.L.L.L.L.L.L.L.L.L.L.L.L.L.L.z *.! ! G i o   L.L.L.L.L.L.",
"L.L.L.L.L.L.L.L.L.L.L.L.L.L.L.L.L.q *.K h U ! K y o L.L.L.L.L.L.",
"L.L.L.L.L.L.L.L.L.L.L.L.L.L.L.L.o Y U 5 q G Y Y f $ L.L.L.L.L.L.",
"L.L.L.L.L.L.L.L.L.L.L.L.L.L.L.L.Y ..e = o u T U l y . L.L.L.L.L.",
"L.L.L.L.L.L.L.L.L.L.L.L.L.L.o H T F u % = T J F F j w o L.L.L.L.",
"L.L.L.L.L.L.L.L.L.L.L.L.L.L.o u y 4 4 # = j w 4 4 4 3 X L.L.L.L.",
"L.L.L.L.L.L.L.L.L.L.L.L.L.L.L.L.  X       L.  X .         L.L.L.",
"L.L.L.L.L.L.L.L.L.L.L.L.L.L.L.L.          L.              L.L.L."
};
