/* XPM */
static char *magick[] = {
/* columns rows colors chars-per-pixel */
"31 32 10 1",
"  c black",
". c #008000",
"X c #c05800",
"o c #ffa858",
"O c #c0c000",
"+ c #808080",
"@ c #c3c3c3",
"# c #ffffc0",
"$ c white",
"% c None",
/* pixels */
"%%                          %%%",
"%% $$$$$$$$$$$$$$$$$$$$$$$$ +%%",
"%% $$$$$$$$  $$$$$$$$$$$$$$ +%%",
"%% @@ +@@@ $$ @@@@@@@@@@@@@ +%%",
"%% $ $$ $ $$$$ $$$$$$$$$$$$ +%%",
"%% $+$$@ $#$#$$ $$$$$$$$$$$ +%%",
"%% $$ $ $$$#$#$$              %",
"%% $$$ $# $$#$$$$ $$$$$$$$$$$ +",
"%% $$ # ## ##$$$$$ $$$$$...$$ +",
"%% $ $## O@##$#$$$$ $$$$...$$ +",
"%%  ####O +$#$$$$## +$$$...$$ +",
"%% ####O########## +$$$$... $ +",
"% ####O####$#O### ++++$$$$ o  +",
" ####O##O###O### +$$$$$$$ oXo +",
" ###O##O##$O### +++++$$$ oXXXo ",
"% ####O####### +$$$$$$$ oXXXX +",
"%% ##O###O### +$$$$    oXXXX  +",
"%%  ####O### +$$$@ @$$@ XXX $ +",
"%% + ##O###       $$$$$$ X    +",
"%% $+ #### +++++ $$$$$ $@ + +++",
"%% $$+ ## +@@@@@ $$$$ $$$ + +%%",
"%% $$$+  +@@@@@@ $$$ $$$$ + +%%",
"%% $$$$++$$$$$$$ @$$ $$$@ + +%%",
"%% $$$$$$$$$$$$ o $$$$$$ +$ +%%",
"%% $$$$$$$$$$$ oXo @$$@ +$$ +%%",
"%% @@@@@@@@@@ oXXXo    +@@@ +%%",
"%% $$$$$$$$$ oXXXX ++++$$$$ +%%",
"%% $$$$$$$$ oXXXX +$$$$$$$$ +%%",
"%%         oXXXX            +%%",
"%%%++++++++ XXX +++++++++++++%%",
"%%%%%%%%%%%% X %%%%%%%%%%%%%%%%",
"%%%%%%%%%%%%% %%%%%%%%%%%%%%%%%"
};
