/* XPM */
static char *magick[] = {
/* columns rows colors chars-per-pixel */
"32 32 80 1",
"  c black",
". c #100000",
"X c #620900",
"o c #903b0b",
"O c #a4552c",
"+ c #aa775d",
"@ c #bc7953",
"# c #ae7c62",
"$ c #b17d64",
"% c #aa8977",
"& c #ad8c79",
"* c #af907d",
"= c #b18167",
"- c #b6856d",
"; c #b7896f",
": c #b18f7b",
"> c #bb8d73",
", c #b2917e",
"< c #bf9078",
"1 c #cc926f",
"2 c #c2947c",
"3 c #d19978",
"4 c #b59481",
"5 c #b79885",
"6 c #b89784",
"7 c #ba9985",
"8 c #bd9c89",
"9 c #c69780",
"0 c #c69982",
"q c #c19e8b",
"w c #ca9e87",
"e c #c3a28e",
"r c #cda289",
"t c #c4a491",
"y c #c9a691",
"u c #cca994",
"i c #d4a487",
"p c #d2aa94",
"a c #d3ae99",
"s c #deaf91",
"d c #d5b19c",
"f c #d9b49d",
"g c #d5b5a4",
"h c #dbb6a1",
"j c #dcb9a4",
"k c #dbbcaa",
"l c #e4b89e",
"z c #e1bba5",
"x c #e1bea9",
"c c #dfc4b4",
"v c #e3c1ac",
"b c #e8c0a9",
"n c #e5c4b1",
"m c #e5ccbd",
"M c #e8c6b3",
"N c #eac9b5",
"B c #eccdb9",
"V c #efd1bc",
"C c #f0cfba",
"Z c #f2d2bd",
"A c #ebd6c9",
"S c #f4d5c1",
"D c #f5d8c6",
"F c #f4dbcb",
"G c #f8d7c2",
"H c #f9d9c5",
"J c #fbdcc9",
"K c #f6dfd1",
"L c #ffe2cd",
"P c #f5e5da",
"I c #f8e2d4",
"U c #fae6d8",
"Y c #ffe8d0",
"T c #fbe9dc",
"R c #fff4db",
"E c #faece3",
"W c #fef9ea",
"Q c #fffff4",
"! c #fffffe",
"~ c None",
/* pixels */
"~~~~~~~~   ~~~~~~~~~~   ~~~~~~~~",
"~~~~~~~ JSS ~~~~~~~~ xxj ~~~~~~~",
"~~~~~~ HHSSV ~~~~~~ xxzjj ~~~~~~",
"~~~~~ JHDSZZB ~~~~ vxxzzjf ~~~~~",
"~~~~ JHHHZZSCB ~~ vvbvzjjff ~~~~",
"~~~ JJJDGGZZBNN  vMvvxzhfffd ~~~",
"~~ JJJHHHZZZBNB bvNvxzzjhfdap ~~",
"~ JJJJHDZZZCCS FBlvbxxzhffdapu ~",
" JJJJJHGGZZCS FFSxsbxzjhfdaupue ",
" JJJJHHGGZZZ IE!PBsizjjhfdauuye ",
" JJJJHGGGZG IF!!!Nv31zhddduuuyr ",
"~ JJJHHGZS IIFE!PMbf@@hdapauye ~",
"~~ JJHGGG UIKDSBNvzfpOOddpuue ~~",
"~~~ HHHG TUIKDZBMxhpr<Xoauuy ~~~",
"~~~~ HH TW!EFSBBxzfm!k;XXuy ~~~~",
"~~~~~  TT!!!DVmvzfp!!!=+.X ~~~~~",
"~~~~~ !QUE!ESZNvzdic!g#+!  ~~~~~",
"~~~~ HHQQIDSVBvzfiw2;$+! q8 ~~~~",
"~~~ HGGGWWFABMxjar9>=#! 8q75 ~~~",
"~~ HGGGZZRRBNnA!m0<-#! 8qq<4, ~~",
"~ HGGZZZBBYLNv!!!<;=! eeq766,: ~",
" HGGGZZZBBNJZjA!n>-! ye87666::& ",
" GGZZZZCNNvvZxpr2;! yt88766&:&% ",
" GZZZZBBNNNNxvp2<! ye8e77,,&:%% ",
"~ ZZCVBmNvvckjj0! ttt8877,4&&% ~",
"~~ VBBNNNvnckjgg utte8757,&&& ~~",
"~~~ BBNNcvcxjgg  ytt8855,4&& ~~~",
"~~~~ BNvcvvkgj ~~ t88754,&& ~~~~",
"~~~~~ nnnvkgj ~~~~ 88554,& ~~~~~",
"~~~~~~ nxkkk ~~~~~~ 755*& ~~~~~~",
"~~~~~~~ kkk ~~~~~~~~ 55& ~~~~~~~",
"~~~~~~~~   ~~~~~~~~~~   ~~~~~~~~"
};
