/* XPM */
static char *magick[] = {
/* columns rows colors chars-per-pixel */
"32 32 52 1",
"  c #000000",
". c #0b0b0b",
"X c #151515",
"o c gray10",
"O c #262627",
"+ c #2e3232",
"@ c #3a3626",
"# c #333333",
"$ c #3a3a3a",
"% c #423e2c",
"& c #46422e",
"* c #4a462d",
"= c #5a563a",
"- c #7e721e",
"; c #424242",
": c #565656",
"> c #7e7e7e",
", c #008000",
"< c green",
"1 c #d86636",
"2 c #8e8a7e",
"3 c #b7996e",
"4 c #aaa65a",
"5 c #838383",
"6 c #8b8b8b",
"7 c #939393",
"8 c #9c9c9c",
"9 c #a69682",
"0 c #a1a1a1",
"q c #ababab",
"w c #b3b3b3",
"e c #bbbbbb",
"r c #d2be9e",
"t c #cac686",
"y c #e8c08d",
"u c #e4ccaa",
"i c #c3c3c3",
"p c #cbcbcb",
"a c #d3d3d3",
"s c #dbdbdb",
"d c #eadac4",
"f c #ebddca",
"g c #ede0cc",
"h c #eee3d3",
"j c #f0e6d9",
"k c #f0e8dd",
"l c #f2ece3",
"z c #f4efe9",
"x c #f4f1ec",
"c c #f6f6f5",
"v c white",
"b c None",
/* pixels */
"bbbbbbbbbbbbbbb   bbbbbbbbbbbbbb",
"bbbbbbbbbbbbbbb ff   bbbbbbbbbbb",
"bbbbbbbbbbbbbb uccccf   bbbbbbbb",
"bbbbbbbbbbbbbb ccccccccf   bbbbb",
"bbbbbbbbbbbb* cccccccccczlf   bb",
"bbbbbbbbbbbb ucccccccccxzlljhf b",
"bbbbbbbbbbb* ccccccccccxzlkhhu b",
"bbbbbbbbbbb ucccvcccccczlkkhf bb",
"bbbbbbbbbb* ccccccccczzllkjhu bb",
"bbbbbbb    uzczcccxcxzllkjhh    ",
"bbbbbb.888 lzzzzxxzzlllkjhfu 4t ",
"bbbbb 888 uklllllllllkjjhhf -4 b",
"bbbb 8888 hkkkllllkkkkhhhfu 4t b",
"bbb 8888 uuhhjjkjjjjhhhhff -4 bb",
"bb 88888: 3yuuhhhhhhhhfffu 4t bb",
"b 88888888:  3yuuhhffffdd -4.bbb",
" 888888788878: .3yuuddddu 4t   b",
" vvv888877776666:  3yuuu    >>> ",
" sssvvv877867666666:  3y >>>>>> ",
" sssssavvv777666656555:  >>>>>: ",
" ssssaaappvvv6666555555>>>>>>:: ",
" sssasappppiivvv565555>>>>>>::: ",
" sssaappppiiieeevvv555>>>>>:::: ",
"  sssaapppiieeeewwwvvv>>>>::::: ",
"bb   ppppiiieeewwwwqq0vvv::::::.",
"bbbbb  .piiieeewwwqqqq008::::: b",
"bbbbbbbb   iiewwwqqqq,<00:::: bb",
"bbbbbbbbbbb   ewqwqqq8088::: bbb",
"bbbbbbbbbbbbbb   qqq00008:: bbbb",
"bbbbbbbbbbbbbbbbb   q8808: bbbbb",
"bbbbbbbbbbbbbbbbbbbb   88.bbbbbb",
"bbbbbbbbbbbbbbbbbbbbbbb  bbbbbbb"
};
