/* XPM */
static char *magick[] = {
/* columns rows colors chars-per-pixel */
"32 32 20 1",
"  c black",
". c #272727",
"X c #2b2b2b",
"o c #313131",
"O c #393939",
"+ c #5c5c5c",
"@ c #646464",
"# c #6b6b6b",
"$ c #737373",
"% c #7e7e7e",
"& c #838384",
"* c #868688",
"= c #8a8a8c",
"- c #8e8e91",
"; c #919194",
": c #959599",
"> c #99999d",
", c #9e9ea3",
"< c LightGray",
"1 c None",
/* pixels */
"11111111111111111111111111111111",
"11111111111111111111111111111111",
"11111111111111111111111111111111",
"11111111111111111111111111111111",
"11111111111111111111111111111111",
"11111111111111111111111111111111",
"11111111111111    11111111111111",
"111111111111  >>:;  111111111111",
"1111111111  ,,>>:;;;  1111111111",
"11111111  ,,,>>>:;;==*  11111111",
"111111  ,,,,,,>><<;===*&  111111",
"1111  ,,,,,,,,<<:;;;==*&%%  1111",
"11  ,,,,,,,,<<>>:;<<==*&&%%%  11",
"1 ,,,,,,,,<<,,>><<;==**&%%%%%% 1",
"1 ,,,,,,,,,,,,<<:;===**&%%%%%% 1",
"1 %%,,,,,,,,,,,>;;;;=**&&%%%XX 1",
"1 %%%%,,,,,,,>>::;===*&&%%X... 1",
"1 %%%%%%,,,,,,>:;;=;=**&oXXXX. 1",
"11  %%%%$$,,,>:::;;=**oooXXX  11",
"11 1  %$$$$#,>>>;;;=OoooXo  1o11",
"11 1 1  $$###@>:;;OoOoOX  1X1o11",
"1111 1o1O ##@@++OOOOOo  1o1o1111",
"111111o1o1  @@++OOOO  1X1o111111",
"11111111o1o1  ++OO  1o1o11111111",
"1111111111o1o1    1X1o1111111111",
"111111111111o1o11o1o111111111111",
"11111111111111o11o11111111111111",
"11111111111111111111111111111111",
"11111111111111111111111111111111",
"11111111111111111111111111111111",
"11111111111111111111111111111111",
"11111111111111111111111111111111"
};
