/* XPM */
static char *magick[] = {
/* columns rows colors chars-per-pixel */
"32 32 29 1",
"  c black",
". c #858585",
"X c #8a8a8a",
"o c #949494",
"O c #9c9c9c",
"+ c #a1a09e",
"@ c #a3a3a3",
"# c #a8a7a6",
"$ c #a9a8a7",
"% c #acacac",
"& c #b2b1af",
"* c #b4b4b4",
"= c #bcbcbc",
"- c #c2c2c2",
"; c #cbcbcb",
": c #d4d4d4",
"> c #dad9d7",
", c #dbdbdb",
"< c #e1e1df",
"1 c #e3e3e2",
"2 c #e8e6e5",
"3 c #e9e8e7",
"4 c #ebebea",
"5 c #f1efef",
"6 c #f2f1ef",
"7 c #f3f3f3",
"8 c #f8f7f5",
"9 c #fefefe",
"0 c None",
/* pixels */
"00000000000000000000000000000000",
"00000000000000000000000000000000",
"0 0000000000000000000000000000 0",
" 7 00000000000000000000000000 & ",
" 5 00000000000000000000000000 * ",
" 45 00   00000000000000   00 %% ",
" 34 0 899 000000000000 -== 0 %# ",
"0 34  7999 0000000000 -=-=  %# 0",
"0 23  7899 0000000000 ===*  %# 0",
"00 24 58899 00000000 -==** %# 00",
"00 13  7799 000  000 -==*  #@ 00",
"000 1345788 00  - 00 ==**%%# 000",
"000 123458 0  9 --  0 **%%#@ 000",
"0000 123458 999 ---= ***%#@ 0000",
"0000 1124478899 ---==**%#@@ 0000",
"00000 ,13445789  -==**%%#O 00000",
"00000 ,112447  00  **%%#@O 00000",
"0000 >,,1233 000000 %%##@OO 0000",
"00  :>:,,12 00000000 $@@OOoo  00",
"0 ;;;;>>,,1 00000000 #@OOoOoXX 0",
" --;;;   ,1 00000000 @@   oXXX. ",
" ---; 000 >1 000000 @@ 000 XX.. ",
"0  ; 0000 ,, 000000 OO 0000 .  0",
"000 000000 ,, 0000 @@ 000000 000",
"0000000000 >> 0000 @O 0000000000",
"00000000000 >, 00 @O 00000000000",
"000000000000 >,  @O 000000000000",
"000000000000 >, #OO 000000000000",
"0000000000000 > O@ 0000000000000",
"00000000000000  O 00000000000000",
"000000000000000  000000000000000",
"00000000000000000000000000000000"
};
