/* XPM */
static char *magick[] = {
/* columns rows colors chars-per-pixel */
"32 32 126 2",
"   c #000000",
".  c #1c1704",
"X  c #251e05",
"o  c #241f0b",
"O  c #2a2106",
"+  c #5b4c0d",
"@  c #64520e",
"#  c #645215",
"$  c #6b5610",
"%  c #6d5812",
"&  c #695a1d",
"*  c #735c12",
"=  c #785f12",
"-  c #6d5f29",
";  c #7c6113",
":  c #7b6419",
">  c #6f6331",
",  c #6e643b",
"<  c #796420",
"1  c #4f4f4b",
"2  c #5a5843",
"3  c #68644e",
"4  c #756b41",
"5  c #7a7453",
"6  c #727275",
"7  c #78777b",
"8  c #7a7a7d",
"9  c #826614",
"0  c #856815",
"q  c #846b1b",
"w  c #896c16",
"e  c #8b6f18",
"r  c #8d7119",
"t  c #91751b",
"y  c #95791e",
"u  c #846f23",
"i  c #8e7324",
"p  c #8e7b2c",
"a  c #8e7b32",
"s  c #8e7a3c",
"d  c #997e20",
"f  c #897c53",
"g  c #887e5a",
"h  c #9c8223",
"j  c #9e8528",
"k  c #a58a29",
"l  c #a88f2b",
"z  c #aa912d",
"x  c #ad9431",
"c  c #ad993a",
"v  c #b49c35",
"b  c #baa23a",
"n  c #92865c",
"m  c #9a8b5d",
"M  c #9a8c63",
"N  c #9b8f6c",
"B  c #a08b51",
"V  c #a2977b",
"C  c #a59a78",
"Z  c #aca34d",
"A  c #b8a444",
"S  c #b1a37e",
"D  c #c0a83f",
"F  c #c4ad43",
"G  c #c9b449",
"H  c #d0bb4e",
"J  c #d2bd50",
"K  c #d6c153",
"L  c #dac757",
"P  c #dbc857",
"I  c #decc5b",
"U  c #e0ce5c",
"Y  c #e1d05e",
"T  c #e5d561",
"R  c #eadc66",
"E  c #ede169",
"W  c #95959c",
"Q  c #98989f",
"!  c #8e8da4",
"~  c #9796aa",
"^  c #a59c84",
"/  c #b3a88d",
"(  c #a5a5ae",
")  c #a4a3bc",
"_  c #ababb3",
"`  c #afafba",
"'  c #a6a4c2",
"]  c #abaac2",
"[  c #b5b4c1",
"{  c #b5b5c9",
"}  c #b8b7c9",
"|  c #babac5",
" . c #bbbad2",
".. c #bfbedc",
"X. c #c8beaa",
"o. c #c0bfd9",
"O. c #c6c3c3",
"+. c #c4c4d4",
"@. c #c4c3dc",
"#. c #c8c8d0",
"$. c #c8c8df",
"%. c #d4d2d9",
"&. c #dbd7d7",
"*. c #ddd9db",
"=. c #cacae0",
"-. c #d5d4e4",
";. c #d7d6ee",
":. c #d9d7e3",
">. c #dbdae4",
",. c #dcdbee",
"<. c #d7d6fa",
"1. c #d8d7f9",
"2. c #dbdaf2",
"3. c #dcdbfa",
"4. c #e0dffb",
"5. c #e1e0eb",
"6. c #e8e5e9",
"7. c #e3e3f3",
"8. c #e3e3fb",
"9. c #e8e7f5",
"0. c #e8e7fc",
"q. c #efeef7",
"w. c #eaeafc",
"e. c #f0effd",
"r. c #f1f0fd",
"t. c None",
/* pixels */
"t.t.t.t.t.t.t.t.t.t.t.t.t.t.t.t.t.t.t.t.t.t.t.t.t.t.t.t.t.t.t.t.",
"t.t.t.t.t.t.t.t.t.t.t.t.t.t.t.t.t.t.t.t.t.t.t.t.t.t.t.t.t.t.t.t.",
"t.t.t.t.t.t.t.t.t.t.t.t.t.t.t.t.t.t.t.t.t.t.t.t.t.t.t.t.t.t.t.t.",
"t.t.t.t.t.t.t.t.t.t.t.t.t.t.t.t.t.t.t.t.t.t.t.t.t.t.t.t.t.t.t.t.",
"t.t.t.        t.t.t.t.t.t.t.t.t.t.t.t.t.t.t.t.t.t.t.t.t.t.t.t.t.",
"t.t.t.  ' ' !     t.t.t.t.t.t.t.t.t.t.t.t.t.t.t.t.t.t.t.t.t.t.t.",
"t.t.    <.<.1.1.'     t.t.t.t.t.t.t.t.t.t.t.t.t.t.t.t.t.t.t.t.t.",
"t.t.t.  <.<...3.3.]     t.t.t.t.t.t.t.t.t.t.t.t.t.t.t.t.t.t.t.t.",
"t.t.t.    3.1...3.3.3.    t.t.t.t.t.t.t.t.t.t.t.t.t.t.t.t.t.t.t.",
"t.t.t.t.  3.3.2. .3.4.4.@.    t.t.t.t.t.t.t.t.t.t.t.t.t.t.t.t.t.",
"t.t.t.t.    3.3.;.} 3.4.4.8.      . X X O       t.t.t.t.t.t.t.t.",
"t.t.t.t.t.    3.3.;.} 4.4.8.=.      $ * 0 $ #   t.t.t.t.t.t.t.t.",
"t.t.t.t.t.t.  ~ 4.4.,.[ 8.4.8.0.%.g @ * ; w y h   o t.t.t.t.t.t.",
"t.t.t.t.t.t.    4.4.4.,.` 8.8.0.0.:.f $ = 0 t h z     t.t.t.t.t.",
"t.t.t.t.t.t.t.t.  $.8.8.2.` +.8.0.0.,.V * ; r h z b     t.t.t.t.",
"t.t.t.t.t.t.t.t.    8.8.0.7._ | w.0.w.7.M ; w y z b A   t.t.t.t.",
"t.t.t.t.t.t.t.t.t.t.  -.0.8.7._ ` w.w.w.5.m 0 t k b J     t.t.t.",
"t.t.t.t.t.t.t.t.t.t.  5 ,.0.0.9.` ( w.w.w.&.u t k v J U   t.t.t.",
"t.t.t.t.t.t.t.t.t.t.  + 4 O.0.w.9.W Q 9.q.r.X.r k v J T   t.t.t.",
"t.t.t.t.t.t.t.t.t.t.  @ + > O.w.w.9.W 8 9.r.6.m d v L R   t.t.t.",
"t.t.t.t.t.t.t.t.t.t.  * $ @ & ^ 9.q.w.| 8 >.q.S t v P E   t.t.t.",
"t.t.t.t.t.t.t.t.t.t.  ; = * $ % N *.e.e.#.6 %.C e x I E   t.t.t.",
"t.t.t.t.t.t.t.t.t.t.  * 0 0 ; ; = < / *.q.&.1 3 = l T   t.t.t.t.",
"t.t.t.t.t.t.t.t.t.t.    r r e w 9 9 : s m n 5 2 - j T   t.t.t.t.",
"t.t.t.t.t.t.t.t.t.t.t.  : h h d d y y t r w : % , a     t.t.t.t.",
"t.t.t.t.t.t.t.t.t.t.t.t.  < z z l l l z z z x x c     t.t.t.t.t.",
"t.t.t.t.t.t.t.t.t.t.t.t.    j A b F F G H K U T     t.t.t.t.t.t.",
"t.t.t.t.t.t.t.t.t.t.t.t.t.t.    G K L T T R Z   t.t.t.t.t.t.t.t.",
"t.t.t.t.t.t.t.t.t.t.t.t.t.t.t.t.              t.t.t.t.t.t.t.t.t.",
"t.t.t.t.t.t.t.t.t.t.t.t.t.t.t.t.t.t.t.  t.t.t.t.t.t.t.t.t.t.t.t.",
"t.t.t.t.t.t.t.t.t.t.t.t.t.t.t.t.t.t.t.t.t.t.t.t.t.t.t.t.t.t.t.t.",
"t.t.t.t.t.t.t.t.t.t.t.t.t.t.t.t.t.t.t.t.t.t.t.t.t.t.t.t.t.t.t.t."
};
