/* XPM */
static char *magick[] = {
/* columns rows colors chars-per-pixel */
"32 32 10 1",
"  c black",
". c gray19",
"X c #404000",
"o c #585858",
"O c #808080",
"+ c #a0a0a0",
"@ c #c3c3c3",
"# c gainsboro",
"$ c white",
"% c None",
/* pixels */
"%%%%%%%%%%%%%%%%%%%%%%%%%%%%%%%%",
"%%%%%%%%%%%%%%+@@@%%%%%%%%%%%%%%",
"%%%%%%%%%%%%@X    o@%%%%%%%%%%%%",
"%%%%%%%%%%%#        #%%%%%%%%%%%",
"%%%%%%%%%%@          @%%%%%%%%%%",
"%%%%%%%%%%            %%%%%%%%%%",
"%%%%%%%%%+            @%%%%%%%%%",
"%%%%%%%%%X            o%%%%%%%%%",
"%%%%%%%%%o            o%%%%%%%%%",
"%%%%%%%%%o            o%%%%%%%%%",
"%%%%%%%%%@            @%%%%%%%%%",
"%%%%%%%%%%           .%%%%%%%%%%",
"%%%%%%####%.        .%####%%%%%%",
"%%%%#@    ++.      .++    @#%%%%",
"%%%%.      .+@    +@       .%%%%",
"%%%.        .%#  $%         .%%%",
"%%o           #  #           X%%",
"%%.           +  +           .#%",
"%+                            +%",
"%+                            +%",
"%+                            +%",
"%@            O  o            #%",
"%%X           #  #           o%%",
"%%#          +%  %+         .#%%",
"%%%%        .#%  %%+        %%%%",
"%%%%#o    o+%%+  +%%+o    o#%%%%",
"%%%%%%@+@+%%%%    %%%%++++%%%%%%",
"%%%%%%%%%%%%%o    O%%%%%%%%%%%%%",
"%%%%%%%%%%%%%     .%%%%%%%%%%%%%",
"%%%%%%%%%%%#        #%%%%%%%%%%%",
"%%%%%%%%%%%#+++@@@++#%%%%%%%%%%%",
"%%%%%%%%%%%%%%%%%%%%%%%%%%%%%%%%"
};
