/* XPM */
static char *magick[] = {
/* columns rows colors chars-per-pixel */
"32 32 215 2",
"   c #000000",
".  c #01020b",
"X  c #04080c",
"o  c #0a0807",
"O  c #0b0a08",
"+  c #010311",
"@  c #03031b",
"#  c #010913",
"$  c #020c1c",
"%  c #0b0d10",
"&  c #09091a",
"*  c #110e0a",
"=  c #11110e",
"-  c #131312",
";  c #151815",
":  c #1a151b",
">  c #1a1915",
",  c #1c1c1b",
"<  c #040727",
"1  c #020923",
"2  c #040c2a",
"3  c #030c32",
"4  c #090f30",
"5  c #0a0c39",
"6  c #001125",
"7  c #081020",
"8  c #0a1229",
"9  c #001635",
"0  c #06153a",
"q  c #0a113b",
"w  c #091e3a",
"e  c #1f251f",
"r  c #231d17",
"t  c #23211b",
"y  c #242624",
"u  c #272b27",
"i  c #292721",
"p  c #2d2926",
"a  c #2a2e2a",
"s  c #2c322c",
"d  c #2b3330",
"f  c #302d24",
"g  c #312f30",
"h  c #33342d",
"j  c #333333",
"k  c #353a35",
"l  c #373c38",
"z  c #3d3832",
"x  c #070e4e",
"c  c #0a0c4c",
"v  c #0d0055",
"b  c #0d005a",
"n  c #0d095c",
"m  c #04184d",
"M  c #0c1143",
"N  c #0d114d",
"B  c #0f1e41",
"V  c #0b1b48",
"C  c #0f1453",
"Z  c #091158",
"A  c #081950",
"S  c #0e0463",
"D  c #0f046d",
"F  c #0e0a69",
"G  c #071b62",
"H  c #11006d",
"J  c #160b65",
"K  c #110774",
"L  c #13057a",
"P  c #12087c",
"I  c #11126f",
"U  c #171f78",
"Y  c #062242",
"T  c #02224a",
"R  c #0b2444",
"E  c #0e2b4d",
"W  c #072453",
"Q  c #0a2154",
"!  c #0c205a",
"~  c #0e3050",
"^  c #162248",
"/  c #0e2a77",
"(  c #0b307f",
")  c #0e3a72",
"_  c #173060",
"`  c #3c433c",
"'  c #10407c",
"]  c #444444",
"[  c #434843",
"{  c gray29",
"}  c #495249",
"|  c #545453",
" . c #565c56",
".. c #5b5e57",
"X. c #5d5c5a",
"o. c #586058",
"O. c #676767",
"+. c #666861",
"@. c #6e6e6a",
"#. c #6f706f",
"$. c #70736d",
"%. c #757574",
"&. c #787570",
"*. c #7a7b7a",
"=. c #0e0f87",
"-. c #0f1489",
";. c #150087",
":. c #14048b",
">. c #120c81",
",. c #170296",
"<. c #190295",
"1. c #19049a",
"2. c #141381",
"3. c #111a85",
"4. c #141d90",
"5. c #150da4",
"6. c #1806a8",
"7. c #1c03b5",
"8. c #1a09bd",
"9. c #141ba2",
"0. c #191fae",
"q. c #1512b0",
"w. c #1713bb",
"e. c #1d15b2",
"r. c #1e1eb1",
"t. c #1a238b",
"y. c #1e328c",
"u. c #1522a2",
"i. c #162cb0",
"p. c #1c2eba",
"a. c #133ea2",
"s. c #2005b6",
"d. c #210fb5",
"f. c #2028a8",
"g. c #2225b2",
"h. c #2430ba",
"j. c #1a0dc7",
"k. c #1f0ed9",
"l. c #1d15ce",
"z. c #1f1ac5",
"x. c #1f15d2",
"c. c #1d1cdd",
"v. c #1a26c4",
"b. c #1f24cd",
"n. c #1b2ed0",
"m. c #1c3adb",
"M. c #1f39e8",
"N. c #2004d1",
"B. c #2301dc",
"V. c #2113c3",
"C. c #2517cf",
"Z. c #221bc7",
"A. c #251bcf",
"S. c #2111d0",
"D. c #2013db",
"F. c #2319d5",
"G. c #221bde",
"H. c #2300e7",
"J. c #2403ea",
"K. c #260beb",
"L. c #2700f7",
"P. c #2601fa",
"I. c #270bf6",
"U. c #260cf9",
"Y. c #2804f4",
"T. c #2800fe",
"R. c #280bf2",
"E. c #2810ed",
"W. c #281ce1",
"Q. c #2511f7",
"!. c #2518f5",
"~. c #252fdd",
"^. c #282ed0",
"/. c #283dc0",
"(. c #2323eb",
"). c #202de8",
"_. c #2223f1",
"`. c #154f95",
"'. c #1d46b4",
"]. c #1c48e2",
"[. c #7a807a",
"{. c #c80fc8",
"}. c #cb12cb",
"|. c #d91ed9",
" X c #858681",
".X c #898688",
"XX c #8d8a86",
"oX c #8c8c8b",
"OX c #8e908e",
"+X c #908e8d",
"@X c #95928f",
"#X c #929492",
"$X c #959a95",
"%X c #999591",
"&X c #9c9a97",
"*X c #9c9e9a",
"=X c #9ea19e",
"-X c #a1a4a2",
";X c #a0a5a9",
":X c #acabaa",
">X c #b3b4b3",
",X c #b9b9b9",
"<X c #bdc0bd",
"1X c #c3c4c3",
"2X c #c8cac7",
"3X c #cacaca",
"4X c #d4d4d4",
"5X c #dbdcdb",
"6X c #dfe0df",
"7X c #dde1e4",
"8X c #e4e4e4",
"9X c #e0e5ea",
"0X c #ebeceb",
"qX c #f3f3f4",
"wX c #f9fafb",
/* pixels */
"}.l X   .   .       .   .   . .     .       .   .   .   . = | |.",
"d < Z G G G G G G G G G G G G Z G G G G G G G G G G G G Z m @ X.",
"$ u.T.T.T.T.T.T.T.T.T.T.T.T.T.T.T.T.P.T.T.T.T.T.T.T.T.T.T.T.P : ",
"7 /.T.T.T.T.T.T.T.T.T.T.R.W.x.l.8.s.7.8.8.j.F.(.T.T.T.T.T.T.-.+ ",
"$ h.T.T.T.T.T.T.T.K.z.6.2._ R 9 $ & # @ 6 9 E ) <.d.G.I.T.T.-.X ",
"& r.T.T.T.T.T.T.e.I w $                           8 ! 4.F.Y.>.. ",
"@ 9.T.T.T.T.S.P 2                                     & M t.C . ",
"# -.T.T.!.u.N .                                           $ +   ",
"+ -.T.Q.i.0 .                                     * j l > o     ",
". P T.k.c                                         h :X>Xj       ",
". L J.=.$     s [ l k l - e } ..r     ; `  .} f o { 5X,Xj       ",
"  D B.b       :XwX9X4X:X-X7X5X0X8XX.f &X5X4X0XwX` O.0X-Xp       ",
". S B.v     r 3XqX;X .[.5X5X$.+XqX:Xz ..+.+.3XwX .@X0X Xr       ",
"  n k.S .   [ 6X4Xa % @.8X5X>X<X1X*XoX4X1X3X0XwX[ 1X5XX.o       ",
"  Q m.4.$   %.0X,Xo X | 2X1X*.$XXXX.>X8X+X$X0X9Xl 8X2X]         ",
". A M.b.Q % X.%X|     , @.=X*XoXX.t $.=XXXXX%X$.z @XO.,         ",
". V ~.R.i.^ - *         = , -     o ; ; O * * o * o             ",
"  B ^.T.R.p.W .                                                 ",
"  ^ ^.T.T.I.k.a.6                                       # 1 .   ",
"  q Z.T.T.T.T.U.C.`.~ #                               8 t.3.1   ",
"  3 w.T.T.T.T.T.T.R.K.c.'.' T 1 .                 . c V.Y.1.@   ",
"  2 q.T.T.T.T.T.T.T.T.T.T.P.P.L.L.L.B.J X       $ ( ).T.T.1.@   ",
"  1 5.T.T.T.T.T.T.T.T.T.T.T.T.T.T.I.v.Y     X m ].T.T.T.T.:.+   ",
"  1 5.T.T.T.T.T.T.T.T.T.T.T.T.T.T.J.P # X 5 y.E.T.T.T.T.T.;..   ",
"  @ 1.T.T.T.T.T.T.T.T.T.T.T.T.T.L.Z.R 4 U A.P.T.T.T.T.T.U.>.+   ",
"  @ ,.T.T.T.T.T.T.T.T.T.T.T.T.T.H.K V f.K.T.T.T.T.T.T.T._./ X   ",
"  . F c.U.T.T.T.T.T.T.T.T.T.T.T.H.:.e.E.T.T.T.T.T.T.T.I.n.W .   ",
"    1 m F H H H H H H H H H H H H H H H H H H H H H H J m #     ",
"                                                                ",
"                                                              o ",
"a                                                             s ",
"{.e                                                         u {."
};
