/* XPM */
static char *magick[] = {
/* columns rows colors chars-per-pixel */
"32 32 18 1",
"  c black",
". c gray19",
"X c #404000",
"o c #585858",
"O c #0000c0",
"+ c blue",
"@ c #00c000",
"# c green",
"$ c #c00000",
"% c red",
"& c #808000",
"* c #c0c000",
"= c yellow",
"- c #808080",
"; c #c3c3c3",
": c gainsboro",
"> c white",
", c None",
/* pixels */
"                ..,,,,,,,,,,,,,,",
"                .o,,,,,,,,,,,,,,",
"  $$%%$$  OO++OOo     ,,,,,,,,,,",
"  $$%%$$  OO++OO       ,,,,,,,,,",
"  %%$$%%  ++OO+      o  ,,,,,,,,",
"  %%$$%%  ++OO+         ,,,,,,,,",
"  $$%%$$  OO++O o;  o;  ,,,,,,,,",
"  $$%%$$  OO++O >>  >>   ,,,,,,,",
"  %%$$%%  ++OO+  >&& >   ,,,,,,,",
"  %%$$%%  ++OO+ &*==*&   ,,,,,,,",
"             .o *====*   ,,,,,,,",
"             .o &*=*&-.  ,,,,,,,",
"  ==**==  ##@@# -ooo-:-   ,,,,,,",
"  ==**==  ##@@# ;--;:>;.  ,,,,,,",
"  **==**  @@##  >:::>>:-   ,,,,,",
"  **==**  @@#  .>>>>>>>-.   ,,,,",
"  ==**==  ##@ .;:>>>>>:;-   ,,,,",
"  ==**==  ##  ;:>>>>>>>:-    ,,,",
"  **==**  @@  :>>>>>>>>>:    ,,,",
"  **==**  @@ .>>>>>>>>>>:    ,,,",
"         .o  ->>>>>>>>>>:    ,,,",
"         .o  ;>>>>>>>>>>:.    ,,",
">>,,,,,,,,,  o>>>>>>>>>>;o    ,,",
">>,,,,,,,, = .->>>>>>>>:-.    ,,",
"  ,,,,,,  &*=&.;>>>>>>>;.=..* ,,",
"  ,,,,, ==**** .->>>>>:-.**==& ,",
">>,,,,, =*****&  >>>>>:.&****=& ",
">>,,,, =*******&.>>>>:-.*****=X ",
"  >>  > &******X.-;;--  *****&X,",
"  >>  >> &*****X.       &***X.,,",
",,,,,,,,, X&&&X.        XX&. ,,,",
",,,,,,,,,,      ,,,,,,,,.  ,,,,,"
};
