/* XPM */
static char *magick[] = {
/* columns rows colors chars-per-pixel */
"32 32 74 1",
"  c black",
". c #1a2931",
"X c #21333c",
"o c #283d46",
"O c #2a3e48",
"+ c #2d424c",
"@ c #30454f",
"# c #314651",
"$ c #334953",
"% c #364c59",
"& c #394f5a",
"* c #3c525c",
"= c #40555f",
"- c #415561",
"; c #455a65",
": c #475d68",
"> c #495e69",
", c #4d616c",
"< c #4f6370",
"1 c #51646e",
"2 c #536671",
"3 c #556973",
"4 c #5a6c76",
"5 c #5c6d78",
"6 c #5f7079",
"7 c #62727c",
"8 c #677780",
"9 c #697681",
"0 c #6b7a83",
"q c #707e86",
"w c #717f88",
"e c #718087",
"r c #75828a",
"t c #7a858d",
"y c #7e8990",
"u c #868e94",
"i c #899096",
"p c #8b9298",
"a c #90969b",
"s c #94999e",
"d c #979ba0",
"f c #999ca1",
"g c #9da0a4",
"h c #a2a3a6",
"j c #a4a5a8",
"k c #aaaaac",
"l c #aeadb0",
"z c #b1afb1",
"x c #b3b1b3",
"c c #b9b5b6",
"v c #bbb6b8",
"b c #bdb8b9",
"n c #c2bcbd",
"m c #c6bfc0",
"M c #c6c0c0",
"N c #ccc5c4",
"B c #cec8c6",
"V c #cfc9c8",
"C c #d1c9c7",
"Z c #d4cbca",
"A c #d8cece",
"S c #d9d0cf",
"D c #dcd3d2",
"F c #e0d6d6",
"G c #e1d8d6",
"H c #e5dbda",
"J c #e8dede",
"K c #e8e0df",
"L c #eae1e0",
"P c #f1ebe9",
"I c #f5f0ee",
"U c #f9f5f4",
"Y c #fdfcfc",
"T c None",
/* pixels */
"TTTTTTTTTTTTTTa75iTTTTTTTTTTTTTT",
"TTTTTTTTTTTTTafPUhwTTTTTTTTTTTTT",
"TTTTTTTTTTTTpfYYPPfqTTTTTTTTTTTT",
"TTTTTTTTTTTihYULJLPf0TTTTTTTTTTT",
"TTTTTTTTTTphYPFASGJLf0TTTTTTTTTT",
"TTTTTTTTTphYPCi**sDHPf0TTTTTTTTT",
"TTTTTTTTphYPBy#-;*pDGLd8TTTTTTTT",
"TTTTTTTphYPBt#=TTr;pAGHs7TTTTTTT",
"TTTTTTijYPNy#*TTTTw;pZDHd5TTTTTT",
"TTTTTpjYPNt#=TTTTTTt;uNADp5TTTTT",
"TTTTijYPNt#*TTTTTTTTw-wfsfw>TTTT",
"TTTpjYPNt#:TTTTTTTTTTt&OOOO+>TTT",
"TTijYPNt$:TTTTTTTTTTTTTTTTT >TTT",
"TpkYPZy#:TTTTTTrffffffsssssdsfsw",
"ijYUGa#:TTTTTTTj5tttwttttttwttq$",
"6PULD::TTTTTTTTk4UPPPPLLLLJJHDco",
"3GJHG13TTTTTTTTs:NbvvvcczzzkkjaX",
"6rDHJx,rTTTTTTTw%&$###O##O@O+OOX",
"T3qAHJb4wTTTTTTt>*&&&%&-*&&$#$@#",
"TT30AGLb4rTTTTTTTTTTTTTTTTTT=TTT",
"TTT10ZFJv4rTTTTTTTTTTwu7901%;TTT",
"TTTT10CDHc3wTTTTTTTTwumLMf3@.TTT",
"TTTTT19BAHc1wTTTTTTwtNPnf-OTTTTT",
"TTTTTT,7NAFx<tTTTTttCPna=+TTTTTT",
"TTTTTTT,6MADx,rTTwtCPbs-OTTTTTTT",
"TTTTTTTT,6mCDx5fftVPba=OTTTTTTTT",
"TTTTTTTTT;5bBAnwqALbs*OTTTTTTTTT",
"TTTTTTTTTT;5bNADDScs-OTTTTTTTTTT",
"TTTTTTTTTTT;5vnnnxs*OTTTTTTTTTTT",
"TTTTTTTTTTTT-3xvxp*OTTTTTTTTTTTT",
"TTTTTTTTTTTTT=;ur*+TTTTTTTTTTTTT",
"TTTTTTTTTTTTTT*XX+TTTTTTTTTTTTTT"
};
