/* XPM */
static char *magick[] = {
/* columns rows colors chars-per-pixel */
"32 32 19 1",
"  c black",
". c gray19",
"X c #585858",
"o c navy",
"O c #0000c0",
"+ c blue",
"@ c #800000",
"# c #c05800",
"$ c #ffa858",
"% c #c0c000",
"& c yellow",
"* c #808080",
"= c #a0a0a4",
"- c #ffdca8",
"; c #c0c0c0",
": c gainsboro",
"> c #ffffc0",
", c white",
"< c None",
/* pixels */
"<<<<<<<  <<<<<<<<<<<<<<<<<<<<<<<",
"<<<<<<< > <<<   <<<<<<<<<<<<<<<<",
"<<<<<<< >>   >& <<<<<<<<<<<<<<<<",
"<<<<<<< >>>>>&% <<<<<<<<<<<<<<<<",
"<<<<<<< >>>>&> <<<<<<<<<<<<<<<<<",
"<<<<<  >>&>&>& <<<<<<<<<<<<<<<<<",
"<<<< >>>&>&>&> <<<<<<<<<<<<<<<<<",
"<<<<< >&>&>&&&& <<<<<<<<<<<<<<<<",
"<<<<<< $#>&&%%&& <<<<<<<<<<<<<<<",
"<<<<< -$@&&%     <<<<<<<<<<<<<<<",
"<<<< -$# && <<<<<<<<<<<<<<<<<<<<",
"<<< -$# < & <<<<<<<<<<<<<<<<<<<<",
"<< -$# =*X X.                  <",
"< -$# ,,,,,,,,,,,,,,,,,,,,,,,, <",
" -$# :;;;;XXXXXXXXXXXXXXXXXXXX <",
"-$# , ;, ;X++O+OOoOoo,,,,,,,,, <",
"$# ,;;  ;;X+++OOOOoooXXXXXXXXX <",
"# X,;;  ;;X++O+OOoOo,,,,,,,,,, <",
" <.,, ;, ;X+++OOOOooXXXXXXXXXX <",
"<< ,;;;;;;,,,,,,,,,=========== <",
"<< ,;;;;;;;;;;;;;;;=========== <",
"<< ,;;;;;;;;;;;;;;============ <",
"<< ,;;,,,,,,,,,,,           == <",
"<< ,;;,;;;;;;;;;;,,,,,,:::X:== <",
"<< ,;;,;,,.;;;;;;,,,,,,:==X:== <",
"<< ,;;,;,=.;;;;;,,,,,,,:  X:== <",
"<< ,;;,;;.;;;;;;,,,,,,,:==X:== <",
"<< ,;;,;;;;;;;;,,,,,,,,XXXX:== <",
"<< ,;;.........:::::::::::::== <",
"<< ,;;;;;;;;;;================ <",
"<< ,<<<<<<<<<<================ <",
"<<                             <"
};
