/* XPM */
static char *magick[] = {
/* columns rows colors chars-per-pixel */
"32 32 92 1",
"  c #010000",
". c #090603",
"X c #0e0a05",
"o c #130e07",
"O c #151208",
"+ c #1a150a",
"@ c #1f180c",
"# c #211a0d",
"$ c #27210f",
"% c #2c2311",
"& c #302713",
"* c #352a14",
"= c #392d16",
"- c #3d3018",
"; c #43351a",
": c #45381b",
"> c #4a3b1d",
", c #503f1f",
"< c #50411f",
"1 c #544321",
"2 c #584624",
"3 c #5a4824",
"4 c #604d26",
"5 c #624f28",
"6 c #665029",
"7 c #6b552a",
"8 c #735b2d",
"9 c #78602f",
"0 c #7d6431",
"q c #940000",
"w c #980000",
"e c #9b0b06",
"r c #9e120a",
"t c #a0150a",
"y c #a31d0f",
"u c #a62512",
"i c #aa2c17",
"p c #ab3019",
"a c #806632",
"s c #856a34",
"d c #896d36",
"f c #8c7037",
"g c #8e7338",
"h c #92743a",
"j c #9b7b3d",
"k c #bc4421",
"l c #be5d2e",
"z c #aa602f",
"x c #af6130",
"c c #be6f37",
"v c #bd7038",
"b c #c26231",
"n c #c56b35",
"m c #ca6231",
"M c #cb793d",
"N c #9f803e",
"B c #a48340",
"V c #ac8944",
"C c #b18d46",
"Z c #b69249",
"A c #ba944a",
"S c #be984c",
"D c #c39b4e",
"F c #d18543",
"G c #d58e46",
"H c #dd8a45",
"J c #d79249",
"K c #d89348",
"L c #db984c",
"P c #cba351",
"I c #d4aa54",
"U c #d8ad56",
"Y c #ddb057",
"T c #dfb358",
"R c #e0a452",
"E c #eaab56",
"W c #e4b65b",
"Q c #e6b85c",
"! c #ebbc5e",
"~ c #f0b55b",
"^ c #f2bc5e",
"/ c #eebf60",
"( c #f1bf60",
") c #f4c361",
"_ c #f4cb65",
"` c #f9c664",
"' c #fecb65",
"] c #fdcc68",
"[ c #ffd067",
"{ c #fed36a",
"} c #ffd86c",
"| c #ffda70",
/* pixels */
"|{{{{{{{{{{{{|{{|]||{{|]|]{{|]|]",
"{]]]]]]]]]]]]]]]]]]]]]]]]]]]]]]]",
"{]']']]]]'']]]'']]]]'''']']']]]]",
"{]''']]]''''''''`]]`'''']]''`]]]",
"{'''''''''''''''''''''''''''''''",
"{'''''''''''''''''''''''''''''''",
"{'''''''''''''''''''''''''''''''",
"{']''''''[''''''''''''''''''''''",
"{'''''''''''''''''''''''''''''''",
"{'''''''''''''''''''''''''''''''",
"{''''''''''''''']'''''[]''''''''",
"{'[{QDAZP/[{[)PSSAW][[`USADU']''",
"[[`D<*&&$2U'/j%++O1A']j-+++;D]''",
"}[T7.%45  9!P> :8-+g'Q> >9:Oj)''",
"{}N#Oh//h3h!S& 0PVgA`Y% dPCdD`''",
"{}dX-P}}QDP`P2 O=-3h)(, +==>hW]'",
"{}j+%V''C8fQUBs00= %IQBs0s* #A}'",
"{{D% 2ZA: 6WV<:NI7 #PU3-BT7.XV{'",
"{'`BO O@@=A[P3 O*o#0))6 @*O@7U''",
"{'')j6>>0A`'_P9<;2hU''Ps<:<aI`{'",
"}''[`)QQ)'''[')!W!`''{[`QQQ)''{^",
"{'''[{'{''''''[[{'''''{{_{}''{_b",
"{'''''''''''''''''''''/bpF'''_lt",
"{'''''''''''''''''''{}neqyR}_Mew",
"{'''''''''''''''''''/nqqwquKbeqw",
"['''''''''''''''''''_Krqwwqirqww",
"}''''''''''''''''''''{Kiqqwwwwww",
"[[''''[''''''''''''''''Lyqwwwwqw",
"[''''''''''''''''''''['{KiqwqqmH",
"['`''``'`''`'`'`''''`''''Ltqqk^'",
"['`'`'''''''''''`''``''''{Kzv~{'",
"[''`''''`''`'''''''''''`''GzvE''"
};
