/* XPM */
static char *magick[] = {
/* columns rows colors chars-per-pixel */
"32 32 202 2",
"   c #020203",
".  c #060609",
"X  c #0a0a0e",
"o  c #120202",
"O  c #1e0202",
"+  c #121215",
"@  c #161618",
"#  c #1b1b1c",
"$  c #2b0202",
"%  c #2a0e12",
"&  c #320202",
"*  c #3e0202",
"=  c #242424",
"-  c #2b2b2c",
";  c #323232",
":  c #373738",
">  c #3e3e3e",
",  c #420202",
"<  c #4a0202",
"1  c #5a0202",
"2  c #6a0402",
"3  c #720202",
"4  c #7d0202",
"5  c #721206",
"6  c #721a0a",
"7  c #6a3a16",
"8  c #723e16",
"9  c #6e2226",
"0  c #6e2a2a",
"q  c #7a3030",
"w  c #4a3e42",
"e  c #566a34",
"r  c #7a6e2a",
"t  c #464646",
"y  c gray29",
"u  c #555556",
"i  c #5c5c5c",
"p  c #766e5e",
"a  c #6e6062",
"s  c #6a6a6b",
"d  c #6e6e70",
"f  c #7e6e6e",
"g  c #767676",
"h  c #7c7c7c",
"j  c #4e8a02",
"k  c #4a861a",
"l  c #558e07",
"z  c #568e1a",
"x  c #5a9203",
"c  c #59920f",
"v  c #5e9216",
"b  c #4e8a32",
"n  c #568e26",
"m  c #5a9226",
"M  c #609506",
"N  c #659a02",
"B  c #6e9c16",
"V  c #629622",
"C  c #669a26",
"Z  c #6a9a38",
"A  c #7a8622",
"S  c #7a9222",
"D  c #72a21a",
"F  c #7aa626",
"G  c #55a34e",
"H  c #669a4e",
"J  c #6c9e56",
"K  c #769242",
"L  c #729e4a",
"P  c #6e9662",
"I  c #769c72",
"U  c #68a65e",
"Y  c #72a24e",
"T  c #76a256",
"R  c #7eaa56",
"E  c #6eb66e",
"W  c #7aae62",
"Q  c #7aba7a",
"!  c #850303",
"~  c #8b0202",
"^  c #8a0a0a",
"/  c #940202",
"(  c #9c0202",
")  c #961e1e",
"_  c #862626",
"`  c #863e3e",
"'  c #9a2626",
"]  c #a50202",
"[  c #ac0404",
"{  c #b30202",
"}  c #bd0202",
"|  c #bc0b0b",
" . c #ba1212",
".. c #be1a1a",
"X. c #b33333",
"o. c #be3a3a",
"O. c #8e767a",
"+. c #ac4343",
"@. c #ae5656",
"#. c #ba5252",
"$. c #af6363",
"%. c #a67272",
"&. c #a27a7a",
"*. c #b26a6a",
"=. c #be6262",
"-. c #ba7676",
";. c #c10202",
":. c #c20e0e",
">. c #c11313",
",. c #c62424",
"<. c #c22a2a",
"1. c #c92a2a",
"2. c #c43939",
"3. c #c93535",
"4. c #cd3a3a",
"5. c #c64a4a",
"6. c #cd4343",
"7. c #cc4a4a",
"8. c #c45656",
"9. c #cc5151",
"0. c #cf5f5f",
"q. c #d25353",
"w. c #c66262",
"e. c #c47272",
"r. c #d36c6c",
"t. c #d47a7a",
"y. c #82aa46",
"u. c #8aa64e",
"i. c #87ad64",
"p. c #8eb270",
"a. c #92b67a",
"s. c #9ebe7a",
"d. c #848484",
"f. c #8c8c8c",
"g. c #928686",
"h. c #929292",
"j. c #9b9b9b",
"k. c #9ebd8e",
"l. c #92b292",
"z. c #a29696",
"x. c #b69296",
"c. c #be9e9e",
"v. c #a4a4a4",
"b. c #aea2a2",
"n. c #acabab",
"m. c #b3b2b2",
"M. c gray73",
"N. c #92c68e",
"B. c #9ec292",
"V. c #9aca98",
"C. c #a4c484",
"Z. c #a6c696",
"A. c #b0cc8e",
"S. c #b0ca96",
"D. c #aec6aa",
"F. c #b6cea2",
"G. c #b5cdaa",
"H. c #bdceb2",
"J. c #bad2ae",
"K. c #b2c0dc",
"L. c #ca8e8e",
"P. c #ca9696",
"I. c #d28282",
"U. c #d78e8e",
"Y. c #da8484",
"T. c #de8c8c",
"R. c #d29e9e",
"E. c #d89292",
"W. c #db9c9c",
"Q. c #cea2a2",
"!. c #d2a6a6",
"~. c #d2aeaa",
"^. c #d9b4b4",
"/. c #debaba",
"(. c #e2a2a2",
"). c #c4d7b8",
"_. c #cbdebc",
"`. c #d6e2be",
"'. c #c4c4c4",
"]. c #cacaca",
"[. c #cad6c2",
"{. c #cad6ca",
"}. c #decaca",
"|. c #d6dec2",
" X c #d4d4d4",
".X c #dcdbdb",
"XX c #d2e2c6",
"oX c #d6e2d2",
"OX c #deead2",
"+X c #e6cece",
"@X c #e6d2d2",
"#X c #eedee0",
"$X c #e2ead6",
"%X c #e4e4e3",
"&X c #ece4e2",
"*X c #ebebeb",
"=X c #eef2e6",
"-X c #eef2ea",
";X c #f6e2e2",
":X c #f4f4f4",
">X c #fdfcfc",
",X c None",
/* pixels */
",X,X,X,X,X,X,X; t - y - y ,X,X,X,X,X,Xy - y - y - ,X,X,X,X,X,X,X",
",X,X,X,X  u d.= i ; i # i @   + .   @ i # i - i # f.y . ,X,X,X,X",
",X,X,X; j.s #   ,X,X- : f.*X*XR.e.w.8.q % . ,X,X,X= g f.; ,X,X,X",
",X,X; h = ,X,X,X  d.].>X>X>X:XU.9.9.5.6.X.9 0 X ,X,X,X= h ; ,X,X",
",X  j.= ,X,X,Xs  X>X>X>X-X*X*Xq.| | >.:.,.3.3.~ , ,X,X,X= j.  ,X",
",Xu s ,X,X,Xs >X>X>X:X%X.X X'.+.[ { { } } ;.;.{ ] * ,X,X,Xs u ,X",
",Xd.@ ,X,Xa /.>X>X%X%X X'.n.j.` ^ / ] { { } } } { ' t ,X,X# d.,X",
"; = ,X,Xa /.E.0.}.].'.n.d.g d.&.$.@.^ / ] { } ;.4.%X].t ,X,X= ; ",
"y u ,X# P.!.t.<.X.m.v.h v.].>X>X>X>X^.!.) ] { 4.;X:X%Xh.. ,Xu t ",
"- : ,Xf W.r.7.[ / _ p u.F Z Z.=X>X>X>X>X#X' X.:X>X>X-X'.u ,X: - ",
"t i - x.U.0...( ! 6 A N N M l R I I l.|.>X+Xz.:X>X>X>X Xd.# i y ",
"- - w W.t.2.[ ! 5 S B N N N M z C.J.H.P D.:X*Xv.:X>X>X%Xm.= # - ",
"y i O.E.r.<.] 2 r N N N N N l C.B.W U ).H G.>X'.].>X>X%XM.t i y ",
",X@ Q.U.9.| ( 2 r N N N N N B `.G E V.N.p.z G.].'.>X>X*X'.g + ,X",
",X. P.I.o.{ ~ 7 D N N N N N M _.G Q Q Z.i.M z OXh.>X>X*X'.h . ,X",
",XX L.I.3.[ ! 8 D N N M l l l i.G.G U ).V N l k.h.-X>X*X'.h   ,X",
",X  %X>X*X].z.e N N N y.=X:XT n H D.k.k l V L [.$.U.t.7.{ 4 . ,X",
",X. *X>X:X.Xm.y N N N N R a._.oXk.J i.S.G.|.H.{.-.E.r.6.] 3   ,X",
",X@ *X>X>X&XK.i.K F M M M M l J s._.[.S.T m b ~.$.T.0.,.( 2 @ ,X",
"y i h.>X>X-X Xj.H.`.T x N N N M l j l x M n G.^.e.t.q.| ( * i y ",
"- ; > >X>X:X%X].f.#X*Xp.c M N N N N M M m F.$X-.U.r.2.] ! O - - ",
"t i ; '.>X>X-X#X].g.+X>XS.Y v l l c C i.`.+X-.W.Y.q.>./ 1 o i y ",
"= - ,Xg *X>X>X*X.X=.+.#X>X=X_.A.Z.[.$X:X*Xb.(.t.r.3.] 4 & ,X; - ",
"y i ,X  m.:X>X+X2.,.8.+.!.^.>X>X>X>X].'.n.>X>XT.6. ./ 1 . ,Xj.y ",
"- = ,X,Xu %X*X3.} | 3.7.X.#.*.$.%.h.M.'.:X>X:X@X2.( 3 $ ,X,X# - ",
",Xf.# ,X,Xu X.;.} ;.| 1.7.7.0.r.W.>X>X>X:X*X%X Xn.6 $ ,X,X# f.,X",
",Xy h ,X,X,X< { } ;.} | >.1.6.q.Y.>X>X-X%X.X Xm.f.; ,X,X,Xg y ,X",
",X  d.= ,X,X,X* ! ] } } } { | | 8.-X.X.X].'.v.s ; ,X,X,X= f.. ,X",
",X,X; h = ,X,X,X  < 3 / ( / ( ( +.].'.M.v.g t . ,X,X,X= h ; ,X,X",
",X,X,X; j.s # ,X,X,X$ $ , 3 3 3 _ f.d.t = @ ,X,X,X# h f.; ,X,X,X",
",X,X,X,X  u d.= u ; u ; u @         @ i ; i ; i # f.y   ,X,X,X,X",
",X,X,X,X,X,X,X; y ; y - y ,X,X,X,X,X,Xt - y - y - ,X,X,X,X,X,X,X"
};
