/* XPM */
static char *magick[] = {
/* columns rows colors chars-per-pixel */
"34 34 57 1",
"  c #000000",
". c #110d10",
"X c #161516",
"o c #171817",
"O c #181918",
"+ c #232525",
"@ c #2f302f",
"# c #322f32",
"$ c #343434",
"% c #3b3b3b",
"& c #413f41",
"* c #605725",
"= c #7a6d2f",
"- c #444444",
"; c #484648",
": c #494949",
"> c #545454",
", c #5d5c5d",
"< c #636363",
"1 c #626b68",
"2 c #6d6d6d",
"3 c #747474",
"4 c #7a7b7a",
"5 c #857838",
"6 c #8e803d",
"7 c #928470",
"8 c #a9964c",
"9 c #a2937d",
"0 c #b7a354",
"q c #858585",
"w c gray54",
"e c gray57",
"r c #aba091",
"t c #bea481",
"y c #aaaaaa",
"u c #beb2a0",
"i c gray",
"p c #cfbe80",
"a c #c4b298",
"s c #cdb490",
"d c #c8b59a",
"f c #c5b7a0",
"g c #c6bbab",
"h c #c7bfb4",
"j c #ded09f",
"k c #c6c2b6",
"l c #dac5a7",
"z c #dcc7a9",
"x c #efe5be",
"c c gray79",
"v c #e3d5c0",
"b c #eedfc9",
"n c #e9e0d4",
"m c #f4ebde",
"M c #fbf9f4",
"N c #fcfcfc",
"B c None",
/* pixels */
"BBBBBBB                    BBBBBBB",
"BBBBBB 4422<<<,,>;;%-%%%%   BBBBBB",
"BBBBB 4ccccccccccccccccck&   BBBBB",
"BBBBB 4cbbbbbbbbbbbbbbbbk%   BBBBB",
"BBBBB 2cmmmmmmmmmmmmmmmmg%   BBBBB",
"BBBBB 2cMMMMMMMMMMMMMMMMf%   BBBBB",
"BBBB  2cNNNNNNNNNNNNNNNNf%    BBBB",
"B     2cNNNNNNNNNNNNNNNNa;       B",
" 88 <<3cNNNNNNNNNNNNNNNNa-2< 55   ",
"8jp q3%cMMMMMMMMMMMMMMMMt%>> pp5  ",
"8NN  .%%  nmmmmmmmmmmm  $$   NN8  ",
"8x5      ruvbbbbbbbbbbv      pp8  ",
"6j5 <<: 79dzzzzzzzzzzzza ;<< 885  ",
"6j5       4ssssssssss4OO     55   ",
"5p*       --;;;;::;:--OO          ",
"=8* OOOO                  OO      ",
"=5*qO        >yiiy>         q    B",
" * :O                       :   BB",
"    #;ww;;qw;;qw;-ww:;wq:,OO    BB",
"   OO0MN50NN50NN50NN=0NN5;,OO   BB",
"B qO&;00;;00;;00;;00;;00;;,O q   B",
"B :O;ww;;ww;-qw;;ww;;ww;;ww; :   B",
"B +O0MN50NN50NN50NM50MN50MN5 X   B",
"B +O-00--00--00-;00;;00-;00;OO   B",
"B +O,;ww;;ww--ww;-ww;;ww;;;OO.   B",
"B O1O0MN50NN50NN50NM50MN5;,OO.   B",
"B  1O;00;;00;;00;;00;;00;&OOO    B",
"B :1O,;&;,;;;,;;;,;;;,;;;, OO:   B",
"B  :OOO+@%;>,24qeq42<>;%@+OO:    B",
"B   :                      :     B",
"BB    w;                ;w      BB",
"BBB                            BBB",
"BBBB                          BBBB",
"BBBBBB                      BBBBBB"
};
