/* XPM */
static char *magick[] = {
/* columns rows colors chars-per-pixel */
"32 32 143 2",
"   c #616364",
".  c gray43",
"X  c #626a75",
"o  c #6e7070",
"O  c #747474",
"+  c #7e7e7e",
"@  c #00489f",
"#  c #0d50a2",
"$  c #175aa6",
"%  c #234f88",
"&  c #225eaa",
"*  c #3f5fac",
"=  c #2362ab",
"-  c #2b69ae",
";  c #2d72b4",
":  c #346eb2",
">  c #3b6bb1",
",  c #3373b5",
"<  c #3176b9",
"1  c #347ab8",
"2  c #3a73b5",
"3  c #3b7dbb",
"4  c #4b6f9e",
"5  c #547696",
"6  c #59749d",
"7  c #5c7b9b",
"8  c #4262ad",
"9  c #4566b0",
"0  c #496ab1",
"q  c #4077b7",
"w  c #4178b6",
"e  c #467cbb",
"r  c #4c70b4",
"t  c #4878b7",
"y  c #5176b6",
"u  c #5176b8",
"i  c #557bba",
"p  c #597cb6",
"a  c #587bba",
"s  c #787d82",
"d  c #3e82bd",
"f  c #4182bc",
"g  c #4d82bf",
"h  c #5c80a1",
"j  c #5483bd",
"k  c #538cbe",
"l  c #5b82bd",
"z  c #65819b",
"x  c #69839d",
"c  c #7e8082",
"v  c #6484a8",
"b  c #6885a0",
"n  c #6384b1",
"m  c #6588b2",
"M  c #7893ac",
"N  c #7494b2",
"B  c #7fa0b9",
"V  c #4389c1",
"C  c #5586c0",
"Z  c #558bc3",
"A  c #5f8cc1",
"S  c #5392c6",
"D  c #539dcd",
"F  c #5a92c6",
"G  c #5c99c9",
"H  c #5da2cf",
"J  c #5ca2d0",
"K  c #648bc2",
"L  c #6393c5",
"P  c #659ecc",
"I  c #6a94c6",
"U  c #6c96c9",
"Y  c #6d99c9",
"T  c #7395c6",
"R  c #729bca",
"E  c #789fcd",
"W  c #67a3ce",
"Q  c #68a0ce",
"!  c #62a5d1",
"~  c #6aa5d0",
"^  c #6aa9d2",
"/  c #74a0cd",
"(  c #78a1ce",
")  c #76a4d1",
"_  c #74acd4",
"`  c #7ea5d0",
"'  c #7aaad3",
"]  c #78b1d7",
"[  c #7bb2d8",
"{  c #868786",
"}  c #8c8c8b",
"|  c #8f9090",
" . c #939394",
".. c #9a9999",
"X. c #8597a4",
"o. c #8698ab",
"O. c #829bb0",
"+. c #91a2af",
"@. c #96a3bc",
"#. c #adadad",
"$. c #b1b1b1",
"%. c #bdbdbd",
"&. c #81a7d2",
"*. c #85a8d1",
"=. c #8da5d0",
"-. c #8cadd4",
";. c #85b2d6",
":. c #84b3d8",
">. c #8ab6d9",
",. c #8db9db",
"<. c #9fb8cb",
"1. c #93bddc",
"2. c #9bb5d0",
"3. c #a1bddc",
"4. c #bfbfc0",
"5. c #95c0de",
"6. c #98c0de",
"7. c #95c2e0",
"8. c #9bc5e1",
"9. c #9ec8e3",
"0. c #a0c1d8",
"q. c #a8c3df",
"w. c #b9c9d7",
"e. c #a0c9e4",
"r. c #abcce4",
"t. c #b4c4e0",
"y. c #b3cae3",
"u. c #b8cde5",
"i. c #bbd0e6",
"p. c #c0c0c1",
"a. c #cbcbcb",
"s. c #d0cfd0",
"d. c #dadada",
"f. c #c7d7ea",
"g. c #c6d9eb",
"h. c #ccdced",
"j. c #e4e4e4",
"k. c #eeeded",
"l. c #e2ebf4",
"z. c #ecf2f8",
"x. c #f4f4f4",
"c. c #f7fafc",
"v. c #fefefe",
/* pixels */
"* * 8 * * * * * * * * * * * * * * * * * * * * * * * * * * * * * ",
"8 8 8 8 8 8 8 8 8 8 8 8 8 8 8 9 8 8 8 8 8 8 8 8 * 8 8 8 8 * 8 8 ",
"8 8 0 8 0 0 8 8 8 0 0 8 8 8 0 8 8 0 9 9 8 0 0 8 8 0 8 0 0 8 8 0 ",
"0 0 0 0 0 0 0 0 0 0 0 0 0 0 0 0 0 0 0 8 0 0 0 0 0 0 0 0 0 0 0 0 ",
"r r r r 0 r r r r r r r r 0 r r r r r r r r r r r r r r 0 0 u 0 ",
"u u y u u u u u y y y y u y w.v.@.u y u y y y u u u y u u u u i ",
"a i i i i i i i a a a a =.t.v.j.{ p a i i i i i a a i i a i j i ",
"l l l l l l l l l l T v.c.j.a.%.o 6 l l l l l l l l l l l l l l ",
"K K K m m K A K K U v.{ X 7 | +   > i K K K K m K A m K A K K K ",
"K K I K I K K K K v.+ n j t 0   % & i K K L K K K K I K K K K K ",
"I U U U U I U U f.p.m j : - $ # @ & j L U I I U U U I I U U U U ",
"U U U U Y T T U x.o C : - 2 t - $ , K R U U U Y R U T Y T U U U ",
"R R R R R R R -.a.v q 2 C L L C t Z I R R R R R R *.E R Y Y R R ",
"R x.v.( E R E 1.k.j 2 Z Y R E Y U Y R ( ( ( E R E &.v.u.E E E E ",
"h.v.c.x.t.i.y.l.v.-.3.y.i.i.i.i.i.i.i.i.u.i.u.i.y.f.v.v.v.q.) E ",
"v.v.j.k.v.v.v.v.v.v.v.v.v.v.v.v.v.v.v.v.v.v.v.v.v.v.v.j.k.v.c.2.",
"v.d.j.#. .} } } } } } } ..4.$...} } } } } } | }  .%.d.j.#.O O M ",
"w.a.| O 7 x x z 7 7 z x x o.O x b x x x x x x x b o.#.O O 7 L R ",
") s O ; 1 3 3 3 1 2 3 3 3 3 s.3 3 3 3 3 3 3 3 3 3 f O 5 ; < d S ",
"' S 1 < 1 d f d f d d d d f v.M 3 f f V f 3 V f V j f 1 < 1 f F ",
"' P V d S P Q Q W Q P Q Q Q c.4.G Q Q Q Q Q Q Q Q P G V V S Q ' ",
":.;.P P ' -.;.;.>.;.;.;.:.;.1.v.<.;.;.;.;.;.;.:.:.;.' P ~ ' :.>.",
"1.,.;.;.>.,.,.,.,.,.1.>.1.,.;.x.x.r.,.,.1.z.g.,.1.>.>.;.:.:.,.1.",
"1.1.1.,.,.1.1.1.1.1.1.1.1.,.:.^ a.v.z.r.v.v.j.0.1.1.1.1.1.1.1.1.",
",.1.1.1.6.1.1.8.1.1.7.1.1.7.,.[ W { #.v.v.x.w.+.,.1.5.,.1.1.7.7.",
"8.1.6.6.8.1.8.1.7.7.6.6.6.6.1.,._ ! B  .%.j.{ B 1.1.8.1.8.1.6.6.",
"8.1.8.6.6.8.8.1.8.7.8.8.8.8.6.8.,.^ ^ _ B + c ^ ,.7.8.8.8.8.8.8.",
"8.8.9.8.9.8.8.9.8.8.8.8.8.8.8.8.8.,.] ^ ^ H J J :.8.8.8.8.8.6.8.",
"e.6.8.8.8.8.9.8.9.9.9.9.9.9.9.9.9.8.7.>.[ ^ J ^ ,.6.9.8.8.8.9.8.",
"e.e.e.e.e.9.e.e.9.9.9.9.9.9.9.9.9.9.9.8.7.7.[ [ 7.9.9.e.e.9.9.e.",
"e.e.e.e.e.e.e.e.e.e.e.e.9.9.e.e.e.e.9.9.9.9.8.9.9.9.e.e.e.e.e.e.",
"e.e.e.e.e.e.e.e.e.e.e.e.e.e.e.e.e.e.9.9.9.9.9.9.9.9.e.e.e.e.e.e."
};
