/* XPM */
static char *magick[] = {
/* columns rows colors chars-per-pixel */
"32 32 9 1",
"  c black",
". c #585858",
"X c blue",
"o c yellow",
"O c #808080",
"+ c #c3c3c3",
"@ c #ffffc0",
"# c white",
"$ c None",
/* pixels */
"$$$$$$$$$$$$$$$$$$$$$$$$$$$$$$$$",
"$$$$$$$$$$$$$$$$$$$$$$$$$$$$$$$$",
"$$$$$$$$$$$$$$$$$$$$       $$$$$",
"$$$$$$$$$$$$$$$$    ####### $$$$",
"$$$$$$$$$$$$    ########### $$$$",
"$$$$$$$$    ###O+#@#@#@#@#@ $$$$",
"$$$$    #@##@##O+@@@@@@@@@@ $$$$",
"$$$ .@@@@@@@@@#O+@@X@@@@@@@ $$$$",
"$$$ .@@@@@@@@@@O+@XX@@@@X@@ $$$$",
"$$$ .@@@@@@@@@@O+@@XX@o@o@o $$$$",
"$$$ .@@X@o@X@@XX+oXooXXX@o@ $$$$",
"$$$ .@XXo@@XoXoX+oXoXooXooo $$$$",
"$$$ .@oX@XoX@XoXXXoXoooXXoo $$$$",
"$$$ .o@XXXXooXXO+ooooooo... $$$$",
"$$$ .ooXXooooooO+ooo....### $$$$",
"$$$ .ooooooooooOO...####### $$$$",
"$$$ .ooooooo...O+########### $$$",
"$$$ .ooo....###O+###@@@@@@@# $$$",
"$$$ ....#######O+#@@@@@@@@@@ $$$",
"$$$ .##########.O@@@@@o@o@@@ $$$",
"$$$ .##@@@@@@@#.O@@o@o@o@@@o $$$",
"$$$ .@@@@@@@@@@.O@@@o@@@oo@@ $$$",
"$$$ .@@@o@o@o@@.O@@o@o@o@ooo $$$",
"$$$ .@@o@o@o@@@.O@o@ooooooo@ $$$",
"$$$ .@o@o@o@o@o.O@@@o@ooo@@o $$$",
"$$$ .@o@oo@o@o@.O@o@ooooooo@ $$$",
"$$$ .o@o@@@@o@o.O@@o@ooo    $$$$",
"$$$ .@@oooooooo.O@oo    $$$$$$$$",
"$$$ .oo@ooooooo.    $$$$$$$$$$$$",
"$$$ .@oooooo    $$$$$$$$$$$$$$$$",
"$$$ .o@o    $$$$$$$$$$$$$$$$$$$$",
"$$$$    $$$$$$$$$$$$$$$$$$$$$$$$"
};
