/* XPM */
static char *magick[] = {
/* columns rows colors chars-per-pixel */
"32 32 51 1",
"  c black",
". c #0c0c0c",
"X c #001515",
"o c #001e1f",
"O c #121211",
"+ c #1a1a1a",
"@ c #001f20",
"# c #002323",
"$ c #002728",
"% c #00292a",
"& c #2b2b28",
"* c #353534",
"= c #393939",
"- c #4e4e4c",
"; c #525254",
": c #5b5b5b",
"> c #007f80",
", c #008586",
"< c #008a8c",
"1 c #009092",
"2 c #009698",
"3 c #009b9e",
"4 c #00a0a4",
"5 c #00a6aa",
"6 c #00acb0",
"7 c #00b1b6",
"8 c #00b7bc",
"9 c #818182",
"0 c #9f9f9e",
"q c #9f9fa1",
"w c #a0a0a4",
"e c #adadac",
"r c #b2b2b4",
"t c #b5b5b8",
"y c #bbbbbb",
"u c #bfbfc1",
"i c #c5c385",
"p c #fef89f",
"a c #fef9a3",
"s c #fefaaa",
"d c #fefcb4",
"f c #fefdba",
"g c #c0c0c0",
"h c #c7c7c8",
"j c #cccccc",
"k c #d3d3d3",
"l c #d8d8d7",
"z c #dcdbda",
"x c #e6e6e4",
"c c #f2f2f4",
"v c #fefefe",
/* pixels */
"=======+ %%$$####@#@@oX+=======.",
"=vvvvvvv: 887654321<,> vvvvvvvv&",
"=vee-vee- 887654321<,> vee-vee-O",
"*vee-vee- 887654321<,> vee-vee-O",
".-------- 887654321<,, --------.",
"+                              +",
" gggggggggggggggggggggygggggggy ",
" gygggggggggggggggygggggggggggg ",
" gfffffffffffddddddddsdssssseev ",
" gffffffffdfddddddd idsssssseev ",
" ufffffffffdddd  d u i  issszzv ",
" hffffffdfdddd zv 9j9 vh isszzv ",
" ufffffffddddd 9zlkkjvh9 iaszzv ",
" uffffdffdddddd=wltehu9 iisszzv ",
" uffffffdddddd vky; eyew ssazzv ",
" ufffffdd ddd klje s ltyy iazzv ",
" gfff  d u d   9jhc ctr9.iiazzv ",
" yff zv 9j9 vh  xguktr:Oiisaeev ",
" gfd 9zllkjvh9 vtwytrwr9 iaaeev ",
" gfdi=qlyehg9  y9 9t9&9t iaaeev ",
" gdf vky; eytw   i 0 i  iiaaeev ",
" gd llje d lyjy iii iiiiipaazzv ",
" gdi 9jhc ctr: iisaiiaaaaapazzv ",
" gddi xhykrr9 iisssaasaaaaaazzv ",
" gdd vrwytrwt9 issaaaaaappapzzv ",
" gdd r9 9r9&9t iaassaaappappzzv ",
" gddi  i q i  iisaaaaaaaapppzzv ",
" gdddiiii iiiiiasaaaaaapppppzzv ",
" gsdsdsssiissassaaaaaappppppeev ",
" ydddsdsssssssaaasaaaaapppppeev ",
" gvvvvvvvvvvvvvvvvvvvvvvvvvvvvv ",
"                                "
};
