/* XPM */
static char *magick[] = {
/* columns rows colors chars-per-pixel */
"32 32 29 1",
"  c #000000",
". c gray20",
"X c #3e3e3e",
"o c #4e4e4e",
"O c #585858",
"+ c #6d6d6d",
"@ c #bebb00",
"# c #ccca19",
"$ c #d1cf06",
"% c #c8c62d",
"& c #c8c633",
"* c #ffff01",
"= c #ffff1a",
"- c #ffff2a",
"; c #ffff40",
": c #ffff4f",
"> c #ffff55",
", c #ffff78",
"< c #808080",
"1 c #a0a0a0",
"2 c #ffff9f",
"3 c #ffffaa",
"4 c #c3c3c3",
"5 c gray84",
"6 c gainsboro",
"7 c #ffffc2",
"8 c #ffffd4",
"9 c white",
"0 c None",
/* pixels */
"000000000000000000000000 0000000",
"00000000000000000000000 * 000000",
"00000000000000000000000 * 000000",
"00000000000000000000000 - 000000",
"000000000000000000  00 $>$ 00  0",
"00000000000000000 **   ,,,   ** ",
"000000000000000000 =;#&333&#;= 0",
"0000000000000000000 >,33832,> 00",
"00000000000000000000 %38983% 000",
"00000000000000000000 %38983% 000",
"0000000000000000000 :,27833,> 00",
"000000000000000000 =-#%333&#;* 0",
"00000000000000000 **   >>:   ** ",
"0000000000000000 9  1+ $-@ 00  0",
"000000000000000 9641++  * 000000",
"00000000000000 9651+O 0 * 000000",
"0000000000000 9641<+ 00 * 000000",
"000000000000 9641+O 0000 0000000",
"00000000000 9641+O 0000000000000",
"0000000000 6+41<+ 00000000000000",
"000000000 6++o+O 000000000000000",
"00000000 6<+oXX 0000000000000000",
"0000000 6++OX. 00000000000000000",
"000000 6<+oo. 000000000000000000",
"00000 5++oX. 0000000000000000000",
"0000 5<+oX. 00000000000000000000",
"000 6++OX. 000000000000000000000",
"00 5<+oo. 0000000000000000000000",
"0 6++oX. 00000000000000000000000",
" 6<+oo. 000000000000000000000000",
"6++oX. 0000000000000000000000000",
"<+oX. 00000000000000000000000000"
};
