/* XPM */
static char *magick[] = {
/* columns rows colors chars-per-pixel */
"32 32 25 1",
"  c black",
". c gray19",
"X c #004000",
"o c #004040",
"O c #400000",
"+ c #404000",
"@ c #585858",
"# c navy",
"$ c blue",
"% c #008000",
"& c #808000",
"* c #ffa858",
"= c #c0c000",
"- c yellow",
"; c #808080",
": c #a0a0a0",
"> c #8080ff",
", c #ffdca8",
"< c #c3c3c3",
"1 c #c0c0ff",
"2 c #c0ffff",
"3 c #ffc0c0",
"4 c #ffffc0",
"5 c white",
"6 c None",
/* pixels */
"66666666666666666666666666666666",
"66666666666666666666666666666666",
"666@  :666666<<<<<<:466666666666",
"66<5@  ;6666<@:555@$@:<466666666",
"66;<5@  :,:<$$$:5@>$$@@o<,666666",
"66+;<5@  o@o$;>$;$$#$$o#@@266666",
"66 +;<5o &&.@4$$$$$@$$$@@@@46666",
"66  o:;O:--o;$$$$$$$$$#@%@.@6666",
"66     :5<+:<$$$$$$$$$;;#@$#<666",
"66    =-<@5<<<@$$$$$$$;@####@666",
"66   &4=+<55::<$$$$$$$$@,:::;666",
"66  @*=.<<<55<:,$$$$$$#,*;:;:<66",
"66 @:;o:<:<<55::<@$$$$;<:;<@;%66",
"66 <; @::<:<<55<:<@$$$3<*<*&@@66",
"66:.XO@@::<:<<55<<:@$$;,,:@@@@66",
"666: @@;@::<:<<55<:<#$#:@@@%@+66",
"6661# +@@@::<:<<55<:<#$#%.$ @o66",
"666<## @@;@::<:<<55<:@$$$$$##+66",
"66661## +@@;:<:<@@;5<:$$$$$$#@66",
"6666: ## @@@@:<:  +<5<@$$$$$#666",
"6666<@###o.;@@::  o<55:#$$$$#266",
"66666; ##.o+@@@:;;@@<55;#$$#:666",
"666666@ ###%.@@@:<<;@<5:#$$#1666",
"6666666@###@:. @@:<5@@<5;$#16666",
"66666666@ ##@;%  @;:5@@<;#<66666",
"666666666@ ##;@## o;:5@@<<666666",
"6666666666;@ #@#@## .@5;@<666666",
"666666666666:@o      ;@;;@<66666",
"66                   .  . .  .66",
"66                            66",
"66666666666666666666666666666666",
"66666666666666666666666666666666"
};
