/* XPM */
static char *magick[] = {
/* columns rows colors chars-per-pixel */
"32 32 10 1",
"  c black",
". c #585858",
"X c #800000",
"o c #c05800",
"O c #808080",
"+ c #ffdca8",
"@ c #c3c3c3",
"# c #ffffc0",
"$ c white",
"% c None",
/* pixels */
"%%%%%%%%%%%%%%%%%%%%%%%%%%%%%%%%",
"%%%%%%%%%%%%%%     %%%%%%%%%%%%%",
"%%%%%          $$$          %%%%",
"%%%% OOOOOOOO $$$$$ OOOOOOOO %%%",
"%%%% O       $$   $$       O %%%",
"%%%% O $$$$ @@@@@@@@@ $$$$ O %%%",
"%%%% O $$$$ ......... $$$$ O %%%",
"%%%    $$$$           $$$$ O %%%",
"%% o## O$$$$$$$$$$$$$$$$$$ O %%%",
"%% o++# $$$$$$$$$$$$$$$$$$ O %%%",
"%%% o+# O$$$$$$$$$$$$$$$$$ O %%%",
"%%% o++# $$@@@@@@@@@@@$$$$ O %%%",
"%%%% o+# O$$$$$$$$$$$$$$$$ O %%%",
"%%%% o++# $@@@@@@@@@$$$$$$ O %%%",
"%%%%  o+# O$$$$$$$$$$$$$$$ O %%%",
"%%%%  o++# $$@@@@@@@@@$$$$ O %%%",
"%%%% O o+# O$$$$$$$$$$$$$$ O %%%",
"%%%% O o++# $@@@@@@@$$$$$$ O %%%",
"%%%% O  o+# O$$$$$$$$$$$$$ O %%%",
"%%%% O  o++# $@@@@@@@@@$$$ O %%%",
"%%%% O O o+# O$$$$$$$$$$$$ O %%%",
"%%%% O O o++# $$@@@@$$$$$$ O %%%",
"%%%% O $O o+# @$$$$$$$$$$$ O %%%",
"%%%% O $O o++# $$$$$$$$$$$ O %%%",
"%%%% O $$O o#$ $$$$$$$$$$$ O %%%",
"%%%% O $$O o+$X$$$$$$$$$$$ O %%%",
"%%%% O $$$O  XX$$$$$$$$$$$ O %%%",
"%%%% O $$$$OO  $$$$$$$$$$$ O %%%",
"%%%% O $$$$$$OO$$$$$$$$$$$ O %%%",
"%%%% O                     O %%%",
"%%%% OOOOOOOOOOOOOOOOOOOOOOO %%%",
"%%%%%                       %%%%"
};
