/* XPM */
static char *magick[] = {
/* columns rows colors chars-per-pixel */
"32 28 5 1",
"  c black",
". c #808080",
"X c gainsboro",
"o c white",
"O c None",
/* pixels */
"OOOOOOOOOOOOOOOOOOOOOOOOOOOOOOOO",
"OOOOOOOOOOOOOOOOOOOOOOOOOOOOOOOO",
"OOOOOOOOOOOOOOOOOOOOOOOOOOOOOOOO",
"OOOOOOOOOOOOOOOOOOOOOOOOOOOOOOOO",
"OOOOO      OOOOOOOO      OOOOOOO",
"OOO          OOOO          OOOOO",
"OO   XXooXX   OO   XXooXX   OOOO",
"O  XXooooooXX    XXooooooXX  OOO",
"O  XooooooooX    XooooooooX  OOO",
"  XooooooooooX  XooooooooooX  OO",
"  XooooooooooX  XooooooooooX  .O",
"  oooooooooooo  oooooooooooo  .O",
"  oooooooooooo  oooooooooooo  ..",
"  oooooooooooo  oooooooooooo  ..",
"  ooX  Xoooooo  ooX  Xoooooo  ..",
"  Xo    oooooX  Xo    oooooX  ..",
"  Xo    oooooX  Xo    oooooX  ..",
"O  XX  XooooX    XX  XooooX  ...",
"O  XXooooooXX    XXooooooXX  ...",
"OO   XXooXX   ..   XXooXX   ...O",
"OOO          ...O          ....O",
"OOOOO      ....OOOO      .....OO",
"OOOOOO........OOOOOO.........OOO",
"OOOOOOO.....OOOOOOOOOO.....OOOOO",
"OOOOOOOOOOOOOOOOOOOOOOOOOOOOOOOO",
"OOOOOOOOOOOOOOOOOOOOOOOOOOOOOOOO",
"OOOOOOOOOOOOOOOOOOOOOOOOOOOOOOOO",
"OOOOOOOOOOOOOOOOOOOOOOOOOOOOOOOO"
};
