/* XPM */
static char *magick[] = {
/* columns rows colors chars-per-pixel */
"32 32 14 1",
"  c black",
". c gray19",
"X c #004000",
"o c #404000",
"O c #008000",
"+ c #00c000",
"@ c #c05800",
"# c #808000",
"$ c #ffa858",
"% c #c0c000",
"& c yellow",
"* c #a0a0a0",
"= c white",
"- c None",
/* pixels */
"----------------------  --------",
"--------------------- &o -------",
"-------------------- &%%# ------",
"------------------- &%%%# ------",
"------------------ &%%%%# ------",
"------------------ &%%%% --   --",
"-   -------------- &%%%%#  &&& -",
"- $$    ----      #%%%%%%&&%%%# ",
"-   $$$$    @@@@@ #%#%%%%%%%%%# ",
"----    @@@@     #%##%%%%%%%#%# ",
"--------      ###%%%%#%%%%%#%%# ",
"-------- X-- #%%%%%%%%%%%##%%%# ",
"------- O - #%%%%%%%%%#%%%%%%%# ",
"------ +O - #%%%%%%%%%#%%%%%## -",
"------ + -- ### *%%%%%#%%%##  --",
"----- +OO --   - %%%%%%#%%%# ---",
"---- +OOO ----- #%%#%%%%#%%%# --",
"---- +OOO ---- #%#%%%%%%#%%%# --",
"--- +OOOOO -- #%%%%# %%%#%%%%# -",
"-- +OOOOOOO - #%%%# - %%%#%%%# -",
"-- +OOOOOOO - #%%%#  #%%%#%%%# -",
"- +OO+OOOOO - #%%# - #%%%#%%%# -",
" +OO+OOOOOOX  ###  - #%%%#%%%# -",
" +OO+OOOOOOX -   --- #%%%#%%%# -",
" +OOOOOOOOOX ------- #%%%#%%# --",
" +OOOOOOOOOX ------- #%%%%%%# --",
" +OOOOOOOOOX -------- #%%%%##---",
" +OOOXXOOOOX --------- #%%# ----",
"-oXOXOOXOOX ----------- ## -----",
"-- XXXXXXX.-------------  ------",
"---  XXo  ----------------------",
"-----   ------------------------"
};
