/* XPM */
static char *magick[] = {
/* columns rows colors chars-per-pixel */
"32 32 5 1",
"  c black",
". c #c05800",
"X c #ffa858",
"o c white",
"O c None",
/* pixels */
"OOOO                   OOOOOOOOO",
"OOO XXXXXXXXXXXXXXX ... OOOOOOOO",
"OOO X             X .... OOOOOOO",
"OO X   o      o  X ..... OOOOOOO",
"OO X   oo    oo  X ..... OOOOOOO",
"O X     oo  oo  X ...... OOOO  O",
"O X    oo    oo X ...... OOOO  O",
"O XX            X ...... OOOOO O",
"O XXXXXXXXXXXXXXX ...... OOOOO O",
"O XXXXXXXXXXXXXXX ...... OOOOO O",
"O XXXXXXXXXXXXXXX ...... O     O",
"O X             X ....... OOOOOO",
"O X XXXXXXXXXXX X ....... OOOOOO",
"O X XXXXXXXXXXX X ...... OOOOOOO",
"O X XXXXXXXXXXX X ...... OOOOOOO",
"O X XXXXXXXXXXX X ...... OOOOOOO",
"O X XXXXXXXXXXX X ......       O",
"O X X XXXXXXX X X ......        ",
"O X X XXXXXXX X X ......        ",
"O X X         X X ......        ",
"O X XXXXXXXXXXX X ......        ",
"O XXXXXXXXXXXXXXX .... .        ",
"O XXXXXXXXXXXXXXX ...  .        ",
"O XXXXXXXXXXXXXXX ..   .        ",
"O XX           XX .    .       O",
"O X             X .    .       O",
"O   oo            .          OOO",
"O   oo            .        OOOOO",
"O          OOOOO  .      OOOOOOO",
"O       OOOOOOOO  .    OOOOOOOOO",
"O     OOOOOOOOOO     OOOOOOOOOOO",
"O   OOOOOOOOOOOO  OOOOOOOOOOOOOO"
};
