/* XPM */
static char *magick[] = {
/* columns rows colors chars-per-pixel */
"32 32 39 1",
"  c black",
". c #082100",
"X c #004000",
"o c #5e3a15",
"O c #623c15",
"+ c #633c18",
"@ c #683f19",
"# c #6c4119",
"$ c #71421b",
"% c #79441a",
"& c #7d481c",
"* c #68a55a",
"= c #814b1e",
"- c #824a22",
"; c #894e20",
": c #8d5125",
"> c #964f22",
", c #935324",
"< c #9c5525",
"1 c #9c5929",
"2 c #a05727",
"3 c #a25b28",
"4 c #a4602a",
"5 c #d8e335",
"6 c #9f9f9f",
"7 c #a4a4a4",
"8 c #adadad",
"9 c #b5b5b5",
"0 c #bbbbbb",
"q c #c2c2c2",
"w c #cccccc",
"e c LightGray",
"r c #dcdcdc",
"t c #ffc0ff",
"y c #e3e3e3",
"u c #ebebeb",
"i c #f2f2f2",
"p c #fafafa",
"a c None",
/* pixels */
"aaaaaaaaa        aaaaaaaaaaaaaaa",
"aaaaaaa  wweuyw09  aaaaaaaaaaaaa",
"aaaaa  0ruuuuyyyrq0  aaaaaaaaaaa",
"aaaa 0ryiuiuuuuyyrr00 aaaaaaaaaa",
"aaa ruiiiiiiuuuyyyrre0 aaaaaaaaa",
"aa wruiipppiiiuuyyyrre7 aaaaaaaa",
"aa riipppppiiiuuuyrrrrw aaaaaaaa",
"a eiippppppiiiuuyyyrree8 aaaaaaa",
"a riiippppppiuuuyuyrrrrw aaaaaaa",
" wuiippppppiiiuuuyyyrree9 aaaaaa",
" ruuipppppiiiuuuyyrrreee0 aaaaaa",
" uuiipiiipiiiuuuyyrrreeeq aaaaaa",
" yuuuiiiiiiuiuuyyyrreeeee aaaaaa",
" uyuuiiuuiiuuuuyyrrrweeew aaaaaa",
" ruuuuuuuuuuuuyuyrrrweeeq aaaaaa",
" eyyuuuuuuuuyyyrrrrrwewe9 aaaaaa",
" qyyyyyuuyuyyyyyrrreweew8 aaaaaa",
"a ryyyyyyyyyyyrryrewwewq aaaaaaa",
"a wrryryyryrrrrrreewwww9 aaaaaaa",
"aa errrryryrrrrewwwwee08 aaaaaaa",
"aa 0rrerrrrrreeeweeww08  aaaaaaa",
"aaa werrrrreeeweewww09 $+ aaaaaa",
"aaaa 0qeeeeeeeeeeww07 $,&O aaaaa",
"aaaaa  qweeeeewww07  ;<<3&O aaaa",
"aaaaaaa  9qewwq87    %:<23&O aaa",
"aaaaaaaaa        aaaa #,2<>%o aa",
"aaaaaaaaaaaaaaaaaaaaaa #:113=+ a",
"aaaaaaaaaaaaaaaaaaaaaaa #,,,>%+ ",
"aaaaaaaaaaaaaaaaaaaaaaaa +-1,o a",
"aaaaaaaaaaaaaaaaaaaaaaaaa O&# aa",
"aaaaaaaaaaaaaaaaaaaaaaaaaa + aaa",
"aaaaaaaaaaaaaaaaaaaaaaaaaaa aaaa"
};
