/* XPM */
static char *magick[] = {
/* columns rows colors chars-per-pixel */
"32 32 143 2",
"   c #040305",
".  c #070709",
"X  c #060a0b",
"o  c #090709",
"O  c #0a0b0c",
"+  c #0b0e11",
"@  c #0d1214",
"#  c #0d1418",
"$  c #111214",
"%  c #12161a",
"&  c #14191c",
"*  c #191c1d",
"=  c #151c22",
"-  c #191d21",
";  c #1b2124",
":  c #1b242a",
">  c #1e282e",
",  c #1e2931",
"<  c #202325",
"1  c #212629",
"2  c #24292c",
"3  c #2a2c2d",
"4  c #232c32",
"5  c #292e32",
"6  c #253136",
"7  c #25333b",
"8  c #2c3134",
"9  c #29333b",
"0  c #313433",
"q  c #31363a",
"w  c #32393d",
"e  c #3a3c3d",
"r  c #293640",
"t  c #2c3943",
"y  c #2e3e4a",
"u  c #333c42",
"i  c #393e43",
"p  c #2f404c",
"a  c #374146",
"s  c #32414c",
"d  c #3a4044",
"f  c #3b444b",
"g  c #3f494d",
"h  c #344552",
"j  c #354953",
"k  c #384752",
"l  c #3b4a53",
"z  c #3a4d5a",
"x  c #3c515d",
"c  c #3d5362",
"v  c #424244",
"b  c #424649",
"n  c #42494c",
"m  c #424c52",
"M  c #424f58",
"N  c #484f55",
"B  c #455057",
"V  c #44525b",
"C  c #4d5152",
"Z  c #4a545b",
"A  c #4d585e",
"S  c #504f50",
"D  c #515455",
"F  c #515558",
"G  c #56595b",
"H  c #585758",
"J  c #5a5b5d",
"K  c #415563",
"L  c #425865",
"P  c #445b6b",
"I  c #495660",
"U  c #4b5963",
"Y  c #4a5e6b",
"T  c #525c63",
"R  c #515f69",
"E  c #5a5f64",
"W  c #4e616d",
"Q  c #4b6373",
"!  c #4c6678",
"~  c #4d687b",
"^  c #52626c",
"/  c #5e6062",
"(  c #58656e",
")  c #546671",
"_  c #546875",
"`  c #526b7b",
"'  c #586771",
"]  c #5b6a74",
"[  c #596c79",
"{  c #5d717d",
"}  c #665664",
"|  c #695664",
" . c #6c5966",
".. c #6f5f6d",
"X. c #735c6a",
"o. c #705e70",
"O. c #626364",
"+. c #636569",
"@. c #66696c",
"#. c #696a6c",
"$. c #60717d",
"%. c #6e7072",
"&. c #76606f",
"*. c #727373",
"=. c #757679",
"-. c #777a7e",
";. c #7b7c7d",
":. c #546e81",
">. c #547284",
",. c #597384",
"<. c #587588",
"1. c #5a798b",
"2. c #5b7990",
"3. c #637785",
"4. c #64768b",
"5. c #667885",
"6. c #637a89",
"7. c #6a7d8a",
"8. c #637d90",
"9. c #687f90",
"0. c #7d7e81",
"q. c #6e818e",
"w. c #6a8091",
"e. c #74828d",
"r. c #748490",
"t. c #ad090d",
"y. c #b40204",
"u. c #818383",
"i. c #86888a",
"p. c #8b8a8c",
"a. c #8b8f90",
"s. c #8f908f",
"d. c #8b949a",
"f. c #939494",
"g. c #90979d",
"h. c #94989a",
"j. c #989798",
"k. c #999b9a",
"l. c #9c9fa1",
"z. c #a5a5a5",
"x. c #a7a8a7",
"c. c #aeaeae",
"v. c gray71",
/* pixels */
"4.X.&...X.X.|  . .7.r.` ~ ~ ! Q Q Q P P P L L c x z z j j s k p ",
"o.y.y.y.y.y.y.y.t.7.e.` ~ ` Q Q P P P L L c c z z z j j j h s p ",
"4.&.o. . .| | | } 7.e.~ ! ! Q Q Y P P L c c c z z l j h h s h y ",
"g.g.d.g.g.d.d.d.d.d.6.! Q Q P P P L L L c x z z k j k h p y y y ",
"1.<.<.1.>.>.>.` ` ~ ! ! Q Q P P P L K c c z z j j j s s p y y t ",
"1.<.<.>.>.` ` ~ ~ ! ! P Q P P P L c z c z z z h k k s y p y t t ",
"<.<.>.:.:.:.~ ~ ~ Q Q Y P P P L c c c z z j h h h s s y y t t 9 ",
"<.<.<.:.:.` ~ ` ! Q Q Q P L L c K M c z z k j k k y y y y t t 9 ",
"1.q.w.1.,.:.` [ ` ` [ [ _ Y L L Y ^ Y U x V V L V l s u s z n f ",
") V V U { { R Y _ R M m N ' Y ^ U f f M V V g i i V l k m e w u ",
"^ %   % ^ 7.V U [ ' -   o m ] ( 5     i R U 3     4 I Z e     ; ",
"q.g .   u ] [ ` _ ] f O   4 ] ( 1   . m U U l O   O F A 9     2 ",
",.5.2     l 3.W Y ^ R -   . U R 1   . n V x g 8     e N u     2 ",
"` 6.^     * $._ P Y R f     u Z 9   o l V k f n     * n u     2 ",
"~ >.5.2     i $.^ U U ' O   + G 5     m V k i A ;   o q i     1 ",
"[ [ ^ ] -   @ I [ Y U ] 5   % ] 8   o f B k i T w o + b i     < ",
"{ ^ _ 3.m O   1 ] ' A $.g o 8 ) 5   o f Z m d A m % * C i     1 ",
"s 9 U [ Z - $ $ q f 8 l n g N B 1 + $ 8 l a ; u n 3 8 m 3 + O * ",
"m I I Y ) _ U m A V U l u C w g V V Z N s u w 8 9 w w 9 d v d i ",
"#.F s L K x t / C w l 9 d F ; 6 ; - 4 7 6 : * b ; % * & - ; ; - ",
"k.4 7 z l y 8 ;.5 > 7 ; S } & ; @.j.b ; ; 3 *.j.v v l.3 O 2 8 % ",
"O.J 4 7 w > 8 @./ : 2 b f.f.0.i.f.%.H @ 1 =.e ;.p.j.z.v b v.;.$ ",
"> F G ; O.0 ;.b b / * F c.H #.k.;.%.2 < *.d O s.j.0 j.*.#.z.S   ",
"3 3 f.3 u.f.s.v 3 %.w & %.5 & #.D 3 J =.2 $ $ j.0 * x.#.$ O.f.#.",
"+.i.;.* = & *./ u.%.4 : u : = d e.*./ ; & ; ; G O * 8 O O O * 3 ",
"w w 6 7 4 ; *.; 8 4 , 9 7 7 4 = 3 : & = : ; = = % % # @ % @ O O ",
"p p p p 6 b g : 7 7 9 t 7 7 4 4 > ; : : : ; = = * & % % # @ @ O ",
"l j j p > @.: 7 t t t 9 7 7 4 4 2 > : ; ; ; = & & & @ @ @ @ O O ",
"j j h t u D > 9 t 7 7 7 7 7 , , > : : : ; = & & % # @ @ @ O X X ",
"k s s 7 Z q 7 t r 9 7 7 , , , > : : ; = = = & % % @ @ @ O O X O ",
"h s s t 7 7 7 9 7 7 7 , 4 , : : ; ; ; & & & % # @ @ @ O O X O   ",
"s p p p t t t 7 7 6 7 4 , , : : ; ; ; = & % # @ @ @ O X O X     "
};
