/* XPM */
static char *magick[] = {
/* columns rows colors chars-per-pixel */
"32 32 13 1",
"  c black",
". c navy",
"X c blue",
"o c green",
"O c cyan",
"+ c red",
"@ c #ff8000",
"# c yellow",
"$ c #808080",
"% c #c3c3c3",
"& c #c0c0ff",
"* c white",
"= c None",
/* pixels */
"=                              =",
" ****************************** ",
" *%%%%%%%%%%%%%%%%%%%%%%%%%%%%$ ",
" *%$$$$$$$$$$$$$$$$$$$$$$$$$$%$ ",
" *%$........................*%$ ",
" *%$....X.X.....o...........*%$ ",
" *%$.@......................*%$ ",
" *%$@@..Xoooooooooooooooooo.*%$ ",
" *%$....X.X#.###O+++ooo.o...*%$ ",
" *%$.......#..#.....o.o.....*%$ ",
" *%$@@......................*%$ ",
" *%$........................*%$ ",
" *%$....X.X..#..#+..++..oo..*%$ ",
" *%$.......O.###.++.+.......*%$ ",
" *%$@@..XXXXXX############o.*%$ ",
" *%$........................*%$ ",
" *%$....X.X..oooo...........*%$ ",
" *%$@@......................*%$ ",
" *%$@@..XXXXXXXXXXooooooooo.*%$ ",
" *%$........................*%$ ",
" *%$....&..X....oo..........*%$ ",
" *%$.@......................*%$ ",
" *%$.@..ooooooooooooooooooo.*%$ ",
" *%$........................*%$ ",
" *%$....#.#.....#...........*%$ ",
" *%$......#.................*%$ ",
" *%$........................*%$ ",
" *%$........................*%$ ",
" *%**************************%$ ",
" *%%%%%%%%%%%%%%%%%%%%%%%%%%%%$ ",
" *$$$$$$$$$$$$$$$$$$$$$$$$$$$$$ ",
"=                              ="
};
