/* XPM */
static char *magick[] = {
/* columns rows colors chars-per-pixel */
"32 32 21 1",
"  c black",
". c gray19",
"X c #585858",
"o c navy",
"O c blue",
"+ c #008000",
"@ c #00c000",
"# c #c00000",
"$ c #c05800",
"% c #800080",
"& c #c000c0",
"* c #ff8000",
"= c #ffa858",
"- c #c0c000",
"; c yellow",
": c #a0a0a0",
"> c #ffdca8",
", c #c3c3c3",
"< c #ffc0ff",
"1 c white",
"2 c None",
/* pixels */
"22222222222222222222222222222222",
"22222222222222         222222222",
"222222222222  >>>>>>>>>  2222222",
"2222222222  >>1111111111> 222222",
"222222222 =>11##11ooo1111> 22222",
"2 *22222 =>11###11Oooo111> 22222",
"22 *222 =>11>###111OO11111> 2222",
"222 *2 =>1>;11>111>1111111> :222",
"2222 * >1>--->11>>11>1@@11> :222",
"22222 *>11---->>11>>1+++11> :222",
"22222  *>>--->11>>11>1+++1> :222",
"2222 *  *1>>11>>11>>11>111> :222",
"2222 =>$ *11>>11>>11>>11>1= :222",
"222 *>>>$ *>11>>11><<<>>11$ :222",
"222 =>11>$ *>>11>><%%%11>> X,222",
"22 *>>>>11$ *1>>11<&%%>>1= :2222",
"22 =>>11>>1$ *11>>11&%11>$ :2222",
"22 =>1>>11>>$ .:11>>11>>= X22222",
"2 *>>>>1>>11>$ ,1>11>>1=$ :22222",
"2 *>>>> >1>>11$ ,1>>11=$ :222222",
"2 *>>>   :>1>>1$ ,11>=$ :2222222",
"2 *>>   ::>>>1>>$ ,1=$ :22222222",
"2 *>>:::>>>>>>>1>$ ,1 :222222222",
"2 $=>>>>>>>>>>===$$ ,   22222222",
"2: $*========*$$$  :  .:  222222",
"2:  $$$$$$$$$$   X:22  :: 222222",
"22:X          X::2222  ..  22222",
"2222::::::::::22222222   . 22222",
"22222222222222222222222     2222",
"2222222222222222222222222    222",
"22222222222222222222222222222222",
"22222222222222222222222222222222"
};
