/* XPM */
static char *magick[] = {
/* columns rows colors chars-per-pixel */
"32 32 44 1",
"  c black",
". c #521111",
"X c #541a17",
"o c #541e19",
"O c #55241d",
"+ c #582d23",
"@ c #583327",
"# c #5a3328",
"$ c #5b3b2d",
"% c #6b3528",
"& c #5c4232",
"* c #5e4936",
"= c #5f4e3a",
"- c #60533e",
"; c #625c43",
": c #766f4f",
"> c #bd312a",
", c #b53930",
"< c #bd463a",
"1 c #c71e1e",
"2 c #cb2a26",
"3 c #c6342d",
"4 c #cd362e",
"5 c #c03d33",
"6 c #cd3d36",
"7 c #ce4237",
"8 c #cd4b3e",
"9 c #d0503f",
"0 c #d15140",
"q c #d45c49",
"w c #d66451",
"e c #d66a51",
"r c #d07255",
"t c #d87758",
"y c #db8462",
"u c #db8f6a",
"i c #dd906a",
"p c #e09f73",
"a c #e2a97b",
"s c #e4b885",
"d c #e7c48c",
"f c #ead195",
"g c #ebdf9e",
"h c None",
/* pixels */
"hhhhhhhhhhhhhhhhhhhhhhhhhhhhhhhh",
"hhhhhhhhhhhhhhhhhhhhhhhhhhhhhhhh",
"hhhhhhhhhhhhhhhhhhhhhhhhhhhhhhhh",
"hhhhhhhhhhhhhhhhhhhhhhhhhhhhhhhh",
"hhhhhhhhhhhhhhhhhhhhhhhhhhhhhhhh",
"hhhhhhhhhhhhhhhhhhhhhhhhhhhhhhhh",
"hhhhhhhgghhhhhhhhgghhggghhhhghhh",
"hhhhhhggg;hhhhhggg;;gggg;hhggghh",
"hhhhhhggg;hhhhgggg;ggggg;hgggg;h",
"hhhhhhggg;hhhgggg;ggggg;;hggg;;h",
"hhhhhhfff;hhffff;fffff;;hffff;hh",
"hhhhhhddd;hdddd;;h;ddd;hdddd;;hh",
"hhhhhhsss:ssss--hhsss--ssssssssh",
"hhhhhhaaaaaaa==hhhaaa=haaaaaaa=-",
"hhhhhhpppppp**hhhppp**hpppppp**h",
"hhhhhhiiiii&&hhhiiiu&hhhiii&&&hh",
"hhhhhyyyyy&%hhhyyyy$$hhyyy$$hhhh",
"hhhhttttt$$hhhttttr$hhhtt$$hhhhh",
"hhheeeeee@hhheeeee@@hheee#hhhhhh",
"hhqqqqqqq+hhqqqqqw+hhhqq+@hhhhhh",
"h0098<900+h099+900#hh00q+hhhhhhh",
"7775,O7777777OO7777%777O+hhhhhhh",
"243>oo444444Ooh4464444oohhhhhhhh",
"222XXh22222XXhhh22222XXhhhhhhhhh",
"111.hhh111..hhhhh111X.hhhhhhhhhh",
"h111hhhh...hhhhhhh...hhhhhhhhhhh",
"hh...hhhhhhhhhhhhhhhhhhhhhhhhhhh",
"hhhhhhhhhhhhhhhhhhhhhhhhhhhhhhhh",
"hhhhhhhhhhhhhhhhhhhhhhhhhhhhhhhh",
"hhhhhhhhhhhhhhhhhhhhhhhhhhhhhhhh",
"hhhhhhhhhhhhhhhhhhhhhhhhhhhhhhhh",
"hhhhhhhhhhhhhhhhhhhhhhhhhhhhhhhh"
};
