/* XPM */
static char *dates[] = {
/* width height num_colors chars_per_pixel */
"    32    32        4            1",
/* colors */
". c #000000",
"# c #ffffff",
"a c None",
"b c #828282",
/* pixels */
"aaaaaaaaaaaaaaaaaaaaaaaaaaaaaaaa",
"aaaaaaaaaaaaaaaaaaaaaaaaaaaaaaaa",
"aaaaa........................aaa",
"aaaaa.bbbbbbbbbbbbbbbbbbbbbb.aaa",
"aaaaa.bbbbbbbbbbbbbbbbbbbbbb.aaa",
"aaaaa........................aaa",
"aaaaa.######################.aaa",
"aaaaa.######################.aaa",
"aaaaa.######################.aaa",
"aaaaa.######################.aaa",
"aaaaa.###.######....###.####.aaa",
"aaaaa.###.######....###.####.aaa",
"aaaaa.#...######..#.###.#..#.aaa",
"aaaaa.#...######..#.###.#..#.aaa",
"aaaaa.###.#########.###.#..#.aaa",
"aaaaa.###.##...###..###....#.aaa",
"aaaaa.###.######..#######..#.aaa",
"aaaaa.###.######..#######..#.aaa",
"aaaaa.###.######..#######..#.aaa",
"aaaaa.#.....####....#####..#.aaa",
"aaaaa.######################.aaa",
"aaaaa.######################.aaa",
"aaaaa.######################.aaa",
"aaaaa.######################.aaa",
"aaaaa.##################.....aaa",
"aaaaa.##################.###.aaa",
"aaaaa.##################.###.aaa",
"aaaaa.##################.##.aaaa",
"aaaaa......................aaaaa",
"aaaaaaaaaaaaaaaaaaaaaaaaaaaaaaaa",
"aaaaaaaaaaaaaaaaaaaaaaaaaaaaaaaa",
"aaaaaaaaaaaaaaaaaaaaaaaaaaaaaaaa"
};
