#define brect_width 11
#define brect_height 11
static char brect_bits[] = {
   0x00, 0x00, 0xfe, 0x03, 0xfe, 0x03, 0xfe, 0x03, 0xfe, 0x03, 0xfe, 0x03,
   0xfe, 0x03, 0xfe, 0x03, 0xfe, 0x03, 0xfe, 0x03, 0x00, 0x00};
