#define point_width 11
#define point_height 11
static char point_bits[] = {
   0x00, 0x00, 0xf8, 0x00, 0xf8, 0x00, 0xf8, 0x00, 0xf8, 0x00, 0xfe, 0x03,
   0xfc, 0x01, 0xf8, 0x00, 0x70, 0x00, 0x20, 0x00, 0x00, 0x00};
