/* XPM */
static char * battery_xpm[] = {
"48 48 4 1",
"     c None",
".    c #8D8D8D",
"+    c #BDBDBD",
"@    c #949494",
"   .......................................      ",
"  ..+++++++++++++++++++++++++++++++++++++..     ",
" ..+@@@@@@@@@@@@@@@@@@@@@@@@@@@@@@@@@@@@@+..    ",
"..+@@...................................@@+..   ",
".+@@@...................................@@@+.   ",
".+@@@...................................@@@@... ",
".+@@@...................................@@@@.++.",
".+@@@...................................@@@@.@@.",
".+@@@...................................@@@@.@@.",
".+@@@...................................@@@@.@@.",
".+@@@...................................@@@@.@@.",
".+@@@...................................@@@@.@@.",
".+@@@...................................@@@@... ",
".+@@@...................................@@@@.   ",
"..@@@...................................@@@..   ",
" ..@@...................................@@..    ",
"  ..@@@@@@@@@@@@@@@@@@@@@@@@@@@@@@@@@@@@@..     ",
"   .......................................      ",
"                                                ",
"                                                ",
"                                                ",
"                                                ",
"                                                ",
"                                                ",
"                                                ",
"                                                ",
"                                                ",
"                                                ",
"                                                ",
"                                                ",
"                                                ",
"                                                ",
"                                                ",
"                                                ",
"                                                ",
"                                                ",
"                                                ",
"                                                ",
"                                                ",
"                                                ",
"                                                ",
"                                                ",
"                                                ",
"                                                ",
"                                                ",
"                                                ",
"                                                ",
"                                                "};
