/* XPM */
static char * tb_unknown_xpm[] = {
"24 24 9 1",
" 	c none s none",
".	c #444443",
"+	c #A4A4A4",
"@	c #767675",
"#	c #CFCFCF",
"$	c #5C5C5C",
"%	c #BDBDBD",
"&	c #8D8D8C",
"*	c #EBEBEC",
"        @....$.@%       ",
"       ..$$$$$...$      ",
"      ....$$@$$...&     ",
"     +..$.....$....&    ",
"     ..$@$$...&%#&.@    ",
"     $.@###%+#%##%..    ",
"     ..@##########@@    ",
"     $.&#########+..    ",
"     ..&%%#####%#+.@    ",
"     @$&&&@###@@&&$.    ",
"     .@%%@++#&&&%+&@    ",
"     +@#%+%&#%++%%@$    ",
"     $&%#%#+###%##+%    ",
"     %&%###+######&&    ",
"      +&%+&+#%%##+*     ",
"      #@+&@@@%#+&$      ",
"       $+&@&%+@+%+      ",
"       +++.+%+%#+@      ",
"       &%@.&%%#%+       ",
"     %  &.+&+%#+@       ",
"    &$$@.&&####+        ",
"    &&..+%@+++@+        ",
"    .$@@   %##*         ",
"    *$@%                "};
