#define ps_width 16
#define ps_height 16
static char ps_bits[] = {
   0x00, 0x00, 0x00, 0x00, 0x00, 0x00, 0x6c, 0x3c, 0xdc, 0x66, 0xcc, 0x0e,
   0xcc, 0x38, 0xcc, 0x70, 0xdc, 0x66, 0x6c, 0x3c, 0x0c, 0x00, 0x0c, 0x00,
   0x0c, 0x00, 0x00, 0x00, 0x00, 0x00, 0x00, 0x00};
