#define runman_width 16
#define runman_height 16
static char runman_bits[] = {
  0x00, 0x00, 0x60, 0x00, 0x64, 0x00, 0x44, 0x03, 0xf8, 0x05, 0xe0, 0x00, 
  0xc0, 0x00, 0xc0, 0x01, 0xc0, 0x09, 0x60, 0x17, 0x30, 0x02, 0x10, 0x00, 
  0x10, 0x00, 0x10, 0x00, 0x08, 0x00, 0x00, 0x00, };
