#define skull2_width 16
#define skull2_height 16
static char skull2_bits[] = {
  0xc3, 0xc3, 0xe3, 0xc7, 0xf0, 0x0f, 0x98, 0x19, 0x98, 0x19, 0xf0, 0x0f, 
  0xe0, 0x07, 0xc0, 0x03, 0xc2, 0x43, 0xc3, 0xc3, 0x84, 0x21, 0x38, 0x1c, 
  0xc0, 0x03, 0xf1, 0x8f, 0x7f, 0xf8, 0x02, 0x40, };
