/* XPM */
static char *floppy3[] = {
/* width height num_colors chars_per_pixel */
"    32    32        6            1",
/* colors */
". c #000000",
"# c #ffffff",
"a s None c None",
"b c #000082",
"c c #828282",
"d c #0000ff",
/* pixels */
"aaaaaaaaaaaaaaaaaaaaaaaaaaaaaaaa",
"aaaaaaaaaaaaaaaaaaaaaaaaaaaaaaaa",
"aaaaaaaaaaaaaaaaaaaaaaaaaaaaaaaa",
"aaddddddddddddddddddddddddddd..a",
"aaddddddddddddddddddddddddddd..a",
"aadbbb.bbbbbbbbbbbbbbbbbbddbb..a",
"aadbbb.bbbbbbbbbbbbbbbbbbddbb..a",
"aadbbb.bbbbbbbbbbbbbbbbbbddb...a",
"aadbbb.bbbbbbbbbbbbbbbbbbddb...a",
"aadbbb.bbbbbbbbbbbbbbbbbbddbb..a",
"aadbbb.bbbbbbbbbbbbbbbbbbddbb..a",
"aadbbb.bbbbbbbbbbbbbbbbbbddbb..a",
"aadbbb.bbbbbbbbbbbbbbbbbbddbb..a",
"aadbbb.bbbbbbbbbbbbbbbbbbddbb..a",
"aadbbb.bbbbbbbbbbbbbbbbbbddbb..a",
"aadbbb.bbbbbbbbbbbbbbbbbbddbb..a",
"aadbbb.ddddddddddddddddddddbb..a",
"aadbbb.ddddddddddddddddddddbb..a",
"aadbbbbbbbbbbbbbbbbbbbbbbbbbb..a",
"aadbbbbbbbbbbbbbbbbbbbbbbbbbb..a",
"aadbbbbbbb#############bbbbbb..a",
"aadbbbbbbb#############bbbbbb..a",
"aadbbbbbbb#############bbbbbb..a",
"aadbbbbbbb##bb#########bbbbbb..a",
"aadbbbbbbb##bb#########bbbbbb..a",
"aaaddbbbbb##bb#########bbbbbb..a",
"aaaddbbbbb##bb#########bbbbbb..a",
"aaaaadbbbb##bb#########bbbbbb..a",
"aaaaaad......................aaa",
"aaaaaaaaaaaaaaaaaaaaaaaaaaaaaaaa",
"aaaaaaaaaaaaaaaaaaaaaaaaaaaaaaaa",
"aaaaaaaaaaaaaaaaaaaaaaaaaaaaaaaa"
};
