/* XPM */
static char *new_acc[] = {
/* width height num_colors chars_per_pixel */
"    32    32        5            1",
/* colors */
". c #000000",
"# c #ffffff",
"a s None c None",
"b c #008200",
"c c #828282",
/* pixels */
"aaaaaaaaaaaaaaaaaaaaaaaaaaaaaaaa",
"aaaaaaaaaaaaaaaaaaaaaaaaaaaaaaaa",
"aaaaaaaaaaaaaaaa...caaaaaaaaaaaa",
"aaaaaaaaaaaaaaaa...caaaaaaaaaaaa",
"aaaaaaaaaaaaaaaa...caaaaaaaaaaaa",
"aaaaaaaaaaaaaaaa...caaaaaaaaaaaa",
"aaaaaaaaaa...............ccaaaaa",
"aaaaaaaaaa...............ccaaaaa",
"aaaaaaaaaa...............ccaaaaa",
"aaaaaaaaaacccccc...ccccccccaaaaa",
"aaaaaaaaaaaaaaaa...caaaaaaaaaaaa",
"aaaaaaaaaaaaaaaa...caaaaaaaaaaaa",
"aaaaaaaaaaaaaaaa...caaaaaaaaaaaa",
"aaaaaaaaaaaaaaaa...caaaaaaaaaaaa",
"aaaaaaaaaaaaaaaa...caaaaaaaaaaaa",
"aaaaaaaaaaaaaaaaccccaaaaaaaaaaaa",
"aaaaaaaaaaaaaaaaaaaaaaaaaaaaaaaa",
"aaaaaaaaaaaaaaaaaaaaaaaaaaaaaaaa",
"aaaaaa.........................a",
"aaaaaa.bbbbbbbbbbbbbbbbbbbbbb..a",
"aaaaaa.bbbbbbbbbbbbbbbbbbbbbb..a",
"aaaaaa.bbbbbbbbbbbbbbbbbbbbbb..a",
"aaaaaa.bbbbbbbbbbbbbbbbbbbbbb..a",
"aaaaaa.bbbbbbbbbbbbbbbbbbbbbb..a",
"aaaaaa.bbbbbbbbbbbbbbbbbbbbbb..a",
"aaaaaa.........................a",
"aaaaaa.........................a",
"aaaaa.#######################..a",
"aaa..#######################.aaa",
"aa..........................aaaa",
"aa..........................aaaa",
"aaaaaaaaaaaaaaaaaaaaaaaaaaaaaaaa"
};
