/* XPM */
static char *open[] = {
/* width height num_colors chars_per_pixel */
"    32    32        6            1",
/* colors */
". c #000000",
"# c #ffffff",
"a s None c None",
"b c #828200",
"c c #828282",
"d c #ffff00",
/* pixels */
"aaaaaaaaaaaaaaaaaaaaaaaaaaaaaaaa",
"aaaaaaaaaaaaaaaaaaaaaaaaaaaaaaaa",
"aaaaaaaaaaaaaaaaaaaaaaaaaaaaaaaa",
"aaaaaaaaaaaaaaaaaaaaaaaaaaaaaaaa",
"aaaaaaaaaaaaaaaaaaaaaaaaaaaaaaaa",
"aaa......aaaaaaaaaaaaaaaaaaaaaaa",
"aa.bbbbbb.aaaaaaaaaaaaaaaaaaaaaa",
"aa.bbbbbb...................aaaa",
"aa.bbbbbb...................aaaa",
"aa.bbbbbbbbbbbbbbbbbbbbbbbb.aaaa",
"aa.bbb..........................",
"aa.bbb..........................",
"aa.bbb.dddddddddddddddddddddddd.",
"aa.bbb.dddddddddddddddddddddddd.",
"aa.bb.ddddddddddddddddddddddd..a",
"aa.bb.ddddddddddddddddddddddd..a",
"aa.bb.ddddddddddddddddddddddd..a",
"aa.bb.ddddddddddddddddddddddd..a",
"aa...ddddddddddddddddddddddd.aaa",
"aa...ddddddddddddddddddddddd.aaa",
"aa...ddddddddddddddddddddddd.aaa",
"aa...ddddddddddddddddddddddd.aaa",
"aa...ddddddddddddddddddddddd.aaa",
"aa.dddddddddddddddddddddddd.aaaa",
"aa..........................aaaa",
"aaaaaaaaaaaaaaaaaaaaaaaaaaaaaaaa",
"aaaaaaaaaaaaaaaaaaaaaaaaaaaaaaaa",
"aaaaaaaaaaaaaaaaaaaaaaaaaaaaaaaa",
"aaaaaaaaaaaaaaaaaaaaaaaaaaaaaaaa",
"aaaaaaaaaaaaaaaaaaaaaaaaaaaaaaaa",
"aaaaaaaaaaaaaaaaaaaaaaaaaaaaaaaa",
"aaaaaaaaaaaaaaaaaaaaaaaaaaaaaaaa"
};
