/* XPM */
static char *plot_acc[] = {
/* width height num_colors chars_per_pixel */
"    32    32       14            1",
/* colors */
". c #000000",
"# c #ffffff",
"a c #ff0000",
"b s None c None",
"c c #820000",
"d c #008200",
"e c #828200",
"f c #000082",
"g c #008282",
"h c #828282",
"i c #00ff00",
"j c #ffff00",
"k c #0000ff",
"l c #ff00ff",
/* pixels */
"bbbbbb.........................b",
"bbbbbb.........................b",
"bbbbbb..dddddddddddddddddddddd.b",
"bbbbbb..dddddddddddddddddddddd.b",
"bbbbbb..dddddddddddddddddddddd.b",
"bbbbbb..dddddddddddddddddddddd.b",
"bbbbbb..dddddddddddddddddddddd.b",
"bbbbbb..dddddddddddddddddddddd.b",
"bbbbbb..dddddddddddddddddddddd.b",
"bbbbbb.........................b",
"bbbbbb.........................b",
"bbbbbb..######################.b",
"bbbbb.######################..bb",
"bbbbb.######################..bb",
"bbb..#######################..bb",
"bb..........................bbbb",
"bbbbbbbbbbbbbbbbbbbbbbbbbbbbbbbb",
"bbbbbbbbbbbbbbbbbbbbbbbbbbbbbbbb",
"bb.aaabbbfffbbbgggjjjbbbbbbdddbb",
"bb.aaabbbfffbbbgggjjjfffbbbdddbb",
"bb.aaabbbfffbbbgggjjjfffbbbdddbb",
"bb.aaalllfffbbbgggjjjfffaaadddbb",
"bb.aaalllfffbbbgggjjjfffaaadddbb",
"bb.aaalllfffbbbgggjjjfffaaadddbb",
"bb.aaalllfffbbbgggjjjfffaaadddbb",
"bb.aaalllfffdddgggjjjfffaaadddbb",
"bb.aaalllfffdddgggjjjfffaaadddbb",
"bb.aaalllfffdddgggjjjfffaaadddbb",
"bb.aaalllfffdddgggjjjfffaaadddbb",
"bb.aaalllfffdddgggjjjfffaaadddbb",
"bb.............................b",
"bbbbbbbbbbbbbbbbbbbbbbbbbbbbbbbb"
};
