/* XPM */
static char *print[] = {
/* width height num_colors chars_per_pixel */
"    32    32        7            1",
/* colors */
". c #000000",
"# c #ffffff",
"a s None c None",
"b c #820000",
"c c #828200",
"d c #828282",
"e c #ffff00",
/* pixels */
"aaaaaaaaaaaaaaaaaaaaaaaaaaaaaaaa",
"aaaaaaaaaaaaaaaaaaaaaaaaaaaaaaaa",
"aaaaaa...................aaaaaaa",
"aaaaaa.################.#..aaaaa",
"aaaaaa.################.#..aaaaa",
"aaaaaa.##.#############.###.aaaa",
"aaaaaa.################.....aaaa",
"aaaaaa.####################.aaaa",
"aaaaaa.####################.aaaa",
"aaaaaa.##.##############.##.aaaa",
"aaaaaa.####################.aaaa",
"aaaaaa.####################.aaaa",
"aaaaaa.####################.aaaa",
"aaaaaa.####################.aaaa",
"aaaaaa.##.##############.##.aaaa",
"aaaaaa.####################.aaaa",
"aaaaa........................aaa",
"aaaaa........................aaa",
"aaaaa.ccccccccccccccccccccce.aaa",
"aaaaa.cbbbbbccccccccccccccce.aaa",
"aaaaa.ccccccccccccccccccccce.aaa",
"aaaaa.ccccccccccccccccccccce.aaa",
"aaaaa.ccccccccccccccccccccce.aaa",
"aaaaa.ccccccccccccccccccccce.aaa",
"aaaaa.ccccccccccccccccccccce.aaa",
"aaaaaa.eeeeeeeeeeeeeeeeeeee.aaaa",
"aaaaaa.eeeeeeeeeeeeeeeeeeee.aaaa",
"aaaaaaa....................aaaaa",
"aaaaaaaaaaaaaaaaaaaaaaaaaaaaaaaa",
"aaaaaaaaaaaaaaaaaaaaaaaaaaaaaaaa",
"aaaaaaaaaaaaaaaaaaaaaaaaaaaaaaaa",
"aaaaaaaaaaaaaaaaaaaaaaaaaaaaaaaa"
};
