/* XPM */
static char *recur_trans[] = {
/* width height num_colors chars_per_pixel */
"    32    32        5            1",
/* colors */
". c #000000",
"# c #ffffff",
"a s None c None",
"b c #000082",
"c c #828282",
/* pixels */
"aaaaaaaaaaaaaaaaaaaaaaaaaaaaaaaa",
"aaaaaaaaaaaaaaaaaaaaaaaaaaaaaaaa",
"aaaaaaaaaaaaaaaaaaaaaaaaaaaaaaaa",
"aaaaaaaaaaaaaaa.aaaaaaaaaaaaaaaa",
"aaaaaaaaaaaaaaa.aaaaaaaaaaaaaaaa",
"aaaaaaaaaaaaaa....aaaaaaaaaaaaaa",
"aaaaaaaaaaaa..cc...aaaaaaaaaaaaa",
"aaaaaaaaaaaa..cacccaaaaaaaaaaaaa",
"aaaaaaaaaaaa..cacccaaaaaaaaaaaaa",
"aaaaaaaaaaaaaa..aaaaaaaaaaaaaaaa",
"aaaaaaaaaaaaaac...aaaaaaaaaaaaaa",
"aaaaaaaaaaaaaac...aaaaaaaaaaaaaa",
"aaaaaaaaaaaaaaaccc.aaaaaaaaaaaaa",
"aaaaaaaaaaaaaaaccc.aaaaaaaaaaaaa",
"aaaaaaaaaaaa...aaa.aaaaaaaaaaaaa",
"aaaaaaaaaaaacc....caaaaaaaaaaaaa",
"aaaaaaaaaaaaaac.ccaaaaaaaaaaaaaa",
"aaaaaaaaaaaaaac.ccaaaaaaaaaaaaaa",
"aaaaaaaaaaaaaaaaaaaaaaaaaaaaaaaa",
"bbbbbbbbbbbbbbbbbbbbbbbbbbbbbbbb",
"bb####.#####..##########...####b",
"bb####.#####..##########...####b",
"bb####.#####..##########...####b",
"bb###..###....#########.###.###b",
"bb####.#####..#############.###b",
"bb####.#####..#.....#####..####b",
"bb####.#####..#.....#####..####b",
"bb####.#####..##########.######b",
"bb####.#####..#########.#######b",
"bb###....#.....########.....###b",
"bb###....#.....########.....###b",
"bbbbbbbbbbbbbbbbbbbbbbbbbbbbbbbb"
};
