/* XPM */
static char *view_acc[] = {
/* width height num_colors chars_per_pixel */
"    32    32        6            1",
/* colors */
". c #000000",
"# c #ffffff",
"a s None c None",
"b c #008200",
"c c #000082",
"d c #828282",
/* pixels */
"aaaaaaaaaaaa..aa...aaaa.aaaaaaaa",
"aaaaaaaaaaaa..aa...aaaa.aaaaaaaa",
"aaaaa.a...aaaa.a..a....aa..aaaaa",
"aaaaa..aa....................aaa",
"aaaaa..aa....................aaa",
"aaaaaa....####dddd######...aaaaa",
"aaaaa..#####dddcddd########....a",
"aaa...####ddddccccdd########.dda",
"aaa...####ddddccccdd########.dda",
"aaaaad.#####dddcddd######...ddda",
"aaaaaad...####dddd##.....dddaaaa",
"aaaaaad...####dddd##.....dddaaaa",
"aaaaaaaddd..........dddddaaaaaaa",
"aaaaaaaddd..........dddddaaaaaaa",
"aaaaaaaaaaddddddddddaaaaaaaaaaaa",
"aaaaaaaaaaaaaaaaaaaaaaaaaaaaaaaa",
"aaaaaaaaaaaaaaaaaaaaaaaaaaaaaaaa",
"aaaaaaaaaaaaaaaaaaaaaaaaaaaaaaaa",
"aaaaaa.........................a",
"aaaaaa.bbbbbbbbbbbbbbbbbbbbbb..a",
"aaaaaa.bbbbbbbbbbbbbbbbbbbbbb..a",
"aaaaaa.bbbbbbbbbbbbbbbbbbbbbb..a",
"aaaaaa.bbbbbbbbbbbbbbbbbbbbbb..a",
"aaaaaa.bbbbbbbbbbbbbbbbbbbbbb..a",
"aaaaaa.bbbbbbbbbbbbbbbbbbbbbb..a",
"aaaaaa.........................a",
"aaaaaa.........................a",
"aaaaa.#######################..a",
"aaa..#######################.aaa",
"aa..........................aaaa",
"aa..........................aaaa",
"aaaaaaaaaaaaaaaaaaaaaaaaaaaaaaaa"
};
