/* XPM */
static char *view_trans[] = {
/* width height num_colors chars_per_pixel */
"    32    32        5            1",
/* colors */
". c #000000",
"# c #ffffff",
"a s None c None",
"b c #000082",
"c c #828282",
/* pixels */
"aaaaaaaaaaaa..aa...aaaa.aaaaaaaa",
"aaaaaaaaaaaa..aa...aaaa.aaaaaaaa",
"aaaaa.a...aaaa.a..a....aa..aaaaa",
"aaaaa..aa....................aaa",
"aaaaa..aa....................aaa",
"aaaaaa....####cccc######...aaaaa",
"aaaaa..#####cccbccc########....a",
"aaa...####ccccbbbbcc########.cca",
"aaa...####ccccbbbbcc########.cca",
"aaaaac.#####cccbccc######...ccca",
"aaaaaac...####cccc##.....cccaaaa",
"aaaaaac...####cccc##.....cccaaaa",
"aaaaaaaccc..........cccccaaaaaaa",
"aaaaaaaccc..........cccccaaaaaaa",
"aaaaaaaaaaaaccc...ccaaaaaaaaaaaa",
"aaaaaaaaaaaaaaa...aaaaaaaaaaaaaa",
"aaaaaaaaaaaaaa.....aaaaaaaaaaaaa",
"aaaaaaaaaaaaaa.....aaaaaaaaaaaaa",
"aaaaaaaaaaaa...ccc..aaaaaaaaaaaa",
"aaaaaaaaaaaa...aaaccaaaaaaaaaaaa",
"aaaaaaaaaaaacc..aaaaaaaaaaaaaaaa",
"aaaaaaaaaaaacc..aaaaaaaaaaaaaaaa",
"aaaaaaaaaaaacc..aaaaaaaaaaaaaaaa",
"aaaaaaaaaaaaaac...aaaaaaaaaaaaaa",
"aaaaaaaaaaaaaaac...aaaaaaaaaaaaa",
"aaaaaaaaaaaaaaaacc..aaaaaaaaaaaa",
"aaaaaaaaaaaaaaaacc..aaaaaaaaaaaa",
"aaaaaaaaaaaa...aaa..aaaaaaaaaaaa",
"aaaaaaaaaaaacc.....caaaaaaaaaaaa",
"aaaaaaaaaaaaaac...caaaaaaaaaaaaa",
"aaaaaaaaaaaaaac...caaaaaaaaaaaaa",
"aaaaaaaaaaaaaaa...aaaaaaaaaaaaaa"
};
