#define btn15x15_width 15
#define btn15x15_height 15
static unsigned char btn15x15_bits[] = {
   0x55, 0x55, 0xaa, 0x6a, 0x01, 0x60, 0x82, 0x60, 0xc1, 0x61, 0x82, 0x60,
   0x91, 0x64, 0xfa, 0x6f, 0x91, 0x64, 0x82, 0x60, 0xc1, 0x61, 0x82, 0x60,
   0x01, 0x60, 0xfe, 0x7f, 0xff, 0x7f};
