/* XPM */
static char * fileOpen_xpm[] = {
"24 24 5 1",
" 	s None",
".	c #00b2b2",
"X	c #007575",
"o	c #ffffff",
"O	c #00ffff",
"                        ",
"            .X          ",
"           oo.X         ",
"          oooo.X        ",
"        .ooXoXo.X       ",
"     .O.ooXoooXo.X      ",
"     O.ooXoXoXooo.XOOO  ",
"     .ooooXooooooo.XOOX ",
"   ...............o.XOX ",
" OOOOOOOOOOOOOOOOOXo.XX ",
" .O.O.O.O.O.O.O.O.Xoo.X ",
" O.O.O.O.O.O.O.O.O.Xoo. ",
"  O.O.O.O.O.O.O.O.OXo.X ",
"  .O.O.O.O.O.O.O.O..XXX ",
"  O.O.O.O.O.O.O.O.O.XOX ",
"   O.O.O.O.O.O.O.O.OXOX ",
"   .O.O.O.O.O.O.O.O..XX ",
"   O.O.O.O.O.O.O.O.O.XX ",
"    O.O.O.O.O.O.O.O.OXX ",
"    .O.O.O.O.O.O.O.O..X ",
"    OOOOOOOOOOOOOOOOOOX ",
"     XXXXXXXXXXXXXXXXX  ",
"                        ",
"                        "};
