#define filePrint_width 24
#define filePrint_height 24
static unsigned char filePrint_bits[] = {
 0x00,0x00,0x00,0x00,0x00,0x00,0x80,0xff,0x00,0x40,0x00,0x01,0x40,0x54,0x01,
 0x40,0x28,0x01,0x40,0x00,0x11,0x40,0x00,0x2f,0x40,0xff,0x17,0xe0,0xaa,0x0b,
 0x50,0xd5,0x07,0x18,0xff,0x1f,0x64,0x39,0x1f,0xfc,0xd0,0x1f,0xec,0xff,0x3f,
 0x0c,0x00,0x3f,0x4c,0x15,0x1f,0xac,0x6a,0x0f,0xf8,0x3f,0x07,0x00,0xff,0x03,
 0x00,0x00,0x00,0x00,0x00,0x00,0x00,0x00,0x00,0x00,0x00,0x00};
