#define helpContext_width 24
#define helpContext_height 24
static unsigned char helpContext_bits[] = {
 0x00,0x00,0x00,0x00,0x00,0x00,0x00,0x00,0x00,0x00,0x00,0x00,0x00,0x7c,0x00,
 0x00,0xfe,0x00,0x00,0xff,0x01,0x80,0xc7,0x01,0x80,0xc3,0x01,0x80,0xc7,0x01,
 0x00,0xe6,0x01,0x00,0xfc,0x00,0x00,0x7c,0x00,0x00,0x3c,0x00,0x00,0x2c,0x00,
 0x00,0xee,0x00,0x00,0xef,0x00,0x00,0x6c,0x00,0x00,0x38,0x00,0x00,0x10,0x00,
 0x00,0x00,0x00,0x00,0x00,0x00,0x00,0x00,0x00,0x00,0x00,0x00};
