/* XPM */
static char *helpContext_i_xpm[] = {
/* width height num_colors chars_per_pixel */
"    24    24        5            1",
/* colors */
". s None",
"# c #000000",
"a c #4c4c4c",
"b c #747474",
"c c #a7a7a7",
/* pixels */
"........................",
"........................",
"........................",
"..........#####.........",
".........#ccccc#........",
"........#cbbbbbc#.......",
".......#cbbbbbbbc#......",
"......#cbbbaaabbba#.....",
"......#cbba###cbba#.....",
"......#cbbba##cbba#.....",
".......#abba#cbbba#.....",
"........#acccbbba#......",
".........#cbbbba#.......",
".........#cbbba#........",
".........#cbaba#........",
"........#ccbabcc#.......",
".......#cbbbabbba#......",
"........#abbabba#.......",
".........#abbba#........",
"..........#aba#.........",
"...........#a#..........",
"............#...........",
"........................",
"........................"
};
