#define magstepIncr_width 24
#define magstepIncr_height 24
static unsigned char magstepIncr_bits[] = {
 0x00,0x00,0x00,0x00,0x00,0x00,0x00,0x00,0x00,0x00,0x3c,0x00,0x00,0x7e,0x00,
 0x00,0x7e,0x00,0x00,0x7e,0x00,0x00,0x7e,0x00,0x00,0x7e,0x00,0xf0,0xff,0x0f,
 0xf8,0xff,0x1f,0xf8,0xff,0x1f,0xf8,0xff,0x1f,0xf8,0xff,0x1f,0xf0,0xff,0x0f,
 0x00,0x7e,0x00,0x00,0x7e,0x00,0x00,0x7e,0x00,0x00,0x7e,0x00,0x00,0x7e,0x00,
 0x00,0x3c,0x00,0x00,0x00,0x00,0x00,0x00,0x00,0x00,0x00,0x00};
