/* XPM */
static char *markAll_i_xpm[] = {
/* width height num_colors chars_per_pixel */
"    24    24        5            1",
/* colors */
". s None",
"# c #000000",
"a c #4c4c4c",
"b c #747474",
"c c #a7a7a7",
/* pixels */
"......#######....#......",
".....#ccccccc#..#c#.....",
".....#ccbcbca#..#c#.....",
".....#cbcbcba#..#c#.....",
".....#caaaaaa#..#c#.....",
"......#######....#......",
"......#######...##......",
".....#ccccccc#.#cc#.....",
".....#ccbcbca#..##c#....",
".....#cbcbcba#..#c#.....",
".....#caaaaaa#.#ccc#....",
"......#######...###.....",
"......#######...##......",
".....#ccccccc#.#cc#.....",
".....#ccbcbca#..#cc#....",
".....#cbcbcba#..##c#....",
".....#caaaaaa#.#cc#.....",
"......#######...##......",
"......#######....#......",
".....#ccccccc#..#c#.....",
".....#ccbcbca#.#cc#.....",
".....#cbcbcba#..#c#.....",
".....#caaaaaa#..#c#.....",
"......#######....#......"
};
