/* XPM */
static char * markNone_xpm[] = {
"24 24 4 1",
" 	s None",
"@	c #000000",
"#	c #007575",
"$	c #00B2B2",
"      @@@@@@@    @      ",
"     @#$#$#$#@  @$@     ",
"     @$#$#$#$@  @$@     ",
"     @#$#$#$#@  @$@     ",
"     @$#$#$#$@  @$@     ",
"      @@@@@@@    @      ",
"      @@@@@@@   @@      ",
"     @#$#$#$#@ @$$@     ",
"     @$#$#$#$@  @@$@    ",
"     @#$#$#$#@  @$@     ",
"     @$#$#$#$@ @$$$@    ",
"      @@@@@@@   @@@     ",
"      @@@@@@@   @@      ",
"     @#$#$#$#@ @$$@     ",
"     @$#$#$#$@  @$$@    ",
"     @#$#$#$#@  @@$@    ",
"     @$#$#$#$@ @$$@     ",
"      @@@@@@@   @@      ",
"      @@@@@@@    @      ",
"     @#$#$#$#@  @$@     ",
"     @$#$#$#$@ @$$@     ",
"     @#$#$#$#@  @$@     ",
"     @$#$#$#$@  @$@     ",
"      @@@@@@@    @      "};
