/* XPM */
static char *markOdd_i_xpm[] = {
/* width height num_colors chars_per_pixel */
"    24    24        5            1",
/* colors */
". s None",
"# c #000000",
"a c #4c4c4c",
"b c #747474",
"c c #a7a7a7",
/* pixels */
"......#######....#......",
".....#ccccccc#..#c#.....",
".....#ccbcbca#..#c#.....",
".....#cbcbcba#..#c#.....",
".....#caaaaaa#..#c#.....",
"......#######....#......",
"......#######...##......",
".....#abababa#.#bb#.....",
".....#bababab#..##b#....",
".....#abababa#..#b#.....",
".....#bababab#.#bbb#....",
"......#######...###.....",
"......#######...##......",
".....#ccccccc#.#cc#.....",
".....#ccbcbca#..#cc#....",
".....#cbcbcba#..##c#....",
".....#caaaaaa#.#cc#.....",
"......#######...##......",
"......#######....#......",
".....#abababa#..#b#.....",
".....#bababab#.#bb#.....",
".....#abababa#..#b#.....",
".....#bababab#..#b#.....",
"......#######....#......"
};
