#define pagePrev_width 24
#define pagePrev_height 24
static unsigned char pagePrev_bits[] = {
 0x00,0x00,0x00,0x00,0x08,0x00,0x00,0x1c,0x00,0x00,0x1e,0x00,0x00,0x3f,0x00,
 0x80,0x3f,0x00,0xc0,0x3f,0x00,0xe0,0x3f,0x00,0xf0,0x3f,0x00,0xf8,0xff,0x1f,
 0xfc,0xff,0x3f,0xfe,0xff,0x7f,0xfe,0xff,0x7f,0xfc,0xff,0x3f,0xf8,0xff,0x1f,
 0xf0,0x3f,0x00,0xe0,0x3f,0x00,0xc0,0x3f,0x00,0x80,0x3f,0x00,0x00,0x3f,0x00,
 0x00,0x1e,0x00,0x00,0x1c,0x00,0x00,0x08,0x00,0x00,0x00,0x00};
