#define pageNext_width 24
#define pageNext_height 24
static unsigned char pageNext_bits[] = {
 0x00,0x00,0x00,0x00,0x10,0x00,0x00,0x38,0x00,0x00,0x78,0x00,0x00,0xfc,0x00,
 0x00,0xfc,0x01,0x00,0xfc,0x03,0x00,0xfc,0x07,0x00,0xfc,0x0f,0xf8,0xff,0x1f,
 0xfc,0xff,0x3f,0xfe,0xff,0x7f,0xfe,0xff,0x7f,0xfc,0xff,0x3f,0xf8,0xff,0x1f,
 0x00,0xfc,0x0f,0x00,0xfc,0x07,0x00,0xfc,0x03,0x00,0xfc,0x01,0x00,0xfc,0x00,
 0x00,0x78,0x00,0x00,0x38,0x00,0x00,0x10,0x00,0x00,0x00,0x00};
