#define	micon_width	63
#define	micon_height	63
static unsigned char micon_bits[]={
	0x00,0x00,0x00,0x00,0x00,0x00,0x00,0x00,0x00,0x00,0x00,0x00,
	0x00,0x00,0x00,0x00,0x00,0x00,0x00,0x00,0xfc,0xff,0x07,0x00,
	0x00,0x00,0x00,0x00,0xff,0xff,0x3f,0x00,0x00,0x00,0x00,0x80,
	0xfb,0x5a,0x7b,0x00,0x00,0x00,0x00,0xc0,0xb7,0xd5,0xdb,0x00,
	0x00,0x00,0x00,0xe0,0x73,0xbb,0xee,0x00,0x00,0x00,0x00,0xb0,
	0xd7,0x6b,0xbb,0x01,0x00,0x00,0x00,0xf0,0xff,0x7e,0xff,0x03,
	0x00,0x00,0x00,0xf8,0xfe,0x6f,0xef,0x06,0x00,0x00,0x00,0xf8,
	0xbd,0xff,0x7d,0x0f,0x00,0x00,0x00,0xbc,0xf7,0xfb,0x2f,0x1f,
	0x00,0x00,0x00,0xfc,0x5a,0xbf,0x01,0x17,0x00,0x00,0x00,0x6c,
	0xa9,0x7e,0x00,0x17,0x00,0x00,0x00,0xbc,0x00,0x0a,0x00,0x16,
	0x00,0x00,0x00,0x7e,0x01,0x00,0x00,0x16,0x00,0x00,0x00,0xba,
	0x00,0x00,0x04,0x14,0x00,0x00,0x00,0x6e,0x44,0x40,0x10,0x16,
	0x00,0x00,0x06,0xbc,0x00,0x04,0x80,0x1c,0x00,0x00,0x09,0xbe,
	0x00,0x00,0x00,0x16,0x00,0x80,0x10,0x7c,0x10,0x20,0x00,0x1e,
	0x00,0x40,0x08,0xac,0x80,0x00,0x82,0x16,0x00,0x20,0x04,0xbc,
	0x00,0x02,0x08,0x1e,0x00,0x10,0x04,0x5c,0x0a,0x00,0x80,0x16,
	0x00,0x48,0x09,0x7c,0x3e,0x20,0x3f,0x3c,0x00,0x04,0x08,0x34,
	0x61,0x00,0xeb,0x1c,0x00,0x04,0x38,0x5c,0xd0,0x84,0x80,0x14,
	0x00,0xc4,0x48,0x2c,0x4a,0xc1,0x12,0x19,0x00,0xc4,0xc0,0x2c,
	0x98,0xb0,0x86,0x1c,0x00,0x02,0x00,0x5d,0x08,0x21,0x26,0x08,
	0x0c,0x01,0x00,0xba,0x20,0x02,0x01,0x1c,0x92,0x00,0x00,0x8e,
	0x0a,0x01,0x14,0x08,0xe4,0x00,0x00,0xe0,0x00,0x01,0x80,0x08,
	0x02,0x00,0x00,0x00,0x01,0x01,0x00,0x0a,0x0c,0x00,0x00,0xc0,
	0x10,0x89,0x00,0x04,0x08,0x0c,0x00,0x9c,0x00,0x00,0x02,0x08,
	0xd0,0x0b,0x00,0x7b,0x82,0x01,0x08,0x01,0x20,0x10,0x00,0x42,
	0x50,0x10,0x01,0x00,0x00,0x0c,0x00,0xc4,0xa8,0x41,0x80,0x00,
	0x00,0x02,0x00,0x48,0xc4,0x1a,0xc4,0x00,0x00,0x02,0x00,0xa8,
	0x53,0x0b,0xb0,0x00,0x00,0x02,0x00,0x64,0x69,0x05,0x89,0x00,
	0x00,0x04,0x00,0x43,0xb1,0x65,0x87,0x00,0x00,0x08,0x80,0x40,
	0x29,0x05,0x93,0x00,0x00,0x10,0x80,0x40,0x61,0x00,0x41,0x00,
	0x00,0x60,0x80,0x00,0xd2,0x41,0x80,0x00,0x00,0x80,0x00,0x81,
	0xe0,0x35,0x40,0x00,0x00,0x00,0x01,0x01,0x62,0x01,0x20,0x00,
	0x00,0x00,0x02,0x81,0xf8,0x40,0x24,0x00,0x00,0x00,0x1c,0x01,
	0x38,0x2b,0x10,0x00,0x00,0x00,0x20,0x01,0x1c,0x05,0x10,0x00,
	0x00,0x00,0xc0,0x00,0xce,0x00,0x08,0x00,0x00,0x00,0x00,0x16,
	0x27,0x20,0x00,0x00,0x00,0x00,0x00,0xb3,0x4f,0x80,0x04,0x00,
	0x00,0x00,0x00,0xf8,0x6b,0x00,0x02,0x00,0x00,0x00,0x00,0x6a,
	0xa1,0x8e,0x01,0x00,0x00,0x00,0x80,0xf7,0xa0,0x6a,0x00,0x00,
	0x00,0x00,0x80,0xeb,0x00,0x10,0x00,0x00,0x00,0x00,0x00,0x77,
	0x00,0x00,0x00,0x00,0x00,0x00,0x00,0x2b,0x00,0x00,0x00,0x00,
	0x00,0x00,0x00,0x1e,0x00,0x00,0x00,0x00,0x00,0x00,0x00,0x04,
	0x00,0x00,0x00,0x00,0x00,0x00,0x00,0x00,0x00,0x00,0x00,0x00,
};
